%TF.GenerationSoftware,KiCad,Pcbnew,(6.0.11-0)*%
%TF.CreationDate,2023-03-27T22:19:29-07:00*%
%TF.ProjectId,LED,4c45442e-6b69-4636-9164-5f7063625858,rev?*%
%TF.SameCoordinates,Original*%
%TF.FileFunction,Paste,Top*%
%TF.FilePolarity,Positive*%
%FSLAX46Y46*%
G04 Gerber Fmt 4.6, Leading zero omitted, Abs format (unit mm)*
G04 Created by KiCad (PCBNEW (6.0.11-0)) date 2023-03-27 22:19:29*
%MOMM*%
%LPD*%
G01*
G04 APERTURE LIST*
G04 Aperture macros list*
%AMRoundRect*
0 Rectangle with rounded corners*
0 $1 Rounding radius*
0 $2 $3 $4 $5 $6 $7 $8 $9 X,Y pos of 4 corners*
0 Add a 4 corners polygon primitive as box body*
4,1,4,$2,$3,$4,$5,$6,$7,$8,$9,$2,$3,0*
0 Add four circle primitives for the rounded corners*
1,1,$1+$1,$2,$3*
1,1,$1+$1,$4,$5*
1,1,$1+$1,$6,$7*
1,1,$1+$1,$8,$9*
0 Add four rect primitives between the rounded corners*
20,1,$1+$1,$2,$3,$4,$5,0*
20,1,$1+$1,$4,$5,$6,$7,0*
20,1,$1+$1,$6,$7,$8,$9,0*
20,1,$1+$1,$8,$9,$2,$3,0*%
G04 Aperture macros list end*
%ADD10RoundRect,0.225000X0.225000X0.250000X-0.225000X0.250000X-0.225000X-0.250000X0.225000X-0.250000X0*%
%ADD11RoundRect,0.135000X0.135000X0.185000X-0.135000X0.185000X-0.135000X-0.185000X0.135000X-0.185000X0*%
%ADD12RoundRect,0.140000X0.140000X0.170000X-0.140000X0.170000X-0.140000X-0.170000X0.140000X-0.170000X0*%
%ADD13R,2.000000X1.500000*%
%ADD14R,2.000000X3.800000*%
%ADD15RoundRect,0.218750X-0.218750X-0.256250X0.218750X-0.256250X0.218750X0.256250X-0.218750X0.256250X0*%
%ADD16RoundRect,0.135000X-0.135000X-0.185000X0.135000X-0.185000X0.135000X0.185000X-0.135000X0.185000X0*%
%ADD17RoundRect,0.225000X-0.225000X-0.250000X0.225000X-0.250000X0.225000X0.250000X-0.225000X0.250000X0*%
%ADD18R,1.000000X1.700000*%
%ADD19RoundRect,0.140000X-0.140000X-0.170000X0.140000X-0.170000X0.140000X0.170000X-0.140000X0.170000X0*%
%ADD20R,1.500000X0.900000*%
%ADD21R,0.900000X1.500000*%
%ADD22R,1.050000X1.050000*%
%ADD23RoundRect,0.150000X-0.150000X0.825000X-0.150000X-0.825000X0.150000X-0.825000X0.150000X0.825000X0*%
%ADD24R,0.600000X1.160000*%
%ADD25R,0.300000X1.160000*%
G04 APERTURE END LIST*
D10*
%TO.C,C2*%
X97816000Y-63500000D03*
X96266000Y-63500000D03*
%TD*%
D11*
%TO.C,R4*%
X102797231Y-108978000D03*
X101777231Y-108978000D03*
%TD*%
D12*
%TO.C,C1*%
X101837000Y-68326000D03*
X100877000Y-68326000D03*
%TD*%
D13*
%TO.C,U4*%
X90576000Y-78980000D03*
D14*
X96876000Y-81280000D03*
D13*
X90576000Y-81280000D03*
X90576000Y-83580000D03*
%TD*%
D15*
%TO.C,D3*%
X87040000Y-63500000D03*
X88615000Y-63500000D03*
%TD*%
D16*
%TO.C,R7*%
X101101000Y-73202800D03*
X102121000Y-73202800D03*
%TD*%
D11*
%TO.C,R6*%
X93207500Y-68326000D03*
X92187500Y-68326000D03*
%TD*%
%TO.C,R1*%
X72900000Y-69850000D03*
X71880000Y-69850000D03*
%TD*%
D16*
%TO.C,R2*%
X79500000Y-69342000D03*
X80520000Y-69342000D03*
%TD*%
D17*
%TO.C,C4*%
X86601000Y-81280000D03*
X88151000Y-81280000D03*
%TD*%
D11*
%TO.C,R8*%
X93207500Y-73240000D03*
X92187500Y-73240000D03*
%TD*%
D18*
%TO.C,SW1*%
X116972000Y-94336000D03*
X116972000Y-88036000D03*
X120772000Y-94336000D03*
X120772000Y-88036000D03*
%TD*%
D15*
%TO.C,D1*%
X87084000Y-68326000D03*
X88659000Y-68326000D03*
%TD*%
D19*
%TO.C,C6*%
X81054000Y-82550000D03*
X82014000Y-82550000D03*
%TD*%
D16*
%TO.C,R9*%
X91931500Y-63500000D03*
X92951500Y-63500000D03*
%TD*%
D11*
%TO.C,R5*%
X97538000Y-68326000D03*
X96518000Y-68326000D03*
%TD*%
D20*
%TO.C,U3*%
X105976500Y-61748000D03*
X105976500Y-63018000D03*
X105976500Y-64288000D03*
X105976500Y-65558000D03*
X105976500Y-66828000D03*
X105976500Y-68098000D03*
X105976500Y-69368000D03*
X105976500Y-70638000D03*
X105976500Y-71908000D03*
X105976500Y-73178000D03*
X105976500Y-74448000D03*
X105976500Y-75718000D03*
X105976500Y-76988000D03*
X105976500Y-78258000D03*
D21*
X109016500Y-79508000D03*
X110286500Y-79508000D03*
X111556500Y-79508000D03*
X112826500Y-79508000D03*
X114096500Y-79508000D03*
X115366500Y-79508000D03*
X116636500Y-79508000D03*
X117906500Y-79508000D03*
X119176500Y-79508000D03*
X120446500Y-79508000D03*
D20*
X123476500Y-78258000D03*
X123476500Y-76988000D03*
X123476500Y-75718000D03*
X123476500Y-74448000D03*
X123476500Y-73178000D03*
X123476500Y-71908000D03*
X123476500Y-70638000D03*
X123476500Y-69368000D03*
X123476500Y-68098000D03*
X123476500Y-66828000D03*
X123476500Y-65558000D03*
X123476500Y-64288000D03*
X123476500Y-63018000D03*
X123476500Y-61748000D03*
D22*
X112521500Y-70613000D03*
X115571500Y-69088000D03*
X115571500Y-70613000D03*
X112521500Y-67563000D03*
X114046500Y-70613000D03*
X112521500Y-69088000D03*
X114046500Y-67563000D03*
X114046500Y-69088000D03*
X115571500Y-67563000D03*
%TD*%
D23*
%TO.C,U1*%
X81915000Y-73725000D03*
X80645000Y-73725000D03*
X79375000Y-73725000D03*
X78105000Y-73725000D03*
X76835000Y-73725000D03*
X75565000Y-73725000D03*
X74295000Y-73725000D03*
X73025000Y-73725000D03*
X73025000Y-78675000D03*
X74295000Y-78675000D03*
X75565000Y-78675000D03*
X76835000Y-78675000D03*
X78105000Y-78675000D03*
X79375000Y-78675000D03*
X80645000Y-78675000D03*
X81915000Y-78675000D03*
%TD*%
D24*
%TO.C,J1*%
X79400000Y-67280000D03*
X78600000Y-67280000D03*
D25*
X77450000Y-67280000D03*
X76450000Y-67280000D03*
X75950000Y-67280000D03*
X74950000Y-67280000D03*
D24*
X73800000Y-67280000D03*
X73000000Y-67280000D03*
X73000000Y-67280000D03*
X73800000Y-67280000D03*
D25*
X74450000Y-67280000D03*
X75450000Y-67280000D03*
X76950000Y-67280000D03*
X77950000Y-67280000D03*
D24*
X78600000Y-67280000D03*
X79400000Y-67280000D03*
%TD*%
D19*
%TO.C,C3*%
X101103000Y-63500000D03*
X102063000Y-63500000D03*
%TD*%
D15*
%TO.C,D4*%
X87084000Y-73152000D03*
X88659000Y-73152000D03*
%TD*%
%TO.C,D2*%
X101320500Y-104648000D03*
X102895500Y-104648000D03*
%TD*%
D17*
%TO.C,C5*%
X99301000Y-81280000D03*
X100851000Y-81280000D03*
%TD*%
D16*
%TO.C,R3*%
X96467200Y-73253600D03*
X97487200Y-73253600D03*
%TD*%
M02*
