%TF.GenerationSoftware,KiCad,Pcbnew,(6.0.11-0)*%
%TF.CreationDate,2023-03-27T22:19:29-07:00*%
%TF.ProjectId,LED,4c45442e-6b69-4636-9164-5f7063625858,rev?*%
%TF.SameCoordinates,Original*%
%TF.FileFunction,Legend,Top*%
%TF.FilePolarity,Positive*%
%FSLAX46Y46*%
G04 Gerber Fmt 4.6, Leading zero omitted, Abs format (unit mm)*
G04 Created by KiCad (PCBNEW (6.0.11-0)) date 2023-03-27 22:19:29*
%MOMM*%
%LPD*%
G01*
G04 APERTURE LIST*
G04 Aperture macros list*
%AMRoundRect*
0 Rectangle with rounded corners*
0 $1 Rounding radius*
0 $2 $3 $4 $5 $6 $7 $8 $9 X,Y pos of 4 corners*
0 Add a 4 corners polygon primitive as box body*
4,1,4,$2,$3,$4,$5,$6,$7,$8,$9,$2,$3,0*
0 Add four circle primitives for the rounded corners*
1,1,$1+$1,$2,$3*
1,1,$1+$1,$4,$5*
1,1,$1+$1,$6,$7*
1,1,$1+$1,$8,$9*
0 Add four rect primitives between the rounded corners*
20,1,$1+$1,$2,$3,$4,$5,0*
20,1,$1+$1,$4,$5,$6,$7,0*
20,1,$1+$1,$6,$7,$8,$9,0*
20,1,$1+$1,$8,$9,$2,$3,0*%
G04 Aperture macros list end*
%ADD10C,0.200000*%
%ADD11C,0.150000*%
%ADD12C,0.120000*%
%ADD13R,2.000000X2.000000*%
%ADD14O,2.000000X1.600000*%
%ADD15RoundRect,0.225000X0.225000X0.250000X-0.225000X0.250000X-0.225000X-0.250000X0.225000X-0.250000X0*%
%ADD16RoundRect,0.135000X0.135000X0.185000X-0.135000X0.185000X-0.135000X-0.185000X0.135000X-0.185000X0*%
%ADD17RoundRect,0.140000X0.140000X0.170000X-0.140000X0.170000X-0.140000X-0.170000X0.140000X-0.170000X0*%
%ADD18R,2.000000X1.500000*%
%ADD19R,2.000000X3.800000*%
%ADD20RoundRect,0.218750X-0.218750X-0.256250X0.218750X-0.256250X0.218750X0.256250X-0.218750X0.256250X0*%
%ADD21RoundRect,0.135000X-0.135000X-0.185000X0.135000X-0.185000X0.135000X0.185000X-0.135000X0.185000X0*%
%ADD22RoundRect,0.225000X-0.225000X-0.250000X0.225000X-0.250000X0.225000X0.250000X-0.225000X0.250000X0*%
%ADD23C,2.300000*%
%ADD24R,1.500000X1.500000*%
%ADD25C,1.500000*%
%ADD26R,1.000000X1.700000*%
%ADD27RoundRect,0.140000X-0.140000X-0.170000X0.140000X-0.170000X0.140000X0.170000X-0.140000X0.170000X0*%
%ADD28R,1.500000X0.900000*%
%ADD29R,0.900000X1.500000*%
%ADD30C,0.700000*%
%ADD31R,4.200000X4.200000*%
%ADD32RoundRect,0.150000X-0.150000X0.825000X-0.150000X-0.825000X0.150000X-0.825000X0.150000X0.825000X0*%
%ADD33C,0.600000*%
%ADD34R,0.600000X1.160000*%
%ADD35R,0.300000X1.160000*%
%ADD36O,0.900000X2.000000*%
%ADD37O,0.900000X1.700000*%
G04 APERTURE END LIST*
D10*
X84122095Y-65730380D02*
X84122095Y-64730380D01*
X84360190Y-64730380D01*
X84503047Y-64778000D01*
X84598285Y-64873238D01*
X84645904Y-64968476D01*
X84693523Y-65158952D01*
X84693523Y-65301809D01*
X84645904Y-65492285D01*
X84598285Y-65587523D01*
X84503047Y-65682761D01*
X84360190Y-65730380D01*
X84122095Y-65730380D01*
X85122095Y-65206571D02*
X85455428Y-65206571D01*
X85598285Y-65730380D02*
X85122095Y-65730380D01*
X85122095Y-64730380D01*
X85598285Y-64730380D01*
X85884000Y-64730380D02*
X86217333Y-65730380D01*
X86550666Y-64730380D01*
X86884000Y-65730380D02*
X86884000Y-64730380D01*
X87931619Y-65635142D02*
X87884000Y-65682761D01*
X87741142Y-65730380D01*
X87645904Y-65730380D01*
X87503047Y-65682761D01*
X87407809Y-65587523D01*
X87360190Y-65492285D01*
X87312571Y-65301809D01*
X87312571Y-65158952D01*
X87360190Y-64968476D01*
X87407809Y-64873238D01*
X87503047Y-64778000D01*
X87645904Y-64730380D01*
X87741142Y-64730380D01*
X87884000Y-64778000D01*
X87931619Y-64825619D01*
X88360190Y-65206571D02*
X88693523Y-65206571D01*
X88836380Y-65730380D02*
X88360190Y-65730380D01*
X88360190Y-64730380D01*
X88836380Y-64730380D01*
X90217333Y-64730380D02*
X90407809Y-64730380D01*
X90503047Y-64778000D01*
X90598285Y-64873238D01*
X90645904Y-65063714D01*
X90645904Y-65397047D01*
X90598285Y-65587523D01*
X90503047Y-65682761D01*
X90407809Y-65730380D01*
X90217333Y-65730380D01*
X90122095Y-65682761D01*
X90026857Y-65587523D01*
X89979238Y-65397047D01*
X89979238Y-65063714D01*
X90026857Y-64873238D01*
X90122095Y-64778000D01*
X90217333Y-64730380D01*
X91074476Y-65730380D02*
X91074476Y-64730380D01*
X91645904Y-65730380D01*
X91645904Y-64730380D01*
D11*
X122419619Y-88376476D02*
X122895809Y-88043142D01*
X122419619Y-87805047D02*
X123419619Y-87805047D01*
X123419619Y-88186000D01*
X123372000Y-88281238D01*
X123324380Y-88328857D01*
X123229142Y-88376476D01*
X123086285Y-88376476D01*
X122991047Y-88328857D01*
X122943428Y-88281238D01*
X122895809Y-88186000D01*
X122895809Y-87805047D01*
X123419619Y-88805047D02*
X122610095Y-88805047D01*
X122514857Y-88852666D01*
X122467238Y-88900285D01*
X122419619Y-88995523D01*
X122419619Y-89186000D01*
X122467238Y-89281238D01*
X122514857Y-89328857D01*
X122610095Y-89376476D01*
X123419619Y-89376476D01*
X122419619Y-89852666D02*
X123419619Y-89852666D01*
X122419619Y-90424095D01*
X123419619Y-90424095D01*
X123419619Y-91519333D02*
X123419619Y-92090761D01*
X122419619Y-91805047D02*
X123419619Y-91805047D01*
X122943428Y-92424095D02*
X122943428Y-92757428D01*
X122419619Y-92900285D02*
X122419619Y-92424095D01*
X123419619Y-92424095D01*
X123419619Y-92900285D01*
X122467238Y-93281238D02*
X122419619Y-93424095D01*
X122419619Y-93662190D01*
X122467238Y-93757428D01*
X122514857Y-93805047D01*
X122610095Y-93852666D01*
X122705333Y-93852666D01*
X122800571Y-93805047D01*
X122848190Y-93757428D01*
X122895809Y-93662190D01*
X122943428Y-93471714D01*
X122991047Y-93376476D01*
X123038666Y-93328857D01*
X123133904Y-93281238D01*
X123229142Y-93281238D01*
X123324380Y-93328857D01*
X123372000Y-93376476D01*
X123419619Y-93471714D01*
X123419619Y-93709809D01*
X123372000Y-93852666D01*
X123419619Y-94138380D02*
X123419619Y-94709809D01*
X122419619Y-94424095D02*
X123419619Y-94424095D01*
D10*
X83772857Y-70032571D02*
X83439523Y-70032571D01*
X83439523Y-70556380D02*
X83439523Y-69556380D01*
X83915714Y-69556380D01*
X84249047Y-70270666D02*
X84725238Y-70270666D01*
X84153809Y-70556380D02*
X84487142Y-69556380D01*
X84820476Y-70556380D01*
X85153809Y-70556380D02*
X85153809Y-69556380D01*
X86106190Y-70556380D02*
X85630000Y-70556380D01*
X85630000Y-69556380D01*
X87058571Y-69556380D02*
X87630000Y-69556380D01*
X87344285Y-70556380D02*
X87344285Y-69556380D01*
X87963333Y-70032571D02*
X88296666Y-70032571D01*
X88439523Y-70556380D02*
X87963333Y-70556380D01*
X87963333Y-69556380D01*
X88439523Y-69556380D01*
X88820476Y-70508761D02*
X88963333Y-70556380D01*
X89201428Y-70556380D01*
X89296666Y-70508761D01*
X89344285Y-70461142D01*
X89391904Y-70365904D01*
X89391904Y-70270666D01*
X89344285Y-70175428D01*
X89296666Y-70127809D01*
X89201428Y-70080190D01*
X89010952Y-70032571D01*
X88915714Y-69984952D01*
X88868095Y-69937333D01*
X88820476Y-69842095D01*
X88820476Y-69746857D01*
X88868095Y-69651619D01*
X88915714Y-69604000D01*
X89010952Y-69556380D01*
X89249047Y-69556380D01*
X89391904Y-69604000D01*
X89677619Y-69556380D02*
X90249047Y-69556380D01*
X89963333Y-70556380D02*
X89963333Y-69556380D01*
X91868095Y-70556380D02*
X91296666Y-70556380D01*
X91582380Y-70556380D02*
X91582380Y-69556380D01*
X91487142Y-69699238D01*
X91391904Y-69794476D01*
X91296666Y-69842095D01*
X101760285Y-82916380D02*
X101284095Y-82916380D01*
X101284095Y-81916380D01*
X102093619Y-82392571D02*
X102426952Y-82392571D01*
X102569809Y-82916380D02*
X102093619Y-82916380D01*
X102093619Y-81916380D01*
X102569809Y-81916380D01*
X102998380Y-82916380D02*
X102998380Y-81916380D01*
X103236476Y-81916380D01*
X103379333Y-81964000D01*
X103474571Y-82059238D01*
X103522190Y-82154476D01*
X103569809Y-82344952D01*
X103569809Y-82487809D01*
X103522190Y-82678285D01*
X103474571Y-82773523D01*
X103379333Y-82868761D01*
X103236476Y-82916380D01*
X102998380Y-82916380D01*
X105331714Y-82821142D02*
X105284095Y-82868761D01*
X105141238Y-82916380D01*
X105046000Y-82916380D01*
X104903142Y-82868761D01*
X104807904Y-82773523D01*
X104760285Y-82678285D01*
X104712666Y-82487809D01*
X104712666Y-82344952D01*
X104760285Y-82154476D01*
X104807904Y-82059238D01*
X104903142Y-81964000D01*
X105046000Y-81916380D01*
X105141238Y-81916380D01*
X105284095Y-81964000D01*
X105331714Y-82011619D01*
X105950761Y-81916380D02*
X106141238Y-81916380D01*
X106236476Y-81964000D01*
X106331714Y-82059238D01*
X106379333Y-82249714D01*
X106379333Y-82583047D01*
X106331714Y-82773523D01*
X106236476Y-82868761D01*
X106141238Y-82916380D01*
X105950761Y-82916380D01*
X105855523Y-82868761D01*
X105760285Y-82773523D01*
X105712666Y-82583047D01*
X105712666Y-82249714D01*
X105760285Y-82059238D01*
X105855523Y-81964000D01*
X105950761Y-81916380D01*
X106807904Y-82916380D02*
X106807904Y-81916380D01*
X107379333Y-82916380D01*
X107379333Y-81916380D01*
X107712666Y-81916380D02*
X108284095Y-81916380D01*
X107998380Y-82916380D02*
X107998380Y-81916380D01*
X109188857Y-82916380D02*
X108855523Y-82440190D01*
X108617428Y-82916380D02*
X108617428Y-81916380D01*
X108998380Y-81916380D01*
X109093619Y-81964000D01*
X109141238Y-82011619D01*
X109188857Y-82106857D01*
X109188857Y-82249714D01*
X109141238Y-82344952D01*
X109093619Y-82392571D01*
X108998380Y-82440190D01*
X108617428Y-82440190D01*
X109807904Y-81916380D02*
X109998380Y-81916380D01*
X110093619Y-81964000D01*
X110188857Y-82059238D01*
X110236476Y-82249714D01*
X110236476Y-82583047D01*
X110188857Y-82773523D01*
X110093619Y-82868761D01*
X109998380Y-82916380D01*
X109807904Y-82916380D01*
X109712666Y-82868761D01*
X109617428Y-82773523D01*
X109569809Y-82583047D01*
X109569809Y-82249714D01*
X109617428Y-82059238D01*
X109712666Y-81964000D01*
X109807904Y-81916380D01*
X111141238Y-82916380D02*
X110665047Y-82916380D01*
X110665047Y-81916380D01*
X111950761Y-82916380D02*
X111474571Y-82916380D01*
X111474571Y-81916380D01*
X112284095Y-82392571D02*
X112617428Y-82392571D01*
X112760285Y-82916380D02*
X112284095Y-82916380D01*
X112284095Y-81916380D01*
X112760285Y-81916380D01*
X113760285Y-82916380D02*
X113426952Y-82440190D01*
X113188857Y-82916380D02*
X113188857Y-81916380D01*
X113569809Y-81916380D01*
X113665047Y-81964000D01*
X113712666Y-82011619D01*
X113760285Y-82106857D01*
X113760285Y-82249714D01*
X113712666Y-82344952D01*
X113665047Y-82392571D01*
X113569809Y-82440190D01*
X113188857Y-82440190D01*
X114807904Y-81916380D02*
X115379333Y-81916380D01*
X115093619Y-82916380D02*
X115093619Y-81916380D01*
X115712666Y-82392571D02*
X116046000Y-82392571D01*
X116188857Y-82916380D02*
X115712666Y-82916380D01*
X115712666Y-81916380D01*
X116188857Y-81916380D01*
X116569809Y-82868761D02*
X116712666Y-82916380D01*
X116950761Y-82916380D01*
X117046000Y-82868761D01*
X117093619Y-82821142D01*
X117141238Y-82725904D01*
X117141238Y-82630666D01*
X117093619Y-82535428D01*
X117046000Y-82487809D01*
X116950761Y-82440190D01*
X116760285Y-82392571D01*
X116665047Y-82344952D01*
X116617428Y-82297333D01*
X116569809Y-82202095D01*
X116569809Y-82106857D01*
X116617428Y-82011619D01*
X116665047Y-81964000D01*
X116760285Y-81916380D01*
X116998380Y-81916380D01*
X117141238Y-81964000D01*
X117426952Y-81916380D02*
X117998380Y-81916380D01*
X117712666Y-82916380D02*
X117712666Y-81916380D01*
X118331714Y-82392571D02*
X118665047Y-82392571D01*
X118807904Y-82916380D02*
X118331714Y-82916380D01*
X118331714Y-81916380D01*
X118807904Y-81916380D01*
X119807904Y-82916380D02*
X119474571Y-82440190D01*
X119236476Y-82916380D02*
X119236476Y-81916380D01*
X119617428Y-81916380D01*
X119712666Y-81964000D01*
X119760285Y-82011619D01*
X119807904Y-82106857D01*
X119807904Y-82249714D01*
X119760285Y-82344952D01*
X119712666Y-82392571D01*
X119617428Y-82440190D01*
X119236476Y-82440190D01*
X121569809Y-82916380D02*
X121236476Y-82440190D01*
X120998380Y-82916380D02*
X120998380Y-81916380D01*
X121379333Y-81916380D01*
X121474571Y-81964000D01*
X121522190Y-82011619D01*
X121569809Y-82106857D01*
X121569809Y-82249714D01*
X121522190Y-82344952D01*
X121474571Y-82392571D01*
X121379333Y-82440190D01*
X120998380Y-82440190D01*
X121998380Y-82392571D02*
X122331714Y-82392571D01*
X122474571Y-82916380D02*
X121998380Y-82916380D01*
X121998380Y-81916380D01*
X122474571Y-81916380D01*
X122760285Y-81916380D02*
X123093619Y-82916380D01*
X123426952Y-81916380D01*
X124474571Y-82630666D02*
X124950761Y-82630666D01*
X124379333Y-82916380D02*
X124712666Y-81916380D01*
X125046000Y-82916380D01*
X125569809Y-81916380D02*
X125665047Y-81916380D01*
X125760285Y-81964000D01*
X125807904Y-82011619D01*
X125855523Y-82106857D01*
X125903142Y-82297333D01*
X125903142Y-82535428D01*
X125855523Y-82725904D01*
X125807904Y-82821142D01*
X125760285Y-82868761D01*
X125665047Y-82916380D01*
X125569809Y-82916380D01*
X125474571Y-82868761D01*
X125426952Y-82821142D01*
X125379333Y-82725904D01*
X125331714Y-82535428D01*
X125331714Y-82297333D01*
X125379333Y-82106857D01*
X125426952Y-82011619D01*
X125474571Y-81964000D01*
X125569809Y-81916380D01*
X126855523Y-82916380D02*
X126284095Y-82916380D01*
X126569809Y-82916380D02*
X126569809Y-81916380D01*
X126474571Y-82059238D01*
X126379333Y-82154476D01*
X126284095Y-82202095D01*
X102903142Y-84526380D02*
X102903142Y-83526380D01*
X103236476Y-84240666D01*
X103569809Y-83526380D01*
X103569809Y-84526380D01*
X104046000Y-84526380D02*
X104046000Y-83526380D01*
X104379333Y-83526380D02*
X104950761Y-83526380D01*
X104665047Y-84526380D02*
X104665047Y-83526380D01*
X106046000Y-84002571D02*
X106379333Y-84002571D01*
X106522190Y-84526380D02*
X106046000Y-84526380D01*
X106046000Y-83526380D01*
X106522190Y-83526380D01*
X106903142Y-84240666D02*
X107379333Y-84240666D01*
X106807904Y-84526380D02*
X107141238Y-83526380D01*
X107474571Y-84526380D01*
X107760285Y-84478761D02*
X107903142Y-84526380D01*
X108141238Y-84526380D01*
X108236476Y-84478761D01*
X108284095Y-84431142D01*
X108331714Y-84335904D01*
X108331714Y-84240666D01*
X108284095Y-84145428D01*
X108236476Y-84097809D01*
X108141238Y-84050190D01*
X107950761Y-84002571D01*
X107855523Y-83954952D01*
X107807904Y-83907333D01*
X107760285Y-83812095D01*
X107760285Y-83716857D01*
X107807904Y-83621619D01*
X107855523Y-83574000D01*
X107950761Y-83526380D01*
X108188857Y-83526380D01*
X108331714Y-83574000D01*
X108617428Y-83526380D02*
X109188857Y-83526380D01*
X108903142Y-84526380D02*
X108903142Y-83526380D01*
X110855523Y-84431142D02*
X110807904Y-84478761D01*
X110665047Y-84526380D01*
X110569809Y-84526380D01*
X110426952Y-84478761D01*
X110331714Y-84383523D01*
X110284095Y-84288285D01*
X110236476Y-84097809D01*
X110236476Y-83954952D01*
X110284095Y-83764476D01*
X110331714Y-83669238D01*
X110426952Y-83574000D01*
X110569809Y-83526380D01*
X110665047Y-83526380D01*
X110807904Y-83574000D01*
X110855523Y-83621619D01*
X111236476Y-84240666D02*
X111712666Y-84240666D01*
X111141238Y-84526380D02*
X111474571Y-83526380D01*
X111807904Y-84526380D01*
X112141238Y-84526380D02*
X112141238Y-83526380D01*
X112474571Y-84240666D01*
X112807904Y-83526380D01*
X112807904Y-84526380D01*
X113284095Y-84526380D02*
X113284095Y-83526380D01*
X113665047Y-83526380D01*
X113760285Y-83574000D01*
X113807904Y-83621619D01*
X113855523Y-83716857D01*
X113855523Y-83859714D01*
X113807904Y-83954952D01*
X113760285Y-84002571D01*
X113665047Y-84050190D01*
X113284095Y-84050190D01*
X114284095Y-83526380D02*
X114284095Y-84335904D01*
X114331714Y-84431142D01*
X114379333Y-84478761D01*
X114474571Y-84526380D01*
X114665047Y-84526380D01*
X114760285Y-84478761D01*
X114807904Y-84431142D01*
X114855523Y-84335904D01*
X114855523Y-83526380D01*
X115284095Y-84478761D02*
X115426952Y-84526380D01*
X115665047Y-84526380D01*
X115760285Y-84478761D01*
X115807904Y-84431142D01*
X115855523Y-84335904D01*
X115855523Y-84240666D01*
X115807904Y-84145428D01*
X115760285Y-84097809D01*
X115665047Y-84050190D01*
X115474571Y-84002571D01*
X115379333Y-83954952D01*
X115331714Y-83907333D01*
X115284095Y-83812095D01*
X115284095Y-83716857D01*
X115331714Y-83621619D01*
X115379333Y-83574000D01*
X115474571Y-83526380D01*
X115712666Y-83526380D01*
X115855523Y-83574000D01*
X117617428Y-84526380D02*
X117284095Y-84050190D01*
X117045999Y-84526380D02*
X117045999Y-83526380D01*
X117426952Y-83526380D01*
X117522190Y-83574000D01*
X117569809Y-83621619D01*
X117617428Y-83716857D01*
X117617428Y-83859714D01*
X117569809Y-83954952D01*
X117522190Y-84002571D01*
X117426952Y-84050190D01*
X117045999Y-84050190D01*
X118045999Y-83526380D02*
X118045999Y-84335904D01*
X118093619Y-84431142D01*
X118141238Y-84478761D01*
X118236476Y-84526380D01*
X118426952Y-84526380D01*
X118522190Y-84478761D01*
X118569809Y-84431142D01*
X118617428Y-84335904D01*
X118617428Y-83526380D01*
X119045999Y-84478761D02*
X119188857Y-84526380D01*
X119426952Y-84526380D01*
X119522190Y-84478761D01*
X119569809Y-84431142D01*
X119617428Y-84335904D01*
X119617428Y-84240666D01*
X119569809Y-84145428D01*
X119522190Y-84097809D01*
X119426952Y-84050190D01*
X119236476Y-84002571D01*
X119141238Y-83954952D01*
X119093619Y-83907333D01*
X119045999Y-83812095D01*
X119045999Y-83716857D01*
X119093619Y-83621619D01*
X119141238Y-83574000D01*
X119236476Y-83526380D01*
X119474571Y-83526380D01*
X119617428Y-83574000D01*
X120045999Y-84526380D02*
X120045999Y-83526380D01*
X120045999Y-84002571D02*
X120617428Y-84002571D01*
X120617428Y-84526380D02*
X120617428Y-83526380D01*
X121807904Y-83621619D02*
X121855523Y-83574000D01*
X121950761Y-83526380D01*
X122188857Y-83526380D01*
X122284095Y-83574000D01*
X122331714Y-83621619D01*
X122379333Y-83716857D01*
X122379333Y-83812095D01*
X122331714Y-83954952D01*
X121760285Y-84526380D01*
X122379333Y-84526380D01*
X122998380Y-83526380D02*
X123093619Y-83526380D01*
X123188857Y-83574000D01*
X123236476Y-83621619D01*
X123284095Y-83716857D01*
X123331714Y-83907333D01*
X123331714Y-84145428D01*
X123284095Y-84335904D01*
X123236476Y-84431142D01*
X123188857Y-84478761D01*
X123093619Y-84526380D01*
X122998380Y-84526380D01*
X122903142Y-84478761D01*
X122855523Y-84431142D01*
X122807904Y-84335904D01*
X122760285Y-84145428D01*
X122760285Y-83907333D01*
X122807904Y-83716857D01*
X122855523Y-83621619D01*
X122903142Y-83574000D01*
X122998380Y-83526380D01*
X123712666Y-83621619D02*
X123760285Y-83574000D01*
X123855523Y-83526380D01*
X124093619Y-83526380D01*
X124188857Y-83574000D01*
X124236476Y-83621619D01*
X124284095Y-83716857D01*
X124284095Y-83812095D01*
X124236476Y-83954952D01*
X123665047Y-84526380D01*
X124284095Y-84526380D01*
X124617428Y-83526380D02*
X125236476Y-83526380D01*
X124903142Y-83907333D01*
X125045999Y-83907333D01*
X125141238Y-83954952D01*
X125188857Y-84002571D01*
X125236476Y-84097809D01*
X125236476Y-84335904D01*
X125188857Y-84431142D01*
X125141238Y-84478761D01*
X125045999Y-84526380D01*
X124760285Y-84526380D01*
X124665047Y-84478761D01*
X124617428Y-84431142D01*
X105855523Y-85136380D02*
X106093619Y-86136380D01*
X106284095Y-85422095D01*
X106474571Y-86136380D01*
X106712666Y-85136380D01*
X107093619Y-86041142D02*
X107141238Y-86088761D01*
X107093619Y-86136380D01*
X107046000Y-86088761D01*
X107093619Y-86041142D01*
X107093619Y-86136380D01*
X108284095Y-86088761D02*
X108426952Y-86136380D01*
X108665047Y-86136380D01*
X108760285Y-86088761D01*
X108807904Y-86041142D01*
X108855523Y-85945904D01*
X108855523Y-85850666D01*
X108807904Y-85755428D01*
X108760285Y-85707809D01*
X108665047Y-85660190D01*
X108474571Y-85612571D01*
X108379333Y-85564952D01*
X108331714Y-85517333D01*
X108284095Y-85422095D01*
X108284095Y-85326857D01*
X108331714Y-85231619D01*
X108379333Y-85184000D01*
X108474571Y-85136380D01*
X108712666Y-85136380D01*
X108855523Y-85184000D01*
X109188857Y-85136380D02*
X109855523Y-85136380D01*
X109188857Y-86136380D01*
X109855523Y-86136380D01*
X110236476Y-85612571D02*
X110569809Y-85612571D01*
X110712666Y-86136380D02*
X110236476Y-86136380D01*
X110236476Y-85136380D01*
X110712666Y-85136380D01*
X110998380Y-85136380D02*
X111569809Y-85136380D01*
X111284095Y-86136380D02*
X111284095Y-85136380D01*
X112093619Y-85136380D02*
X112284095Y-85136380D01*
X112379333Y-85184000D01*
X112474571Y-85279238D01*
X112522190Y-85469714D01*
X112522190Y-85803047D01*
X112474571Y-85993523D01*
X112379333Y-86088761D01*
X112284095Y-86136380D01*
X112093619Y-86136380D01*
X111998380Y-86088761D01*
X111903142Y-85993523D01*
X111855523Y-85803047D01*
X111855523Y-85469714D01*
X111903142Y-85279238D01*
X111998380Y-85184000D01*
X112093619Y-85136380D01*
X114522190Y-86136380D02*
X114474571Y-86136380D01*
X114379333Y-86088761D01*
X114236476Y-85945904D01*
X113998380Y-85660190D01*
X113903142Y-85517333D01*
X113855523Y-85374476D01*
X113855523Y-85279238D01*
X113903142Y-85184000D01*
X113998380Y-85136380D01*
X114046000Y-85136380D01*
X114141238Y-85184000D01*
X114188857Y-85279238D01*
X114188857Y-85326857D01*
X114141238Y-85422095D01*
X114093619Y-85469714D01*
X113807904Y-85660190D01*
X113760285Y-85707809D01*
X113712666Y-85803047D01*
X113712666Y-85945904D01*
X113760285Y-86041142D01*
X113807904Y-86088761D01*
X113903142Y-86136380D01*
X114046000Y-86136380D01*
X114141238Y-86088761D01*
X114188857Y-86041142D01*
X114331714Y-85850666D01*
X114379333Y-85707809D01*
X114379333Y-85612571D01*
X116284095Y-86136380D02*
X115950761Y-85660190D01*
X115712666Y-86136380D02*
X115712666Y-85136380D01*
X116093619Y-85136380D01*
X116188857Y-85184000D01*
X116236476Y-85231619D01*
X116284095Y-85326857D01*
X116284095Y-85469714D01*
X116236476Y-85564952D01*
X116188857Y-85612571D01*
X116093619Y-85660190D01*
X115712666Y-85660190D01*
X116712666Y-86041142D02*
X116760285Y-86088761D01*
X116712666Y-86136380D01*
X116665047Y-86088761D01*
X116712666Y-86041142D01*
X116712666Y-86136380D01*
X118474571Y-85184000D02*
X118379333Y-85136380D01*
X118236476Y-85136380D01*
X118093619Y-85184000D01*
X117998380Y-85279238D01*
X117950761Y-85374476D01*
X117903142Y-85564952D01*
X117903142Y-85707809D01*
X117950761Y-85898285D01*
X117998380Y-85993523D01*
X118093619Y-86088761D01*
X118236476Y-86136380D01*
X118331714Y-86136380D01*
X118474571Y-86088761D01*
X118522190Y-86041142D01*
X118522190Y-85707809D01*
X118331714Y-85707809D01*
X118950761Y-85136380D02*
X118950761Y-85945904D01*
X118998380Y-86041142D01*
X119046000Y-86088761D01*
X119141238Y-86136380D01*
X119331714Y-86136380D01*
X119426952Y-86088761D01*
X119474571Y-86041142D01*
X119522190Y-85945904D01*
X119522190Y-85136380D01*
X119998380Y-86136380D02*
X119998380Y-85136380D01*
X120379333Y-85136380D01*
X120474571Y-85184000D01*
X120522190Y-85231619D01*
X120569809Y-85326857D01*
X120569809Y-85469714D01*
X120522190Y-85564952D01*
X120474571Y-85612571D01*
X120379333Y-85660190D01*
X119998380Y-85660190D01*
X120855523Y-85136380D02*
X121426952Y-85136380D01*
X121141238Y-86136380D02*
X121141238Y-85136380D01*
X121712666Y-85850666D02*
X122188857Y-85850666D01*
X121617428Y-86136380D02*
X121950761Y-85136380D01*
X122284095Y-86136380D01*
X83058571Y-75128380D02*
X83058571Y-74128380D01*
X83439523Y-74128380D01*
X83534761Y-74176000D01*
X83582380Y-74223619D01*
X83630000Y-74318857D01*
X83630000Y-74461714D01*
X83582380Y-74556952D01*
X83534761Y-74604571D01*
X83439523Y-74652190D01*
X83058571Y-74652190D01*
X84010952Y-74842666D02*
X84487142Y-74842666D01*
X83915714Y-75128380D02*
X84249047Y-74128380D01*
X84582380Y-75128380D01*
X84868095Y-75080761D02*
X85010952Y-75128380D01*
X85249047Y-75128380D01*
X85344285Y-75080761D01*
X85391904Y-75033142D01*
X85439523Y-74937904D01*
X85439523Y-74842666D01*
X85391904Y-74747428D01*
X85344285Y-74699809D01*
X85249047Y-74652190D01*
X85058571Y-74604571D01*
X84963333Y-74556952D01*
X84915714Y-74509333D01*
X84868095Y-74414095D01*
X84868095Y-74318857D01*
X84915714Y-74223619D01*
X84963333Y-74176000D01*
X85058571Y-74128380D01*
X85296666Y-74128380D01*
X85439523Y-74176000D01*
X85820476Y-75080761D02*
X85963333Y-75128380D01*
X86201428Y-75128380D01*
X86296666Y-75080761D01*
X86344285Y-75033142D01*
X86391904Y-74937904D01*
X86391904Y-74842666D01*
X86344285Y-74747428D01*
X86296666Y-74699809D01*
X86201428Y-74652190D01*
X86010952Y-74604571D01*
X85915714Y-74556952D01*
X85868095Y-74509333D01*
X85820476Y-74414095D01*
X85820476Y-74318857D01*
X85868095Y-74223619D01*
X85915714Y-74176000D01*
X86010952Y-74128380D01*
X86249047Y-74128380D01*
X86391904Y-74176000D01*
X87439523Y-74128380D02*
X88010952Y-74128380D01*
X87725238Y-75128380D02*
X87725238Y-74128380D01*
X88344285Y-74604571D02*
X88677619Y-74604571D01*
X88820476Y-75128380D02*
X88344285Y-75128380D01*
X88344285Y-74128380D01*
X88820476Y-74128380D01*
X89201428Y-75080761D02*
X89344285Y-75128380D01*
X89582380Y-75128380D01*
X89677619Y-75080761D01*
X89725238Y-75033142D01*
X89772857Y-74937904D01*
X89772857Y-74842666D01*
X89725238Y-74747428D01*
X89677619Y-74699809D01*
X89582380Y-74652190D01*
X89391904Y-74604571D01*
X89296666Y-74556952D01*
X89249047Y-74509333D01*
X89201428Y-74414095D01*
X89201428Y-74318857D01*
X89249047Y-74223619D01*
X89296666Y-74176000D01*
X89391904Y-74128380D01*
X89630000Y-74128380D01*
X89772857Y-74176000D01*
X90058571Y-74128380D02*
X90630000Y-74128380D01*
X90344285Y-75128380D02*
X90344285Y-74128380D01*
X92249047Y-75128380D02*
X91677619Y-75128380D01*
X91963333Y-75128380D02*
X91963333Y-74128380D01*
X91868095Y-74271238D01*
X91772857Y-74366476D01*
X91677619Y-74414095D01*
D11*
X98044571Y-103825380D02*
X98044571Y-102825380D01*
X98425523Y-102825380D01*
X98520761Y-102873000D01*
X98568380Y-102920619D01*
X98616000Y-103015857D01*
X98616000Y-103158714D01*
X98568380Y-103253952D01*
X98520761Y-103301571D01*
X98425523Y-103349190D01*
X98044571Y-103349190D01*
X98996952Y-103539666D02*
X99473142Y-103539666D01*
X98901714Y-103825380D02*
X99235047Y-102825380D01*
X99568380Y-103825380D01*
X99854095Y-103777761D02*
X99996952Y-103825380D01*
X100235047Y-103825380D01*
X100330285Y-103777761D01*
X100377904Y-103730142D01*
X100425523Y-103634904D01*
X100425523Y-103539666D01*
X100377904Y-103444428D01*
X100330285Y-103396809D01*
X100235047Y-103349190D01*
X100044571Y-103301571D01*
X99949333Y-103253952D01*
X99901714Y-103206333D01*
X99854095Y-103111095D01*
X99854095Y-103015857D01*
X99901714Y-102920619D01*
X99949333Y-102873000D01*
X100044571Y-102825380D01*
X100282666Y-102825380D01*
X100425523Y-102873000D01*
X100806476Y-103777761D02*
X100949333Y-103825380D01*
X101187428Y-103825380D01*
X101282666Y-103777761D01*
X101330285Y-103730142D01*
X101377904Y-103634904D01*
X101377904Y-103539666D01*
X101330285Y-103444428D01*
X101282666Y-103396809D01*
X101187428Y-103349190D01*
X100996952Y-103301571D01*
X100901714Y-103253952D01*
X100854095Y-103206333D01*
X100806476Y-103111095D01*
X100806476Y-103015857D01*
X100854095Y-102920619D01*
X100901714Y-102873000D01*
X100996952Y-102825380D01*
X101235047Y-102825380D01*
X101377904Y-102873000D01*
X102425523Y-102825380D02*
X102996952Y-102825380D01*
X102711238Y-103825380D02*
X102711238Y-102825380D01*
X103330285Y-103301571D02*
X103663619Y-103301571D01*
X103806476Y-103825380D02*
X103330285Y-103825380D01*
X103330285Y-102825380D01*
X103806476Y-102825380D01*
X104187428Y-103777761D02*
X104330285Y-103825380D01*
X104568380Y-103825380D01*
X104663619Y-103777761D01*
X104711238Y-103730142D01*
X104758857Y-103634904D01*
X104758857Y-103539666D01*
X104711238Y-103444428D01*
X104663619Y-103396809D01*
X104568380Y-103349190D01*
X104377904Y-103301571D01*
X104282666Y-103253952D01*
X104235047Y-103206333D01*
X104187428Y-103111095D01*
X104187428Y-103015857D01*
X104235047Y-102920619D01*
X104282666Y-102873000D01*
X104377904Y-102825380D01*
X104616000Y-102825380D01*
X104758857Y-102873000D01*
X105044571Y-102825380D02*
X105616000Y-102825380D01*
X105330285Y-103825380D02*
X105330285Y-102825380D01*
X106663619Y-102920619D02*
X106711238Y-102873000D01*
X106806476Y-102825380D01*
X107044571Y-102825380D01*
X107139809Y-102873000D01*
X107187428Y-102920619D01*
X107235047Y-103015857D01*
X107235047Y-103111095D01*
X107187428Y-103253952D01*
X106616000Y-103825380D01*
X107235047Y-103825380D01*
%TO.C,U2*%
X94611095Y-119162380D02*
X94611095Y-119971904D01*
X94658714Y-120067142D01*
X94706333Y-120114761D01*
X94801571Y-120162380D01*
X94992047Y-120162380D01*
X95087285Y-120114761D01*
X95134904Y-120067142D01*
X95182523Y-119971904D01*
X95182523Y-119162380D01*
X95611095Y-119257619D02*
X95658714Y-119210000D01*
X95753952Y-119162380D01*
X95992047Y-119162380D01*
X96087285Y-119210000D01*
X96134904Y-119257619D01*
X96182523Y-119352857D01*
X96182523Y-119448095D01*
X96134904Y-119590952D01*
X95563476Y-120162380D01*
X96182523Y-120162380D01*
%TO.C,C2*%
X96874333Y-62333142D02*
X96826714Y-62380761D01*
X96683857Y-62428380D01*
X96588619Y-62428380D01*
X96445761Y-62380761D01*
X96350523Y-62285523D01*
X96302904Y-62190285D01*
X96255285Y-61999809D01*
X96255285Y-61856952D01*
X96302904Y-61666476D01*
X96350523Y-61571238D01*
X96445761Y-61476000D01*
X96588619Y-61428380D01*
X96683857Y-61428380D01*
X96826714Y-61476000D01*
X96874333Y-61523619D01*
X97255285Y-61523619D02*
X97302904Y-61476000D01*
X97398142Y-61428380D01*
X97636238Y-61428380D01*
X97731476Y-61476000D01*
X97779095Y-61523619D01*
X97826714Y-61618857D01*
X97826714Y-61714095D01*
X97779095Y-61856952D01*
X97207666Y-62428380D01*
X97826714Y-62428380D01*
%TO.C,R4*%
X102195333Y-111196380D02*
X101862000Y-110720190D01*
X101623904Y-111196380D02*
X101623904Y-110196380D01*
X102004857Y-110196380D01*
X102100095Y-110244000D01*
X102147714Y-110291619D01*
X102195333Y-110386857D01*
X102195333Y-110529714D01*
X102147714Y-110624952D01*
X102100095Y-110672571D01*
X102004857Y-110720190D01*
X101623904Y-110720190D01*
X103052476Y-110529714D02*
X103052476Y-111196380D01*
X102814380Y-110148761D02*
X102576285Y-110863047D01*
X103195333Y-110863047D01*
%TO.C,C1*%
X101298169Y-67403142D02*
X101250550Y-67450761D01*
X101107693Y-67498380D01*
X101012455Y-67498380D01*
X100869597Y-67450761D01*
X100774359Y-67355523D01*
X100726740Y-67260285D01*
X100679121Y-67069809D01*
X100679121Y-66926952D01*
X100726740Y-66736476D01*
X100774359Y-66641238D01*
X100869597Y-66546000D01*
X101012455Y-66498380D01*
X101107693Y-66498380D01*
X101250550Y-66546000D01*
X101298169Y-66593619D01*
X102250550Y-67498380D02*
X101679121Y-67498380D01*
X101964836Y-67498380D02*
X101964836Y-66498380D01*
X101869597Y-66641238D01*
X101774359Y-66736476D01*
X101679121Y-66784095D01*
%TO.C,U4*%
X92964095Y-76232380D02*
X92964095Y-77041904D01*
X93011714Y-77137142D01*
X93059333Y-77184761D01*
X93154571Y-77232380D01*
X93345047Y-77232380D01*
X93440285Y-77184761D01*
X93487904Y-77137142D01*
X93535523Y-77041904D01*
X93535523Y-76232380D01*
X94440285Y-76565714D02*
X94440285Y-77232380D01*
X94202190Y-76184761D02*
X93964095Y-76899047D01*
X94583142Y-76899047D01*
%TO.C,D3*%
X87089404Y-62522380D02*
X87089404Y-61522380D01*
X87327500Y-61522380D01*
X87470357Y-61570000D01*
X87565595Y-61665238D01*
X87613214Y-61760476D01*
X87660833Y-61950952D01*
X87660833Y-62093809D01*
X87613214Y-62284285D01*
X87565595Y-62379523D01*
X87470357Y-62474761D01*
X87327500Y-62522380D01*
X87089404Y-62522380D01*
X87994166Y-61522380D02*
X88613214Y-61522380D01*
X88279880Y-61903333D01*
X88422738Y-61903333D01*
X88517976Y-61950952D01*
X88565595Y-61998571D01*
X88613214Y-62093809D01*
X88613214Y-62331904D01*
X88565595Y-62427142D01*
X88517976Y-62474761D01*
X88422738Y-62522380D01*
X88137023Y-62522380D01*
X88041785Y-62474761D01*
X87994166Y-62427142D01*
%TO.C,R7*%
X101290692Y-72385180D02*
X100957359Y-71908990D01*
X100719263Y-72385180D02*
X100719263Y-71385180D01*
X101100216Y-71385180D01*
X101195454Y-71432800D01*
X101243073Y-71480419D01*
X101290692Y-71575657D01*
X101290692Y-71718514D01*
X101243073Y-71813752D01*
X101195454Y-71861371D01*
X101100216Y-71908990D01*
X100719263Y-71908990D01*
X101624025Y-71385180D02*
X102290692Y-71385180D01*
X101862120Y-72385180D01*
%TO.C,R6*%
X92530833Y-67508380D02*
X92197500Y-67032190D01*
X91959404Y-67508380D02*
X91959404Y-66508380D01*
X92340357Y-66508380D01*
X92435595Y-66556000D01*
X92483214Y-66603619D01*
X92530833Y-66698857D01*
X92530833Y-66841714D01*
X92483214Y-66936952D01*
X92435595Y-66984571D01*
X92340357Y-67032190D01*
X91959404Y-67032190D01*
X93387976Y-66508380D02*
X93197500Y-66508380D01*
X93102261Y-66556000D01*
X93054642Y-66603619D01*
X92959404Y-66746476D01*
X92911785Y-66936952D01*
X92911785Y-67317904D01*
X92959404Y-67413142D01*
X93007023Y-67460761D01*
X93102261Y-67508380D01*
X93292738Y-67508380D01*
X93387976Y-67460761D01*
X93435595Y-67413142D01*
X93483214Y-67317904D01*
X93483214Y-67079809D01*
X93435595Y-66984571D01*
X93387976Y-66936952D01*
X93292738Y-66889333D01*
X93102261Y-66889333D01*
X93007023Y-66936952D01*
X92959404Y-66984571D01*
X92911785Y-67079809D01*
%TO.C,R1*%
X72223333Y-71472380D02*
X71890000Y-70996190D01*
X71651904Y-71472380D02*
X71651904Y-70472380D01*
X72032857Y-70472380D01*
X72128095Y-70520000D01*
X72175714Y-70567619D01*
X72223333Y-70662857D01*
X72223333Y-70805714D01*
X72175714Y-70900952D01*
X72128095Y-70948571D01*
X72032857Y-70996190D01*
X71651904Y-70996190D01*
X73175714Y-71472380D02*
X72604285Y-71472380D01*
X72890000Y-71472380D02*
X72890000Y-70472380D01*
X72794761Y-70615238D01*
X72699523Y-70710476D01*
X72604285Y-70758095D01*
%TO.C,R2*%
X79843333Y-71064380D02*
X79510000Y-70588190D01*
X79271904Y-71064380D02*
X79271904Y-70064380D01*
X79652857Y-70064380D01*
X79748095Y-70112000D01*
X79795714Y-70159619D01*
X79843333Y-70254857D01*
X79843333Y-70397714D01*
X79795714Y-70492952D01*
X79748095Y-70540571D01*
X79652857Y-70588190D01*
X79271904Y-70588190D01*
X80224285Y-70159619D02*
X80271904Y-70112000D01*
X80367142Y-70064380D01*
X80605238Y-70064380D01*
X80700476Y-70112000D01*
X80748095Y-70159619D01*
X80795714Y-70254857D01*
X80795714Y-70350095D01*
X80748095Y-70492952D01*
X80176666Y-71064380D01*
X80795714Y-71064380D01*
%TO.C,C4*%
X87209333Y-80207142D02*
X87161714Y-80254761D01*
X87018857Y-80302380D01*
X86923619Y-80302380D01*
X86780761Y-80254761D01*
X86685523Y-80159523D01*
X86637904Y-80064285D01*
X86590285Y-79873809D01*
X86590285Y-79730952D01*
X86637904Y-79540476D01*
X86685523Y-79445238D01*
X86780761Y-79350000D01*
X86923619Y-79302380D01*
X87018857Y-79302380D01*
X87161714Y-79350000D01*
X87209333Y-79397619D01*
X88066476Y-79635714D02*
X88066476Y-80302380D01*
X87828380Y-79254761D02*
X87590285Y-79969047D01*
X88209333Y-79969047D01*
%TO.C,J2*%
X117133162Y-113760788D02*
X117133162Y-113046502D01*
X117180781Y-112903645D01*
X117276019Y-112808407D01*
X117418876Y-112760788D01*
X117514114Y-112760788D01*
X116704590Y-113665549D02*
X116656971Y-113713169D01*
X116561733Y-113760788D01*
X116323638Y-113760788D01*
X116228400Y-113713169D01*
X116180781Y-113665549D01*
X116133162Y-113570311D01*
X116133162Y-113475073D01*
X116180781Y-113332216D01*
X116752209Y-112760788D01*
X116133162Y-112760788D01*
%TO.C,R8*%
X92530833Y-72422380D02*
X92197500Y-71946190D01*
X91959404Y-72422380D02*
X91959404Y-71422380D01*
X92340357Y-71422380D01*
X92435595Y-71470000D01*
X92483214Y-71517619D01*
X92530833Y-71612857D01*
X92530833Y-71755714D01*
X92483214Y-71850952D01*
X92435595Y-71898571D01*
X92340357Y-71946190D01*
X91959404Y-71946190D01*
X93102261Y-71850952D02*
X93007023Y-71803333D01*
X92959404Y-71755714D01*
X92911785Y-71660476D01*
X92911785Y-71612857D01*
X92959404Y-71517619D01*
X93007023Y-71470000D01*
X93102261Y-71422380D01*
X93292738Y-71422380D01*
X93387976Y-71470000D01*
X93435595Y-71517619D01*
X93483214Y-71612857D01*
X93483214Y-71660476D01*
X93435595Y-71755714D01*
X93387976Y-71803333D01*
X93292738Y-71850952D01*
X93102261Y-71850952D01*
X93007023Y-71898571D01*
X92959404Y-71946190D01*
X92911785Y-72041428D01*
X92911785Y-72231904D01*
X92959404Y-72327142D01*
X93007023Y-72374761D01*
X93102261Y-72422380D01*
X93292738Y-72422380D01*
X93387976Y-72374761D01*
X93435595Y-72327142D01*
X93483214Y-72231904D01*
X93483214Y-72041428D01*
X93435595Y-71946190D01*
X93387976Y-71898571D01*
X93292738Y-71850952D01*
%TO.C,SW1*%
X115526761Y-92519333D02*
X115574380Y-92376476D01*
X115574380Y-92138380D01*
X115526761Y-92043142D01*
X115479142Y-91995523D01*
X115383904Y-91947904D01*
X115288666Y-91947904D01*
X115193428Y-91995523D01*
X115145809Y-92043142D01*
X115098190Y-92138380D01*
X115050571Y-92328857D01*
X115002952Y-92424095D01*
X114955333Y-92471714D01*
X114860095Y-92519333D01*
X114764857Y-92519333D01*
X114669619Y-92471714D01*
X114622000Y-92424095D01*
X114574380Y-92328857D01*
X114574380Y-92090761D01*
X114622000Y-91947904D01*
X114574380Y-91614571D02*
X115574380Y-91376476D01*
X114860095Y-91186000D01*
X115574380Y-90995523D01*
X114574380Y-90757428D01*
X115574380Y-89852666D02*
X115574380Y-90424095D01*
X115574380Y-90138380D02*
X114574380Y-90138380D01*
X114717238Y-90233619D01*
X114812476Y-90328857D01*
X114860095Y-90424095D01*
%TO.C,D1*%
X87133404Y-67348380D02*
X87133404Y-66348380D01*
X87371500Y-66348380D01*
X87514357Y-66396000D01*
X87609595Y-66491238D01*
X87657214Y-66586476D01*
X87704833Y-66776952D01*
X87704833Y-66919809D01*
X87657214Y-67110285D01*
X87609595Y-67205523D01*
X87514357Y-67300761D01*
X87371500Y-67348380D01*
X87133404Y-67348380D01*
X88657214Y-67348380D02*
X88085785Y-67348380D01*
X88371500Y-67348380D02*
X88371500Y-66348380D01*
X88276261Y-66491238D01*
X88181023Y-66586476D01*
X88085785Y-66634095D01*
%TO.C,C6*%
X81367333Y-81747142D02*
X81319714Y-81794761D01*
X81176857Y-81842380D01*
X81081619Y-81842380D01*
X80938761Y-81794761D01*
X80843523Y-81699523D01*
X80795904Y-81604285D01*
X80748285Y-81413809D01*
X80748285Y-81270952D01*
X80795904Y-81080476D01*
X80843523Y-80985238D01*
X80938761Y-80890000D01*
X81081619Y-80842380D01*
X81176857Y-80842380D01*
X81319714Y-80890000D01*
X81367333Y-80937619D01*
X82224476Y-80842380D02*
X82034000Y-80842380D01*
X81938761Y-80890000D01*
X81891142Y-80937619D01*
X81795904Y-81080476D01*
X81748285Y-81270952D01*
X81748285Y-81651904D01*
X81795904Y-81747142D01*
X81843523Y-81794761D01*
X81938761Y-81842380D01*
X82129238Y-81842380D01*
X82224476Y-81794761D01*
X82272095Y-81747142D01*
X82319714Y-81651904D01*
X82319714Y-81413809D01*
X82272095Y-81318571D01*
X82224476Y-81270952D01*
X82129238Y-81223333D01*
X81938761Y-81223333D01*
X81843523Y-81270952D01*
X81795904Y-81318571D01*
X81748285Y-81413809D01*
%TO.C,R9*%
X92274833Y-62782380D02*
X91941500Y-62306190D01*
X91703404Y-62782380D02*
X91703404Y-61782380D01*
X92084357Y-61782380D01*
X92179595Y-61830000D01*
X92227214Y-61877619D01*
X92274833Y-61972857D01*
X92274833Y-62115714D01*
X92227214Y-62210952D01*
X92179595Y-62258571D01*
X92084357Y-62306190D01*
X91703404Y-62306190D01*
X92751023Y-62782380D02*
X92941500Y-62782380D01*
X93036738Y-62734761D01*
X93084357Y-62687142D01*
X93179595Y-62544285D01*
X93227214Y-62353809D01*
X93227214Y-61972857D01*
X93179595Y-61877619D01*
X93131976Y-61830000D01*
X93036738Y-61782380D01*
X92846261Y-61782380D01*
X92751023Y-61830000D01*
X92703404Y-61877619D01*
X92655785Y-61972857D01*
X92655785Y-62210952D01*
X92703404Y-62306190D01*
X92751023Y-62353809D01*
X92846261Y-62401428D01*
X93036738Y-62401428D01*
X93131976Y-62353809D01*
X93179595Y-62306190D01*
X93227214Y-62210952D01*
%TO.C,R5*%
X97014974Y-67508380D02*
X96681641Y-67032190D01*
X96443545Y-67508380D02*
X96443545Y-66508380D01*
X96824498Y-66508380D01*
X96919736Y-66556000D01*
X96967355Y-66603619D01*
X97014974Y-66698857D01*
X97014974Y-66841714D01*
X96967355Y-66936952D01*
X96919736Y-66984571D01*
X96824498Y-67032190D01*
X96443545Y-67032190D01*
X97919736Y-66508380D02*
X97443545Y-66508380D01*
X97395926Y-66984571D01*
X97443545Y-66936952D01*
X97538783Y-66889333D01*
X97776879Y-66889333D01*
X97872117Y-66936952D01*
X97919736Y-66984571D01*
X97967355Y-67079809D01*
X97967355Y-67317904D01*
X97919736Y-67413142D01*
X97872117Y-67460761D01*
X97776879Y-67508380D01*
X97538783Y-67508380D01*
X97443545Y-67460761D01*
X97395926Y-67413142D01*
%TO.C,U3*%
X103568880Y-79189904D02*
X104378404Y-79189904D01*
X104473642Y-79142285D01*
X104521261Y-79094666D01*
X104568880Y-78999428D01*
X104568880Y-78808952D01*
X104521261Y-78713714D01*
X104473642Y-78666095D01*
X104378404Y-78618476D01*
X103568880Y-78618476D01*
X103568880Y-78237523D02*
X103568880Y-77618476D01*
X103949833Y-77951809D01*
X103949833Y-77808952D01*
X103997452Y-77713714D01*
X104045071Y-77666095D01*
X104140309Y-77618476D01*
X104378404Y-77618476D01*
X104473642Y-77666095D01*
X104521261Y-77713714D01*
X104568880Y-77808952D01*
X104568880Y-78094666D01*
X104521261Y-78189904D01*
X104473642Y-78237523D01*
%TO.C,U1*%
X71080380Y-76961904D02*
X71889904Y-76961904D01*
X71985142Y-76914285D01*
X72032761Y-76866666D01*
X72080380Y-76771428D01*
X72080380Y-76580952D01*
X72032761Y-76485714D01*
X71985142Y-76438095D01*
X71889904Y-76390476D01*
X71080380Y-76390476D01*
X72080380Y-75390476D02*
X72080380Y-75961904D01*
X72080380Y-75676190D02*
X71080380Y-75676190D01*
X71223238Y-75771428D01*
X71318476Y-75866666D01*
X71366095Y-75961904D01*
%TO.C,J1*%
X75866666Y-68802380D02*
X75866666Y-69516666D01*
X75819047Y-69659523D01*
X75723809Y-69754761D01*
X75580952Y-69802380D01*
X75485714Y-69802380D01*
X76866666Y-69802380D02*
X76295238Y-69802380D01*
X76580952Y-69802380D02*
X76580952Y-68802380D01*
X76485714Y-68945238D01*
X76390476Y-69040476D01*
X76295238Y-69088095D01*
%TO.C,C3*%
X101416333Y-62697142D02*
X101368714Y-62744761D01*
X101225857Y-62792380D01*
X101130619Y-62792380D01*
X100987761Y-62744761D01*
X100892523Y-62649523D01*
X100844904Y-62554285D01*
X100797285Y-62363809D01*
X100797285Y-62220952D01*
X100844904Y-62030476D01*
X100892523Y-61935238D01*
X100987761Y-61840000D01*
X101130619Y-61792380D01*
X101225857Y-61792380D01*
X101368714Y-61840000D01*
X101416333Y-61887619D01*
X101749666Y-61792380D02*
X102368714Y-61792380D01*
X102035380Y-62173333D01*
X102178238Y-62173333D01*
X102273476Y-62220952D01*
X102321095Y-62268571D01*
X102368714Y-62363809D01*
X102368714Y-62601904D01*
X102321095Y-62697142D01*
X102273476Y-62744761D01*
X102178238Y-62792380D01*
X101892523Y-62792380D01*
X101797285Y-62744761D01*
X101749666Y-62697142D01*
%TO.C,D4*%
X87133404Y-72174380D02*
X87133404Y-71174380D01*
X87371500Y-71174380D01*
X87514357Y-71222000D01*
X87609595Y-71317238D01*
X87657214Y-71412476D01*
X87704833Y-71602952D01*
X87704833Y-71745809D01*
X87657214Y-71936285D01*
X87609595Y-72031523D01*
X87514357Y-72126761D01*
X87371500Y-72174380D01*
X87133404Y-72174380D01*
X88561976Y-71507714D02*
X88561976Y-72174380D01*
X88323880Y-71126761D02*
X88085785Y-71841047D01*
X88704833Y-71841047D01*
%TO.C,D2*%
X103997404Y-105095380D02*
X103997404Y-104095380D01*
X104235500Y-104095380D01*
X104378357Y-104143000D01*
X104473595Y-104238238D01*
X104521214Y-104333476D01*
X104568833Y-104523952D01*
X104568833Y-104666809D01*
X104521214Y-104857285D01*
X104473595Y-104952523D01*
X104378357Y-105047761D01*
X104235500Y-105095380D01*
X103997404Y-105095380D01*
X104949785Y-104190619D02*
X104997404Y-104143000D01*
X105092642Y-104095380D01*
X105330738Y-104095380D01*
X105425976Y-104143000D01*
X105473595Y-104190619D01*
X105521214Y-104285857D01*
X105521214Y-104381095D01*
X105473595Y-104523952D01*
X104902166Y-105095380D01*
X105521214Y-105095380D01*
%TO.C,C5*%
X99909333Y-80207142D02*
X99861714Y-80254761D01*
X99718857Y-80302380D01*
X99623619Y-80302380D01*
X99480761Y-80254761D01*
X99385523Y-80159523D01*
X99337904Y-80064285D01*
X99290285Y-79873809D01*
X99290285Y-79730952D01*
X99337904Y-79540476D01*
X99385523Y-79445238D01*
X99480761Y-79350000D01*
X99623619Y-79302380D01*
X99718857Y-79302380D01*
X99861714Y-79350000D01*
X99909333Y-79397619D01*
X100814095Y-79302380D02*
X100337904Y-79302380D01*
X100290285Y-79778571D01*
X100337904Y-79730952D01*
X100433142Y-79683333D01*
X100671238Y-79683333D01*
X100766476Y-79730952D01*
X100814095Y-79778571D01*
X100861714Y-79873809D01*
X100861714Y-80111904D01*
X100814095Y-80207142D01*
X100766476Y-80254761D01*
X100671238Y-80302380D01*
X100433142Y-80302380D01*
X100337904Y-80254761D01*
X100290285Y-80207142D01*
%TO.C,R3*%
X96810533Y-72535980D02*
X96477200Y-72059790D01*
X96239104Y-72535980D02*
X96239104Y-71535980D01*
X96620057Y-71535980D01*
X96715295Y-71583600D01*
X96762914Y-71631219D01*
X96810533Y-71726457D01*
X96810533Y-71869314D01*
X96762914Y-71964552D01*
X96715295Y-72012171D01*
X96620057Y-72059790D01*
X96239104Y-72059790D01*
X97143866Y-71535980D02*
X97762914Y-71535980D01*
X97429580Y-71916933D01*
X97572438Y-71916933D01*
X97667676Y-71964552D01*
X97715295Y-72012171D01*
X97762914Y-72107409D01*
X97762914Y-72345504D01*
X97715295Y-72440742D01*
X97667676Y-72488361D01*
X97572438Y-72535980D01*
X97286723Y-72535980D01*
X97191485Y-72488361D01*
X97143866Y-72440742D01*
D12*
%TO.C,U2*%
X74413000Y-118830000D02*
X97733000Y-118830000D01*
X71873000Y-111930000D02*
X71888000Y-92300000D01*
X71873000Y-111930000D02*
X74413000Y-111930000D01*
X97733000Y-118830000D02*
X97748000Y-92300000D01*
X95628000Y-90170000D02*
X74018000Y-90170000D01*
X74413000Y-111930000D02*
X74413000Y-118830000D01*
X74018000Y-90170000D02*
G75*
G03*
X71888000Y-92300000I2J-2130002D01*
G01*
X97748000Y-92300000D02*
G75*
G03*
X95618000Y-90170000I-2130000J0D01*
G01*
G36*
X71468000Y-92710000D02*
G01*
X70833000Y-93345000D01*
X70833000Y-92075000D01*
X71468000Y-92710000D01*
G37*
D11*
X71468000Y-92710000D02*
X70833000Y-93345000D01*
X70833000Y-92075000D01*
X71468000Y-92710000D01*
D12*
%TO.C,C2*%
X97181580Y-64010000D02*
X96900420Y-64010000D01*
X97181580Y-62990000D02*
X96900420Y-62990000D01*
%TO.C,R4*%
X102440872Y-108598000D02*
X102133590Y-108598000D01*
X102440872Y-109358000D02*
X102133590Y-109358000D01*
%TO.C,C1*%
X101464836Y-67966000D02*
X101249164Y-67966000D01*
X101464836Y-68686000D02*
X101249164Y-68686000D01*
%TO.C,U4*%
X95636000Y-84690000D02*
X95636000Y-83430000D01*
X89626000Y-77870000D02*
X95636000Y-77870000D01*
X95636000Y-77870000D02*
X95636000Y-79130000D01*
X91876000Y-84690000D02*
X95636000Y-84690000D01*
%TO.C,D3*%
X86342500Y-64235000D02*
X88627500Y-64235000D01*
X88627500Y-62765000D02*
X86342500Y-62765000D01*
X86342500Y-62765000D02*
X86342500Y-64235000D01*
%TO.C,R7*%
X101457359Y-72822800D02*
X101764641Y-72822800D01*
X101457359Y-73582800D02*
X101764641Y-73582800D01*
%TO.C,R6*%
X92851141Y-67946000D02*
X92543859Y-67946000D01*
X92851141Y-68706000D02*
X92543859Y-68706000D01*
%TO.C,R1*%
X72543641Y-69470000D02*
X72236359Y-69470000D01*
X72543641Y-70230000D02*
X72236359Y-70230000D01*
%TO.C,R2*%
X79856359Y-68962000D02*
X80163641Y-68962000D01*
X79856359Y-69722000D02*
X80163641Y-69722000D01*
%TO.C,C4*%
X87235420Y-81790000D02*
X87516580Y-81790000D01*
X87235420Y-80770000D02*
X87516580Y-80770000D01*
%TO.C,J2*%
X117799829Y-105713169D02*
X117799829Y-104713169D01*
X118799829Y-110213169D02*
X118799829Y-110713169D01*
X115299829Y-110213169D02*
X115299829Y-110713169D01*
X117299829Y-110213169D02*
X117299829Y-110713169D01*
X117799829Y-104713169D02*
X115799829Y-104713169D01*
X107879829Y-111013169D02*
X107879829Y-98213169D01*
X120299829Y-110713169D02*
X113299829Y-110713169D01*
X117799829Y-110213169D02*
X117799829Y-110713169D01*
X114799829Y-106713169D02*
X113299829Y-106713169D01*
X120299829Y-110713169D02*
X120299829Y-106713169D01*
X125579829Y-111013169D02*
X125579829Y-98213169D01*
X115799829Y-105713169D02*
X114799829Y-105713169D01*
X114799829Y-105713169D02*
X114799829Y-106713169D01*
X118799829Y-106713169D02*
X118799829Y-105713169D01*
X125579829Y-111013169D02*
X107879829Y-111013169D01*
X118799829Y-105713169D02*
X117799829Y-105713169D01*
X118299829Y-110213169D02*
X118299829Y-110713169D01*
X116299829Y-110213169D02*
X116299829Y-110713169D01*
X116764829Y-110213169D02*
X116764829Y-110713169D01*
X113299829Y-106713169D02*
X113299829Y-110713169D01*
X120299829Y-106713169D02*
X118799829Y-106713169D01*
X115799829Y-104713169D02*
X115799829Y-105713169D01*
X115799829Y-110213169D02*
X115799829Y-110713169D01*
X125579829Y-98213169D02*
X107879829Y-98213169D01*
%TO.C,R8*%
X92851141Y-73620000D02*
X92543859Y-73620000D01*
X92851141Y-72860000D02*
X92543859Y-72860000D01*
%TO.C,SW1*%
X121172000Y-92886000D02*
X121622000Y-92436000D01*
X121172000Y-89486000D02*
X121622000Y-89936000D01*
X117872000Y-93936000D02*
X119872000Y-93936000D01*
X116572000Y-92886000D02*
X116122000Y-92436000D01*
X116122000Y-92436000D02*
X116122000Y-89936000D01*
X121622000Y-92436000D02*
X121622000Y-89936000D01*
X117872000Y-88436000D02*
X119872000Y-88436000D01*
X116572000Y-89486000D02*
X116122000Y-89936000D01*
%TO.C,D1*%
X86386500Y-67591000D02*
X86386500Y-69061000D01*
X88671500Y-67591000D02*
X86386500Y-67591000D01*
X86386500Y-69061000D02*
X88671500Y-69061000D01*
%TO.C,C6*%
X81426164Y-82190000D02*
X81641836Y-82190000D01*
X81426164Y-82910000D02*
X81641836Y-82910000D01*
%TO.C,R9*%
X92287859Y-63120000D02*
X92595141Y-63120000D01*
X92287859Y-63880000D02*
X92595141Y-63880000D01*
%TO.C,R5*%
X97181641Y-68706000D02*
X96874359Y-68706000D01*
X97181641Y-67946000D02*
X96874359Y-67946000D01*
%TO.C,U3*%
X105606500Y-79098000D02*
X105606500Y-79878000D01*
X123846500Y-79098000D02*
X123846500Y-79878000D01*
X123846500Y-79878000D02*
X122846500Y-79878000D01*
X105606500Y-79878000D02*
X106606500Y-79878000D01*
%TO.C,U1*%
X82530000Y-76200000D02*
X82530000Y-78150000D01*
X72410000Y-76200000D02*
X72410000Y-74250000D01*
X82530000Y-76200000D02*
X82530000Y-72750000D01*
X72410000Y-76200000D02*
X72410000Y-78150000D01*
%TO.C,J1*%
X71730000Y-65440000D02*
X71730000Y-63640000D01*
X80670000Y-65440000D02*
X80670000Y-63640000D01*
%TO.C,C3*%
X101475164Y-63860000D02*
X101690836Y-63860000D01*
X101475164Y-63140000D02*
X101690836Y-63140000D01*
%TO.C,D4*%
X86386500Y-72417000D02*
X86386500Y-73887000D01*
X88671500Y-72417000D02*
X86386500Y-72417000D01*
X86386500Y-73887000D02*
X88671500Y-73887000D01*
%TO.C,D2*%
X102908000Y-103913000D02*
X100623000Y-103913000D01*
X100623000Y-105383000D02*
X102908000Y-105383000D01*
X100623000Y-103913000D02*
X100623000Y-105383000D01*
%TO.C,C5*%
X99935420Y-80770000D02*
X100216580Y-80770000D01*
X99935420Y-81790000D02*
X100216580Y-81790000D01*
%TO.C,R3*%
X96823559Y-72873600D02*
X97130841Y-72873600D01*
X96823559Y-73633600D02*
X97130841Y-73633600D01*
%TD*%
%LPC*%
D13*
%TO.C,U2*%
X73373000Y-92710000D03*
D14*
X73373000Y-95250000D03*
X73373000Y-97790000D03*
X73373000Y-100330000D03*
X73373000Y-102870000D03*
X73373000Y-105410000D03*
X73373000Y-107950000D03*
X73373000Y-110490000D03*
X96233000Y-110490000D03*
X96233000Y-107950000D03*
X96233000Y-105410000D03*
X96233000Y-102870000D03*
X96233000Y-100330000D03*
X96233000Y-97790000D03*
X96233000Y-95250000D03*
X96233000Y-92710000D03*
%TD*%
D15*
%TO.C,C2*%
X97816000Y-63500000D03*
X96266000Y-63500000D03*
%TD*%
D16*
%TO.C,R4*%
X102797231Y-108978000D03*
X101777231Y-108978000D03*
%TD*%
D17*
%TO.C,C1*%
X101837000Y-68326000D03*
X100877000Y-68326000D03*
%TD*%
D18*
%TO.C,U4*%
X90576000Y-78980000D03*
D19*
X96876000Y-81280000D03*
D18*
X90576000Y-81280000D03*
X90576000Y-83580000D03*
%TD*%
D20*
%TO.C,D3*%
X87040000Y-63500000D03*
X88615000Y-63500000D03*
%TD*%
D21*
%TO.C,R7*%
X101101000Y-73202800D03*
X102121000Y-73202800D03*
%TD*%
D16*
%TO.C,R6*%
X93207500Y-68326000D03*
X92187500Y-68326000D03*
%TD*%
%TO.C,R1*%
X72900000Y-69850000D03*
X71880000Y-69850000D03*
%TD*%
D21*
%TO.C,R2*%
X79500000Y-69342000D03*
X80520000Y-69342000D03*
%TD*%
D22*
%TO.C,C4*%
X86601000Y-81280000D03*
X88151000Y-81280000D03*
%TD*%
D23*
%TO.C,J2*%
X124229829Y-105013169D03*
X109229829Y-105013169D03*
D24*
X120299829Y-102713169D03*
D25*
X119279829Y-100173169D03*
X118259829Y-102713169D03*
X117239829Y-100173169D03*
X116219829Y-102713169D03*
X115199829Y-100173169D03*
X114179829Y-102713169D03*
X113159829Y-100173169D03*
%TD*%
D16*
%TO.C,R8*%
X93207500Y-73240000D03*
X92187500Y-73240000D03*
%TD*%
D26*
%TO.C,SW1*%
X116972000Y-94336000D03*
X116972000Y-88036000D03*
X120772000Y-94336000D03*
X120772000Y-88036000D03*
%TD*%
D20*
%TO.C,D1*%
X87084000Y-68326000D03*
X88659000Y-68326000D03*
%TD*%
D27*
%TO.C,C6*%
X81054000Y-82550000D03*
X82014000Y-82550000D03*
%TD*%
D21*
%TO.C,R9*%
X91931500Y-63500000D03*
X92951500Y-63500000D03*
%TD*%
D16*
%TO.C,R5*%
X97538000Y-68326000D03*
X96518000Y-68326000D03*
%TD*%
D28*
%TO.C,U3*%
X105976500Y-61748000D03*
X105976500Y-63018000D03*
X105976500Y-64288000D03*
X105976500Y-65558000D03*
X105976500Y-66828000D03*
X105976500Y-68098000D03*
X105976500Y-69368000D03*
X105976500Y-70638000D03*
X105976500Y-71908000D03*
X105976500Y-73178000D03*
X105976500Y-74448000D03*
X105976500Y-75718000D03*
X105976500Y-76988000D03*
X105976500Y-78258000D03*
D29*
X109016500Y-79508000D03*
X110286500Y-79508000D03*
X111556500Y-79508000D03*
X112826500Y-79508000D03*
X114096500Y-79508000D03*
X115366500Y-79508000D03*
X116636500Y-79508000D03*
X117906500Y-79508000D03*
X119176500Y-79508000D03*
X120446500Y-79508000D03*
D28*
X123476500Y-78258000D03*
X123476500Y-76988000D03*
X123476500Y-75718000D03*
X123476500Y-74448000D03*
X123476500Y-73178000D03*
X123476500Y-71908000D03*
X123476500Y-70638000D03*
X123476500Y-69368000D03*
X123476500Y-68098000D03*
X123476500Y-66828000D03*
X123476500Y-65558000D03*
X123476500Y-64288000D03*
X123476500Y-63018000D03*
X123476500Y-61748000D03*
D30*
X114809000Y-67563000D03*
X114046500Y-69850500D03*
X114809000Y-70613000D03*
X113284000Y-69088000D03*
X114809000Y-69088000D03*
X112521500Y-69850500D03*
X114046500Y-68325500D03*
X113284000Y-70613000D03*
X115571500Y-68325500D03*
X115571500Y-69850500D03*
X112521500Y-68325500D03*
X113284000Y-67563000D03*
D31*
X114046500Y-69088000D03*
%TD*%
D32*
%TO.C,U1*%
X81915000Y-73725000D03*
X80645000Y-73725000D03*
X79375000Y-73725000D03*
X78105000Y-73725000D03*
X76835000Y-73725000D03*
X75565000Y-73725000D03*
X74295000Y-73725000D03*
X73025000Y-73725000D03*
X73025000Y-78675000D03*
X74295000Y-78675000D03*
X75565000Y-78675000D03*
X76835000Y-78675000D03*
X78105000Y-78675000D03*
X79375000Y-78675000D03*
X80645000Y-78675000D03*
X81915000Y-78675000D03*
%TD*%
D33*
%TO.C,J1*%
X73310000Y-66220000D03*
X79090000Y-66220000D03*
D34*
X79400000Y-67280000D03*
X78600000Y-67280000D03*
D35*
X77450000Y-67280000D03*
X76450000Y-67280000D03*
X75950000Y-67280000D03*
X74950000Y-67280000D03*
D34*
X73800000Y-67280000D03*
X73000000Y-67280000D03*
X73000000Y-67280000D03*
X73800000Y-67280000D03*
D35*
X74450000Y-67280000D03*
X75450000Y-67280000D03*
X76950000Y-67280000D03*
X77950000Y-67280000D03*
D34*
X78600000Y-67280000D03*
X79400000Y-67280000D03*
D36*
X71880000Y-66700000D03*
D37*
X80520000Y-62530000D03*
D36*
X80520000Y-66700000D03*
D37*
X71880000Y-62530000D03*
%TD*%
D27*
%TO.C,C3*%
X101103000Y-63500000D03*
X102063000Y-63500000D03*
%TD*%
D20*
%TO.C,D4*%
X87084000Y-73152000D03*
X88659000Y-73152000D03*
%TD*%
%TO.C,D2*%
X101320500Y-104648000D03*
X102895500Y-104648000D03*
%TD*%
D22*
%TO.C,C5*%
X99301000Y-81280000D03*
X100851000Y-81280000D03*
%TD*%
D21*
%TO.C,R3*%
X96467200Y-73253600D03*
X97487200Y-73253600D03*
%TD*%
M02*
