M48
INCH
T1C0.0118
T2C0.0157
T3C0.0236
T4C0.0354
T5C0.0394
%
G90
G05
T1
X4.43Y-2.69
X4.43Y-2.75
X4.46Y-2.66
X4.46Y-2.72
X4.46Y-2.78
X4.49Y-2.69
X4.49Y-2.75
X4.52Y-2.66
X4.52Y-2.72
X4.52Y-2.78
X4.5501Y-2.69
X4.5501Y-2.75
T2
X2.85Y-3.28
X2.85Y-3.51
X2.92Y-2.79
X2.9426Y-2.5
X2.98Y-2.58
X2.9818Y-2.7018
X3.0183Y-2.7018
X3.02Y-2.56
X3.05Y-2.5
X3.08Y-2.79
X3.09Y-3.2
X3.09Y-3.28
X3.09Y-3.5
X3.09Y-3.75
X3.09Y-4.23
X3.09Y-4.42
X3.13Y-3.18
X3.14Y-2.83
X3.21Y-2.84
X3.29Y-2.46
X3.29Y-2.64
X3.29Y-3.24
X3.34Y-4.04
X3.34Y-4.23
X3.34Y-4.42
X3.36Y-2.84
X3.36Y-3.01
X3.36Y-3.23
X3.36Y-3.5
X3.48Y-3.32
X3.57Y-2.83
X3.58Y-3.01
X3.59Y-4.04
X3.59Y-4.23
X3.59Y-4.42
X3.6Y-3.81
X3.72Y-2.7
X3.73Y-2.54
X3.76Y-2.94
X3.8144Y-2.7288
X3.88Y-2.83
X3.88Y-3.11
X3.89Y-2.88
X3.91Y-3.6
X3.91Y-4.42
X3.92Y-2.64
X3.96Y-3.07
X3.9803Y-2.7227
X4.01Y-2.83
X4.07Y-2.53
X4.07Y-2.84
X4.16Y-3.8
X4.16Y-4.03
X4.17Y-4.22
X4.17Y-4.42
X4.26Y-2.7544
X4.33Y-2.51
X4.34Y-2.95
X4.34Y-4.24
X4.35Y-3.61
X4.35Y-3.8
X4.35Y-4.03
X4.35Y-4.42
X4.4362Y-3.8438
X4.5362Y-3.8438
X4.63Y-4.42
X4.6362Y-3.8438
X4.67Y-2.51
X4.67Y-2.95
X4.7362Y-3.8438
X4.78Y-2.58
X4.79Y-2.64
X4.8Y-3.08
X4.87Y-4.42
X4.96Y-3.35
X4.96Y-3.59
X5.03Y-3.05
X5.08Y-2.55
X5.08Y-2.8
X5.08Y-2.95
X5.08Y-3.97
X5.17Y-4.24
X5.17Y-4.42
X5.23Y-2.47
T4
X4.4551Y-3.9438
X4.4953Y-4.0438
X4.5354Y-3.9438
X4.5756Y-4.0438
X4.6157Y-3.9438
X4.6559Y-4.0438
X4.6961Y-3.9438
X4.7362Y-4.0438
T5
X2.8887Y-3.65
X2.8887Y-3.75
X2.8887Y-3.85
X2.8887Y-3.95
X2.8887Y-4.05
X2.8887Y-4.15
X2.8887Y-4.25
X2.8887Y-4.35
X3.7887Y-3.65
X3.7887Y-3.75
X3.7887Y-3.85
X3.7887Y-3.95
X3.7887Y-4.05
X3.7887Y-4.15
X3.7887Y-4.25
X3.7887Y-4.35
T3
G00X2.8299Y-2.4461
M15
G01X2.8299Y-2.4776
M16
G05
G00X2.8299Y-2.6043
M15
G01X2.8299Y-2.6476
M16
G05
G00X3.1701Y-2.4461
M15
G01X3.1701Y-2.4776
M16
G05
G00X3.1701Y-2.6043
M15
G01X3.1701Y-2.6476
M16
G05
T0
M30
