%TF.GenerationSoftware,KiCad,Pcbnew,(6.0.11-0)*%
%TF.CreationDate,2023-03-27T22:19:29-07:00*%
%TF.ProjectId,LED,4c45442e-6b69-4636-9164-5f7063625858,rev?*%
%TF.SameCoordinates,Original*%
%TF.FileFunction,Copper,L2,Bot*%
%TF.FilePolarity,Positive*%
%FSLAX46Y46*%
G04 Gerber Fmt 4.6, Leading zero omitted, Abs format (unit mm)*
G04 Created by KiCad (PCBNEW (6.0.11-0)) date 2023-03-27 22:19:29*
%MOMM*%
%LPD*%
G01*
G04 APERTURE LIST*
%TA.AperFunction,ComponentPad*%
%ADD10R,2.000000X2.000000*%
%TD*%
%TA.AperFunction,ComponentPad*%
%ADD11O,2.000000X1.600000*%
%TD*%
%TA.AperFunction,ComponentPad*%
%ADD12R,1.500000X1.500000*%
%TD*%
%TA.AperFunction,ComponentPad*%
%ADD13C,1.500000*%
%TD*%
%TA.AperFunction,HeatsinkPad*%
%ADD14C,0.700000*%
%TD*%
%TA.AperFunction,ComponentPad*%
%ADD15O,0.900000X2.000000*%
%TD*%
%TA.AperFunction,ComponentPad*%
%ADD16O,0.900000X1.700000*%
%TD*%
%TA.AperFunction,ViaPad*%
%ADD17C,0.800000*%
%TD*%
%TA.AperFunction,Conductor*%
%ADD18C,0.250000*%
%TD*%
G04 APERTURE END LIST*
D10*
%TO.P,U2,1,~{RST}*%
%TO.N,unconnected-(U2-Pad1)*%
X73373000Y-92710000D03*
D11*
%TO.P,U2,2,A0*%
%TO.N,unconnected-(U2-Pad2)*%
X73373000Y-95250000D03*
%TO.P,U2,3,D0*%
%TO.N,unconnected-(U2-Pad3)*%
X73373000Y-97790000D03*
%TO.P,U2,4,SCK/D5*%
%TO.N,/W_SIG*%
X73373000Y-100330000D03*
%TO.P,U2,5,MISO/D6*%
%TO.N,/B_SIG*%
X73373000Y-102870000D03*
%TO.P,U2,6,MOSI/D7*%
%TO.N,/R_SIG*%
X73373000Y-105410000D03*
%TO.P,U2,7,CS/D8*%
%TO.N,/G_SIG*%
X73373000Y-107950000D03*
%TO.P,U2,8,3V3*%
%TO.N,unconnected-(U2-Pad8)*%
X73373000Y-110490000D03*
%TO.P,U2,9,5V*%
%TO.N,Net-(R4-Pad2)*%
X96233000Y-110490000D03*
%TO.P,U2,10,GND*%
%TO.N,/WEMOS_GND*%
X96233000Y-107950000D03*
%TO.P,U2,11,D4*%
%TO.N,unconnected-(U2-Pad11)*%
X96233000Y-105410000D03*
%TO.P,U2,12,D3*%
%TO.N,unconnected-(U2-Pad12)*%
X96233000Y-102870000D03*
%TO.P,U2,13,SDA/D2*%
%TO.N,/ARGB1*%
X96233000Y-100330000D03*
%TO.P,U2,14,SCL/D1*%
%TO.N,/ARGB2*%
X96233000Y-97790000D03*
%TO.P,U2,15,RX*%
%TO.N,unconnected-(U2-Pad15)*%
X96233000Y-95250000D03*
%TO.P,U2,16,TX*%
%TO.N,unconnected-(U2-Pad16)*%
X96233000Y-92710000D03*
%TD*%
D12*
%TO.P,J2,1*%
%TO.N,/PIN1_GOOD*%
X120299829Y-102713169D03*
D13*
%TO.P,J2,2*%
%TO.N,/PIN2_GOOD*%
X119279829Y-100173169D03*
%TO.P,J2,3*%
%TO.N,/PIN3_GOOD*%
X118259829Y-102713169D03*
%TO.P,J2,4*%
%TO.N,/PIN4_GOOD*%
X117239829Y-100173169D03*
%TO.P,J2,5*%
%TO.N,/PIN5_GOOD*%
X116219829Y-102713169D03*
%TO.P,J2,6*%
%TO.N,/PIN6_GOOD*%
X115199829Y-100173169D03*
%TO.P,J2,7*%
%TO.N,/PIN7_GOOD*%
X114179829Y-102713169D03*
%TO.P,J2,8*%
%TO.N,/PIN8_GOOD*%
X113159829Y-100173169D03*
%TD*%
D14*
%TO.P,U3,39,GND*%
%TO.N,GND*%
X114809000Y-67563000D03*
X114046500Y-69850500D03*
X114809000Y-70613000D03*
X113284000Y-69088000D03*
X114809000Y-69088000D03*
X112521500Y-69850500D03*
X114046500Y-68325500D03*
X113284000Y-70613000D03*
X115571500Y-68325500D03*
X115571500Y-69850500D03*
X112521500Y-68325500D03*
X113284000Y-67563000D03*
%TD*%
D15*
%TO.P,J1,S1,SHIELD*%
%TO.N,GND*%
X71880000Y-66700000D03*
D16*
X80520000Y-62530000D03*
D15*
X80520000Y-66700000D03*
D16*
X71880000Y-62530000D03*
%TD*%
D17*
%TO.N,/RST*%
X96886500Y-69311281D03*
X101100769Y-69157216D03*
X90678000Y-71882000D03*
X79502000Y-80772000D03*
%TO.N,GND*%
X109982000Y-63754000D03*
X83566000Y-82296000D03*
X83566000Y-62484000D03*
X110490000Y-112268000D03*
X85344000Y-88900000D03*
X84836000Y-102616000D03*
X94742000Y-64516000D03*
X105664000Y-102362000D03*
X91186000Y-102616000D03*
X117602000Y-112268000D03*
X125984000Y-85090000D03*
X129032000Y-100838000D03*
X100584000Y-77978000D03*
X91186000Y-112268000D03*
X131318000Y-107696000D03*
X72390000Y-89154000D03*
X85344000Y-72136000D03*
X78232000Y-70866000D03*
X110490000Y-96520000D03*
X99314000Y-91440000D03*
X84836000Y-107442000D03*
X131318000Y-112268000D03*
X110236000Y-74930000D03*
X90932000Y-76454000D03*
X91186000Y-107442000D03*
X78486000Y-95250000D03*
X78486000Y-88900000D03*
X123698000Y-112268000D03*
X78486000Y-83312000D03*
X118618000Y-74930000D03*
X110490000Y-91694000D03*
X132842000Y-62738000D03*
X91440000Y-96774000D03*
X99314000Y-112268000D03*
X105918000Y-112268000D03*
X105918000Y-107188000D03*
X78486000Y-107442000D03*
X110490000Y-102362000D03*
X85344000Y-76454000D03*
X118618000Y-63754000D03*
X78486000Y-112268000D03*
X74168000Y-70866000D03*
X125984000Y-91186000D03*
X110236000Y-107696000D03*
X99568000Y-67056000D03*
X83566000Y-67056000D03*
X103378000Y-64262000D03*
X84836000Y-112268000D03*
X105664000Y-96520000D03*
X72390000Y-83312000D03*
%TO.N,+3.3V*%
X98552000Y-78994000D03*
X98806000Y-73152000D03*
%TO.N,+5V*%
X74742194Y-63500000D03*
X85344000Y-82042000D03*
X88392000Y-84328000D03*
X77470000Y-63500000D03*
%TO.N,/D+*%
X75692000Y-65532000D03*
X76665303Y-68626763D03*
%TO.N,/D-*%
X76708000Y-65024000D03*
X75738800Y-68626763D03*
%TO.N,Net-(R3-Pad1)*%
X78486000Y-81280000D03*
X95504000Y-74676000D03*
%TO.N,/GPI0O*%
X103378000Y-72136000D03*
X121920000Y-78232000D03*
%TO.N,Net-(U3-Pad8)*%
X98552000Y-71882000D03*
X101854000Y-71882000D03*
%TO.N,/TXD*%
X81534000Y-72136000D03*
X121666000Y-67056000D03*
%TO.N,/RXD*%
X79756000Y-71882000D03*
X121412000Y-65532000D03*
%TO.N,/PIN2_GOOD*%
X129032000Y-64770000D03*
X120299829Y-97633169D03*
%TO.N,/PIN4_GOOD*%
X129032000Y-71120000D03*
X117759829Y-97633169D03*
%TO.N,/PIN6_GOOD*%
X115219829Y-97633169D03*
X129032000Y-74930000D03*
%TO.N,/PIN8_GOOD*%
X127762000Y-77470000D03*
X112679829Y-97633169D03*
%TO.N,Net-(U3-Pad24)*%
X94488000Y-68580000D03*
X108204000Y-69960500D03*
%TD*%
D18*
%TO.N,/RST*%
X90678000Y-73406000D02*
X90678000Y-71882000D01*
X79502000Y-80772000D02*
X83312000Y-80772000D01*
X101100769Y-69157216D02*
X100946704Y-69311281D01*
X83312000Y-80772000D02*
X90678000Y-73406000D01*
X100946704Y-69311281D02*
X96886500Y-69311281D01*
%TO.N,+3.3V*%
X98806000Y-73152000D02*
X98552000Y-73406000D01*
X98552000Y-73406000D02*
X98552000Y-78994000D01*
%TO.N,+5V*%
X86106000Y-82042000D02*
X88392000Y-84328000D01*
X85344000Y-82042000D02*
X86106000Y-82042000D01*
X74742194Y-63500000D02*
X77470000Y-63500000D01*
%TO.N,/D+*%
X76665303Y-66505303D02*
X75692000Y-65532000D01*
X76665303Y-68626763D02*
X76665303Y-66505303D01*
%TO.N,/D-*%
X75692000Y-64516000D02*
X76200000Y-64516000D01*
X75040000Y-67927963D02*
X75040000Y-65168000D01*
X75738800Y-68626763D02*
X75040000Y-67927963D01*
X76200000Y-64516000D02*
X76708000Y-65024000D01*
X75040000Y-65168000D02*
X75692000Y-64516000D01*
%TO.N,Net-(R3-Pad1)*%
X78630000Y-81424000D02*
X83676000Y-81424000D01*
X83676000Y-81424000D02*
X90424000Y-74676000D01*
X78486000Y-81280000D02*
X78630000Y-81424000D01*
X90424000Y-74676000D02*
X95504000Y-74676000D01*
%TO.N,/GPI0O*%
X117254068Y-72136000D02*
X121920000Y-76801932D01*
X121920000Y-76801932D02*
X121920000Y-78232000D01*
X103378000Y-72136000D02*
X117254068Y-72136000D01*
%TO.N,Net-(U3-Pad8)*%
X98552000Y-71882000D02*
X101854000Y-71882000D01*
%TO.N,/TXD*%
X82550000Y-71120000D02*
X101854000Y-71120000D01*
X117507000Y-71215000D02*
X121666000Y-67056000D01*
X101949000Y-71215000D02*
X117507000Y-71215000D01*
X101854000Y-71120000D02*
X101949000Y-71215000D01*
X81534000Y-72136000D02*
X82550000Y-71120000D01*
%TO.N,/RXD*%
X114463643Y-65532000D02*
X121412000Y-65532000D01*
X81026000Y-70612000D02*
X109383643Y-70612000D01*
X79756000Y-71882000D02*
X81026000Y-70612000D01*
X109383643Y-70612000D02*
X114463643Y-65532000D01*
%TO.N,/PIN2_GOOD*%
X129032000Y-64770000D02*
X132491829Y-68229829D01*
X128681829Y-97633169D02*
X120299829Y-97633169D01*
X132491829Y-93823169D02*
X128681829Y-97633169D01*
X132491829Y-68229829D02*
X132491829Y-93823169D01*
%TO.N,/PIN4_GOOD*%
X119029829Y-96363169D02*
X117759829Y-97633169D01*
X129032000Y-71120000D02*
X131221829Y-73309829D01*
X131221829Y-73309829D02*
X131221829Y-92553169D01*
X127411829Y-96363169D02*
X119029829Y-96363169D01*
X131221829Y-92553169D02*
X127411829Y-96363169D01*
%TO.N,/PIN6_GOOD*%
X117759829Y-95093169D02*
X125886831Y-95093169D01*
X126140831Y-95093169D02*
X125886831Y-95093169D01*
X125886831Y-95093169D02*
X126141829Y-95093169D01*
X129032000Y-74930000D02*
X129032000Y-92202000D01*
X129032000Y-92202000D02*
X126140831Y-95093169D01*
X117759829Y-95093169D02*
X115219829Y-97633169D01*
%TO.N,/PIN8_GOOD*%
X112679829Y-97633169D02*
X116489829Y-93823169D01*
X127762000Y-77470000D02*
X127762000Y-92202998D01*
X126141829Y-93823169D02*
X116489829Y-93823169D01*
X127762000Y-92202998D02*
X126141829Y-93823169D01*
%TO.N,Net-(U3-Pad24)*%
X108204000Y-70104000D02*
X108204000Y-69960500D01*
X94488000Y-68580000D02*
X96012000Y-70104000D01*
X96012000Y-70104000D02*
X108204000Y-70104000D01*
%TD*%
%TA.AperFunction,Conductor*%
%TO.N,GND*%
G36*
X134578691Y-60527407D02*
G01*
X134614655Y-60576907D01*
X134619500Y-60607500D01*
X134619500Y-114200500D01*
X134600593Y-114258691D01*
X134551093Y-114294655D01*
X134520500Y-114299500D01*
X70607500Y-114299500D01*
X70549309Y-114280593D01*
X70513345Y-114231093D01*
X70508500Y-114200500D01*
X70508500Y-110490000D01*
X71859502Y-110490000D01*
X71879457Y-110718087D01*
X71938716Y-110939243D01*
X72035477Y-111146749D01*
X72166802Y-111334300D01*
X72328700Y-111496198D01*
X72516251Y-111627523D01*
X72723757Y-111724284D01*
X72727928Y-111725402D01*
X72727929Y-111725402D01*
X72940736Y-111782424D01*
X72940739Y-111782424D01*
X72944913Y-111783543D01*
X72989508Y-111787445D01*
X73113707Y-111798311D01*
X73113718Y-111798311D01*
X73115873Y-111798500D01*
X73630127Y-111798500D01*
X73632282Y-111798311D01*
X73632293Y-111798311D01*
X73756492Y-111787445D01*
X73801087Y-111783543D01*
X73805261Y-111782424D01*
X73805264Y-111782424D01*
X74018071Y-111725402D01*
X74018072Y-111725402D01*
X74022243Y-111724284D01*
X74229749Y-111627523D01*
X74417300Y-111496198D01*
X74579198Y-111334300D01*
X74710523Y-111146749D01*
X74807284Y-110939243D01*
X74866543Y-110718087D01*
X74886498Y-110490000D01*
X94719502Y-110490000D01*
X94739457Y-110718087D01*
X94798716Y-110939243D01*
X94895477Y-111146749D01*
X95026802Y-111334300D01*
X95188700Y-111496198D01*
X95376251Y-111627523D01*
X95583757Y-111724284D01*
X95587928Y-111725402D01*
X95587929Y-111725402D01*
X95800736Y-111782424D01*
X95800739Y-111782424D01*
X95804913Y-111783543D01*
X95849508Y-111787445D01*
X95973707Y-111798311D01*
X95973718Y-111798311D01*
X95975873Y-111798500D01*
X96490127Y-111798500D01*
X96492282Y-111798311D01*
X96492293Y-111798311D01*
X96616492Y-111787445D01*
X96661087Y-111783543D01*
X96665261Y-111782424D01*
X96665264Y-111782424D01*
X96878071Y-111725402D01*
X96878072Y-111725402D01*
X96882243Y-111724284D01*
X97089749Y-111627523D01*
X97277300Y-111496198D01*
X97439198Y-111334300D01*
X97570523Y-111146749D01*
X97667284Y-110939243D01*
X97726543Y-110718087D01*
X97746498Y-110490000D01*
X97726543Y-110261913D01*
X97667284Y-110040757D01*
X97570523Y-109833251D01*
X97439198Y-109645700D01*
X97277300Y-109483802D01*
X97089749Y-109352477D01*
X97085841Y-109350654D01*
X97085838Y-109350653D01*
X96998066Y-109309725D01*
X96953318Y-109267997D01*
X96941643Y-109207935D01*
X96967501Y-109152482D01*
X96998066Y-109130275D01*
X97085838Y-109089347D01*
X97085841Y-109089346D01*
X97089749Y-109087523D01*
X97277300Y-108956198D01*
X97439198Y-108794300D01*
X97570523Y-108606749D01*
X97667284Y-108399243D01*
X97726543Y-108178087D01*
X97746498Y-107950000D01*
X97726543Y-107721913D01*
X97667284Y-107500757D01*
X97570523Y-107293251D01*
X97439198Y-107105700D01*
X97277300Y-106943802D01*
X97089749Y-106812477D01*
X97085841Y-106810654D01*
X97085838Y-106810653D01*
X96998066Y-106769725D01*
X96953318Y-106727997D01*
X96941643Y-106667935D01*
X96967501Y-106612482D01*
X96998066Y-106590275D01*
X97085838Y-106549347D01*
X97085841Y-106549346D01*
X97089749Y-106547523D01*
X97277300Y-106416198D01*
X97439198Y-106254300D01*
X97570523Y-106066749D01*
X97667284Y-105859243D01*
X97668402Y-105855071D01*
X97725424Y-105642264D01*
X97725424Y-105642261D01*
X97726543Y-105638087D01*
X97746498Y-105410000D01*
X97726543Y-105181913D01*
X97681328Y-105013169D01*
X107566201Y-105013169D01*
X107566506Y-105017044D01*
X107579821Y-105186224D01*
X107586683Y-105273418D01*
X107647625Y-105527258D01*
X107747526Y-105768440D01*
X107883926Y-105991025D01*
X108053466Y-106189532D01*
X108251973Y-106359072D01*
X108474558Y-106495472D01*
X108715740Y-106595373D01*
X108719514Y-106596279D01*
X108719517Y-106596280D01*
X108855088Y-106628828D01*
X108969580Y-106656315D01*
X108973445Y-106656619D01*
X108973450Y-106656620D01*
X109094357Y-106666135D01*
X109164671Y-106671669D01*
X109294987Y-106671669D01*
X109365301Y-106666135D01*
X109486208Y-106656620D01*
X109486213Y-106656619D01*
X109490078Y-106656315D01*
X109604570Y-106628828D01*
X109740141Y-106596280D01*
X109740144Y-106596279D01*
X109743918Y-106595373D01*
X109985100Y-106495472D01*
X110207685Y-106359072D01*
X110406192Y-106189532D01*
X110575732Y-105991025D01*
X110712132Y-105768440D01*
X110812033Y-105527258D01*
X110872975Y-105273418D01*
X110879838Y-105186224D01*
X110893152Y-105017044D01*
X110893457Y-105013169D01*
X122566201Y-105013169D01*
X122566506Y-105017044D01*
X122579821Y-105186224D01*
X122586683Y-105273418D01*
X122647625Y-105527258D01*
X122747526Y-105768440D01*
X122883926Y-105991025D01*
X123053466Y-106189532D01*
X123251973Y-106359072D01*
X123474558Y-106495472D01*
X123715740Y-106595373D01*
X123719514Y-106596279D01*
X123719517Y-106596280D01*
X123855088Y-106628828D01*
X123969580Y-106656315D01*
X123973445Y-106656619D01*
X123973450Y-106656620D01*
X124094357Y-106666135D01*
X124164671Y-106671669D01*
X124294987Y-106671669D01*
X124365301Y-106666135D01*
X124486208Y-106656620D01*
X124486213Y-106656619D01*
X124490078Y-106656315D01*
X124604570Y-106628828D01*
X124740141Y-106596280D01*
X124740144Y-106596279D01*
X124743918Y-106595373D01*
X124985100Y-106495472D01*
X125207685Y-106359072D01*
X125406192Y-106189532D01*
X125575732Y-105991025D01*
X125712132Y-105768440D01*
X125812033Y-105527258D01*
X125872975Y-105273418D01*
X125879838Y-105186224D01*
X125893152Y-105017044D01*
X125893457Y-105013169D01*
X125872975Y-104752920D01*
X125812033Y-104499080D01*
X125712132Y-104257898D01*
X125575732Y-104035313D01*
X125406192Y-103836806D01*
X125207685Y-103667266D01*
X124985100Y-103530866D01*
X124743918Y-103430965D01*
X124740144Y-103430059D01*
X124740141Y-103430058D01*
X124604570Y-103397510D01*
X124490078Y-103370023D01*
X124486213Y-103369719D01*
X124486208Y-103369718D01*
X124365301Y-103360203D01*
X124294987Y-103354669D01*
X124164671Y-103354669D01*
X124094357Y-103360203D01*
X123973450Y-103369718D01*
X123973445Y-103369719D01*
X123969580Y-103370023D01*
X123855088Y-103397510D01*
X123719517Y-103430058D01*
X123719514Y-103430059D01*
X123715740Y-103430965D01*
X123474558Y-103530866D01*
X123251973Y-103667266D01*
X123053466Y-103836806D01*
X122883926Y-104035313D01*
X122747526Y-104257898D01*
X122647625Y-104499080D01*
X122586683Y-104752920D01*
X122566201Y-105013169D01*
X110893457Y-105013169D01*
X110872975Y-104752920D01*
X110812033Y-104499080D01*
X110712132Y-104257898D01*
X110575732Y-104035313D01*
X110406192Y-103836806D01*
X110207685Y-103667266D01*
X109985100Y-103530866D01*
X109743918Y-103430965D01*
X109740144Y-103430059D01*
X109740141Y-103430058D01*
X109604570Y-103397510D01*
X109490078Y-103370023D01*
X109486213Y-103369719D01*
X109486208Y-103369718D01*
X109365301Y-103360203D01*
X109294987Y-103354669D01*
X109164671Y-103354669D01*
X109094357Y-103360203D01*
X108973450Y-103369718D01*
X108973445Y-103369719D01*
X108969580Y-103370023D01*
X108855088Y-103397510D01*
X108719517Y-103430058D01*
X108719514Y-103430059D01*
X108715740Y-103430965D01*
X108474558Y-103530866D01*
X108251973Y-103667266D01*
X108053466Y-103836806D01*
X107883926Y-104035313D01*
X107747526Y-104257898D01*
X107647625Y-104499080D01*
X107586683Y-104752920D01*
X107566201Y-105013169D01*
X97681328Y-105013169D01*
X97667284Y-104960757D01*
X97570523Y-104753251D01*
X97439198Y-104565700D01*
X97277300Y-104403802D01*
X97089749Y-104272477D01*
X97085841Y-104270654D01*
X97085838Y-104270653D01*
X96998066Y-104229725D01*
X96953318Y-104187997D01*
X96941643Y-104127935D01*
X96967501Y-104072482D01*
X96998066Y-104050275D01*
X97085838Y-104009347D01*
X97085841Y-104009346D01*
X97089749Y-104007523D01*
X97277300Y-103876198D01*
X97439198Y-103714300D01*
X97570523Y-103526749D01*
X97667284Y-103319243D01*
X97726543Y-103098087D01*
X97746498Y-102870000D01*
X97726543Y-102641913D01*
X97686856Y-102493798D01*
X97668402Y-102424929D01*
X97668402Y-102424928D01*
X97667284Y-102420757D01*
X97570523Y-102213251D01*
X97439198Y-102025700D01*
X97277300Y-101863802D01*
X97089749Y-101732477D01*
X97085841Y-101730654D01*
X97085838Y-101730653D01*
X97032169Y-101705627D01*
X96998066Y-101689725D01*
X96953318Y-101647997D01*
X96941643Y-101587935D01*
X96967501Y-101532482D01*
X96998066Y-101510275D01*
X96998485Y-101510080D01*
X97034811Y-101493141D01*
X97085838Y-101469347D01*
X97085841Y-101469346D01*
X97089749Y-101467523D01*
X97277300Y-101336198D01*
X97439198Y-101174300D01*
X97570523Y-100986749D01*
X97667284Y-100779243D01*
X97726543Y-100558087D01*
X97746498Y-100330000D01*
X97732777Y-100173169D01*
X111896522Y-100173169D01*
X111915714Y-100392540D01*
X111972709Y-100605245D01*
X112065773Y-100804822D01*
X112192080Y-100985207D01*
X112347791Y-101140918D01*
X112528175Y-101267225D01*
X112532087Y-101269049D01*
X112681406Y-101338677D01*
X112727753Y-101360289D01*
X112940458Y-101417284D01*
X113159829Y-101436476D01*
X113379200Y-101417284D01*
X113591905Y-101360289D01*
X113638253Y-101338677D01*
X113787571Y-101269049D01*
X113791483Y-101267225D01*
X113971867Y-101140918D01*
X114109825Y-101002960D01*
X114164342Y-100975183D01*
X114224774Y-100984754D01*
X114249833Y-101002960D01*
X114387791Y-101140918D01*
X114568175Y-101267225D01*
X114572087Y-101269049D01*
X114721406Y-101338677D01*
X114767753Y-101360289D01*
X114980458Y-101417284D01*
X115199829Y-101436476D01*
X115419200Y-101417284D01*
X115631905Y-101360289D01*
X115678253Y-101338677D01*
X115827571Y-101269049D01*
X115831483Y-101267225D01*
X116011867Y-101140918D01*
X116149825Y-101002960D01*
X116204342Y-100975183D01*
X116264774Y-100984754D01*
X116289833Y-101002960D01*
X116427791Y-101140918D01*
X116608175Y-101267225D01*
X116612087Y-101269049D01*
X116761406Y-101338677D01*
X116807753Y-101360289D01*
X117020458Y-101417284D01*
X117239829Y-101436476D01*
X117459200Y-101417284D01*
X117671905Y-101360289D01*
X117718253Y-101338677D01*
X117867571Y-101269049D01*
X117871483Y-101267225D01*
X118051867Y-101140918D01*
X118189825Y-101002960D01*
X118244342Y-100975183D01*
X118304774Y-100984754D01*
X118329833Y-101002960D01*
X118467791Y-101140918D01*
X118648175Y-101267225D01*
X118652087Y-101269049D01*
X118801406Y-101338677D01*
X118847753Y-101360289D01*
X119060458Y-101417284D01*
X119083402Y-101419291D01*
X119134156Y-101423732D01*
X119190477Y-101447639D01*
X119221990Y-101500085D01*
X119216657Y-101561038D01*
X119195531Y-101592359D01*
X119192212Y-101595678D01*
X119186568Y-101599908D01*
X119182338Y-101605552D01*
X119182334Y-101605556D01*
X119133054Y-101671310D01*
X119083026Y-101706535D01*
X119021848Y-101705627D01*
X118997057Y-101693037D01*
X118891483Y-101619113D01*
X118691905Y-101526049D01*
X118479200Y-101469054D01*
X118259829Y-101449862D01*
X118040458Y-101469054D01*
X117827753Y-101526049D01*
X117628176Y-101619113D01*
X117624643Y-101621587D01*
X117624638Y-101621590D01*
X117553631Y-101671310D01*
X117447791Y-101745420D01*
X117309833Y-101883378D01*
X117255316Y-101911155D01*
X117194884Y-101901584D01*
X117169825Y-101883378D01*
X117031867Y-101745420D01*
X116851483Y-101619113D01*
X116651905Y-101526049D01*
X116439200Y-101469054D01*
X116219829Y-101449862D01*
X116000458Y-101469054D01*
X115787753Y-101526049D01*
X115588176Y-101619113D01*
X115584643Y-101621587D01*
X115584638Y-101621590D01*
X115513631Y-101671310D01*
X115407791Y-101745420D01*
X115269833Y-101883378D01*
X115215316Y-101911155D01*
X115154884Y-101901584D01*
X115129825Y-101883378D01*
X114991867Y-101745420D01*
X114811483Y-101619113D01*
X114611905Y-101526049D01*
X114399200Y-101469054D01*
X114179829Y-101449862D01*
X113960458Y-101469054D01*
X113747753Y-101526049D01*
X113548176Y-101619113D01*
X113544643Y-101621587D01*
X113544638Y-101621590D01*
X113473631Y-101671310D01*
X113367791Y-101745420D01*
X113212080Y-101901131D01*
X113085773Y-102081516D01*
X112992709Y-102281093D01*
X112935714Y-102493798D01*
X112916522Y-102713169D01*
X112935714Y-102932540D01*
X112992709Y-103145245D01*
X113085773Y-103344822D01*
X113212080Y-103525207D01*
X113367791Y-103680918D01*
X113548175Y-103807225D01*
X113577257Y-103820786D01*
X113701406Y-103878677D01*
X113747753Y-103900289D01*
X113960458Y-103957284D01*
X114179829Y-103976476D01*
X114399200Y-103957284D01*
X114611905Y-103900289D01*
X114658253Y-103878677D01*
X114782401Y-103820786D01*
X114811483Y-103807225D01*
X114991867Y-103680918D01*
X115129825Y-103542960D01*
X115184342Y-103515183D01*
X115244774Y-103524754D01*
X115269833Y-103542960D01*
X115407791Y-103680918D01*
X115588175Y-103807225D01*
X115617257Y-103820786D01*
X115741406Y-103878677D01*
X115787753Y-103900289D01*
X116000458Y-103957284D01*
X116219829Y-103976476D01*
X116439200Y-103957284D01*
X116651905Y-103900289D01*
X116698253Y-103878677D01*
X116822401Y-103820786D01*
X116851483Y-103807225D01*
X117031867Y-103680918D01*
X117169825Y-103542960D01*
X117224342Y-103515183D01*
X117284774Y-103524754D01*
X117309833Y-103542960D01*
X117447791Y-103680918D01*
X117628175Y-103807225D01*
X117657257Y-103820786D01*
X117781406Y-103878677D01*
X117827753Y-103900289D01*
X118040458Y-103957284D01*
X118259829Y-103976476D01*
X118479200Y-103957284D01*
X118691905Y-103900289D01*
X118738253Y-103878677D01*
X118862401Y-103820786D01*
X118891483Y-103807225D01*
X118997053Y-103733304D01*
X119055561Y-103715416D01*
X119113413Y-103735336D01*
X119133054Y-103755028D01*
X119182334Y-103820782D01*
X119182338Y-103820786D01*
X119186568Y-103826430D01*
X119303124Y-103913784D01*
X119439513Y-103964914D01*
X119445685Y-103965584D01*
X119445687Y-103965585D01*
X119481666Y-103969493D01*
X119501695Y-103971669D01*
X121097963Y-103971669D01*
X121117992Y-103969493D01*
X121153971Y-103965585D01*
X121153973Y-103965584D01*
X121160145Y-103964914D01*
X121296534Y-103913784D01*
X121413090Y-103826430D01*
X121500444Y-103709874D01*
X121551574Y-103573485D01*
X121558329Y-103511303D01*
X121558329Y-101915035D01*
X121553095Y-101866856D01*
X121552245Y-101859027D01*
X121552244Y-101859025D01*
X121551574Y-101852853D01*
X121500444Y-101716464D01*
X121413090Y-101599908D01*
X121296534Y-101512554D01*
X121160145Y-101461424D01*
X121153973Y-101460754D01*
X121153971Y-101460753D01*
X121117992Y-101456845D01*
X121097963Y-101454669D01*
X119955541Y-101454669D01*
X119897350Y-101435762D01*
X119861386Y-101386262D01*
X119861386Y-101325076D01*
X119897350Y-101275576D01*
X119906038Y-101269934D01*
X119907571Y-101269049D01*
X119911483Y-101267225D01*
X120091867Y-101140918D01*
X120247578Y-100985207D01*
X120373885Y-100804822D01*
X120466949Y-100605245D01*
X120523944Y-100392540D01*
X120543136Y-100173169D01*
X120523944Y-99953798D01*
X120466949Y-99741093D01*
X120373885Y-99541516D01*
X120247578Y-99361131D01*
X120091867Y-99205420D01*
X119911483Y-99079113D01*
X119711905Y-98986049D01*
X119499200Y-98929054D01*
X119279829Y-98909862D01*
X119060458Y-98929054D01*
X118847753Y-98986049D01*
X118648176Y-99079113D01*
X118644641Y-99081588D01*
X118644638Y-99081590D01*
X118569285Y-99134353D01*
X118467791Y-99205420D01*
X118329833Y-99343378D01*
X118275316Y-99371155D01*
X118214884Y-99361584D01*
X118189825Y-99343378D01*
X118051867Y-99205420D01*
X117871483Y-99079113D01*
X117671905Y-98986049D01*
X117459200Y-98929054D01*
X117239829Y-98909862D01*
X117020458Y-98929054D01*
X116807753Y-98986049D01*
X116608176Y-99079113D01*
X116604641Y-99081588D01*
X116604638Y-99081590D01*
X116529285Y-99134353D01*
X116427791Y-99205420D01*
X116289833Y-99343378D01*
X116235316Y-99371155D01*
X116174884Y-99361584D01*
X116149825Y-99343378D01*
X116011867Y-99205420D01*
X115831483Y-99079113D01*
X115631905Y-98986049D01*
X115419200Y-98929054D01*
X115199829Y-98909862D01*
X114980458Y-98929054D01*
X114767753Y-98986049D01*
X114568176Y-99079113D01*
X114564641Y-99081588D01*
X114564638Y-99081590D01*
X114489285Y-99134353D01*
X114387791Y-99205420D01*
X114249833Y-99343378D01*
X114195316Y-99371155D01*
X114134884Y-99361584D01*
X114109825Y-99343378D01*
X113971867Y-99205420D01*
X113791483Y-99079113D01*
X113591905Y-98986049D01*
X113379200Y-98929054D01*
X113159829Y-98909862D01*
X112940458Y-98929054D01*
X112727753Y-98986049D01*
X112528176Y-99079113D01*
X112524641Y-99081588D01*
X112524638Y-99081590D01*
X112449285Y-99134353D01*
X112347791Y-99205420D01*
X112192080Y-99361131D01*
X112065773Y-99541516D01*
X111972709Y-99741093D01*
X111915714Y-99953798D01*
X111896522Y-100173169D01*
X97732777Y-100173169D01*
X97726543Y-100101913D01*
X97686856Y-99953798D01*
X97668402Y-99884929D01*
X97668402Y-99884928D01*
X97667284Y-99880757D01*
X97570523Y-99673251D01*
X97439198Y-99485700D01*
X97277300Y-99323802D01*
X97089749Y-99192477D01*
X97085841Y-99190654D01*
X97085838Y-99190653D01*
X96998066Y-99149725D01*
X96953318Y-99107997D01*
X96941643Y-99047935D01*
X96967501Y-98992482D01*
X96998066Y-98970275D01*
X97085838Y-98929347D01*
X97085841Y-98929346D01*
X97089749Y-98927523D01*
X97277300Y-98796198D01*
X97439198Y-98634300D01*
X97570523Y-98446749D01*
X97653560Y-98268675D01*
X97665459Y-98243157D01*
X97665459Y-98243156D01*
X97667284Y-98239243D01*
X97672658Y-98219187D01*
X97725424Y-98022264D01*
X97725424Y-98022261D01*
X97726543Y-98018087D01*
X97746498Y-97790000D01*
X97732777Y-97633169D01*
X111766325Y-97633169D01*
X111786287Y-97823097D01*
X111787888Y-97828024D01*
X111787889Y-97828029D01*
X111828577Y-97953252D01*
X111845302Y-98004725D01*
X111847894Y-98009214D01*
X111847896Y-98009219D01*
X111901637Y-98102300D01*
X111940789Y-98170113D01*
X111944261Y-98173969D01*
X112065106Y-98308182D01*
X112065110Y-98308186D01*
X112068576Y-98312035D01*
X112223077Y-98424287D01*
X112325552Y-98469911D01*
X112392803Y-98499854D01*
X112392807Y-98499855D01*
X112397541Y-98501963D01*
X112402611Y-98503041D01*
X112402612Y-98503041D01*
X112437746Y-98510509D01*
X112584342Y-98541669D01*
X112775316Y-98541669D01*
X112921912Y-98510509D01*
X112957046Y-98503041D01*
X112957047Y-98503041D01*
X112962117Y-98501963D01*
X112966851Y-98499855D01*
X112966855Y-98499854D01*
X113034106Y-98469911D01*
X113136581Y-98424287D01*
X113291082Y-98312035D01*
X113294548Y-98308186D01*
X113294552Y-98308182D01*
X113415397Y-98173969D01*
X113418869Y-98170113D01*
X113458021Y-98102300D01*
X113511762Y-98009219D01*
X113511764Y-98009214D01*
X113514356Y-98004725D01*
X113531081Y-97953252D01*
X113571769Y-97828029D01*
X113571770Y-97828024D01*
X113573371Y-97823097D01*
X113591736Y-97648368D01*
X113620189Y-97588713D01*
X116723237Y-94485665D01*
X116777754Y-94457888D01*
X116793241Y-94456669D01*
X117255943Y-94456669D01*
X117314134Y-94475576D01*
X117350098Y-94525076D01*
X117350098Y-94586262D01*
X117324726Y-94626241D01*
X117322722Y-94627697D01*
X117318753Y-94632495D01*
X117293736Y-94662735D01*
X117287459Y-94669634D01*
X115261420Y-96695673D01*
X115206903Y-96723450D01*
X115191416Y-96724669D01*
X115124342Y-96724669D01*
X114977746Y-96755829D01*
X114942612Y-96763297D01*
X114942611Y-96763297D01*
X114937541Y-96764375D01*
X114932807Y-96766483D01*
X114932803Y-96766484D01*
X114879995Y-96789996D01*
X114763077Y-96842051D01*
X114608576Y-96954303D01*
X114605110Y-96958152D01*
X114605106Y-96958156D01*
X114544321Y-97025665D01*
X114480789Y-97096225D01*
X114478194Y-97100720D01*
X114387896Y-97257119D01*
X114387894Y-97257124D01*
X114385302Y-97261613D01*
X114383700Y-97266544D01*
X114327889Y-97438309D01*
X114327888Y-97438314D01*
X114326287Y-97443241D01*
X114306325Y-97633169D01*
X114326287Y-97823097D01*
X114327888Y-97828024D01*
X114327889Y-97828029D01*
X114368577Y-97953252D01*
X114385302Y-98004725D01*
X114387894Y-98009214D01*
X114387896Y-98009219D01*
X114441637Y-98102300D01*
X114480789Y-98170113D01*
X114484261Y-98173969D01*
X114605106Y-98308182D01*
X114605110Y-98308186D01*
X114608576Y-98312035D01*
X114763077Y-98424287D01*
X114865552Y-98469911D01*
X114932803Y-98499854D01*
X114932807Y-98499855D01*
X114937541Y-98501963D01*
X114942611Y-98503041D01*
X114942612Y-98503041D01*
X114977746Y-98510509D01*
X115124342Y-98541669D01*
X115315316Y-98541669D01*
X115461912Y-98510509D01*
X115497046Y-98503041D01*
X115497047Y-98503041D01*
X115502117Y-98501963D01*
X115506851Y-98499855D01*
X115506855Y-98499854D01*
X115574106Y-98469911D01*
X115676581Y-98424287D01*
X115831082Y-98312035D01*
X115834548Y-98308186D01*
X115834552Y-98308182D01*
X115955397Y-98173969D01*
X115958869Y-98170113D01*
X115998021Y-98102300D01*
X116051762Y-98009219D01*
X116051764Y-98009214D01*
X116054356Y-98004725D01*
X116071081Y-97953252D01*
X116111769Y-97828029D01*
X116111770Y-97828024D01*
X116113371Y-97823097D01*
X116131736Y-97648368D01*
X116160189Y-97588713D01*
X117993237Y-95755665D01*
X118047754Y-95727888D01*
X118063241Y-95726669D01*
X118525943Y-95726669D01*
X118584134Y-95745576D01*
X118620098Y-95795076D01*
X118620098Y-95856262D01*
X118594726Y-95896241D01*
X118592722Y-95897697D01*
X118564672Y-95931604D01*
X118563736Y-95932735D01*
X118557459Y-95939634D01*
X117801420Y-96695673D01*
X117746903Y-96723450D01*
X117731416Y-96724669D01*
X117664342Y-96724669D01*
X117517746Y-96755829D01*
X117482612Y-96763297D01*
X117482611Y-96763297D01*
X117477541Y-96764375D01*
X117472807Y-96766483D01*
X117472803Y-96766484D01*
X117419995Y-96789996D01*
X117303077Y-96842051D01*
X117148576Y-96954303D01*
X117145110Y-96958152D01*
X117145106Y-96958156D01*
X117084321Y-97025665D01*
X117020789Y-97096225D01*
X117018194Y-97100720D01*
X116927896Y-97257119D01*
X116927894Y-97257124D01*
X116925302Y-97261613D01*
X116923700Y-97266544D01*
X116867889Y-97438309D01*
X116867888Y-97438314D01*
X116866287Y-97443241D01*
X116846325Y-97633169D01*
X116866287Y-97823097D01*
X116867888Y-97828024D01*
X116867889Y-97828029D01*
X116908577Y-97953252D01*
X116925302Y-98004725D01*
X116927894Y-98009214D01*
X116927896Y-98009219D01*
X116981637Y-98102300D01*
X117020789Y-98170113D01*
X117024261Y-98173969D01*
X117145106Y-98308182D01*
X117145110Y-98308186D01*
X117148576Y-98312035D01*
X117303077Y-98424287D01*
X117405552Y-98469911D01*
X117472803Y-98499854D01*
X117472807Y-98499855D01*
X117477541Y-98501963D01*
X117482611Y-98503041D01*
X117482612Y-98503041D01*
X117517746Y-98510509D01*
X117664342Y-98541669D01*
X117855316Y-98541669D01*
X118001912Y-98510509D01*
X118037046Y-98503041D01*
X118037047Y-98503041D01*
X118042117Y-98501963D01*
X118046851Y-98499855D01*
X118046855Y-98499854D01*
X118114106Y-98469911D01*
X118216581Y-98424287D01*
X118371082Y-98312035D01*
X118374548Y-98308186D01*
X118374552Y-98308182D01*
X118495397Y-98173969D01*
X118498869Y-98170113D01*
X118538021Y-98102300D01*
X118591762Y-98009219D01*
X118591764Y-98009214D01*
X118594356Y-98004725D01*
X118611081Y-97953252D01*
X118651769Y-97828029D01*
X118651770Y-97828024D01*
X118653371Y-97823097D01*
X118671736Y-97648368D01*
X118700189Y-97588713D01*
X119263237Y-97025665D01*
X119317754Y-96997888D01*
X119333241Y-96996669D01*
X119446795Y-96996669D01*
X119504986Y-97015576D01*
X119540950Y-97065076D01*
X119540950Y-97126262D01*
X119532535Y-97145162D01*
X119465302Y-97261613D01*
X119463700Y-97266544D01*
X119407889Y-97438309D01*
X119407888Y-97438314D01*
X119406287Y-97443241D01*
X119386325Y-97633169D01*
X119406287Y-97823097D01*
X119407888Y-97828024D01*
X119407889Y-97828029D01*
X119448577Y-97953252D01*
X119465302Y-98004725D01*
X119467894Y-98009214D01*
X119467896Y-98009219D01*
X119521637Y-98102300D01*
X119560789Y-98170113D01*
X119564261Y-98173969D01*
X119685106Y-98308182D01*
X119685110Y-98308186D01*
X119688576Y-98312035D01*
X119843077Y-98424287D01*
X119945552Y-98469911D01*
X120012803Y-98499854D01*
X120012807Y-98499855D01*
X120017541Y-98501963D01*
X120022611Y-98503041D01*
X120022612Y-98503041D01*
X120057746Y-98510509D01*
X120204342Y-98541669D01*
X120395316Y-98541669D01*
X120541912Y-98510509D01*
X120577046Y-98503041D01*
X120577047Y-98503041D01*
X120582117Y-98501963D01*
X120586851Y-98499855D01*
X120586855Y-98499854D01*
X120654106Y-98469911D01*
X120756581Y-98424287D01*
X120911082Y-98312035D01*
X120922437Y-98299424D01*
X120975423Y-98268832D01*
X120996007Y-98266669D01*
X128602067Y-98266669D01*
X128611381Y-98267108D01*
X128615660Y-98267512D01*
X128621738Y-98268871D01*
X128690228Y-98266718D01*
X128693339Y-98266669D01*
X128721685Y-98266669D01*
X128724771Y-98266279D01*
X128724774Y-98266279D01*
X128726960Y-98266003D01*
X128736255Y-98265271D01*
X128752276Y-98264768D01*
X128775492Y-98264038D01*
X128775494Y-98264038D01*
X128781718Y-98263842D01*
X128803216Y-98257596D01*
X128818408Y-98254450D01*
X128840626Y-98251643D01*
X128882926Y-98234895D01*
X128891746Y-98231876D01*
X128935422Y-98219187D01*
X128940779Y-98216019D01*
X128940783Y-98216017D01*
X128954686Y-98207794D01*
X128968630Y-98200962D01*
X128989446Y-98192721D01*
X129026259Y-98165975D01*
X129034023Y-98160875D01*
X129073191Y-98137711D01*
X129089018Y-98121884D01*
X129100831Y-98111795D01*
X129113900Y-98102300D01*
X129113901Y-98102300D01*
X129118936Y-98098641D01*
X129122902Y-98093846D01*
X129122905Y-98093844D01*
X129147927Y-98063597D01*
X129154204Y-98056698D01*
X132883385Y-94327517D01*
X132890283Y-94321241D01*
X132893589Y-94318506D01*
X132898847Y-94315169D01*
X132945750Y-94265222D01*
X132947913Y-94262989D01*
X132967964Y-94242938D01*
X132970142Y-94240130D01*
X132971225Y-94238735D01*
X132977275Y-94231652D01*
X133004151Y-94203031D01*
X133004152Y-94203030D01*
X133008415Y-94198490D01*
X133019197Y-94178877D01*
X133027727Y-94165891D01*
X133029900Y-94163090D01*
X133041443Y-94148209D01*
X133059507Y-94106464D01*
X133063610Y-94098090D01*
X133082524Y-94063686D01*
X133085524Y-94058229D01*
X133087074Y-94052194D01*
X133091092Y-94036547D01*
X133096122Y-94021854D01*
X133102537Y-94007029D01*
X133102537Y-94007028D01*
X133105010Y-94001314D01*
X133112126Y-93956389D01*
X133114017Y-93947259D01*
X133123781Y-93909229D01*
X133123781Y-93909228D01*
X133125329Y-93903199D01*
X133125329Y-93880818D01*
X133126548Y-93865331D01*
X133129075Y-93849378D01*
X133129075Y-93849375D01*
X133130049Y-93843226D01*
X133125768Y-93797938D01*
X133125329Y-93788621D01*
X133125329Y-68309591D01*
X133125768Y-68300277D01*
X133126172Y-68295998D01*
X133127531Y-68289920D01*
X133125378Y-68221430D01*
X133125329Y-68218319D01*
X133125329Y-68189973D01*
X133124663Y-68184698D01*
X133123931Y-68175398D01*
X133122698Y-68136165D01*
X133122698Y-68136163D01*
X133122502Y-68129939D01*
X133116258Y-68108446D01*
X133113109Y-68093240D01*
X133111084Y-68077213D01*
X133110303Y-68071032D01*
X133108011Y-68065243D01*
X133108010Y-68065239D01*
X133093559Y-68028741D01*
X133090538Y-68019918D01*
X133079584Y-67982215D01*
X133077847Y-67976236D01*
X133066454Y-67956972D01*
X133059622Y-67943028D01*
X133051381Y-67922212D01*
X133024635Y-67885399D01*
X133019535Y-67877635D01*
X132996371Y-67838467D01*
X132980544Y-67822640D01*
X132970455Y-67810827D01*
X132960960Y-67797758D01*
X132960960Y-67797757D01*
X132957301Y-67792722D01*
X132952506Y-67788756D01*
X132952504Y-67788753D01*
X132922257Y-67763731D01*
X132915358Y-67757454D01*
X129972360Y-64814455D01*
X129943906Y-64754799D01*
X129942986Y-64746039D01*
X129925542Y-64580072D01*
X129923941Y-64575145D01*
X129923940Y-64575140D01*
X129869794Y-64408500D01*
X129866527Y-64398444D01*
X129863935Y-64393955D01*
X129863933Y-64393950D01*
X129773635Y-64237551D01*
X129771040Y-64233056D01*
X129718778Y-64175013D01*
X129646723Y-64094987D01*
X129646719Y-64094983D01*
X129643253Y-64091134D01*
X129488752Y-63978882D01*
X129386277Y-63933258D01*
X129319026Y-63903315D01*
X129319022Y-63903314D01*
X129314288Y-63901206D01*
X129309218Y-63900128D01*
X129309217Y-63900128D01*
X129274083Y-63892660D01*
X129127487Y-63861500D01*
X128936513Y-63861500D01*
X128789917Y-63892660D01*
X128754783Y-63900128D01*
X128754782Y-63900128D01*
X128749712Y-63901206D01*
X128744978Y-63903314D01*
X128744974Y-63903315D01*
X128677723Y-63933258D01*
X128575248Y-63978882D01*
X128420747Y-64091134D01*
X128417281Y-64094983D01*
X128417277Y-64094987D01*
X128345222Y-64175013D01*
X128292960Y-64233056D01*
X128290365Y-64237551D01*
X128200067Y-64393950D01*
X128200065Y-64393955D01*
X128197473Y-64398444D01*
X128194206Y-64408500D01*
X128140060Y-64575140D01*
X128140059Y-64575145D01*
X128138458Y-64580072D01*
X128118496Y-64770000D01*
X128138458Y-64959928D01*
X128140059Y-64964855D01*
X128140060Y-64964860D01*
X128167332Y-65048793D01*
X128197473Y-65141556D01*
X128200065Y-65146045D01*
X128200067Y-65146050D01*
X128268713Y-65264948D01*
X128292960Y-65306944D01*
X128296432Y-65310800D01*
X128417277Y-65445013D01*
X128417281Y-65445017D01*
X128420747Y-65448866D01*
X128575248Y-65561118D01*
X128677723Y-65606742D01*
X128744974Y-65636685D01*
X128744978Y-65636686D01*
X128749712Y-65638794D01*
X128754782Y-65639872D01*
X128754783Y-65639872D01*
X128789917Y-65647340D01*
X128936513Y-65678500D01*
X129003588Y-65678500D01*
X129061779Y-65697407D01*
X129073592Y-65707496D01*
X131829333Y-68463238D01*
X131857110Y-68517755D01*
X131858329Y-68533242D01*
X131858329Y-72805943D01*
X131839422Y-72864134D01*
X131789922Y-72900098D01*
X131728736Y-72900098D01*
X131688757Y-72874726D01*
X131687301Y-72872722D01*
X131652257Y-72843731D01*
X131645358Y-72837454D01*
X129972360Y-71164455D01*
X129943906Y-71104799D01*
X129942764Y-71093927D01*
X129925542Y-70930072D01*
X129923941Y-70925145D01*
X129923940Y-70925140D01*
X129868129Y-70753375D01*
X129866527Y-70748444D01*
X129863935Y-70743955D01*
X129863933Y-70743950D01*
X129773635Y-70587551D01*
X129771040Y-70583056D01*
X129708045Y-70513093D01*
X129646723Y-70444987D01*
X129646719Y-70444983D01*
X129643253Y-70441134D01*
X129488752Y-70328882D01*
X129386277Y-70283258D01*
X129319026Y-70253315D01*
X129319022Y-70253314D01*
X129314288Y-70251206D01*
X129309218Y-70250128D01*
X129309217Y-70250128D01*
X129274083Y-70242660D01*
X129127487Y-70211500D01*
X128936513Y-70211500D01*
X128789917Y-70242660D01*
X128754783Y-70250128D01*
X128754782Y-70250128D01*
X128749712Y-70251206D01*
X128744978Y-70253314D01*
X128744974Y-70253315D01*
X128677723Y-70283258D01*
X128575248Y-70328882D01*
X128420747Y-70441134D01*
X128417281Y-70444983D01*
X128417277Y-70444987D01*
X128355955Y-70513093D01*
X128292960Y-70583056D01*
X128290365Y-70587551D01*
X128200067Y-70743950D01*
X128200065Y-70743955D01*
X128197473Y-70748444D01*
X128195871Y-70753375D01*
X128140060Y-70925140D01*
X128140059Y-70925145D01*
X128138458Y-70930072D01*
X128118496Y-71120000D01*
X128138458Y-71309928D01*
X128140059Y-71314855D01*
X128140060Y-71314860D01*
X128151332Y-71349551D01*
X128197473Y-71491556D01*
X128200065Y-71496045D01*
X128200067Y-71496050D01*
X128268713Y-71614948D01*
X128292960Y-71656944D01*
X128296432Y-71660800D01*
X128417277Y-71795013D01*
X128417281Y-71795017D01*
X128420747Y-71798866D01*
X128575248Y-71911118D01*
X128677723Y-71956742D01*
X128744974Y-71986685D01*
X128744978Y-71986686D01*
X128749712Y-71988794D01*
X128754782Y-71989872D01*
X128754783Y-71989872D01*
X128789917Y-71997340D01*
X128936513Y-72028500D01*
X129003588Y-72028500D01*
X129061779Y-72047407D01*
X129073592Y-72057496D01*
X130559333Y-73543238D01*
X130587110Y-73597755D01*
X130588329Y-73613242D01*
X130588329Y-92249757D01*
X130569422Y-92307948D01*
X130559333Y-92319761D01*
X127178420Y-95700673D01*
X127123903Y-95728450D01*
X127108416Y-95729669D01*
X126645715Y-95729669D01*
X126587524Y-95710762D01*
X126551560Y-95661262D01*
X126551560Y-95600076D01*
X126576932Y-95560097D01*
X126578936Y-95558641D01*
X126612707Y-95517819D01*
X126618984Y-95510920D01*
X129423556Y-92706348D01*
X129430454Y-92700072D01*
X129433760Y-92697337D01*
X129439018Y-92694000D01*
X129485921Y-92644053D01*
X129488084Y-92641820D01*
X129508134Y-92621770D01*
X129510029Y-92619327D01*
X129510035Y-92619320D01*
X129511387Y-92617576D01*
X129517450Y-92610477D01*
X129544325Y-92581859D01*
X129544327Y-92581857D01*
X129548586Y-92577321D01*
X129559370Y-92557705D01*
X129567901Y-92544718D01*
X129577794Y-92531964D01*
X129581613Y-92527041D01*
X129599675Y-92485304D01*
X129603777Y-92476931D01*
X129622695Y-92442518D01*
X129622696Y-92442515D01*
X129625695Y-92437060D01*
X129631262Y-92415378D01*
X129636295Y-92400680D01*
X129642705Y-92385867D01*
X129642705Y-92385866D01*
X129645181Y-92380145D01*
X129652295Y-92335228D01*
X129654186Y-92326096D01*
X129665500Y-92282030D01*
X129665500Y-92259642D01*
X129666719Y-92244155D01*
X129669245Y-92228208D01*
X129669245Y-92228206D01*
X129670219Y-92222057D01*
X129665939Y-92176776D01*
X129665500Y-92167460D01*
X129665500Y-75622160D01*
X129684407Y-75563969D01*
X129690929Y-75555916D01*
X129700944Y-75544794D01*
X129771040Y-75466944D01*
X129833990Y-75357912D01*
X129863933Y-75306050D01*
X129863935Y-75306045D01*
X129866527Y-75301556D01*
X129896780Y-75208449D01*
X129923940Y-75124860D01*
X129923941Y-75124855D01*
X129925542Y-75119928D01*
X129945504Y-74930000D01*
X129925542Y-74740072D01*
X129923941Y-74735145D01*
X129923940Y-74735140D01*
X129868129Y-74563375D01*
X129866527Y-74558444D01*
X129863935Y-74553955D01*
X129863933Y-74553950D01*
X129773635Y-74397551D01*
X129771040Y-74393056D01*
X129760576Y-74381434D01*
X129646723Y-74254987D01*
X129646719Y-74254983D01*
X129643253Y-74251134D01*
X129488752Y-74138882D01*
X129386277Y-74093258D01*
X129319026Y-74063315D01*
X129319022Y-74063314D01*
X129314288Y-74061206D01*
X129309218Y-74060128D01*
X129309217Y-74060128D01*
X129274083Y-74052660D01*
X129127487Y-74021500D01*
X128936513Y-74021500D01*
X128789917Y-74052660D01*
X128754783Y-74060128D01*
X128754782Y-74060128D01*
X128749712Y-74061206D01*
X128744978Y-74063314D01*
X128744974Y-74063315D01*
X128677723Y-74093258D01*
X128575248Y-74138882D01*
X128420747Y-74251134D01*
X128417281Y-74254983D01*
X128417277Y-74254987D01*
X128303425Y-74381434D01*
X128292960Y-74393056D01*
X128290365Y-74397551D01*
X128200067Y-74553950D01*
X128200065Y-74553955D01*
X128197473Y-74558444D01*
X128195871Y-74563375D01*
X128140060Y-74735140D01*
X128140059Y-74735145D01*
X128138458Y-74740072D01*
X128118496Y-74930000D01*
X128138458Y-75119928D01*
X128140059Y-75124855D01*
X128140060Y-75124860D01*
X128167220Y-75208449D01*
X128197473Y-75301556D01*
X128200065Y-75306045D01*
X128200067Y-75306050D01*
X128230010Y-75357912D01*
X128292960Y-75466944D01*
X128363057Y-75544794D01*
X128373071Y-75555916D01*
X128397958Y-75611812D01*
X128398500Y-75622160D01*
X128398500Y-76615178D01*
X128379593Y-76673369D01*
X128330093Y-76709333D01*
X128268907Y-76709333D01*
X128241308Y-76695270D01*
X128222944Y-76681927D01*
X128222939Y-76681924D01*
X128218752Y-76678882D01*
X128075670Y-76615178D01*
X128049026Y-76603315D01*
X128049022Y-76603314D01*
X128044288Y-76601206D01*
X128039218Y-76600128D01*
X128039217Y-76600128D01*
X128001076Y-76592021D01*
X127857487Y-76561500D01*
X127666513Y-76561500D01*
X127522924Y-76592021D01*
X127484783Y-76600128D01*
X127484782Y-76600128D01*
X127479712Y-76601206D01*
X127474978Y-76603314D01*
X127474974Y-76603315D01*
X127448330Y-76615178D01*
X127305248Y-76678882D01*
X127150747Y-76791134D01*
X127147281Y-76794983D01*
X127147277Y-76794987D01*
X127033424Y-76921434D01*
X127022960Y-76933056D01*
X127020365Y-76937551D01*
X126930067Y-77093950D01*
X126930065Y-77093955D01*
X126927473Y-77098444D01*
X126925871Y-77103375D01*
X126870060Y-77275140D01*
X126870059Y-77275145D01*
X126868458Y-77280072D01*
X126848496Y-77470000D01*
X126868458Y-77659928D01*
X126870059Y-77664855D01*
X126870060Y-77664860D01*
X126881332Y-77699551D01*
X126927473Y-77841556D01*
X126930065Y-77846045D01*
X126930067Y-77846050D01*
X126998713Y-77964948D01*
X127022960Y-78006944D01*
X127054590Y-78042072D01*
X127103071Y-78095916D01*
X127127958Y-78151812D01*
X127128500Y-78162160D01*
X127128500Y-91899586D01*
X127109593Y-91957777D01*
X127099504Y-91969590D01*
X125908420Y-93160673D01*
X125853903Y-93188450D01*
X125838416Y-93189669D01*
X116569592Y-93189669D01*
X116560277Y-93189230D01*
X116556000Y-93188826D01*
X116549921Y-93187467D01*
X116481926Y-93189604D01*
X116481417Y-93189620D01*
X116478307Y-93189669D01*
X116449973Y-93189669D01*
X116446885Y-93190059D01*
X116444707Y-93190334D01*
X116435412Y-93191066D01*
X116418908Y-93191584D01*
X116396165Y-93192299D01*
X116396162Y-93192299D01*
X116389940Y-93192495D01*
X116368437Y-93198742D01*
X116353230Y-93201891D01*
X116350022Y-93202296D01*
X116337211Y-93203914D01*
X116337208Y-93203915D01*
X116331032Y-93204695D01*
X116325247Y-93206986D01*
X116325245Y-93206986D01*
X116288745Y-93221438D01*
X116279919Y-93224459D01*
X116242220Y-93235411D01*
X116242216Y-93235413D01*
X116236236Y-93237150D01*
X116230874Y-93240321D01*
X116216966Y-93248546D01*
X116203019Y-93255378D01*
X116182212Y-93263617D01*
X116177175Y-93267276D01*
X116177176Y-93267276D01*
X116145409Y-93290356D01*
X116137613Y-93295476D01*
X116098467Y-93318627D01*
X116082640Y-93334454D01*
X116070828Y-93344542D01*
X116052722Y-93357697D01*
X116048756Y-93362492D01*
X116048753Y-93362494D01*
X116023731Y-93392741D01*
X116017454Y-93399640D01*
X112721420Y-96695673D01*
X112666903Y-96723450D01*
X112651416Y-96724669D01*
X112584342Y-96724669D01*
X112437746Y-96755829D01*
X112402612Y-96763297D01*
X112402611Y-96763297D01*
X112397541Y-96764375D01*
X112392807Y-96766483D01*
X112392803Y-96766484D01*
X112339995Y-96789996D01*
X112223077Y-96842051D01*
X112068576Y-96954303D01*
X112065110Y-96958152D01*
X112065106Y-96958156D01*
X112004321Y-97025665D01*
X111940789Y-97096225D01*
X111938194Y-97100720D01*
X111847896Y-97257119D01*
X111847894Y-97257124D01*
X111845302Y-97261613D01*
X111843700Y-97266544D01*
X111787889Y-97438309D01*
X111787888Y-97438314D01*
X111786287Y-97443241D01*
X111766325Y-97633169D01*
X97732777Y-97633169D01*
X97726543Y-97561913D01*
X97667284Y-97340757D01*
X97570523Y-97133251D01*
X97439198Y-96945700D01*
X97277300Y-96783802D01*
X97089749Y-96652477D01*
X97085841Y-96650654D01*
X97085838Y-96650653D01*
X96998066Y-96609725D01*
X96953318Y-96567997D01*
X96941643Y-96507935D01*
X96967501Y-96452482D01*
X96998066Y-96430275D01*
X97085838Y-96389347D01*
X97085841Y-96389346D01*
X97089749Y-96387523D01*
X97277300Y-96256198D01*
X97439198Y-96094300D01*
X97570523Y-95906749D01*
X97667284Y-95699243D01*
X97699496Y-95579027D01*
X97725424Y-95482264D01*
X97725424Y-95482261D01*
X97726543Y-95478087D01*
X97746498Y-95250000D01*
X97726543Y-95021913D01*
X97667284Y-94800757D01*
X97570523Y-94593251D01*
X97439198Y-94405700D01*
X97277300Y-94243802D01*
X97089749Y-94112477D01*
X97085841Y-94110654D01*
X97085838Y-94110653D01*
X96998066Y-94069725D01*
X96953318Y-94027997D01*
X96941643Y-93967935D01*
X96967501Y-93912482D01*
X96998066Y-93890275D01*
X97085838Y-93849347D01*
X97085841Y-93849346D01*
X97089749Y-93847523D01*
X97277300Y-93716198D01*
X97439198Y-93554300D01*
X97570523Y-93366749D01*
X97631767Y-93235411D01*
X97665459Y-93163157D01*
X97665459Y-93163156D01*
X97667284Y-93159243D01*
X97708175Y-93006636D01*
X97725424Y-92942264D01*
X97725424Y-92942261D01*
X97726543Y-92938087D01*
X97746498Y-92710000D01*
X97726543Y-92481913D01*
X97700808Y-92385867D01*
X97668402Y-92264929D01*
X97668402Y-92264928D01*
X97667284Y-92260757D01*
X97659543Y-92244155D01*
X97572347Y-92057163D01*
X97570523Y-92053251D01*
X97439198Y-91865700D01*
X97277300Y-91703802D01*
X97089749Y-91572477D01*
X96882243Y-91475716D01*
X96878071Y-91474598D01*
X96665264Y-91417576D01*
X96665261Y-91417576D01*
X96661087Y-91416457D01*
X96616492Y-91412555D01*
X96492293Y-91401689D01*
X96492282Y-91401689D01*
X96490127Y-91401500D01*
X95975873Y-91401500D01*
X95973718Y-91401689D01*
X95973707Y-91401689D01*
X95849508Y-91412555D01*
X95804913Y-91416457D01*
X95800739Y-91417576D01*
X95800736Y-91417576D01*
X95587929Y-91474598D01*
X95583757Y-91475716D01*
X95376251Y-91572477D01*
X95188700Y-91703802D01*
X95026802Y-91865700D01*
X94895477Y-92053251D01*
X94893653Y-92057163D01*
X94806458Y-92244155D01*
X94798716Y-92260757D01*
X94797598Y-92264928D01*
X94797598Y-92264929D01*
X94765193Y-92385867D01*
X94739457Y-92481913D01*
X94719502Y-92710000D01*
X94739457Y-92938087D01*
X94740576Y-92942261D01*
X94740576Y-92942264D01*
X94757825Y-93006636D01*
X94798716Y-93159243D01*
X94800541Y-93163156D01*
X94800541Y-93163157D01*
X94834233Y-93235411D01*
X94895477Y-93366749D01*
X95026802Y-93554300D01*
X95188700Y-93716198D01*
X95376251Y-93847523D01*
X95380159Y-93849346D01*
X95380162Y-93849347D01*
X95467934Y-93890275D01*
X95512682Y-93932003D01*
X95524357Y-93992065D01*
X95498499Y-94047518D01*
X95467934Y-94069725D01*
X95380162Y-94110653D01*
X95380159Y-94110654D01*
X95376251Y-94112477D01*
X95188700Y-94243802D01*
X95026802Y-94405700D01*
X94895477Y-94593251D01*
X94798716Y-94800757D01*
X94739457Y-95021913D01*
X94719502Y-95250000D01*
X94739457Y-95478087D01*
X94740576Y-95482261D01*
X94740576Y-95482264D01*
X94766504Y-95579027D01*
X94798716Y-95699243D01*
X94895477Y-95906749D01*
X95026802Y-96094300D01*
X95188700Y-96256198D01*
X95376251Y-96387523D01*
X95380159Y-96389346D01*
X95380162Y-96389347D01*
X95467934Y-96430275D01*
X95512682Y-96472003D01*
X95524357Y-96532065D01*
X95498499Y-96587518D01*
X95467934Y-96609725D01*
X95380162Y-96650653D01*
X95380159Y-96650654D01*
X95376251Y-96652477D01*
X95188700Y-96783802D01*
X95026802Y-96945700D01*
X94895477Y-97133251D01*
X94798716Y-97340757D01*
X94739457Y-97561913D01*
X94719502Y-97790000D01*
X94739457Y-98018087D01*
X94740576Y-98022261D01*
X94740576Y-98022264D01*
X94793342Y-98219187D01*
X94798716Y-98239243D01*
X94800541Y-98243156D01*
X94800541Y-98243157D01*
X94812440Y-98268675D01*
X94895477Y-98446749D01*
X95026802Y-98634300D01*
X95188700Y-98796198D01*
X95376251Y-98927523D01*
X95380159Y-98929346D01*
X95380162Y-98929347D01*
X95467934Y-98970275D01*
X95512682Y-99012003D01*
X95524357Y-99072065D01*
X95498499Y-99127518D01*
X95467934Y-99149725D01*
X95380162Y-99190653D01*
X95380159Y-99190654D01*
X95376251Y-99192477D01*
X95188700Y-99323802D01*
X95026802Y-99485700D01*
X94895477Y-99673251D01*
X94798716Y-99880757D01*
X94797598Y-99884928D01*
X94797598Y-99884929D01*
X94779145Y-99953798D01*
X94739457Y-100101913D01*
X94719502Y-100330000D01*
X94739457Y-100558087D01*
X94798716Y-100779243D01*
X94895477Y-100986749D01*
X95026802Y-101174300D01*
X95188700Y-101336198D01*
X95376251Y-101467523D01*
X95380159Y-101469346D01*
X95380162Y-101469347D01*
X95431189Y-101493141D01*
X95467516Y-101510080D01*
X95467934Y-101510275D01*
X95512682Y-101552003D01*
X95524357Y-101612065D01*
X95498499Y-101667518D01*
X95467935Y-101689724D01*
X95433831Y-101705627D01*
X95380162Y-101730653D01*
X95380159Y-101730654D01*
X95376251Y-101732477D01*
X95188700Y-101863802D01*
X95026802Y-102025700D01*
X94895477Y-102213251D01*
X94798716Y-102420757D01*
X94797598Y-102424928D01*
X94797598Y-102424929D01*
X94779145Y-102493798D01*
X94739457Y-102641913D01*
X94719502Y-102870000D01*
X94739457Y-103098087D01*
X94798716Y-103319243D01*
X94895477Y-103526749D01*
X95026802Y-103714300D01*
X95188700Y-103876198D01*
X95376251Y-104007523D01*
X95380159Y-104009346D01*
X95380162Y-104009347D01*
X95467934Y-104050275D01*
X95512682Y-104092003D01*
X95524357Y-104152065D01*
X95498499Y-104207518D01*
X95467934Y-104229725D01*
X95380162Y-104270653D01*
X95380159Y-104270654D01*
X95376251Y-104272477D01*
X95188700Y-104403802D01*
X95026802Y-104565700D01*
X94895477Y-104753251D01*
X94798716Y-104960757D01*
X94739457Y-105181913D01*
X94719502Y-105410000D01*
X94739457Y-105638087D01*
X94740576Y-105642261D01*
X94740576Y-105642264D01*
X94797598Y-105855071D01*
X94798716Y-105859243D01*
X94895477Y-106066749D01*
X95026802Y-106254300D01*
X95188700Y-106416198D01*
X95376251Y-106547523D01*
X95380159Y-106549346D01*
X95380162Y-106549347D01*
X95467934Y-106590275D01*
X95512682Y-106632003D01*
X95524357Y-106692065D01*
X95498499Y-106747518D01*
X95467934Y-106769725D01*
X95380162Y-106810653D01*
X95380159Y-106810654D01*
X95376251Y-106812477D01*
X95188700Y-106943802D01*
X95026802Y-107105700D01*
X94895477Y-107293251D01*
X94798716Y-107500757D01*
X94739457Y-107721913D01*
X94719502Y-107950000D01*
X94739457Y-108178087D01*
X94798716Y-108399243D01*
X94895477Y-108606749D01*
X95026802Y-108794300D01*
X95188700Y-108956198D01*
X95376251Y-109087523D01*
X95380159Y-109089346D01*
X95380162Y-109089347D01*
X95467934Y-109130275D01*
X95512682Y-109172003D01*
X95524357Y-109232065D01*
X95498499Y-109287518D01*
X95467934Y-109309725D01*
X95380162Y-109350653D01*
X95380159Y-109350654D01*
X95376251Y-109352477D01*
X95188700Y-109483802D01*
X95026802Y-109645700D01*
X94895477Y-109833251D01*
X94798716Y-110040757D01*
X94739457Y-110261913D01*
X94719502Y-110490000D01*
X74886498Y-110490000D01*
X74866543Y-110261913D01*
X74807284Y-110040757D01*
X74710523Y-109833251D01*
X74579198Y-109645700D01*
X74417300Y-109483802D01*
X74229749Y-109352477D01*
X74225841Y-109350654D01*
X74225838Y-109350653D01*
X74138066Y-109309725D01*
X74093318Y-109267997D01*
X74081643Y-109207935D01*
X74107501Y-109152482D01*
X74138066Y-109130275D01*
X74225838Y-109089347D01*
X74225841Y-109089346D01*
X74229749Y-109087523D01*
X74417300Y-108956198D01*
X74579198Y-108794300D01*
X74710523Y-108606749D01*
X74807284Y-108399243D01*
X74866543Y-108178087D01*
X74886498Y-107950000D01*
X74866543Y-107721913D01*
X74807284Y-107500757D01*
X74710523Y-107293251D01*
X74579198Y-107105700D01*
X74417300Y-106943802D01*
X74229749Y-106812477D01*
X74225841Y-106810654D01*
X74225838Y-106810653D01*
X74138066Y-106769725D01*
X74093318Y-106727997D01*
X74081643Y-106667935D01*
X74107501Y-106612482D01*
X74138066Y-106590275D01*
X74225838Y-106549347D01*
X74225841Y-106549346D01*
X74229749Y-106547523D01*
X74417300Y-106416198D01*
X74579198Y-106254300D01*
X74710523Y-106066749D01*
X74807284Y-105859243D01*
X74808402Y-105855071D01*
X74865424Y-105642264D01*
X74865424Y-105642261D01*
X74866543Y-105638087D01*
X74886498Y-105410000D01*
X74866543Y-105181913D01*
X74807284Y-104960757D01*
X74710523Y-104753251D01*
X74579198Y-104565700D01*
X74417300Y-104403802D01*
X74229749Y-104272477D01*
X74225841Y-104270654D01*
X74225838Y-104270653D01*
X74138066Y-104229725D01*
X74093318Y-104187997D01*
X74081643Y-104127935D01*
X74107501Y-104072482D01*
X74138066Y-104050275D01*
X74225838Y-104009347D01*
X74225841Y-104009346D01*
X74229749Y-104007523D01*
X74417300Y-103876198D01*
X74579198Y-103714300D01*
X74710523Y-103526749D01*
X74807284Y-103319243D01*
X74866543Y-103098087D01*
X74886498Y-102870000D01*
X74866543Y-102641913D01*
X74826856Y-102493798D01*
X74808402Y-102424929D01*
X74808402Y-102424928D01*
X74807284Y-102420757D01*
X74710523Y-102213251D01*
X74579198Y-102025700D01*
X74417300Y-101863802D01*
X74229749Y-101732477D01*
X74225841Y-101730654D01*
X74225838Y-101730653D01*
X74172169Y-101705627D01*
X74138066Y-101689725D01*
X74093318Y-101647997D01*
X74081643Y-101587935D01*
X74107501Y-101532482D01*
X74138066Y-101510275D01*
X74138485Y-101510080D01*
X74174811Y-101493141D01*
X74225838Y-101469347D01*
X74225841Y-101469346D01*
X74229749Y-101467523D01*
X74417300Y-101336198D01*
X74579198Y-101174300D01*
X74710523Y-100986749D01*
X74807284Y-100779243D01*
X74866543Y-100558087D01*
X74886498Y-100330000D01*
X74866543Y-100101913D01*
X74826856Y-99953798D01*
X74808402Y-99884929D01*
X74808402Y-99884928D01*
X74807284Y-99880757D01*
X74710523Y-99673251D01*
X74579198Y-99485700D01*
X74417300Y-99323802D01*
X74229749Y-99192477D01*
X74225841Y-99190654D01*
X74225838Y-99190653D01*
X74138066Y-99149725D01*
X74093318Y-99107997D01*
X74081643Y-99047935D01*
X74107501Y-98992482D01*
X74138066Y-98970275D01*
X74225838Y-98929347D01*
X74225841Y-98929346D01*
X74229749Y-98927523D01*
X74417300Y-98796198D01*
X74579198Y-98634300D01*
X74710523Y-98446749D01*
X74793560Y-98268675D01*
X74805459Y-98243157D01*
X74805459Y-98243156D01*
X74807284Y-98239243D01*
X74812658Y-98219187D01*
X74865424Y-98022264D01*
X74865424Y-98022261D01*
X74866543Y-98018087D01*
X74886498Y-97790000D01*
X74866543Y-97561913D01*
X74807284Y-97340757D01*
X74710523Y-97133251D01*
X74579198Y-96945700D01*
X74417300Y-96783802D01*
X74229749Y-96652477D01*
X74225841Y-96650654D01*
X74225838Y-96650653D01*
X74138066Y-96609725D01*
X74093318Y-96567997D01*
X74081643Y-96507935D01*
X74107501Y-96452482D01*
X74138066Y-96430275D01*
X74225838Y-96389347D01*
X74225841Y-96389346D01*
X74229749Y-96387523D01*
X74417300Y-96256198D01*
X74579198Y-96094300D01*
X74710523Y-95906749D01*
X74807284Y-95699243D01*
X74839496Y-95579027D01*
X74865424Y-95482264D01*
X74865424Y-95482261D01*
X74866543Y-95478087D01*
X74886498Y-95250000D01*
X74866543Y-95021913D01*
X74807284Y-94800757D01*
X74710523Y-94593251D01*
X74579198Y-94405700D01*
X74520712Y-94347214D01*
X74492935Y-94292697D01*
X74502506Y-94232265D01*
X74545771Y-94189000D01*
X74555965Y-94184510D01*
X74613104Y-94163090D01*
X74613106Y-94163089D01*
X74619705Y-94160615D01*
X74736261Y-94073261D01*
X74823615Y-93956705D01*
X74828272Y-93944284D01*
X74872565Y-93826131D01*
X74874745Y-93820316D01*
X74877681Y-93793294D01*
X74881211Y-93760793D01*
X74881500Y-93758134D01*
X74881500Y-91661866D01*
X74874745Y-91599684D01*
X74828956Y-91477541D01*
X74826089Y-91469894D01*
X74826089Y-91469893D01*
X74823615Y-91463295D01*
X74736261Y-91346739D01*
X74619705Y-91259385D01*
X74483316Y-91208255D01*
X74477144Y-91207585D01*
X74477142Y-91207584D01*
X74441163Y-91203676D01*
X74421134Y-91201500D01*
X72324866Y-91201500D01*
X72304837Y-91203676D01*
X72268858Y-91207584D01*
X72268856Y-91207585D01*
X72262684Y-91208255D01*
X72126295Y-91259385D01*
X72009739Y-91346739D01*
X71922385Y-91463295D01*
X71919911Y-91469893D01*
X71919911Y-91469894D01*
X71917044Y-91477541D01*
X71871255Y-91599684D01*
X71864500Y-91661866D01*
X71864500Y-93758134D01*
X71864789Y-93760793D01*
X71868320Y-93793294D01*
X71871255Y-93820316D01*
X71873435Y-93826131D01*
X71917729Y-93944284D01*
X71922385Y-93956705D01*
X72009739Y-94073261D01*
X72126295Y-94160615D01*
X72132894Y-94163089D01*
X72132896Y-94163090D01*
X72190035Y-94184510D01*
X72237886Y-94222640D01*
X72254186Y-94281614D01*
X72232709Y-94338906D01*
X72225288Y-94347214D01*
X72166802Y-94405700D01*
X72035477Y-94593251D01*
X71938716Y-94800757D01*
X71879457Y-95021913D01*
X71859502Y-95250000D01*
X71879457Y-95478087D01*
X71880576Y-95482261D01*
X71880576Y-95482264D01*
X71906504Y-95579027D01*
X71938716Y-95699243D01*
X72035477Y-95906749D01*
X72166802Y-96094300D01*
X72328700Y-96256198D01*
X72516251Y-96387523D01*
X72520159Y-96389346D01*
X72520162Y-96389347D01*
X72607934Y-96430275D01*
X72652682Y-96472003D01*
X72664357Y-96532065D01*
X72638499Y-96587518D01*
X72607934Y-96609725D01*
X72520162Y-96650653D01*
X72520159Y-96650654D01*
X72516251Y-96652477D01*
X72328700Y-96783802D01*
X72166802Y-96945700D01*
X72035477Y-97133251D01*
X71938716Y-97340757D01*
X71879457Y-97561913D01*
X71859502Y-97790000D01*
X71879457Y-98018087D01*
X71880576Y-98022261D01*
X71880576Y-98022264D01*
X71933342Y-98219187D01*
X71938716Y-98239243D01*
X71940541Y-98243156D01*
X71940541Y-98243157D01*
X71952440Y-98268675D01*
X72035477Y-98446749D01*
X72166802Y-98634300D01*
X72328700Y-98796198D01*
X72516251Y-98927523D01*
X72520159Y-98929346D01*
X72520162Y-98929347D01*
X72607934Y-98970275D01*
X72652682Y-99012003D01*
X72664357Y-99072065D01*
X72638499Y-99127518D01*
X72607934Y-99149725D01*
X72520162Y-99190653D01*
X72520159Y-99190654D01*
X72516251Y-99192477D01*
X72328700Y-99323802D01*
X72166802Y-99485700D01*
X72035477Y-99673251D01*
X71938716Y-99880757D01*
X71937598Y-99884928D01*
X71937598Y-99884929D01*
X71919145Y-99953798D01*
X71879457Y-100101913D01*
X71859502Y-100330000D01*
X71879457Y-100558087D01*
X71938716Y-100779243D01*
X72035477Y-100986749D01*
X72166802Y-101174300D01*
X72328700Y-101336198D01*
X72516251Y-101467523D01*
X72520159Y-101469346D01*
X72520162Y-101469347D01*
X72571189Y-101493141D01*
X72607516Y-101510080D01*
X72607934Y-101510275D01*
X72652682Y-101552003D01*
X72664357Y-101612065D01*
X72638499Y-101667518D01*
X72607935Y-101689724D01*
X72573831Y-101705627D01*
X72520162Y-101730653D01*
X72520159Y-101730654D01*
X72516251Y-101732477D01*
X72328700Y-101863802D01*
X72166802Y-102025700D01*
X72035477Y-102213251D01*
X71938716Y-102420757D01*
X71937598Y-102424928D01*
X71937598Y-102424929D01*
X71919145Y-102493798D01*
X71879457Y-102641913D01*
X71859502Y-102870000D01*
X71879457Y-103098087D01*
X71938716Y-103319243D01*
X72035477Y-103526749D01*
X72166802Y-103714300D01*
X72328700Y-103876198D01*
X72516251Y-104007523D01*
X72520159Y-104009346D01*
X72520162Y-104009347D01*
X72607934Y-104050275D01*
X72652682Y-104092003D01*
X72664357Y-104152065D01*
X72638499Y-104207518D01*
X72607934Y-104229725D01*
X72520162Y-104270653D01*
X72520159Y-104270654D01*
X72516251Y-104272477D01*
X72328700Y-104403802D01*
X72166802Y-104565700D01*
X72035477Y-104753251D01*
X71938716Y-104960757D01*
X71879457Y-105181913D01*
X71859502Y-105410000D01*
X71879457Y-105638087D01*
X71880576Y-105642261D01*
X71880576Y-105642264D01*
X71937598Y-105855071D01*
X71938716Y-105859243D01*
X72035477Y-106066749D01*
X72166802Y-106254300D01*
X72328700Y-106416198D01*
X72516251Y-106547523D01*
X72520159Y-106549346D01*
X72520162Y-106549347D01*
X72607934Y-106590275D01*
X72652682Y-106632003D01*
X72664357Y-106692065D01*
X72638499Y-106747518D01*
X72607934Y-106769725D01*
X72520162Y-106810653D01*
X72520159Y-106810654D01*
X72516251Y-106812477D01*
X72328700Y-106943802D01*
X72166802Y-107105700D01*
X72035477Y-107293251D01*
X71938716Y-107500757D01*
X71879457Y-107721913D01*
X71859502Y-107950000D01*
X71879457Y-108178087D01*
X71938716Y-108399243D01*
X72035477Y-108606749D01*
X72166802Y-108794300D01*
X72328700Y-108956198D01*
X72516251Y-109087523D01*
X72520159Y-109089346D01*
X72520162Y-109089347D01*
X72607934Y-109130275D01*
X72652682Y-109172003D01*
X72664357Y-109232065D01*
X72638499Y-109287518D01*
X72607934Y-109309725D01*
X72520162Y-109350653D01*
X72520159Y-109350654D01*
X72516251Y-109352477D01*
X72328700Y-109483802D01*
X72166802Y-109645700D01*
X72035477Y-109833251D01*
X71938716Y-110040757D01*
X71879457Y-110261913D01*
X71859502Y-110490000D01*
X70508500Y-110490000D01*
X70508500Y-81280000D01*
X77572496Y-81280000D01*
X77592458Y-81469928D01*
X77594059Y-81474855D01*
X77594060Y-81474860D01*
X77630853Y-81588095D01*
X77651473Y-81651556D01*
X77654065Y-81656045D01*
X77654067Y-81656050D01*
X77722711Y-81774944D01*
X77746960Y-81816944D01*
X77750432Y-81820800D01*
X77871277Y-81955013D01*
X77871281Y-81955017D01*
X77874747Y-81958866D01*
X78029248Y-82071118D01*
X78131723Y-82116742D01*
X78198974Y-82146685D01*
X78198978Y-82146686D01*
X78203712Y-82148794D01*
X78208782Y-82149872D01*
X78208783Y-82149872D01*
X78243917Y-82157340D01*
X78390513Y-82188500D01*
X78581487Y-82188500D01*
X78728083Y-82157340D01*
X78763217Y-82149872D01*
X78763218Y-82149872D01*
X78768288Y-82148794D01*
X78773022Y-82146686D01*
X78773026Y-82146685D01*
X78855520Y-82109956D01*
X78942752Y-82071118D01*
X78943798Y-82070358D01*
X78991781Y-82057500D01*
X83596238Y-82057500D01*
X83605552Y-82057939D01*
X83609831Y-82058343D01*
X83615909Y-82059702D01*
X83684399Y-82057549D01*
X83687510Y-82057500D01*
X83715856Y-82057500D01*
X83718942Y-82057110D01*
X83718945Y-82057110D01*
X83721131Y-82056834D01*
X83730426Y-82056102D01*
X83746447Y-82055599D01*
X83769663Y-82054869D01*
X83769665Y-82054869D01*
X83775889Y-82054673D01*
X83797387Y-82048427D01*
X83812579Y-82045281D01*
X83834797Y-82042474D01*
X83877097Y-82025726D01*
X83885917Y-82022707D01*
X83929593Y-82010018D01*
X83934950Y-82006850D01*
X83934954Y-82006848D01*
X83948857Y-81998625D01*
X83962801Y-81991793D01*
X83983617Y-81983552D01*
X84020430Y-81956806D01*
X84028194Y-81951706D01*
X84067362Y-81928542D01*
X84083189Y-81912715D01*
X84095002Y-81902626D01*
X84108071Y-81893131D01*
X84108072Y-81893131D01*
X84113107Y-81889472D01*
X84117073Y-81884677D01*
X84117076Y-81884675D01*
X84142098Y-81854428D01*
X84148375Y-81847529D01*
X84306451Y-81689453D01*
X84360968Y-81661676D01*
X84421400Y-81671247D01*
X84464665Y-81714512D01*
X84474236Y-81774944D01*
X84470610Y-81790049D01*
X84452061Y-81847137D01*
X84450458Y-81852072D01*
X84430496Y-82042000D01*
X84450458Y-82231928D01*
X84452059Y-82236855D01*
X84452060Y-82236860D01*
X84492748Y-82362083D01*
X84509473Y-82413556D01*
X84512065Y-82418045D01*
X84512067Y-82418050D01*
X84580713Y-82536948D01*
X84604960Y-82578944D01*
X84608432Y-82582800D01*
X84729277Y-82717013D01*
X84729281Y-82717017D01*
X84732747Y-82720866D01*
X84887248Y-82833118D01*
X84989723Y-82878742D01*
X85056974Y-82908685D01*
X85056978Y-82908686D01*
X85061712Y-82910794D01*
X85066782Y-82911872D01*
X85066783Y-82911872D01*
X85101917Y-82919340D01*
X85248513Y-82950500D01*
X85439487Y-82950500D01*
X85586083Y-82919340D01*
X85621217Y-82911872D01*
X85621218Y-82911872D01*
X85626288Y-82910794D01*
X85631022Y-82908686D01*
X85631026Y-82908685D01*
X85698277Y-82878742D01*
X85800752Y-82833118D01*
X85848452Y-82798462D01*
X85906643Y-82779555D01*
X85964834Y-82798462D01*
X85976647Y-82808551D01*
X87451640Y-84283544D01*
X87480093Y-84343199D01*
X87498458Y-84517928D01*
X87500059Y-84522855D01*
X87500060Y-84522860D01*
X87540748Y-84648083D01*
X87557473Y-84699556D01*
X87560065Y-84704045D01*
X87560067Y-84704050D01*
X87628713Y-84822948D01*
X87652960Y-84864944D01*
X87656432Y-84868800D01*
X87777277Y-85003013D01*
X87777281Y-85003017D01*
X87780747Y-85006866D01*
X87935248Y-85119118D01*
X88037723Y-85164742D01*
X88104974Y-85194685D01*
X88104978Y-85194686D01*
X88109712Y-85196794D01*
X88114782Y-85197872D01*
X88114783Y-85197872D01*
X88149917Y-85205340D01*
X88296513Y-85236500D01*
X88487487Y-85236500D01*
X88634083Y-85205340D01*
X88669217Y-85197872D01*
X88669218Y-85197872D01*
X88674288Y-85196794D01*
X88679022Y-85194686D01*
X88679026Y-85194685D01*
X88746277Y-85164742D01*
X88848752Y-85119118D01*
X89003253Y-85006866D01*
X89006719Y-85003017D01*
X89006723Y-85003013D01*
X89127568Y-84868800D01*
X89131040Y-84864944D01*
X89155287Y-84822948D01*
X89223933Y-84704050D01*
X89223935Y-84704045D01*
X89226527Y-84699556D01*
X89243252Y-84648083D01*
X89283940Y-84522860D01*
X89283941Y-84522855D01*
X89285542Y-84517928D01*
X89305504Y-84328000D01*
X89285542Y-84138072D01*
X89283941Y-84133145D01*
X89283940Y-84133140D01*
X89228129Y-83961375D01*
X89226527Y-83956444D01*
X89223935Y-83951955D01*
X89223933Y-83951950D01*
X89133635Y-83795551D01*
X89131040Y-83791056D01*
X89120576Y-83779434D01*
X89006723Y-83652987D01*
X89006719Y-83652983D01*
X89003253Y-83649134D01*
X88848752Y-83536882D01*
X88746277Y-83491258D01*
X88679026Y-83461315D01*
X88679022Y-83461314D01*
X88674288Y-83459206D01*
X88669218Y-83458128D01*
X88669217Y-83458128D01*
X88634083Y-83450660D01*
X88487487Y-83419500D01*
X88420413Y-83419500D01*
X88362222Y-83400593D01*
X88350409Y-83390504D01*
X86610339Y-81650434D01*
X86604062Y-81643534D01*
X86601336Y-81640239D01*
X86598000Y-81634982D01*
X86593464Y-81630723D01*
X86593462Y-81630720D01*
X86548070Y-81588095D01*
X86545836Y-81585931D01*
X86525770Y-81565865D01*
X86523212Y-81563881D01*
X86521564Y-81562602D01*
X86514477Y-81556549D01*
X86485857Y-81529674D01*
X86481321Y-81525414D01*
X86474579Y-81521708D01*
X86461710Y-81514632D01*
X86448727Y-81506104D01*
X86435964Y-81496204D01*
X86435961Y-81496202D01*
X86431041Y-81492386D01*
X86425321Y-81489911D01*
X86425318Y-81489909D01*
X86389294Y-81474319D01*
X86380920Y-81470217D01*
X86346518Y-81451305D01*
X86346515Y-81451304D01*
X86341060Y-81448305D01*
X86335034Y-81446758D01*
X86335027Y-81446755D01*
X86319378Y-81442737D01*
X86304685Y-81437707D01*
X86289860Y-81431292D01*
X86289859Y-81431292D01*
X86284145Y-81428819D01*
X86239221Y-81421703D01*
X86230090Y-81419812D01*
X86192060Y-81410048D01*
X86192059Y-81410048D01*
X86186030Y-81408500D01*
X86163649Y-81408500D01*
X86148162Y-81407281D01*
X86132209Y-81404754D01*
X86132206Y-81404754D01*
X86126057Y-81403780D01*
X86089021Y-81407281D01*
X86080769Y-81408061D01*
X86071452Y-81408500D01*
X86040178Y-81408500D01*
X85981987Y-81389593D01*
X85966612Y-81375750D01*
X85955253Y-81363134D01*
X85800752Y-81250882D01*
X85698277Y-81205258D01*
X85631026Y-81175315D01*
X85631022Y-81175314D01*
X85626288Y-81173206D01*
X85621218Y-81172128D01*
X85621217Y-81172128D01*
X85572811Y-81161839D01*
X85439487Y-81133500D01*
X85248513Y-81133500D01*
X85150258Y-81154385D01*
X85085097Y-81168235D01*
X85024247Y-81161839D01*
X84978777Y-81120898D01*
X84966056Y-81061050D01*
X84994510Y-81001394D01*
X87534354Y-78461551D01*
X90657409Y-75338496D01*
X90711926Y-75310719D01*
X90727413Y-75309500D01*
X94807822Y-75309500D01*
X94866013Y-75328407D01*
X94881388Y-75342250D01*
X94892747Y-75354866D01*
X95047248Y-75467118D01*
X95149723Y-75512742D01*
X95216974Y-75542685D01*
X95216978Y-75542686D01*
X95221712Y-75544794D01*
X95226782Y-75545872D01*
X95226783Y-75545872D01*
X95261917Y-75553340D01*
X95408513Y-75584500D01*
X95599487Y-75584500D01*
X95746083Y-75553340D01*
X95781217Y-75545872D01*
X95781218Y-75545872D01*
X95786288Y-75544794D01*
X95791022Y-75542686D01*
X95791026Y-75542685D01*
X95858277Y-75512742D01*
X95960752Y-75467118D01*
X96115253Y-75354866D01*
X96118719Y-75351017D01*
X96118723Y-75351013D01*
X96239568Y-75216800D01*
X96243040Y-75212944D01*
X96267287Y-75170948D01*
X96335933Y-75052050D01*
X96335935Y-75052045D01*
X96338527Y-75047556D01*
X96378399Y-74924843D01*
X96395940Y-74870860D01*
X96395941Y-74870855D01*
X96397542Y-74865928D01*
X96417504Y-74676000D01*
X96397542Y-74486072D01*
X96395941Y-74481145D01*
X96395940Y-74481140D01*
X96340129Y-74309375D01*
X96338527Y-74304444D01*
X96335935Y-74299955D01*
X96335933Y-74299950D01*
X96245635Y-74143551D01*
X96243040Y-74139056D01*
X96156101Y-74042500D01*
X96118723Y-74000987D01*
X96118719Y-74000983D01*
X96115253Y-73997134D01*
X95960752Y-73884882D01*
X95846271Y-73833912D01*
X95791026Y-73809315D01*
X95791022Y-73809314D01*
X95786288Y-73807206D01*
X95781218Y-73806128D01*
X95781217Y-73806128D01*
X95746083Y-73798660D01*
X95599487Y-73767500D01*
X95408513Y-73767500D01*
X95261917Y-73798660D01*
X95226783Y-73806128D01*
X95226782Y-73806128D01*
X95221712Y-73807206D01*
X95216978Y-73809314D01*
X95216974Y-73809315D01*
X95161729Y-73833912D01*
X95047248Y-73884882D01*
X94892747Y-73997134D01*
X94881392Y-74009745D01*
X94828406Y-74040337D01*
X94807822Y-74042500D01*
X91178099Y-74042500D01*
X91119908Y-74023593D01*
X91083944Y-73974093D01*
X91083944Y-73912907D01*
X91105929Y-73875732D01*
X91131937Y-73848036D01*
X91134069Y-73845836D01*
X91154135Y-73825770D01*
X91156119Y-73823212D01*
X91157398Y-73821564D01*
X91163451Y-73814477D01*
X91190326Y-73785857D01*
X91194586Y-73781321D01*
X91201591Y-73768579D01*
X91205368Y-73761710D01*
X91213896Y-73748727D01*
X91223796Y-73735964D01*
X91223798Y-73735961D01*
X91227614Y-73731041D01*
X91230091Y-73725318D01*
X91245681Y-73689294D01*
X91249783Y-73680920D01*
X91268695Y-73646518D01*
X91268696Y-73646515D01*
X91271695Y-73641060D01*
X91273242Y-73635034D01*
X91273245Y-73635027D01*
X91277263Y-73619378D01*
X91282293Y-73604685D01*
X91288708Y-73589860D01*
X91288708Y-73589859D01*
X91291181Y-73584145D01*
X91298297Y-73539220D01*
X91300188Y-73530090D01*
X91309952Y-73492060D01*
X91309952Y-73492059D01*
X91311500Y-73486030D01*
X91311500Y-73463649D01*
X91312719Y-73448162D01*
X91315246Y-73432209D01*
X91315246Y-73432206D01*
X91316220Y-73426057D01*
X91311939Y-73380769D01*
X91311500Y-73371452D01*
X91311500Y-72574160D01*
X91330407Y-72515969D01*
X91336929Y-72507916D01*
X91341699Y-72502619D01*
X91417040Y-72418944D01*
X91445583Y-72369507D01*
X91509933Y-72258050D01*
X91509935Y-72258045D01*
X91512527Y-72253556D01*
X91544507Y-72155133D01*
X91569940Y-72076860D01*
X91569941Y-72076855D01*
X91571542Y-72071928D01*
X91591504Y-71882000D01*
X91589491Y-71862849D01*
X91602212Y-71803000D01*
X91647682Y-71762059D01*
X91687949Y-71753500D01*
X97542051Y-71753500D01*
X97600242Y-71772407D01*
X97636206Y-71821907D01*
X97640509Y-71862848D01*
X97638496Y-71882000D01*
X97658458Y-72071928D01*
X97660059Y-72076855D01*
X97660060Y-72076860D01*
X97685493Y-72155133D01*
X97717473Y-72253556D01*
X97720065Y-72258045D01*
X97720067Y-72258050D01*
X97784417Y-72369507D01*
X97812960Y-72418944D01*
X97816432Y-72422800D01*
X97937277Y-72557013D01*
X97937281Y-72557017D01*
X97940747Y-72560866D01*
X97944939Y-72563912D01*
X97944946Y-72563918D01*
X97979588Y-72589087D01*
X98015552Y-72638587D01*
X98015551Y-72699772D01*
X98007136Y-72718674D01*
X97971473Y-72780444D01*
X97961539Y-72811017D01*
X97914060Y-72957140D01*
X97914059Y-72957145D01*
X97912458Y-72962072D01*
X97892496Y-73152000D01*
X97912458Y-73341928D01*
X97913652Y-73345602D01*
X97914384Y-73373547D01*
X97914950Y-73373565D01*
X97914754Y-73379793D01*
X97913780Y-73385943D01*
X97914366Y-73392141D01*
X97918061Y-73431231D01*
X97918500Y-73440548D01*
X97918500Y-78301840D01*
X97899593Y-78360031D01*
X97893073Y-78368082D01*
X97812960Y-78457056D01*
X97810365Y-78461551D01*
X97720067Y-78617950D01*
X97720065Y-78617955D01*
X97717473Y-78622444D01*
X97715871Y-78627375D01*
X97660060Y-78799140D01*
X97660059Y-78799145D01*
X97658458Y-78804072D01*
X97638496Y-78994000D01*
X97658458Y-79183928D01*
X97660059Y-79188855D01*
X97660060Y-79188860D01*
X97700748Y-79314083D01*
X97717473Y-79365556D01*
X97720065Y-79370045D01*
X97720067Y-79370050D01*
X97788713Y-79488948D01*
X97812960Y-79530944D01*
X97816432Y-79534800D01*
X97937277Y-79669013D01*
X97937281Y-79669017D01*
X97940747Y-79672866D01*
X98095248Y-79785118D01*
X98197723Y-79830742D01*
X98264974Y-79860685D01*
X98264978Y-79860686D01*
X98269712Y-79862794D01*
X98274782Y-79863872D01*
X98274783Y-79863872D01*
X98309917Y-79871340D01*
X98456513Y-79902500D01*
X98647487Y-79902500D01*
X98794083Y-79871340D01*
X98829217Y-79863872D01*
X98829218Y-79863872D01*
X98834288Y-79862794D01*
X98839022Y-79860686D01*
X98839026Y-79860685D01*
X98906277Y-79830742D01*
X99008752Y-79785118D01*
X99163253Y-79672866D01*
X99166719Y-79669017D01*
X99166723Y-79669013D01*
X99287568Y-79534800D01*
X99291040Y-79530944D01*
X99315287Y-79488948D01*
X99383933Y-79370050D01*
X99383935Y-79370045D01*
X99386527Y-79365556D01*
X99403252Y-79314083D01*
X99443940Y-79188860D01*
X99443941Y-79188855D01*
X99445542Y-79183928D01*
X99465504Y-78994000D01*
X99445542Y-78804072D01*
X99443941Y-78799145D01*
X99443940Y-78799140D01*
X99388129Y-78627375D01*
X99386527Y-78622444D01*
X99383935Y-78617955D01*
X99383933Y-78617950D01*
X99293635Y-78461551D01*
X99291040Y-78457056D01*
X99210929Y-78368084D01*
X99186042Y-78312188D01*
X99185500Y-78301840D01*
X99185500Y-74041804D01*
X99204407Y-73983613D01*
X99244234Y-73951363D01*
X99258015Y-73945227D01*
X99262752Y-73943118D01*
X99417253Y-73830866D01*
X99420719Y-73827017D01*
X99420723Y-73827013D01*
X99541568Y-73692800D01*
X99545040Y-73688944D01*
X99597688Y-73597755D01*
X99637933Y-73528050D01*
X99637935Y-73528045D01*
X99640527Y-73523556D01*
X99670208Y-73432209D01*
X99697940Y-73346860D01*
X99697941Y-73346855D01*
X99699542Y-73341928D01*
X99719504Y-73152000D01*
X99699542Y-72962072D01*
X99697941Y-72957145D01*
X99697940Y-72957140D01*
X99650461Y-72811017D01*
X99640527Y-72780444D01*
X99573296Y-72663998D01*
X99560576Y-72604152D01*
X99585463Y-72548256D01*
X99638451Y-72517663D01*
X99659034Y-72515500D01*
X101157822Y-72515500D01*
X101216013Y-72534407D01*
X101231388Y-72548250D01*
X101242747Y-72560866D01*
X101397248Y-72673118D01*
X101499580Y-72718679D01*
X101566974Y-72748685D01*
X101566978Y-72748686D01*
X101571712Y-72750794D01*
X101576782Y-72751872D01*
X101576783Y-72751872D01*
X101611917Y-72759340D01*
X101758513Y-72790500D01*
X101949487Y-72790500D01*
X102096083Y-72759340D01*
X102131217Y-72751872D01*
X102131218Y-72751872D01*
X102136288Y-72750794D01*
X102141022Y-72748686D01*
X102141026Y-72748685D01*
X102208420Y-72718679D01*
X102310752Y-72673118D01*
X102453090Y-72569703D01*
X102511281Y-72550796D01*
X102569472Y-72569703D01*
X102597014Y-72600292D01*
X102638960Y-72672944D01*
X102642432Y-72676800D01*
X102763277Y-72811013D01*
X102763281Y-72811017D01*
X102766747Y-72814866D01*
X102921248Y-72927118D01*
X103023723Y-72972742D01*
X103090974Y-73002685D01*
X103090978Y-73002686D01*
X103095712Y-73004794D01*
X103100782Y-73005872D01*
X103100783Y-73005872D01*
X103135917Y-73013340D01*
X103282513Y-73044500D01*
X103473487Y-73044500D01*
X103620083Y-73013340D01*
X103655217Y-73005872D01*
X103655218Y-73005872D01*
X103660288Y-73004794D01*
X103665022Y-73002686D01*
X103665026Y-73002685D01*
X103732277Y-72972742D01*
X103834752Y-72927118D01*
X103989253Y-72814866D01*
X104000608Y-72802255D01*
X104053594Y-72771663D01*
X104074178Y-72769500D01*
X116950656Y-72769500D01*
X117008847Y-72788407D01*
X117020660Y-72798496D01*
X121257504Y-77035340D01*
X121285281Y-77089857D01*
X121286500Y-77105344D01*
X121286500Y-77539840D01*
X121267593Y-77598031D01*
X121261073Y-77606082D01*
X121180960Y-77695056D01*
X121178365Y-77699551D01*
X121088067Y-77855950D01*
X121088065Y-77855955D01*
X121085473Y-77860444D01*
X121083871Y-77865375D01*
X121028060Y-78037140D01*
X121028059Y-78037145D01*
X121026458Y-78042072D01*
X121006496Y-78232000D01*
X121026458Y-78421928D01*
X121028059Y-78426855D01*
X121028060Y-78426860D01*
X121039332Y-78461551D01*
X121085473Y-78603556D01*
X121088065Y-78608045D01*
X121088067Y-78608050D01*
X121156713Y-78726948D01*
X121180960Y-78768944D01*
X121184432Y-78772800D01*
X121305277Y-78907013D01*
X121305281Y-78907017D01*
X121308747Y-78910866D01*
X121463248Y-79023118D01*
X121565723Y-79068742D01*
X121632974Y-79098685D01*
X121632978Y-79098686D01*
X121637712Y-79100794D01*
X121642782Y-79101872D01*
X121642783Y-79101872D01*
X121677917Y-79109340D01*
X121824513Y-79140500D01*
X122015487Y-79140500D01*
X122162083Y-79109340D01*
X122197217Y-79101872D01*
X122197218Y-79101872D01*
X122202288Y-79100794D01*
X122207022Y-79098686D01*
X122207026Y-79098685D01*
X122274277Y-79068742D01*
X122376752Y-79023118D01*
X122531253Y-78910866D01*
X122534719Y-78907017D01*
X122534723Y-78907013D01*
X122655568Y-78772800D01*
X122659040Y-78768944D01*
X122683287Y-78726948D01*
X122751933Y-78608050D01*
X122751935Y-78608045D01*
X122754527Y-78603556D01*
X122800668Y-78461551D01*
X122811940Y-78426860D01*
X122811941Y-78426855D01*
X122813542Y-78421928D01*
X122833504Y-78232000D01*
X122813542Y-78042072D01*
X122811941Y-78037145D01*
X122811940Y-78037140D01*
X122756129Y-77865375D01*
X122754527Y-77860444D01*
X122751935Y-77855955D01*
X122751933Y-77855950D01*
X122661635Y-77699551D01*
X122659040Y-77695056D01*
X122578929Y-77606084D01*
X122554042Y-77550188D01*
X122553500Y-77539840D01*
X122553500Y-76881694D01*
X122553939Y-76872380D01*
X122554343Y-76868101D01*
X122555702Y-76862023D01*
X122553549Y-76793533D01*
X122553500Y-76790422D01*
X122553500Y-76762076D01*
X122552834Y-76756801D01*
X122552102Y-76747501D01*
X122550869Y-76708268D01*
X122550869Y-76708266D01*
X122550673Y-76702042D01*
X122544429Y-76680549D01*
X122541280Y-76665343D01*
X122539255Y-76649316D01*
X122538474Y-76643135D01*
X122536182Y-76637346D01*
X122536181Y-76637342D01*
X122521730Y-76600844D01*
X122518709Y-76592021D01*
X122507755Y-76554318D01*
X122506018Y-76548339D01*
X122502849Y-76542980D01*
X122502847Y-76542976D01*
X122494624Y-76529071D01*
X122487791Y-76515123D01*
X122481846Y-76500108D01*
X122481845Y-76500106D01*
X122479552Y-76494315D01*
X122452817Y-76457517D01*
X122447697Y-76449722D01*
X122427715Y-76415934D01*
X122427714Y-76415933D01*
X122424542Y-76410569D01*
X122408713Y-76394740D01*
X122398625Y-76382927D01*
X122389136Y-76369866D01*
X122389129Y-76369859D01*
X122385472Y-76364825D01*
X122380677Y-76360859D01*
X122380675Y-76360856D01*
X122350434Y-76335839D01*
X122343535Y-76329562D01*
X117884373Y-71870400D01*
X117856596Y-71815883D01*
X117866167Y-71755451D01*
X117893493Y-71722421D01*
X117898362Y-71719542D01*
X117914189Y-71703715D01*
X117926002Y-71693626D01*
X117939071Y-71684131D01*
X117939072Y-71684131D01*
X117944107Y-71680472D01*
X117948073Y-71675677D01*
X117948076Y-71675675D01*
X117973098Y-71645428D01*
X117979375Y-71638529D01*
X121624408Y-67993496D01*
X121678925Y-67965719D01*
X121694412Y-67964500D01*
X121761487Y-67964500D01*
X121933210Y-67927999D01*
X121943217Y-67925872D01*
X121943218Y-67925872D01*
X121948288Y-67924794D01*
X121953022Y-67922686D01*
X121953026Y-67922685D01*
X122020277Y-67892742D01*
X122122752Y-67847118D01*
X122277253Y-67734866D01*
X122280719Y-67731017D01*
X122280723Y-67731013D01*
X122401568Y-67596800D01*
X122405040Y-67592944D01*
X122429287Y-67550948D01*
X122497933Y-67432050D01*
X122497935Y-67432045D01*
X122500527Y-67427556D01*
X122517252Y-67376083D01*
X122557940Y-67250860D01*
X122557941Y-67250855D01*
X122559542Y-67245928D01*
X122579504Y-67056000D01*
X122559542Y-66866072D01*
X122557941Y-66861145D01*
X122557940Y-66861140D01*
X122502129Y-66689375D01*
X122500527Y-66684444D01*
X122497935Y-66679955D01*
X122497933Y-66679950D01*
X122407635Y-66523551D01*
X122405040Y-66519056D01*
X122360719Y-66469832D01*
X122280723Y-66380987D01*
X122280719Y-66380983D01*
X122277253Y-66377134D01*
X122122752Y-66264882D01*
X122124224Y-66262856D01*
X122089849Y-66224680D01*
X122083453Y-66163830D01*
X122106717Y-66118169D01*
X122151040Y-66068944D01*
X122186537Y-66007462D01*
X122243933Y-65908050D01*
X122243935Y-65908045D01*
X122246527Y-65903556D01*
X122274577Y-65817227D01*
X122303940Y-65726860D01*
X122303941Y-65726855D01*
X122305542Y-65721928D01*
X122325504Y-65532000D01*
X122305542Y-65342072D01*
X122303941Y-65337145D01*
X122303940Y-65337140D01*
X122262229Y-65208770D01*
X122246527Y-65160444D01*
X122243935Y-65155955D01*
X122243933Y-65155950D01*
X122153635Y-64999551D01*
X122151040Y-64995056D01*
X122127863Y-64969315D01*
X122026723Y-64856987D01*
X122026719Y-64856983D01*
X122023253Y-64853134D01*
X121868752Y-64740882D01*
X121766277Y-64695258D01*
X121699026Y-64665315D01*
X121699022Y-64665314D01*
X121694288Y-64663206D01*
X121689218Y-64662128D01*
X121689217Y-64662128D01*
X121643657Y-64652444D01*
X121507487Y-64623500D01*
X121316513Y-64623500D01*
X121180343Y-64652444D01*
X121134783Y-64662128D01*
X121134782Y-64662128D01*
X121129712Y-64663206D01*
X121124978Y-64665314D01*
X121124974Y-64665315D01*
X121057723Y-64695258D01*
X120955248Y-64740882D01*
X120800747Y-64853134D01*
X120789392Y-64865745D01*
X120736406Y-64896337D01*
X120715822Y-64898500D01*
X114543405Y-64898500D01*
X114534090Y-64898061D01*
X114529813Y-64897657D01*
X114523734Y-64896298D01*
X114455739Y-64898435D01*
X114455230Y-64898451D01*
X114452120Y-64898500D01*
X114423787Y-64898500D01*
X114420699Y-64898890D01*
X114418521Y-64899165D01*
X114409226Y-64899897D01*
X114393610Y-64900388D01*
X114369978Y-64901130D01*
X114369975Y-64901130D01*
X114363754Y-64901326D01*
X114345923Y-64906507D01*
X114342256Y-64907572D01*
X114327043Y-64910722D01*
X114311028Y-64912745D01*
X114311027Y-64912745D01*
X114304846Y-64913526D01*
X114262548Y-64930272D01*
X114253743Y-64933287D01*
X114210050Y-64945982D01*
X114204688Y-64949153D01*
X114204686Y-64949154D01*
X114190786Y-64957375D01*
X114176842Y-64964207D01*
X114156026Y-64972448D01*
X114119213Y-64999194D01*
X114111449Y-65004294D01*
X114072281Y-65027458D01*
X114056454Y-65043285D01*
X114044642Y-65053373D01*
X114026536Y-65066528D01*
X114022570Y-65071323D01*
X114022567Y-65071325D01*
X113997545Y-65101572D01*
X113991268Y-65108471D01*
X109266337Y-69833401D01*
X109211820Y-69861178D01*
X109151388Y-69851607D01*
X109108123Y-69808342D01*
X109099922Y-69780645D01*
X109099163Y-69780806D01*
X109098084Y-69775729D01*
X109097542Y-69770572D01*
X109095941Y-69765645D01*
X109095940Y-69765640D01*
X109040129Y-69593875D01*
X109038527Y-69588944D01*
X109035935Y-69584455D01*
X109035933Y-69584450D01*
X108959227Y-69451593D01*
X108943040Y-69423556D01*
X108893083Y-69368073D01*
X108818723Y-69285487D01*
X108818719Y-69285483D01*
X108815253Y-69281634D01*
X108660752Y-69169382D01*
X108532878Y-69112449D01*
X108491026Y-69093815D01*
X108491022Y-69093814D01*
X108486288Y-69091706D01*
X108481218Y-69090628D01*
X108481217Y-69090628D01*
X108446083Y-69083160D01*
X108299487Y-69052000D01*
X108108513Y-69052000D01*
X107961917Y-69083160D01*
X107926783Y-69090628D01*
X107926782Y-69090628D01*
X107921712Y-69091706D01*
X107916978Y-69093814D01*
X107916974Y-69093815D01*
X107875122Y-69112449D01*
X107747248Y-69169382D01*
X107592747Y-69281634D01*
X107589281Y-69285483D01*
X107589277Y-69285487D01*
X107470070Y-69417881D01*
X107464960Y-69423556D01*
X107462369Y-69428044D01*
X107461170Y-69429694D01*
X107411669Y-69465656D01*
X107381080Y-69470500D01*
X102089792Y-69470500D01*
X102031601Y-69451593D01*
X101995637Y-69402093D01*
X101992973Y-69351262D01*
X101994311Y-69347144D01*
X101998355Y-69308675D01*
X102013731Y-69162373D01*
X102014273Y-69157216D01*
X101994311Y-68967288D01*
X101992710Y-68962361D01*
X101992709Y-68962356D01*
X101936898Y-68790591D01*
X101935296Y-68785660D01*
X101932704Y-68781171D01*
X101932702Y-68781166D01*
X101844433Y-68628281D01*
X101839809Y-68620272D01*
X101761447Y-68533242D01*
X101715492Y-68482203D01*
X101715488Y-68482199D01*
X101712022Y-68478350D01*
X101557521Y-68366098D01*
X101430604Y-68309591D01*
X101387795Y-68290531D01*
X101387791Y-68290530D01*
X101383057Y-68288422D01*
X101377987Y-68287344D01*
X101377986Y-68287344D01*
X101342852Y-68279876D01*
X101196256Y-68248716D01*
X101005282Y-68248716D01*
X100858686Y-68279876D01*
X100823552Y-68287344D01*
X100823551Y-68287344D01*
X100818481Y-68288422D01*
X100813747Y-68290530D01*
X100813743Y-68290531D01*
X100770934Y-68309591D01*
X100644017Y-68366098D01*
X100489516Y-68478350D01*
X100486050Y-68482199D01*
X100486046Y-68482203D01*
X100440091Y-68533242D01*
X100361729Y-68620272D01*
X100357104Y-68628283D01*
X100311636Y-68669222D01*
X100271369Y-68677781D01*
X97582678Y-68677781D01*
X97524487Y-68658874D01*
X97509112Y-68645031D01*
X97497753Y-68632415D01*
X97343252Y-68520163D01*
X97215396Y-68463238D01*
X97173526Y-68444596D01*
X97173522Y-68444595D01*
X97168788Y-68442487D01*
X97163718Y-68441409D01*
X97163717Y-68441409D01*
X97118994Y-68431903D01*
X96981987Y-68402781D01*
X96791013Y-68402781D01*
X96654006Y-68431903D01*
X96609283Y-68441409D01*
X96609282Y-68441409D01*
X96604212Y-68442487D01*
X96599478Y-68444595D01*
X96599474Y-68444596D01*
X96557604Y-68463238D01*
X96429748Y-68520163D01*
X96275247Y-68632415D01*
X96271781Y-68636264D01*
X96271777Y-68636268D01*
X96234399Y-68677781D01*
X96147460Y-68774337D01*
X96144865Y-68778832D01*
X96054567Y-68935231D01*
X96054565Y-68935236D01*
X96051973Y-68939725D01*
X96032935Y-68998319D01*
X96026279Y-69018803D01*
X95990315Y-69068303D01*
X95932124Y-69087211D01*
X95873934Y-69068304D01*
X95862120Y-69058215D01*
X95428360Y-68624455D01*
X95399906Y-68564799D01*
X95396590Y-68533242D01*
X95381542Y-68390072D01*
X95379941Y-68385145D01*
X95379940Y-68385140D01*
X95326240Y-68219871D01*
X95322527Y-68208444D01*
X95319935Y-68203955D01*
X95319933Y-68203950D01*
X95229635Y-68047551D01*
X95227040Y-68043056D01*
X95207744Y-68021626D01*
X95102723Y-67904987D01*
X95102719Y-67904983D01*
X95099253Y-67901134D01*
X94944752Y-67788882D01*
X94830271Y-67737912D01*
X94775026Y-67713315D01*
X94775022Y-67713314D01*
X94770288Y-67711206D01*
X94765218Y-67710128D01*
X94765217Y-67710128D01*
X94699606Y-67696182D01*
X94583487Y-67671500D01*
X94392513Y-67671500D01*
X94276394Y-67696182D01*
X94210783Y-67710128D01*
X94210782Y-67710128D01*
X94205712Y-67711206D01*
X94200978Y-67713314D01*
X94200974Y-67713315D01*
X94145729Y-67737912D01*
X94031248Y-67788882D01*
X93876747Y-67901134D01*
X93873281Y-67904983D01*
X93873277Y-67904987D01*
X93768256Y-68021626D01*
X93748960Y-68043056D01*
X93746365Y-68047551D01*
X93656067Y-68203950D01*
X93656065Y-68203955D01*
X93653473Y-68208444D01*
X93649760Y-68219871D01*
X93596060Y-68385140D01*
X93596059Y-68385145D01*
X93594458Y-68390072D01*
X93574496Y-68580000D01*
X93594458Y-68769928D01*
X93596059Y-68774855D01*
X93596060Y-68774860D01*
X93607976Y-68811533D01*
X93653473Y-68951556D01*
X93656065Y-68956045D01*
X93656067Y-68956050D01*
X93683066Y-69002813D01*
X93748960Y-69116944D01*
X93752432Y-69120800D01*
X93873277Y-69255013D01*
X93873281Y-69255017D01*
X93876747Y-69258866D01*
X94031248Y-69371118D01*
X94125674Y-69413159D01*
X94200974Y-69446685D01*
X94200978Y-69446686D01*
X94205712Y-69448794D01*
X94210782Y-69449872D01*
X94210783Y-69449872D01*
X94218880Y-69451593D01*
X94392513Y-69488500D01*
X94459588Y-69488500D01*
X94517779Y-69507407D01*
X94529592Y-69517496D01*
X94821592Y-69809496D01*
X94849369Y-69864013D01*
X94839798Y-69924445D01*
X94796533Y-69967710D01*
X94751588Y-69978500D01*
X81105762Y-69978500D01*
X81096448Y-69978061D01*
X81092169Y-69977657D01*
X81086091Y-69976298D01*
X81017601Y-69978451D01*
X81014490Y-69978500D01*
X80986144Y-69978500D01*
X80983058Y-69978890D01*
X80983055Y-69978890D01*
X80980869Y-69979166D01*
X80971572Y-69979898D01*
X80957288Y-69980347D01*
X80932336Y-69981131D01*
X80932334Y-69981131D01*
X80926110Y-69981327D01*
X80904617Y-69987571D01*
X80889411Y-69990720D01*
X80873384Y-69992745D01*
X80867203Y-69993526D01*
X80861414Y-69995818D01*
X80861410Y-69995819D01*
X80824912Y-70010270D01*
X80816091Y-70013290D01*
X80772407Y-70025982D01*
X80767048Y-70029151D01*
X80767044Y-70029153D01*
X80753139Y-70037376D01*
X80739191Y-70044209D01*
X80724176Y-70050154D01*
X80724174Y-70050155D01*
X80718383Y-70052448D01*
X80713344Y-70056109D01*
X80681585Y-70079183D01*
X80673790Y-70084303D01*
X80634637Y-70107458D01*
X80618808Y-70123287D01*
X80606995Y-70133375D01*
X80593934Y-70142864D01*
X80593927Y-70142871D01*
X80588893Y-70146528D01*
X80584927Y-70151323D01*
X80584924Y-70151325D01*
X80559907Y-70181566D01*
X80553630Y-70188465D01*
X79797591Y-70944504D01*
X79743074Y-70972281D01*
X79727587Y-70973500D01*
X79660513Y-70973500D01*
X79513917Y-71004660D01*
X79478783Y-71012128D01*
X79478782Y-71012128D01*
X79473712Y-71013206D01*
X79468978Y-71015314D01*
X79468974Y-71015315D01*
X79401723Y-71045258D01*
X79299248Y-71090882D01*
X79144747Y-71203134D01*
X79141281Y-71206983D01*
X79141277Y-71206987D01*
X79027424Y-71333434D01*
X79016960Y-71345056D01*
X79014365Y-71349551D01*
X78924067Y-71505950D01*
X78924065Y-71505955D01*
X78921473Y-71510444D01*
X78919871Y-71515375D01*
X78864060Y-71687140D01*
X78864059Y-71687145D01*
X78862458Y-71692072D01*
X78842496Y-71882000D01*
X78862458Y-72071928D01*
X78864059Y-72076855D01*
X78864060Y-72076860D01*
X78889493Y-72155133D01*
X78921473Y-72253556D01*
X78924065Y-72258045D01*
X78924067Y-72258050D01*
X78988417Y-72369507D01*
X79016960Y-72418944D01*
X79020432Y-72422800D01*
X79141277Y-72557013D01*
X79141281Y-72557017D01*
X79144747Y-72560866D01*
X79299248Y-72673118D01*
X79401580Y-72718679D01*
X79468974Y-72748685D01*
X79468978Y-72748686D01*
X79473712Y-72750794D01*
X79478782Y-72751872D01*
X79478783Y-72751872D01*
X79513917Y-72759340D01*
X79660513Y-72790500D01*
X79851487Y-72790500D01*
X79998083Y-72759340D01*
X80033217Y-72751872D01*
X80033218Y-72751872D01*
X80038288Y-72750794D01*
X80043022Y-72748686D01*
X80043026Y-72748685D01*
X80110420Y-72718679D01*
X80212752Y-72673118D01*
X80367253Y-72560866D01*
X80370719Y-72557017D01*
X80370723Y-72557013D01*
X80491568Y-72422800D01*
X80495040Y-72418944D01*
X80497635Y-72414449D01*
X80500683Y-72410254D01*
X80502284Y-72411417D01*
X80541711Y-72375909D01*
X80602561Y-72369507D01*
X80655552Y-72400095D01*
X80676141Y-72435752D01*
X80697868Y-72502619D01*
X80697871Y-72502625D01*
X80699473Y-72507556D01*
X80702065Y-72512045D01*
X80702067Y-72512050D01*
X80755243Y-72604152D01*
X80794960Y-72672944D01*
X80798432Y-72676800D01*
X80919277Y-72811013D01*
X80919281Y-72811017D01*
X80922747Y-72814866D01*
X81077248Y-72927118D01*
X81179723Y-72972742D01*
X81246974Y-73002685D01*
X81246978Y-73002686D01*
X81251712Y-73004794D01*
X81256782Y-73005872D01*
X81256783Y-73005872D01*
X81291917Y-73013340D01*
X81438513Y-73044500D01*
X81629487Y-73044500D01*
X81776083Y-73013340D01*
X81811217Y-73005872D01*
X81811218Y-73005872D01*
X81816288Y-73004794D01*
X81821022Y-73002686D01*
X81821026Y-73002685D01*
X81888277Y-72972742D01*
X81990752Y-72927118D01*
X82145253Y-72814866D01*
X82148719Y-72811017D01*
X82148723Y-72811013D01*
X82269568Y-72676800D01*
X82273040Y-72672944D01*
X82312757Y-72604152D01*
X82365933Y-72512050D01*
X82365935Y-72512045D01*
X82368527Y-72507556D01*
X82400143Y-72410254D01*
X82425940Y-72330860D01*
X82425941Y-72330855D01*
X82427542Y-72325928D01*
X82445907Y-72151198D01*
X82474362Y-72091542D01*
X82783409Y-71782496D01*
X82837925Y-71754719D01*
X82853412Y-71753500D01*
X89668051Y-71753500D01*
X89726242Y-71772407D01*
X89762206Y-71821907D01*
X89766509Y-71862848D01*
X89764496Y-71882000D01*
X89784458Y-72071928D01*
X89786059Y-72076855D01*
X89786060Y-72076860D01*
X89811493Y-72155133D01*
X89843473Y-72253556D01*
X89846065Y-72258045D01*
X89846067Y-72258050D01*
X89910417Y-72369507D01*
X89938960Y-72418944D01*
X90014302Y-72502619D01*
X90019071Y-72507916D01*
X90043958Y-72563812D01*
X90044500Y-72574160D01*
X90044500Y-73102588D01*
X90025593Y-73160779D01*
X90015504Y-73172592D01*
X83078591Y-80109504D01*
X83024074Y-80137281D01*
X83008587Y-80138500D01*
X80198178Y-80138500D01*
X80139987Y-80119593D01*
X80124612Y-80105750D01*
X80113253Y-80093134D01*
X79958752Y-79980882D01*
X79856277Y-79935258D01*
X79789026Y-79905315D01*
X79789022Y-79905314D01*
X79784288Y-79903206D01*
X79779218Y-79902128D01*
X79779217Y-79902128D01*
X79744083Y-79894660D01*
X79597487Y-79863500D01*
X79406513Y-79863500D01*
X79259917Y-79894660D01*
X79224783Y-79902128D01*
X79224782Y-79902128D01*
X79219712Y-79903206D01*
X79214978Y-79905314D01*
X79214974Y-79905315D01*
X79147723Y-79935258D01*
X79045248Y-79980882D01*
X78890747Y-80093134D01*
X78887281Y-80096983D01*
X78887277Y-80096987D01*
X78849899Y-80138500D01*
X78762960Y-80235056D01*
X78760367Y-80239546D01*
X78760367Y-80239547D01*
X78708922Y-80328652D01*
X78663452Y-80369592D01*
X78602604Y-80375988D01*
X78586564Y-80372579D01*
X78586562Y-80372579D01*
X78581487Y-80371500D01*
X78390513Y-80371500D01*
X78243917Y-80402660D01*
X78208783Y-80410128D01*
X78208782Y-80410128D01*
X78203712Y-80411206D01*
X78198978Y-80413314D01*
X78198974Y-80413315D01*
X78131723Y-80443258D01*
X78029248Y-80488882D01*
X77874747Y-80601134D01*
X77871281Y-80604983D01*
X77871277Y-80604987D01*
X77757424Y-80731434D01*
X77746960Y-80743056D01*
X77744365Y-80747551D01*
X77654067Y-80903950D01*
X77654065Y-80903955D01*
X77651473Y-80908444D01*
X77649871Y-80913375D01*
X77594060Y-81085140D01*
X77594059Y-81085145D01*
X77592458Y-81090072D01*
X77572496Y-81280000D01*
X70508500Y-81280000D01*
X70508500Y-66214320D01*
X72496404Y-66214320D01*
X72515364Y-66394712D01*
X72517148Y-66399952D01*
X72517148Y-66399953D01*
X72571349Y-66559167D01*
X72573818Y-66566421D01*
X72576716Y-66571131D01*
X72576718Y-66571136D01*
X72649460Y-66689375D01*
X72668862Y-66720912D01*
X72672729Y-66724861D01*
X72672730Y-66724862D01*
X72686292Y-66738711D01*
X72795771Y-66850507D01*
X72948238Y-66948765D01*
X73118685Y-67010803D01*
X73258769Y-67028500D01*
X73355610Y-67028500D01*
X73380521Y-67025706D01*
X73484758Y-67014014D01*
X73484762Y-67014013D01*
X73490255Y-67013397D01*
X73495476Y-67011579D01*
X73495480Y-67011578D01*
X73607360Y-66972617D01*
X73661552Y-66953745D01*
X73793605Y-66871230D01*
X73810686Y-66860557D01*
X73810688Y-66860555D01*
X73815376Y-66857626D01*
X73819299Y-66853731D01*
X73819302Y-66853728D01*
X73940153Y-66733717D01*
X73940154Y-66733715D01*
X73944082Y-66729815D01*
X74035943Y-66585065D01*
X74038310Y-66581336D01*
X74038312Y-66581331D01*
X74041273Y-66576666D01*
X74102119Y-66405790D01*
X74102815Y-66399953D01*
X74122941Y-66231176D01*
X74122941Y-66231173D01*
X74123596Y-66225680D01*
X74104636Y-66045288D01*
X74055205Y-65900084D01*
X74047967Y-65878821D01*
X74047965Y-65878817D01*
X74046182Y-65873579D01*
X74043284Y-65868869D01*
X74043282Y-65868864D01*
X73954035Y-65723797D01*
X73951138Y-65719088D01*
X73938599Y-65706283D01*
X73828100Y-65593446D01*
X73824229Y-65589493D01*
X73671762Y-65491235D01*
X73501315Y-65429197D01*
X73361231Y-65411500D01*
X73264390Y-65411500D01*
X73239479Y-65414294D01*
X73135242Y-65425986D01*
X73135238Y-65425987D01*
X73129745Y-65426603D01*
X73124524Y-65428421D01*
X73124520Y-65428422D01*
X73012640Y-65467383D01*
X72958448Y-65486255D01*
X72953755Y-65489187D01*
X72953756Y-65489187D01*
X72809314Y-65579443D01*
X72809312Y-65579445D01*
X72804624Y-65582374D01*
X72800701Y-65586269D01*
X72800698Y-65586272D01*
X72688785Y-65697407D01*
X72675918Y-65710185D01*
X72668466Y-65721928D01*
X72581690Y-65858664D01*
X72581688Y-65858669D01*
X72578727Y-65863334D01*
X72517881Y-66034210D01*
X72517227Y-66039697D01*
X72517226Y-66039700D01*
X72497275Y-66207017D01*
X72496404Y-66214320D01*
X70508500Y-66214320D01*
X70508500Y-63500000D01*
X73828690Y-63500000D01*
X73848652Y-63689928D01*
X73850253Y-63694855D01*
X73850254Y-63694860D01*
X73890942Y-63820083D01*
X73907667Y-63871556D01*
X73910259Y-63876045D01*
X73910261Y-63876050D01*
X73924163Y-63900128D01*
X74003154Y-64036944D01*
X74006626Y-64040800D01*
X74127471Y-64175013D01*
X74127475Y-64175017D01*
X74130941Y-64178866D01*
X74285442Y-64291118D01*
X74387917Y-64336742D01*
X74455168Y-64366685D01*
X74455172Y-64366686D01*
X74459906Y-64368794D01*
X74464976Y-64369872D01*
X74464977Y-64369872D01*
X74500111Y-64377340D01*
X74646707Y-64408500D01*
X74664587Y-64408500D01*
X74722778Y-64427407D01*
X74758742Y-64476907D01*
X74758742Y-64538093D01*
X74734591Y-64577504D01*
X74648434Y-64663661D01*
X74641534Y-64669938D01*
X74638239Y-64672664D01*
X74632982Y-64676000D01*
X74628723Y-64680536D01*
X74628720Y-64680538D01*
X74586095Y-64725930D01*
X74583931Y-64728164D01*
X74563865Y-64748230D01*
X74561960Y-64750686D01*
X74560602Y-64752436D01*
X74554549Y-64759523D01*
X74544711Y-64770000D01*
X74523414Y-64792679D01*
X74520415Y-64798134D01*
X74512632Y-64812290D01*
X74504104Y-64825273D01*
X74494204Y-64838036D01*
X74494202Y-64838039D01*
X74490386Y-64842959D01*
X74487911Y-64848679D01*
X74487909Y-64848682D01*
X74472319Y-64884706D01*
X74468217Y-64893080D01*
X74449305Y-64927482D01*
X74449304Y-64927485D01*
X74446305Y-64932940D01*
X74444758Y-64938966D01*
X74444755Y-64938973D01*
X74440737Y-64954622D01*
X74435707Y-64969315D01*
X74432768Y-64976107D01*
X74426819Y-64989855D01*
X74422227Y-65018843D01*
X74419703Y-65034780D01*
X74417812Y-65043910D01*
X74408048Y-65081940D01*
X74406500Y-65087970D01*
X74406500Y-65110351D01*
X74405281Y-65125838D01*
X74402792Y-65141556D01*
X74401780Y-65147943D01*
X74402366Y-65154141D01*
X74406061Y-65193231D01*
X74406500Y-65202548D01*
X74406500Y-67848201D01*
X74406061Y-67857515D01*
X74405657Y-67861794D01*
X74404298Y-67867872D01*
X74404731Y-67881637D01*
X74406451Y-67936362D01*
X74406500Y-67939473D01*
X74406500Y-67967819D01*
X74406890Y-67970905D01*
X74406890Y-67970908D01*
X74407166Y-67973094D01*
X74407898Y-67982393D01*
X74409078Y-68019918D01*
X74409327Y-68027852D01*
X74415573Y-68049350D01*
X74418719Y-68064542D01*
X74421526Y-68086760D01*
X74423818Y-68092549D01*
X74438274Y-68129060D01*
X74441293Y-68137880D01*
X74453982Y-68181556D01*
X74457150Y-68186913D01*
X74457152Y-68186917D01*
X74465375Y-68200820D01*
X74472207Y-68214764D01*
X74480448Y-68235580D01*
X74507194Y-68272393D01*
X74512294Y-68280157D01*
X74535458Y-68319325D01*
X74551285Y-68335152D01*
X74561373Y-68346964D01*
X74574528Y-68365070D01*
X74579323Y-68369036D01*
X74579325Y-68369039D01*
X74609572Y-68394061D01*
X74616471Y-68400338D01*
X74798440Y-68582307D01*
X74826893Y-68641962D01*
X74845258Y-68816691D01*
X74846859Y-68821618D01*
X74846860Y-68821623D01*
X74883774Y-68935231D01*
X74904273Y-68998319D01*
X74906865Y-69002808D01*
X74906867Y-69002813D01*
X74938854Y-69058215D01*
X74999760Y-69163707D01*
X75003232Y-69167563D01*
X75124077Y-69301776D01*
X75124081Y-69301780D01*
X75127547Y-69305629D01*
X75282048Y-69417881D01*
X75357767Y-69451593D01*
X75451774Y-69493448D01*
X75451778Y-69493449D01*
X75456512Y-69495557D01*
X75461582Y-69496635D01*
X75461583Y-69496635D01*
X75496717Y-69504103D01*
X75643313Y-69535263D01*
X75834287Y-69535263D01*
X75980883Y-69504103D01*
X76016017Y-69496635D01*
X76016018Y-69496635D01*
X76021088Y-69495557D01*
X76025822Y-69493449D01*
X76025826Y-69493448D01*
X76161785Y-69432915D01*
X76222635Y-69426519D01*
X76242316Y-69432914D01*
X76284270Y-69451593D01*
X76378277Y-69493448D01*
X76378281Y-69493449D01*
X76383015Y-69495557D01*
X76388085Y-69496635D01*
X76388086Y-69496635D01*
X76423220Y-69504103D01*
X76569816Y-69535263D01*
X76760790Y-69535263D01*
X76907386Y-69504103D01*
X76942520Y-69496635D01*
X76942521Y-69496635D01*
X76947591Y-69495557D01*
X76952325Y-69493449D01*
X76952329Y-69493448D01*
X77046336Y-69451593D01*
X77122055Y-69417881D01*
X77276556Y-69305629D01*
X77280022Y-69301780D01*
X77280026Y-69301776D01*
X77400871Y-69167563D01*
X77404343Y-69163707D01*
X77465249Y-69058215D01*
X77497236Y-69002813D01*
X77497238Y-69002808D01*
X77499830Y-68998319D01*
X77520329Y-68935231D01*
X77557243Y-68821623D01*
X77557244Y-68821618D01*
X77558845Y-68816691D01*
X77578807Y-68626763D01*
X77558845Y-68436835D01*
X77557244Y-68431908D01*
X77557243Y-68431903D01*
X77514310Y-68299771D01*
X77499830Y-68255207D01*
X77497238Y-68250718D01*
X77497236Y-68250713D01*
X77406938Y-68094314D01*
X77404343Y-68089819D01*
X77324232Y-68000847D01*
X77299345Y-67944951D01*
X77298803Y-67934603D01*
X77298803Y-66585065D01*
X77299242Y-66575751D01*
X77299646Y-66571472D01*
X77301005Y-66565394D01*
X77298852Y-66496904D01*
X77298803Y-66493793D01*
X77298803Y-66465447D01*
X77298137Y-66460172D01*
X77297405Y-66450872D01*
X77296172Y-66411639D01*
X77296172Y-66411637D01*
X77295976Y-66405413D01*
X77289732Y-66383920D01*
X77286583Y-66368714D01*
X77284558Y-66352687D01*
X77283777Y-66346506D01*
X77281485Y-66340717D01*
X77281484Y-66340713D01*
X77267033Y-66304215D01*
X77264012Y-66295392D01*
X77253058Y-66257689D01*
X77251321Y-66251710D01*
X77248152Y-66246351D01*
X77248150Y-66246347D01*
X77239927Y-66232442D01*
X77233094Y-66218494D01*
X77231441Y-66214320D01*
X78276404Y-66214320D01*
X78295364Y-66394712D01*
X78297148Y-66399952D01*
X78297148Y-66399953D01*
X78351349Y-66559167D01*
X78353818Y-66566421D01*
X78356716Y-66571131D01*
X78356718Y-66571136D01*
X78429460Y-66689375D01*
X78448862Y-66720912D01*
X78452729Y-66724861D01*
X78452730Y-66724862D01*
X78466292Y-66738711D01*
X78575771Y-66850507D01*
X78728238Y-66948765D01*
X78898685Y-67010803D01*
X79038769Y-67028500D01*
X79135610Y-67028500D01*
X79160521Y-67025706D01*
X79264758Y-67014014D01*
X79264762Y-67014013D01*
X79270255Y-67013397D01*
X79275476Y-67011579D01*
X79275480Y-67011578D01*
X79387360Y-66972617D01*
X79441552Y-66953745D01*
X79573605Y-66871230D01*
X79590686Y-66860557D01*
X79590688Y-66860555D01*
X79595376Y-66857626D01*
X79599299Y-66853731D01*
X79599302Y-66853728D01*
X79720153Y-66733717D01*
X79720154Y-66733715D01*
X79724082Y-66729815D01*
X79815943Y-66585065D01*
X79818310Y-66581336D01*
X79818312Y-66581331D01*
X79821273Y-66576666D01*
X79882119Y-66405790D01*
X79882815Y-66399953D01*
X79902941Y-66231176D01*
X79902941Y-66231173D01*
X79903596Y-66225680D01*
X79884636Y-66045288D01*
X79835205Y-65900084D01*
X79827967Y-65878821D01*
X79827965Y-65878817D01*
X79826182Y-65873579D01*
X79823284Y-65868869D01*
X79823282Y-65868864D01*
X79734035Y-65723797D01*
X79731138Y-65719088D01*
X79718599Y-65706283D01*
X79608100Y-65593446D01*
X79604229Y-65589493D01*
X79451762Y-65491235D01*
X79281315Y-65429197D01*
X79141231Y-65411500D01*
X79044390Y-65411500D01*
X79019479Y-65414294D01*
X78915242Y-65425986D01*
X78915238Y-65425987D01*
X78909745Y-65426603D01*
X78904524Y-65428421D01*
X78904520Y-65428422D01*
X78792640Y-65467383D01*
X78738448Y-65486255D01*
X78733755Y-65489187D01*
X78733756Y-65489187D01*
X78589314Y-65579443D01*
X78589312Y-65579445D01*
X78584624Y-65582374D01*
X78580701Y-65586269D01*
X78580698Y-65586272D01*
X78468785Y-65697407D01*
X78455918Y-65710185D01*
X78448466Y-65721928D01*
X78361690Y-65858664D01*
X78361688Y-65858669D01*
X78358727Y-65863334D01*
X78297881Y-66034210D01*
X78297227Y-66039697D01*
X78297226Y-66039700D01*
X78277275Y-66207017D01*
X78276404Y-66214320D01*
X77231441Y-66214320D01*
X77227149Y-66203479D01*
X77227148Y-66203477D01*
X77224855Y-66197686D01*
X77198120Y-66160888D01*
X77193000Y-66153093D01*
X77173018Y-66119305D01*
X77173017Y-66119304D01*
X77169845Y-66113940D01*
X77154016Y-66098111D01*
X77143928Y-66086298D01*
X77134439Y-66073237D01*
X77134432Y-66073230D01*
X77130775Y-66068196D01*
X77125980Y-66064230D01*
X77125978Y-66064227D01*
X77095737Y-66039210D01*
X77088838Y-66032933D01*
X77063367Y-66007462D01*
X77035590Y-65952945D01*
X77045161Y-65892513D01*
X77093105Y-65847017D01*
X77160015Y-65817227D01*
X77164752Y-65815118D01*
X77319253Y-65702866D01*
X77322719Y-65699017D01*
X77322723Y-65699013D01*
X77443568Y-65564800D01*
X77447040Y-65560944D01*
X77487287Y-65491235D01*
X77539933Y-65400050D01*
X77539935Y-65400045D01*
X77542527Y-65395556D01*
X77572780Y-65302449D01*
X77599940Y-65218860D01*
X77599941Y-65218855D01*
X77601542Y-65213928D01*
X77621504Y-65024000D01*
X77601542Y-64834072D01*
X77599941Y-64829145D01*
X77599940Y-64829140D01*
X77546709Y-64665315D01*
X77542527Y-64652444D01*
X77539935Y-64647955D01*
X77539933Y-64647950D01*
X77486983Y-64556240D01*
X77474261Y-64496392D01*
X77499147Y-64440496D01*
X77552135Y-64409903D01*
X77560995Y-64408500D01*
X77565487Y-64408500D01*
X77712083Y-64377340D01*
X77747217Y-64369872D01*
X77747218Y-64369872D01*
X77752288Y-64368794D01*
X77757022Y-64366686D01*
X77757026Y-64366685D01*
X77824277Y-64336742D01*
X77926752Y-64291118D01*
X78081253Y-64178866D01*
X78084719Y-64175017D01*
X78084723Y-64175013D01*
X78205568Y-64040800D01*
X78209040Y-64036944D01*
X78288031Y-63900128D01*
X78301933Y-63876050D01*
X78301935Y-63876045D01*
X78304527Y-63871556D01*
X78321252Y-63820083D01*
X78361940Y-63694860D01*
X78361941Y-63694855D01*
X78363542Y-63689928D01*
X78383504Y-63500000D01*
X78363542Y-63310072D01*
X78361941Y-63305145D01*
X78361940Y-63305140D01*
X78306129Y-63133375D01*
X78304527Y-63128444D01*
X78301935Y-63123955D01*
X78301933Y-63123950D01*
X78211635Y-62967551D01*
X78209040Y-62963056D01*
X78122101Y-62866500D01*
X78084723Y-62824987D01*
X78084719Y-62824983D01*
X78081253Y-62821134D01*
X77926752Y-62708882D01*
X77824277Y-62663258D01*
X77757026Y-62633315D01*
X77757022Y-62633314D01*
X77752288Y-62631206D01*
X77747218Y-62630128D01*
X77747217Y-62630128D01*
X77712083Y-62622660D01*
X77565487Y-62591500D01*
X77374513Y-62591500D01*
X77227917Y-62622660D01*
X77192783Y-62630128D01*
X77192782Y-62630128D01*
X77187712Y-62631206D01*
X77182978Y-62633314D01*
X77182974Y-62633315D01*
X77115723Y-62663258D01*
X77013248Y-62708882D01*
X76858747Y-62821134D01*
X76847392Y-62833745D01*
X76794406Y-62864337D01*
X76773822Y-62866500D01*
X75438372Y-62866500D01*
X75380181Y-62847593D01*
X75364806Y-62833750D01*
X75353447Y-62821134D01*
X75198946Y-62708882D01*
X75096471Y-62663258D01*
X75029220Y-62633315D01*
X75029216Y-62633314D01*
X75024482Y-62631206D01*
X75019412Y-62630128D01*
X75019411Y-62630128D01*
X74984277Y-62622660D01*
X74837681Y-62591500D01*
X74646707Y-62591500D01*
X74500111Y-62622660D01*
X74464977Y-62630128D01*
X74464976Y-62630128D01*
X74459906Y-62631206D01*
X74455172Y-62633314D01*
X74455168Y-62633315D01*
X74387917Y-62663258D01*
X74285442Y-62708882D01*
X74130941Y-62821134D01*
X74127475Y-62824983D01*
X74127471Y-62824987D01*
X74090093Y-62866500D01*
X74003154Y-62963056D01*
X74000559Y-62967551D01*
X73910261Y-63123950D01*
X73910259Y-63123955D01*
X73907667Y-63128444D01*
X73906065Y-63133375D01*
X73850254Y-63305140D01*
X73850253Y-63305145D01*
X73848652Y-63310072D01*
X73828690Y-63500000D01*
X70508500Y-63500000D01*
X70508500Y-60607500D01*
X70527407Y-60549309D01*
X70576907Y-60513345D01*
X70607500Y-60508500D01*
X134520500Y-60508500D01*
X134578691Y-60527407D01*
G37*
%TD.AperFunction*%
%TA.AperFunction,Conductor*%
G36*
X120774013Y-66184407D02*
G01*
X120789388Y-66198250D01*
X120800747Y-66210866D01*
X120917087Y-66295392D01*
X120955248Y-66323118D01*
X120953776Y-66325144D01*
X120988151Y-66363320D01*
X120994547Y-66424170D01*
X120971283Y-66469831D01*
X120926960Y-66519056D01*
X120924365Y-66523551D01*
X120834067Y-66679950D01*
X120834065Y-66679955D01*
X120831473Y-66684444D01*
X120829871Y-66689375D01*
X120774060Y-66861140D01*
X120774059Y-66861145D01*
X120772458Y-66866072D01*
X120755387Y-67028500D01*
X120754094Y-67040799D01*
X120725640Y-67100455D01*
X117273591Y-70552504D01*
X117219074Y-70580281D01*
X117203587Y-70581500D01*
X110549055Y-70581500D01*
X110490864Y-70562593D01*
X110454900Y-70513093D01*
X110454900Y-70451907D01*
X110479051Y-70412496D01*
X112522405Y-68369143D01*
X114697052Y-66194496D01*
X114751569Y-66166719D01*
X114767056Y-66165500D01*
X120715822Y-66165500D01*
X120774013Y-66184407D01*
G37*
%TD.AperFunction*%
%TD*%
M02*
