%TF.GenerationSoftware,KiCad,Pcbnew,(6.0.11-0)*%
%TF.CreationDate,2023-03-27T22:19:29-07:00*%
%TF.ProjectId,LED,4c45442e-6b69-4636-9164-5f7063625858,rev?*%
%TF.SameCoordinates,Original*%
%TF.FileFunction,Copper,L1,Top*%
%TF.FilePolarity,Positive*%
%FSLAX46Y46*%
G04 Gerber Fmt 4.6, Leading zero omitted, Abs format (unit mm)*
G04 Created by KiCad (PCBNEW (6.0.11-0)) date 2023-03-27 22:19:29*
%MOMM*%
%LPD*%
G01*
G04 APERTURE LIST*
G04 Aperture macros list*
%AMRoundRect*
0 Rectangle with rounded corners*
0 $1 Rounding radius*
0 $2 $3 $4 $5 $6 $7 $8 $9 X,Y pos of 4 corners*
0 Add a 4 corners polygon primitive as box body*
4,1,4,$2,$3,$4,$5,$6,$7,$8,$9,$2,$3,0*
0 Add four circle primitives for the rounded corners*
1,1,$1+$1,$2,$3*
1,1,$1+$1,$4,$5*
1,1,$1+$1,$6,$7*
1,1,$1+$1,$8,$9*
0 Add four rect primitives between the rounded corners*
20,1,$1+$1,$2,$3,$4,$5,0*
20,1,$1+$1,$4,$5,$6,$7,0*
20,1,$1+$1,$6,$7,$8,$9,0*
20,1,$1+$1,$8,$9,$2,$3,0*%
G04 Aperture macros list end*
%TA.AperFunction,ComponentPad*%
%ADD10R,2.000000X2.000000*%
%TD*%
%TA.AperFunction,ComponentPad*%
%ADD11O,2.000000X1.600000*%
%TD*%
%TA.AperFunction,SMDPad,CuDef*%
%ADD12RoundRect,0.225000X0.225000X0.250000X-0.225000X0.250000X-0.225000X-0.250000X0.225000X-0.250000X0*%
%TD*%
%TA.AperFunction,SMDPad,CuDef*%
%ADD13RoundRect,0.135000X0.135000X0.185000X-0.135000X0.185000X-0.135000X-0.185000X0.135000X-0.185000X0*%
%TD*%
%TA.AperFunction,SMDPad,CuDef*%
%ADD14RoundRect,0.140000X0.140000X0.170000X-0.140000X0.170000X-0.140000X-0.170000X0.140000X-0.170000X0*%
%TD*%
%TA.AperFunction,SMDPad,CuDef*%
%ADD15R,2.000000X1.500000*%
%TD*%
%TA.AperFunction,SMDPad,CuDef*%
%ADD16R,2.000000X3.800000*%
%TD*%
%TA.AperFunction,SMDPad,CuDef*%
%ADD17RoundRect,0.218750X-0.218750X-0.256250X0.218750X-0.256250X0.218750X0.256250X-0.218750X0.256250X0*%
%TD*%
%TA.AperFunction,SMDPad,CuDef*%
%ADD18RoundRect,0.135000X-0.135000X-0.185000X0.135000X-0.185000X0.135000X0.185000X-0.135000X0.185000X0*%
%TD*%
%TA.AperFunction,SMDPad,CuDef*%
%ADD19RoundRect,0.225000X-0.225000X-0.250000X0.225000X-0.250000X0.225000X0.250000X-0.225000X0.250000X0*%
%TD*%
%TA.AperFunction,ComponentPad*%
%ADD20R,1.500000X1.500000*%
%TD*%
%TA.AperFunction,ComponentPad*%
%ADD21C,1.500000*%
%TD*%
%TA.AperFunction,SMDPad,CuDef*%
%ADD22R,1.000000X1.700000*%
%TD*%
%TA.AperFunction,SMDPad,CuDef*%
%ADD23RoundRect,0.140000X-0.140000X-0.170000X0.140000X-0.170000X0.140000X0.170000X-0.140000X0.170000X0*%
%TD*%
%TA.AperFunction,SMDPad,CuDef*%
%ADD24R,1.500000X0.900000*%
%TD*%
%TA.AperFunction,SMDPad,CuDef*%
%ADD25R,0.900000X1.500000*%
%TD*%
%TA.AperFunction,SMDPad,CuDef*%
%ADD26R,1.050000X1.050000*%
%TD*%
%TA.AperFunction,HeatsinkPad*%
%ADD27C,0.700000*%
%TD*%
%TA.AperFunction,SMDPad,CuDef*%
%ADD28R,4.200000X4.200000*%
%TD*%
%TA.AperFunction,SMDPad,CuDef*%
%ADD29RoundRect,0.150000X-0.150000X0.825000X-0.150000X-0.825000X0.150000X-0.825000X0.150000X0.825000X0*%
%TD*%
%TA.AperFunction,SMDPad,CuDef*%
%ADD30R,0.600000X1.160000*%
%TD*%
%TA.AperFunction,SMDPad,CuDef*%
%ADD31R,0.300000X1.160000*%
%TD*%
%TA.AperFunction,ComponentPad*%
%ADD32O,0.900000X2.000000*%
%TD*%
%TA.AperFunction,ComponentPad*%
%ADD33O,0.900000X1.700000*%
%TD*%
%TA.AperFunction,ViaPad*%
%ADD34C,0.800000*%
%TD*%
%TA.AperFunction,Conductor*%
%ADD35C,0.250000*%
%TD*%
%TA.AperFunction,Conductor*%
%ADD36C,0.770000*%
%TD*%
G04 APERTURE END LIST*
D10*
%TO.P,U2,1,~{RST}*%
%TO.N,unconnected-(U2-Pad1)*%
X73373000Y-92710000D03*
D11*
%TO.P,U2,2,A0*%
%TO.N,unconnected-(U2-Pad2)*%
X73373000Y-95250000D03*
%TO.P,U2,3,D0*%
%TO.N,unconnected-(U2-Pad3)*%
X73373000Y-97790000D03*
%TO.P,U2,4,SCK/D5*%
%TO.N,/W_SIG*%
X73373000Y-100330000D03*
%TO.P,U2,5,MISO/D6*%
%TO.N,/B_SIG*%
X73373000Y-102870000D03*
%TO.P,U2,6,MOSI/D7*%
%TO.N,/R_SIG*%
X73373000Y-105410000D03*
%TO.P,U2,7,CS/D8*%
%TO.N,/G_SIG*%
X73373000Y-107950000D03*
%TO.P,U2,8,3V3*%
%TO.N,unconnected-(U2-Pad8)*%
X73373000Y-110490000D03*
%TO.P,U2,9,5V*%
%TO.N,Net-(R4-Pad2)*%
X96233000Y-110490000D03*
%TO.P,U2,10,GND*%
%TO.N,/WEMOS_GND*%
X96233000Y-107950000D03*
%TO.P,U2,11,D4*%
%TO.N,unconnected-(U2-Pad11)*%
X96233000Y-105410000D03*
%TO.P,U2,12,D3*%
%TO.N,unconnected-(U2-Pad12)*%
X96233000Y-102870000D03*
%TO.P,U2,13,SDA/D2*%
%TO.N,/ARGB1*%
X96233000Y-100330000D03*
%TO.P,U2,14,SCL/D1*%
%TO.N,/ARGB2*%
X96233000Y-97790000D03*
%TO.P,U2,15,RX*%
%TO.N,unconnected-(U2-Pad15)*%
X96233000Y-95250000D03*
%TO.P,U2,16,TX*%
%TO.N,unconnected-(U2-Pad16)*%
X96233000Y-92710000D03*
%TD*%
D12*
%TO.P,C2,1*%
%TO.N,+3.3V*%
X97816000Y-63500000D03*
%TO.P,C2,2*%
%TO.N,GND*%
X96266000Y-63500000D03*
%TD*%
D13*
%TO.P,R4,1*%
%TO.N,Net-(D2-Pad2)*%
X102797231Y-108978000D03*
%TO.P,R4,2*%
%TO.N,Net-(R4-Pad2)*%
X101777231Y-108978000D03*
%TD*%
D14*
%TO.P,C1,1*%
%TO.N,/RST*%
X101837000Y-68326000D03*
%TO.P,C1,2*%
%TO.N,GND*%
X100877000Y-68326000D03*
%TD*%
D15*
%TO.P,U4,1,GND*%
%TO.N,GND*%
X90576000Y-78980000D03*
D16*
%TO.P,U4,2,VO*%
%TO.N,+3.3V*%
X96876000Y-81280000D03*
D15*
X90576000Y-81280000D03*
%TO.P,U4,3,VI*%
%TO.N,+5V*%
X90576000Y-83580000D03*
%TD*%
D17*
%TO.P,D3,1,K*%
%TO.N,GND*%
X87040000Y-63500000D03*
%TO.P,D3,2,A*%
%TO.N,Net-(D3-Pad2)*%
X88615000Y-63500000D03*
%TD*%
D18*
%TO.P,R7,1*%
%TO.N,+3.3V*%
X101101000Y-73202800D03*
%TO.P,R7,2*%
%TO.N,/GPI0O*%
X102121000Y-73202800D03*
%TD*%
D13*
%TO.P,R6,1*%
%TO.N,Net-(U3-Pad24)*%
X93207500Y-68326000D03*
%TO.P,R6,2*%
%TO.N,Net-(D1-Pad2)*%
X92187500Y-68326000D03*
%TD*%
%TO.P,R1,1*%
%TO.N,Net-(J1-PadB5)*%
X72900000Y-69850000D03*
%TO.P,R1,2*%
%TO.N,GND*%
X71880000Y-69850000D03*
%TD*%
D18*
%TO.P,R2,1*%
%TO.N,Net-(J1-PadA5)*%
X79500000Y-69342000D03*
%TO.P,R2,2*%
%TO.N,GND*%
X80520000Y-69342000D03*
%TD*%
D19*
%TO.P,C4,1*%
%TO.N,+5V*%
X86601000Y-81280000D03*
%TO.P,C4,2*%
%TO.N,GND*%
X88151000Y-81280000D03*
%TD*%
D20*
%TO.P,J2,1*%
%TO.N,/PIN1_GOOD*%
X120299829Y-102713169D03*
D21*
%TO.P,J2,2*%
%TO.N,/PIN2_GOOD*%
X119279829Y-100173169D03*
%TO.P,J2,3*%
%TO.N,/PIN3_GOOD*%
X118259829Y-102713169D03*
%TO.P,J2,4*%
%TO.N,/PIN4_GOOD*%
X117239829Y-100173169D03*
%TO.P,J2,5*%
%TO.N,/PIN5_GOOD*%
X116219829Y-102713169D03*
%TO.P,J2,6*%
%TO.N,/PIN6_GOOD*%
X115199829Y-100173169D03*
%TO.P,J2,7*%
%TO.N,/PIN7_GOOD*%
X114179829Y-102713169D03*
%TO.P,J2,8*%
%TO.N,/PIN8_GOOD*%
X113159829Y-100173169D03*
%TD*%
D13*
%TO.P,R8,1*%
%TO.N,Net-(U3-Pad8)*%
X93207500Y-73240000D03*
%TO.P,R8,2*%
%TO.N,Net-(D4-Pad2)*%
X92187500Y-73240000D03*
%TD*%
D22*
%TO.P,SW1,1,1*%
%TO.N,/SW1*%
X116972000Y-94336000D03*
X116972000Y-88036000D03*
%TO.P,SW1,2,2*%
%TO.N,GND*%
X120772000Y-94336000D03*
X120772000Y-88036000D03*
%TD*%
D17*
%TO.P,D1,1,K*%
%TO.N,GND*%
X87084000Y-68326000D03*
%TO.P,D1,2,A*%
%TO.N,Net-(D1-Pad2)*%
X88659000Y-68326000D03*
%TD*%
D23*
%TO.P,C6,1*%
%TO.N,+3.3V*%
X81054000Y-82550000D03*
%TO.P,C6,2*%
%TO.N,GND*%
X82014000Y-82550000D03*
%TD*%
D18*
%TO.P,R9,1*%
%TO.N,Net-(D3-Pad2)*%
X91931500Y-63500000D03*
%TO.P,R9,2*%
%TO.N,+3.3V*%
X92951500Y-63500000D03*
%TD*%
D13*
%TO.P,R5,1*%
%TO.N,+3.3V*%
X97538000Y-68326000D03*
%TO.P,R5,2*%
%TO.N,/RST*%
X96518000Y-68326000D03*
%TD*%
D24*
%TO.P,U3,1,GND*%
%TO.N,GND*%
X105976500Y-61748000D03*
%TO.P,U3,2,VDD*%
%TO.N,+3.3V*%
X105976500Y-63018000D03*
%TO.P,U3,3,EN*%
%TO.N,/RST*%
X105976500Y-64288000D03*
%TO.P,U3,4,SENSOR_VP*%
%TO.N,unconnected-(U3-Pad4)*%
X105976500Y-65558000D03*
%TO.P,U3,5,SENSOR_VN*%
%TO.N,unconnected-(U3-Pad5)*%
X105976500Y-66828000D03*
%TO.P,U3,6,IO34*%
%TO.N,unconnected-(U3-Pad6)*%
X105976500Y-68098000D03*
%TO.P,U3,7,IO35*%
%TO.N,unconnected-(U3-Pad7)*%
X105976500Y-69368000D03*
%TO.P,U3,8,IO32*%
%TO.N,Net-(U3-Pad8)*%
X105976500Y-70638000D03*
%TO.P,U3,9,IO33*%
%TO.N,/W_SIG*%
X105976500Y-71908000D03*
%TO.P,U3,10,IO25*%
%TO.N,/B_SIG*%
X105976500Y-73178000D03*
%TO.P,U3,11,IO26*%
%TO.N,/R_SIG*%
X105976500Y-74448000D03*
%TO.P,U3,12,IO27*%
%TO.N,/G_SIG*%
X105976500Y-75718000D03*
%TO.P,U3,13,IO14*%
%TO.N,/ARGB2*%
X105976500Y-76988000D03*
%TO.P,U3,14,IO12*%
%TO.N,unconnected-(U3-Pad14)*%
X105976500Y-78258000D03*
D25*
%TO.P,U3,15,GND*%
%TO.N,GND*%
X109016500Y-79508000D03*
%TO.P,U3,16,IO13*%
%TO.N,/ARGB1*%
X110286500Y-79508000D03*
%TO.P,U3,17,SHD/SD2*%
%TO.N,unconnected-(U3-Pad17)*%
X111556500Y-79508000D03*
%TO.P,U3,18,SWP/SD3*%
%TO.N,unconnected-(U3-Pad18)*%
X112826500Y-79508000D03*
%TO.P,U3,19,SCS/CMD*%
%TO.N,unconnected-(U3-Pad19)*%
X114096500Y-79508000D03*
%TO.P,U3,20,SCK/CLK*%
%TO.N,unconnected-(U3-Pad20)*%
X115366500Y-79508000D03*
%TO.P,U3,21,SDO/SD0*%
%TO.N,unconnected-(U3-Pad21)*%
X116636500Y-79508000D03*
%TO.P,U3,22,SDI/SD1*%
%TO.N,unconnected-(U3-Pad22)*%
X117906500Y-79508000D03*
%TO.P,U3,23,IO15*%
%TO.N,/SW1*%
X119176500Y-79508000D03*
%TO.P,U3,24,IO2*%
%TO.N,Net-(U3-Pad24)*%
X120446500Y-79508000D03*
D24*
%TO.P,U3,25,IO0*%
%TO.N,/GPI0O*%
X123476500Y-78258000D03*
%TO.P,U3,26,IO4*%
%TO.N,/PIN8_GOOD*%
X123476500Y-76988000D03*
%TO.P,U3,27,IO16*%
%TO.N,/PIN1_GOOD*%
X123476500Y-75718000D03*
%TO.P,U3,28,IO17*%
%TO.N,/PIN6_GOOD*%
X123476500Y-74448000D03*
%TO.P,U3,29,IO5*%
%TO.N,unconnected-(U3-Pad29)*%
X123476500Y-73178000D03*
%TO.P,U3,30,IO18*%
%TO.N,/PIN3_GOOD*%
X123476500Y-71908000D03*
%TO.P,U3,31,IO19*%
%TO.N,/PIN4_GOOD*%
X123476500Y-70638000D03*
%TO.P,U3,32,NC*%
%TO.N,unconnected-(U3-Pad32)*%
X123476500Y-69368000D03*
%TO.P,U3,33,IO21*%
%TO.N,/PIN5_GOOD*%
X123476500Y-68098000D03*
%TO.P,U3,34,RXD0/IO3*%
%TO.N,/TXD*%
X123476500Y-66828000D03*
%TO.P,U3,35,TXD0/IO1*%
%TO.N,/RXD*%
X123476500Y-65558000D03*
%TO.P,U3,36,IO22*%
%TO.N,/PIN2_GOOD*%
X123476500Y-64288000D03*
%TO.P,U3,37,IO23*%
%TO.N,/PIN7_GOOD*%
X123476500Y-63018000D03*
%TO.P,U3,38,GND*%
%TO.N,GND*%
X123476500Y-61748000D03*
D26*
%TO.P,U3,39,GND*%
X112521500Y-70613000D03*
X115571500Y-69088000D03*
X115571500Y-70613000D03*
D27*
X114809000Y-67563000D03*
X114046500Y-69850500D03*
X114809000Y-70613000D03*
D26*
X112521500Y-67563000D03*
D27*
X113284000Y-69088000D03*
X114809000Y-69088000D03*
X112521500Y-69850500D03*
X114046500Y-68325500D03*
X113284000Y-70613000D03*
D26*
X114046500Y-70613000D03*
D27*
X115571500Y-68325500D03*
D26*
X112521500Y-69088000D03*
X114046500Y-67563000D03*
D27*
X115571500Y-69850500D03*
X112521500Y-68325500D03*
X113284000Y-67563000D03*
D26*
X114046500Y-69088000D03*
D28*
X114046500Y-69088000D03*
D26*
X115571500Y-67563000D03*
%TD*%
D29*
%TO.P,U1,1,GND*%
%TO.N,GND*%
X81915000Y-73725000D03*
%TO.P,U1,2,TXD*%
%TO.N,/TXD*%
X80645000Y-73725000D03*
%TO.P,U1,3,RXD*%
%TO.N,/RXD*%
X79375000Y-73725000D03*
%TO.P,U1,4,V3*%
%TO.N,+3.3V*%
X78105000Y-73725000D03*
%TO.P,U1,5,UD+*%
%TO.N,/D+*%
X76835000Y-73725000D03*
%TO.P,U1,6,UD-*%
%TO.N,/D-*%
X75565000Y-73725000D03*
%TO.P,U1,7,NC*%
%TO.N,unconnected-(U1-Pad7)*%
X74295000Y-73725000D03*
%TO.P,U1,8,NC*%
%TO.N,unconnected-(U1-Pad8)*%
X73025000Y-73725000D03*
%TO.P,U1,9,~{CTS}*%
%TO.N,unconnected-(U1-Pad9)*%
X73025000Y-78675000D03*
%TO.P,U1,10,~{DSR}*%
%TO.N,unconnected-(U1-Pad10)*%
X74295000Y-78675000D03*
%TO.P,U1,11,~{RI}*%
%TO.N,unconnected-(U1-Pad11)*%
X75565000Y-78675000D03*
%TO.P,U1,12,~{DCD}*%
%TO.N,unconnected-(U1-Pad12)*%
X76835000Y-78675000D03*
%TO.P,U1,13,~{DTR}*%
%TO.N,Net-(R3-Pad1)*%
X78105000Y-78675000D03*
%TO.P,U1,14,~{RTS}*%
%TO.N,/RST*%
X79375000Y-78675000D03*
%TO.P,U1,15,R232*%
%TO.N,unconnected-(U1-Pad15)*%
X80645000Y-78675000D03*
%TO.P,U1,16,VCC*%
%TO.N,+3.3V*%
X81915000Y-78675000D03*
%TD*%
D30*
%TO.P,J1,A1,GND*%
%TO.N,GND*%
X79400000Y-67280000D03*
%TO.P,J1,A4,VBUS*%
%TO.N,+5V*%
X78600000Y-67280000D03*
D31*
%TO.P,J1,A5,CC1*%
%TO.N,Net-(J1-PadA5)*%
X77450000Y-67280000D03*
%TO.P,J1,A6,D+*%
%TO.N,/D+*%
X76450000Y-67280000D03*
%TO.P,J1,A7,D-*%
%TO.N,/D-*%
X75950000Y-67280000D03*
%TO.P,J1,A8,SBU1*%
%TO.N,unconnected-(J1-PadA8)*%
X74950000Y-67280000D03*
D30*
%TO.P,J1,A9,VBUS*%
%TO.N,+5V*%
X73800000Y-67280000D03*
%TO.P,J1,A12,GND*%
%TO.N,GND*%
X73000000Y-67280000D03*
%TO.P,J1,B1,GND*%
X73000000Y-67280000D03*
%TO.P,J1,B4,VBUS*%
%TO.N,+5V*%
X73800000Y-67280000D03*
D31*
%TO.P,J1,B5,CC2*%
%TO.N,Net-(J1-PadB5)*%
X74450000Y-67280000D03*
%TO.P,J1,B6,D+*%
%TO.N,/D+*%
X75450000Y-67280000D03*
%TO.P,J1,B7,D-*%
%TO.N,/D-*%
X76950000Y-67280000D03*
%TO.P,J1,B8,SBU2*%
%TO.N,unconnected-(J1-PadB8)*%
X77950000Y-67280000D03*
D30*
%TO.P,J1,B9,VBUS*%
%TO.N,+5V*%
X78600000Y-67280000D03*
%TO.P,J1,B12,GND*%
%TO.N,GND*%
X79400000Y-67280000D03*
D32*
%TO.P,J1,S1,SHIELD*%
X71880000Y-66700000D03*
D33*
X80520000Y-62530000D03*
D32*
X80520000Y-66700000D03*
D33*
X71880000Y-62530000D03*
%TD*%
D23*
%TO.P,C3,1*%
%TO.N,+3.3V*%
X101103000Y-63500000D03*
%TO.P,C3,2*%
%TO.N,GND*%
X102063000Y-63500000D03*
%TD*%
D17*
%TO.P,D4,1,K*%
%TO.N,GND*%
X87084000Y-73152000D03*
%TO.P,D4,2,A*%
%TO.N,Net-(D4-Pad2)*%
X88659000Y-73152000D03*
%TD*%
%TO.P,D2,1,K*%
%TO.N,/WEMOS_GND*%
X101320500Y-104648000D03*
%TO.P,D2,2,A*%
%TO.N,Net-(D2-Pad2)*%
X102895500Y-104648000D03*
%TD*%
D19*
%TO.P,C5,1*%
%TO.N,+3.3V*%
X99301000Y-81280000D03*
%TO.P,C5,2*%
%TO.N,GND*%
X100851000Y-81280000D03*
%TD*%
D18*
%TO.P,R3,1*%
%TO.N,Net-(R3-Pad1)*%
X96467200Y-73253600D03*
%TO.P,R3,2*%
%TO.N,/GPI0O*%
X97487200Y-73253600D03*
%TD*%
D34*
%TO.N,/RST*%
X96886500Y-69311281D03*
X101100769Y-69157216D03*
X90678000Y-71882000D03*
X79502000Y-80772000D03*
%TO.N,GND*%
X109982000Y-63754000D03*
X83566000Y-82296000D03*
X83566000Y-62484000D03*
X110490000Y-112268000D03*
X85344000Y-88900000D03*
X84836000Y-102616000D03*
X94742000Y-64516000D03*
X105664000Y-102362000D03*
X91186000Y-102616000D03*
X117602000Y-112268000D03*
X125984000Y-85090000D03*
X129032000Y-100838000D03*
X100584000Y-77978000D03*
X91186000Y-112268000D03*
X131318000Y-107696000D03*
X72390000Y-89154000D03*
X85344000Y-72136000D03*
X78232000Y-70866000D03*
X110490000Y-96520000D03*
X99314000Y-91440000D03*
X84836000Y-107442000D03*
X131318000Y-112268000D03*
X110236000Y-74930000D03*
X90932000Y-76454000D03*
X91186000Y-107442000D03*
X78486000Y-95250000D03*
X78486000Y-88900000D03*
X123698000Y-112268000D03*
X78486000Y-83312000D03*
X118618000Y-74930000D03*
X110490000Y-91694000D03*
X132842000Y-62738000D03*
X91440000Y-96774000D03*
X99314000Y-112268000D03*
X105918000Y-112268000D03*
X105918000Y-107188000D03*
X78486000Y-107442000D03*
X110490000Y-102362000D03*
X85344000Y-76454000D03*
X118618000Y-63754000D03*
X78486000Y-112268000D03*
X74168000Y-70866000D03*
X125984000Y-91186000D03*
X110236000Y-107696000D03*
X99568000Y-67056000D03*
X83566000Y-67056000D03*
X103378000Y-64262000D03*
X84836000Y-112268000D03*
X105664000Y-96520000D03*
X72390000Y-83312000D03*
%TO.N,+3.3V*%
X98552000Y-78994000D03*
X98806000Y-73152000D03*
%TO.N,+5V*%
X74742194Y-63500000D03*
X85344000Y-82042000D03*
X88392000Y-84328000D03*
X77470000Y-63500000D03*
%TO.N,/D+*%
X75692000Y-65532000D03*
X76665303Y-68626763D03*
%TO.N,/D-*%
X76708000Y-65024000D03*
X75738800Y-68626763D03*
%TO.N,Net-(R3-Pad1)*%
X78486000Y-81280000D03*
X95504000Y-74676000D03*
%TO.N,/GPI0O*%
X103378000Y-72136000D03*
X121920000Y-78232000D03*
%TO.N,Net-(U3-Pad8)*%
X98552000Y-71882000D03*
X101854000Y-71882000D03*
%TO.N,/TXD*%
X81534000Y-72136000D03*
X121666000Y-67056000D03*
%TO.N,/RXD*%
X79756000Y-71882000D03*
X121412000Y-65532000D03*
%TO.N,/PIN2_GOOD*%
X129032000Y-64770000D03*
X120299829Y-97633169D03*
%TO.N,/PIN4_GOOD*%
X129032000Y-71120000D03*
X117759829Y-97633169D03*
%TO.N,/PIN6_GOOD*%
X115219829Y-97633169D03*
X129032000Y-74930000D03*
%TO.N,/PIN8_GOOD*%
X127762000Y-77470000D03*
X112679829Y-97633169D03*
%TO.N,Net-(U3-Pad24)*%
X94488000Y-68580000D03*
X108204000Y-69960500D03*
%TD*%
D35*
%TO.N,/RST*%
X90678000Y-71882000D02*
X93248719Y-69311281D01*
X96997281Y-69311281D02*
X96886500Y-69311281D01*
X105542500Y-64288000D02*
X105976500Y-64288000D01*
X101837000Y-68326000D02*
X101092000Y-69071000D01*
X101837000Y-67993500D02*
X105542500Y-64288000D01*
X101092000Y-69148447D02*
X101100769Y-69157216D01*
X101092000Y-69088000D02*
X101092000Y-69148447D01*
X79375000Y-78675000D02*
X79375000Y-80645000D01*
X93248719Y-69311281D02*
X96886500Y-69311281D01*
X96518000Y-68326000D02*
X96518000Y-68832000D01*
X101092000Y-69071000D02*
X101092000Y-69088000D01*
X79375000Y-80645000D02*
X79502000Y-80772000D01*
X101837000Y-68326000D02*
X101837000Y-67993500D01*
X96518000Y-68832000D02*
X96997281Y-69311281D01*
%TO.N,GND*%
X79940000Y-67280000D02*
X80520000Y-66700000D01*
X79400000Y-67280000D02*
X79940000Y-67280000D01*
X72420000Y-66700000D02*
X73000000Y-67280000D01*
X71880000Y-66700000D02*
X72420000Y-66700000D01*
X82014000Y-82550000D02*
X83312000Y-82550000D01*
X83312000Y-82550000D02*
X83566000Y-82296000D01*
%TO.N,+3.3V*%
X98552000Y-78994000D02*
X98552000Y-80531000D01*
X105442500Y-62484000D02*
X105976500Y-63018000D01*
X97538000Y-69639800D02*
X101101000Y-73202800D01*
X90576000Y-81280000D02*
X96876000Y-81280000D01*
X88744000Y-83112000D02*
X90576000Y-81280000D01*
X81915000Y-78401486D02*
X81915000Y-78675000D01*
X97538000Y-68326000D02*
X97538000Y-69639800D01*
X81054000Y-82550000D02*
X81616000Y-83112000D01*
X92951500Y-63500000D02*
X93967500Y-62484000D01*
X78105000Y-74591486D02*
X81915000Y-78401486D01*
X81915000Y-78675000D02*
X81915000Y-81689000D01*
X97816000Y-65558000D02*
X97816000Y-67028000D01*
X98552000Y-80531000D02*
X99301000Y-81280000D01*
X98856800Y-73202800D02*
X98806000Y-73152000D01*
X99060000Y-63500000D02*
X101103000Y-63500000D01*
X81915000Y-81689000D02*
X81054000Y-82550000D01*
X100076000Y-62484000D02*
X105442500Y-62484000D01*
X97816000Y-63500000D02*
X97816000Y-65558000D01*
X78105000Y-73725000D02*
X78105000Y-74591486D01*
X101101000Y-73202800D02*
X98856800Y-73202800D01*
X93967500Y-62484000D02*
X100076000Y-62484000D01*
X97538000Y-68326000D02*
X97538000Y-67306000D01*
X96876000Y-81280000D02*
X99301000Y-81280000D01*
X97816000Y-63500000D02*
X99060000Y-63500000D01*
X97538000Y-67306000D02*
X97816000Y-67028000D01*
X81616000Y-83112000D02*
X88744000Y-83112000D01*
X100076000Y-62484000D02*
X99060000Y-63500000D01*
%TO.N,+5V*%
X89140000Y-83580000D02*
X88392000Y-84328000D01*
X78600000Y-68110000D02*
X79070000Y-68580000D01*
X90576000Y-83580000D02*
X89140000Y-83580000D01*
X74444596Y-63797598D02*
X74444596Y-66040000D01*
X85337500Y-80016500D02*
X85344000Y-80023000D01*
X74444596Y-66040000D02*
X73800000Y-66684596D01*
X85344000Y-80023000D02*
X85344000Y-82042000D01*
X73800000Y-66684596D02*
X73800000Y-67280000D01*
X78600000Y-67280000D02*
X78600000Y-68110000D01*
X82550000Y-68580000D02*
X84328000Y-70358000D01*
X78600000Y-66684596D02*
X78600000Y-67280000D01*
X84328000Y-70358000D02*
X84328000Y-79007000D01*
X77470000Y-63500000D02*
X77470000Y-65554596D01*
X85337500Y-80016500D02*
X86601000Y-81280000D01*
X74742194Y-63500000D02*
X74444596Y-63797598D01*
X77470000Y-65554596D02*
X78600000Y-66684596D01*
X79070000Y-68580000D02*
X82550000Y-68580000D01*
X84328000Y-79007000D02*
X85337500Y-80016500D01*
%TO.N,/WEMOS_GND*%
X98018500Y-107950000D02*
X96233000Y-107950000D01*
X101320500Y-104648000D02*
X98018500Y-107950000D01*
%TO.N,Net-(D2-Pad2)*%
X102895500Y-104648000D02*
X102797231Y-104746269D01*
X102797231Y-104746269D02*
X102797231Y-108978000D01*
%TO.N,Net-(D4-Pad2)*%
X92099500Y-73152000D02*
X92187500Y-73240000D01*
X88659000Y-73152000D02*
X92099500Y-73152000D01*
%TO.N,Net-(J1-PadA5)*%
X78740000Y-69342000D02*
X79500000Y-69342000D01*
X77450000Y-68052000D02*
X77450000Y-67280000D01*
X77450000Y-68052000D02*
X78740000Y-69342000D01*
D36*
%TO.N,/D+*%
X76835000Y-73725000D02*
X76661200Y-73551200D01*
X76661200Y-73551200D02*
X76661200Y-68626763D01*
D35*
X76450000Y-68411460D02*
X76665303Y-68626763D01*
X75450000Y-65774000D02*
X75692000Y-65532000D01*
X75450000Y-67280000D02*
X75450000Y-65774000D01*
X76450000Y-67280000D02*
X76450000Y-68411460D01*
X76661200Y-68626763D02*
X76665303Y-68626763D01*
%TO.N,/D-*%
X75950000Y-68415563D02*
X75738800Y-68626763D01*
X75950000Y-67280000D02*
X75950000Y-68415563D01*
X76950000Y-67280000D02*
X76950000Y-65266000D01*
D36*
X75738800Y-73551200D02*
X75738800Y-68626763D01*
D35*
X76950000Y-65266000D02*
X76708000Y-65024000D01*
D36*
X75565000Y-73725000D02*
X75738800Y-73551200D01*
D35*
%TO.N,Net-(J1-PadB5)*%
X74450000Y-68300000D02*
X72900000Y-69850000D01*
X74450000Y-67280000D02*
X74450000Y-68300000D01*
%TO.N,Net-(R3-Pad1)*%
X95504000Y-74216800D02*
X96467200Y-73253600D01*
X78105000Y-80899000D02*
X78486000Y-81280000D01*
X78105000Y-78675000D02*
X78105000Y-80899000D01*
X95504000Y-74676000D02*
X95504000Y-74216800D01*
%TO.N,/GPI0O*%
X121920000Y-78232000D02*
X123450500Y-78232000D01*
X101155800Y-74168000D02*
X99314000Y-74168000D01*
X102121000Y-73202800D02*
X102311200Y-73202800D01*
X102311200Y-73202800D02*
X103378000Y-72136000D01*
X99314000Y-74168000D02*
X98298000Y-74168000D01*
X123450500Y-78232000D02*
X123476500Y-78258000D01*
X102121000Y-73202800D02*
X101155800Y-74168000D01*
X97487200Y-73357200D02*
X97487200Y-73253600D01*
X98298000Y-74168000D02*
X97487200Y-73357200D01*
%TO.N,Net-(R4-Pad2)*%
X100265231Y-110490000D02*
X96233000Y-110490000D01*
X101777231Y-108978000D02*
X100265231Y-110490000D01*
%TO.N,Net-(U3-Pad8)*%
X93207500Y-73240000D02*
X94565500Y-71882000D01*
X94565500Y-71882000D02*
X98552000Y-71882000D01*
X105976500Y-70638000D02*
X103098000Y-70638000D01*
X103098000Y-70638000D02*
X101854000Y-71882000D01*
%TO.N,/TXD*%
X80645000Y-73725000D02*
X80645000Y-73025000D01*
X121894000Y-66828000D02*
X121666000Y-67056000D01*
X123476500Y-66828000D02*
X121894000Y-66828000D01*
X80645000Y-73025000D02*
X81534000Y-72136000D01*
%TO.N,/RXD*%
X121438000Y-65558000D02*
X121412000Y-65532000D01*
X79375000Y-72263000D02*
X79756000Y-71882000D01*
X123476500Y-65558000D02*
X121438000Y-65558000D01*
X79375000Y-73725000D02*
X79375000Y-72263000D01*
%TO.N,/W_SIG*%
X99314000Y-86106000D02*
X92710000Y-86106000D01*
X92710000Y-86106000D02*
X78486000Y-100330000D01*
X78486000Y-100330000D02*
X73373000Y-100330000D01*
X105130000Y-71908000D02*
X102362000Y-74676000D01*
X102362000Y-74676000D02*
X102362000Y-83058000D01*
X105976500Y-71908000D02*
X105130000Y-71908000D01*
X102362000Y-83058000D02*
X99314000Y-86106000D01*
%TO.N,/B_SIG*%
X99568000Y-87122000D02*
X93218000Y-87122000D01*
X103001000Y-83689000D02*
X99568000Y-87122000D01*
X105976500Y-73178000D02*
X105638000Y-73178000D01*
X105453000Y-73180000D02*
X106033000Y-73180000D01*
X103001000Y-75815000D02*
X103001000Y-83689000D01*
X77470000Y-102870000D02*
X73373000Y-102870000D01*
X93218000Y-87122000D02*
X77470000Y-102870000D01*
X105638000Y-73178000D02*
X103001000Y-75815000D01*
%TO.N,/R_SIG*%
X103632000Y-84582000D02*
X100076000Y-88138000D01*
X105542500Y-74448000D02*
X103632000Y-76358500D01*
X105976500Y-74448000D02*
X105542500Y-74448000D01*
X100076000Y-88138000D02*
X93472000Y-88138000D01*
X103632000Y-76358500D02*
X103632000Y-84582000D01*
X93472000Y-88138000D02*
X76200000Y-105410000D01*
X76200000Y-105410000D02*
X73373000Y-105410000D01*
%TO.N,/G_SIG*%
X100584000Y-89154000D02*
X94234000Y-89154000D01*
X104140000Y-85598000D02*
X100584000Y-89154000D01*
X75438000Y-107950000D02*
X73373000Y-107950000D01*
X105976500Y-75718000D02*
X105542500Y-75718000D01*
X94234000Y-89154000D02*
X75438000Y-107950000D01*
X105542500Y-75718000D02*
X104140000Y-77120500D01*
X104140000Y-77120500D02*
X104140000Y-85598000D01*
%TO.N,/ARGB1*%
X110286500Y-86276500D02*
X96233000Y-100330000D01*
X110286500Y-79508000D02*
X110286500Y-86276500D01*
%TO.N,/ARGB2*%
X104974500Y-77556000D02*
X104974500Y-89048500D01*
X105976500Y-76988000D02*
X105542500Y-76988000D01*
X105542500Y-76988000D02*
X104974500Y-77556000D01*
X104974500Y-89048500D02*
X96233000Y-97790000D01*
%TO.N,/SW1*%
X119176500Y-85831500D02*
X116972000Y-88036000D01*
X116972000Y-88036000D02*
X116972000Y-94336000D01*
X119176500Y-79508000D02*
X119176500Y-85831500D01*
%TO.N,/PIN1_GOOD*%
X127282000Y-75720000D02*
X129951829Y-78389829D01*
X129951829Y-78389829D02*
X129951829Y-93061169D01*
X124970000Y-75718000D02*
X124972000Y-75720000D01*
X123476500Y-75718000D02*
X124970000Y-75718000D01*
X124972000Y-75720000D02*
X127282000Y-75720000D01*
X129951829Y-93061169D02*
X120299829Y-102713169D01*
%TO.N,/PIN2_GOOD*%
X128552000Y-64290000D02*
X124972000Y-64290000D01*
X119279829Y-98653169D02*
X120299829Y-97633169D01*
X129032000Y-64770000D02*
X128552000Y-64290000D01*
X124972000Y-64290000D02*
X124970000Y-64288000D01*
X119279829Y-100173169D02*
X119279829Y-98653169D01*
X124970000Y-64288000D02*
X123476500Y-64288000D01*
%TO.N,/PIN3_GOOD*%
X123476500Y-71908000D02*
X124970000Y-71908000D01*
X131221829Y-95864491D02*
X121833151Y-105253169D01*
X124970000Y-71908000D02*
X124972000Y-71910000D01*
X118259829Y-104483169D02*
X118259829Y-102713169D01*
X119029829Y-105253169D02*
X118259829Y-104483169D01*
X121833151Y-105253169D02*
X119029829Y-105253169D01*
X124972000Y-71910000D02*
X127282000Y-71910000D01*
X127282000Y-71910000D02*
X131221829Y-75849829D01*
X131221829Y-75849829D02*
X131221829Y-95864491D01*
%TO.N,/PIN4_GOOD*%
X124972000Y-70640000D02*
X124970000Y-70638000D01*
X117239829Y-100173169D02*
X117239829Y-98153169D01*
X124970000Y-70638000D02*
X123476500Y-70638000D01*
X117239829Y-98153169D02*
X117759829Y-97633169D01*
X129032000Y-71120000D02*
X128552000Y-70640000D01*
X128552000Y-70640000D02*
X124972000Y-70640000D01*
%TO.N,/PIN5_GOOD*%
X124972000Y-68100000D02*
X128552000Y-68100000D01*
X124970000Y-68098000D02*
X124972000Y-68100000D01*
X123476500Y-68098000D02*
X124970000Y-68098000D01*
X132588000Y-72136000D02*
X132588000Y-100076998D01*
X118984170Y-106538170D02*
X116219829Y-103773829D01*
X126126828Y-106538170D02*
X118984170Y-106538170D01*
X128552000Y-68100000D02*
X132588000Y-72136000D01*
X116219829Y-103773829D02*
X116219829Y-102713169D01*
X132588000Y-100076998D02*
X126126828Y-106538170D01*
%TO.N,/PIN6_GOOD*%
X125194000Y-74450000D02*
X125192000Y-74448000D01*
X115219829Y-97633169D02*
X115199829Y-97653169D01*
X125192000Y-74448000D02*
X123476500Y-74448000D01*
X115199829Y-97653169D02*
X115199829Y-100173169D01*
X129032000Y-74930000D02*
X128552000Y-74450000D01*
X128552000Y-74450000D02*
X125194000Y-74450000D01*
%TO.N,/PIN7_GOOD*%
X119029829Y-109063169D02*
X114179829Y-104213169D01*
X129822000Y-63020000D02*
X133761829Y-66959829D01*
X125446000Y-63018000D02*
X125448000Y-63020000D01*
X133761829Y-101443169D02*
X126141829Y-109063169D01*
X114179829Y-104213169D02*
X114179829Y-102713169D01*
X126141829Y-109063169D02*
X119029829Y-109063169D01*
X125448000Y-63020000D02*
X129822000Y-63020000D01*
X123476500Y-63018000D02*
X125446000Y-63018000D01*
X133761829Y-66959829D02*
X133761829Y-101443169D01*
%TO.N,/PIN8_GOOD*%
X125502000Y-76988000D02*
X123476500Y-76988000D01*
X127282000Y-76990000D02*
X125504000Y-76990000D01*
X127762000Y-77470000D02*
X127282000Y-76990000D01*
X113159829Y-100173169D02*
X113159829Y-98113169D01*
X125504000Y-76990000D02*
X125502000Y-76988000D01*
X113159829Y-98113169D02*
X112679829Y-97633169D01*
%TO.N,Net-(D1-Pad2)*%
X88659000Y-68326000D02*
X92187500Y-68326000D01*
%TO.N,Net-(U3-Pad24)*%
X114016500Y-72644000D02*
X120446500Y-79074000D01*
X120446500Y-79074000D02*
X120446500Y-79508000D01*
X94234000Y-68326000D02*
X94488000Y-68580000D01*
X93207500Y-68326000D02*
X94234000Y-68326000D01*
X110887500Y-72644000D02*
X114016500Y-72644000D01*
X108204000Y-69960500D02*
X110887500Y-72644000D01*
%TO.N,Net-(D3-Pad2)*%
X91931500Y-63500000D02*
X88615000Y-63500000D01*
%TD*%
%TA.AperFunction,Conductor*%
%TO.N,GND*%
G36*
X134578691Y-60527407D02*
G01*
X134614655Y-60576907D01*
X134619500Y-60607500D01*
X134619500Y-114200500D01*
X134600593Y-114258691D01*
X134551093Y-114294655D01*
X134520500Y-114299500D01*
X70607500Y-114299500D01*
X70549309Y-114280593D01*
X70513345Y-114231093D01*
X70508500Y-114200500D01*
X70508500Y-110490000D01*
X71859502Y-110490000D01*
X71879457Y-110718087D01*
X71880576Y-110722261D01*
X71880576Y-110722264D01*
X71933674Y-110920428D01*
X71938716Y-110939243D01*
X71940541Y-110943156D01*
X71940541Y-110943157D01*
X71957122Y-110978715D01*
X72035477Y-111146749D01*
X72166802Y-111334300D01*
X72328700Y-111496198D01*
X72516251Y-111627523D01*
X72723757Y-111724284D01*
X72727928Y-111725402D01*
X72727929Y-111725402D01*
X72940736Y-111782424D01*
X72940739Y-111782424D01*
X72944913Y-111783543D01*
X72989508Y-111787445D01*
X73113707Y-111798311D01*
X73113718Y-111798311D01*
X73115873Y-111798500D01*
X73630127Y-111798500D01*
X73632282Y-111798311D01*
X73632293Y-111798311D01*
X73756492Y-111787445D01*
X73801087Y-111783543D01*
X73805261Y-111782424D01*
X73805264Y-111782424D01*
X74018071Y-111725402D01*
X74018072Y-111725402D01*
X74022243Y-111724284D01*
X74229749Y-111627523D01*
X74417300Y-111496198D01*
X74579198Y-111334300D01*
X74710523Y-111146749D01*
X74788878Y-110978715D01*
X74805459Y-110943157D01*
X74805459Y-110943156D01*
X74807284Y-110939243D01*
X74812326Y-110920428D01*
X74865424Y-110722264D01*
X74865424Y-110722261D01*
X74866543Y-110718087D01*
X74886498Y-110490000D01*
X74866543Y-110261913D01*
X74807284Y-110040757D01*
X74710523Y-109833251D01*
X74579198Y-109645700D01*
X74417300Y-109483802D01*
X74229749Y-109352477D01*
X74225841Y-109350654D01*
X74225838Y-109350653D01*
X74138066Y-109309725D01*
X74093318Y-109267997D01*
X74081643Y-109207935D01*
X74107501Y-109152482D01*
X74138066Y-109130275D01*
X74225838Y-109089347D01*
X74225841Y-109089346D01*
X74229749Y-109087523D01*
X74417300Y-108956198D01*
X74579198Y-108794300D01*
X74697242Y-108625716D01*
X74746107Y-108588894D01*
X74778338Y-108583500D01*
X75358238Y-108583500D01*
X75367552Y-108583939D01*
X75371831Y-108584343D01*
X75377909Y-108585702D01*
X75446399Y-108583549D01*
X75449510Y-108583500D01*
X75477856Y-108583500D01*
X75480942Y-108583110D01*
X75480945Y-108583110D01*
X75483131Y-108582834D01*
X75492426Y-108582102D01*
X75508447Y-108581599D01*
X75531663Y-108580869D01*
X75531665Y-108580869D01*
X75537889Y-108580673D01*
X75559387Y-108574427D01*
X75574579Y-108571281D01*
X75596797Y-108568474D01*
X75639097Y-108551726D01*
X75647917Y-108548707D01*
X75691593Y-108536018D01*
X75696950Y-108532850D01*
X75696954Y-108532848D01*
X75710857Y-108524625D01*
X75724801Y-108517793D01*
X75745617Y-108509552D01*
X75782430Y-108482806D01*
X75790194Y-108477706D01*
X75829362Y-108454542D01*
X75845189Y-108438715D01*
X75857002Y-108428626D01*
X75870071Y-108419131D01*
X75870072Y-108419131D01*
X75875107Y-108415472D01*
X75879073Y-108410677D01*
X75879076Y-108410675D01*
X75904098Y-108380428D01*
X75910375Y-108373529D01*
X94467409Y-89816496D01*
X94521926Y-89788719D01*
X94537413Y-89787500D01*
X100504238Y-89787500D01*
X100513552Y-89787939D01*
X100517831Y-89788343D01*
X100523909Y-89789702D01*
X100592399Y-89787549D01*
X100595510Y-89787500D01*
X100623856Y-89787500D01*
X100626942Y-89787110D01*
X100626945Y-89787110D01*
X100629131Y-89786834D01*
X100638426Y-89786102D01*
X100654447Y-89785599D01*
X100677663Y-89784869D01*
X100677665Y-89784869D01*
X100683889Y-89784673D01*
X100705387Y-89778427D01*
X100720579Y-89775281D01*
X100742797Y-89772474D01*
X100785097Y-89755726D01*
X100793917Y-89752707D01*
X100837593Y-89740018D01*
X100842950Y-89736850D01*
X100842954Y-89736848D01*
X100856857Y-89728625D01*
X100870801Y-89721793D01*
X100891617Y-89713552D01*
X100928430Y-89686806D01*
X100936194Y-89681706D01*
X100975362Y-89658542D01*
X100991189Y-89642715D01*
X101003002Y-89632626D01*
X101016071Y-89623131D01*
X101016072Y-89623131D01*
X101021107Y-89619472D01*
X101025073Y-89614677D01*
X101025076Y-89614675D01*
X101050098Y-89584428D01*
X101056375Y-89577529D01*
X104171996Y-86461908D01*
X104226513Y-86434131D01*
X104286945Y-86443702D01*
X104330210Y-86486967D01*
X104341000Y-86531912D01*
X104341000Y-88745088D01*
X104322093Y-88803279D01*
X104312004Y-88815092D01*
X97907128Y-95219967D01*
X97852611Y-95247744D01*
X97792179Y-95238173D01*
X97748914Y-95194908D01*
X97738501Y-95158592D01*
X97726920Y-95026223D01*
X97726543Y-95021913D01*
X97667284Y-94800757D01*
X97570523Y-94593251D01*
X97439198Y-94405700D01*
X97277300Y-94243802D01*
X97089749Y-94112477D01*
X97085841Y-94110654D01*
X97085838Y-94110653D01*
X96998066Y-94069725D01*
X96953318Y-94027997D01*
X96941643Y-93967935D01*
X96967501Y-93912482D01*
X96998066Y-93890275D01*
X97085838Y-93849347D01*
X97085841Y-93849346D01*
X97089749Y-93847523D01*
X97277300Y-93716198D01*
X97439198Y-93554300D01*
X97570523Y-93366749D01*
X97632584Y-93233657D01*
X97665459Y-93163157D01*
X97665459Y-93163156D01*
X97667284Y-93159243D01*
X97685279Y-93092086D01*
X97725424Y-92942264D01*
X97725424Y-92942261D01*
X97726543Y-92938087D01*
X97746498Y-92710000D01*
X97726543Y-92481913D01*
X97667284Y-92260757D01*
X97570523Y-92053251D01*
X97439198Y-91865700D01*
X97277300Y-91703802D01*
X97089749Y-91572477D01*
X96882243Y-91475716D01*
X96878071Y-91474598D01*
X96665264Y-91417576D01*
X96665261Y-91417576D01*
X96661087Y-91416457D01*
X96616492Y-91412555D01*
X96492293Y-91401689D01*
X96492282Y-91401689D01*
X96490127Y-91401500D01*
X95975873Y-91401500D01*
X95973718Y-91401689D01*
X95973707Y-91401689D01*
X95849508Y-91412555D01*
X95804913Y-91416457D01*
X95800739Y-91417576D01*
X95800736Y-91417576D01*
X95587929Y-91474598D01*
X95583757Y-91475716D01*
X95376251Y-91572477D01*
X95188700Y-91703802D01*
X95026802Y-91865700D01*
X94895477Y-92053251D01*
X94798716Y-92260757D01*
X94739457Y-92481913D01*
X94719502Y-92710000D01*
X94739457Y-92938087D01*
X94740576Y-92942261D01*
X94740576Y-92942264D01*
X94780721Y-93092086D01*
X94798716Y-93159243D01*
X94800541Y-93163156D01*
X94800541Y-93163157D01*
X94833416Y-93233657D01*
X94895477Y-93366749D01*
X95026802Y-93554300D01*
X95188700Y-93716198D01*
X95376251Y-93847523D01*
X95380159Y-93849346D01*
X95380162Y-93849347D01*
X95467934Y-93890275D01*
X95512682Y-93932003D01*
X95524357Y-93992065D01*
X95498499Y-94047518D01*
X95467934Y-94069725D01*
X95380162Y-94110653D01*
X95380159Y-94110654D01*
X95376251Y-94112477D01*
X95188700Y-94243802D01*
X95026802Y-94405700D01*
X94895477Y-94593251D01*
X94798716Y-94800757D01*
X94739457Y-95021913D01*
X94719502Y-95250000D01*
X94739457Y-95478087D01*
X94740576Y-95482261D01*
X94740576Y-95482264D01*
X94761695Y-95561079D01*
X94798716Y-95699243D01*
X94895477Y-95906749D01*
X95026802Y-96094300D01*
X95188700Y-96256198D01*
X95376251Y-96387523D01*
X95380159Y-96389346D01*
X95380162Y-96389347D01*
X95467934Y-96430275D01*
X95512682Y-96472003D01*
X95524357Y-96532065D01*
X95498499Y-96587518D01*
X95467934Y-96609725D01*
X95380162Y-96650653D01*
X95380159Y-96650654D01*
X95376251Y-96652477D01*
X95188700Y-96783802D01*
X95026802Y-96945700D01*
X94895477Y-97133251D01*
X94893653Y-97137163D01*
X94801415Y-97334970D01*
X94798716Y-97340757D01*
X94739457Y-97561913D01*
X94719502Y-97790000D01*
X94739457Y-98018087D01*
X94740576Y-98022261D01*
X94740576Y-98022264D01*
X94786307Y-98192932D01*
X94798716Y-98239243D01*
X94800541Y-98243156D01*
X94800541Y-98243157D01*
X94816718Y-98277848D01*
X94895477Y-98446749D01*
X95026802Y-98634300D01*
X95188700Y-98796198D01*
X95376251Y-98927523D01*
X95380159Y-98929346D01*
X95380162Y-98929347D01*
X95467934Y-98970275D01*
X95512682Y-99012003D01*
X95524357Y-99072065D01*
X95498499Y-99127518D01*
X95467934Y-99149725D01*
X95380162Y-99190653D01*
X95380159Y-99190654D01*
X95376251Y-99192477D01*
X95188700Y-99323802D01*
X95026802Y-99485700D01*
X94895477Y-99673251D01*
X94893653Y-99677163D01*
X94801415Y-99874970D01*
X94798716Y-99880757D01*
X94797599Y-99884926D01*
X94797598Y-99884929D01*
X94779145Y-99953798D01*
X94739457Y-100101913D01*
X94719502Y-100330000D01*
X94739457Y-100558087D01*
X94740576Y-100562261D01*
X94740576Y-100562264D01*
X94743829Y-100574405D01*
X94798716Y-100779243D01*
X94895477Y-100986749D01*
X95026802Y-101174300D01*
X95188700Y-101336198D01*
X95376251Y-101467523D01*
X95380159Y-101469346D01*
X95380162Y-101469347D01*
X95467934Y-101510275D01*
X95512682Y-101552003D01*
X95524357Y-101612065D01*
X95498499Y-101667518D01*
X95467935Y-101689724D01*
X95433831Y-101705627D01*
X95380162Y-101730653D01*
X95380159Y-101730654D01*
X95376251Y-101732477D01*
X95188700Y-101863802D01*
X95026802Y-102025700D01*
X94895477Y-102213251D01*
X94798716Y-102420757D01*
X94797598Y-102424928D01*
X94797598Y-102424929D01*
X94779145Y-102493798D01*
X94739457Y-102641913D01*
X94719502Y-102870000D01*
X94739457Y-103098087D01*
X94798716Y-103319243D01*
X94895477Y-103526749D01*
X95026802Y-103714300D01*
X95188700Y-103876198D01*
X95376251Y-104007523D01*
X95380159Y-104009346D01*
X95380162Y-104009347D01*
X95418925Y-104027422D01*
X95457514Y-104045416D01*
X95467934Y-104050275D01*
X95512682Y-104092003D01*
X95524357Y-104152065D01*
X95498499Y-104207518D01*
X95467934Y-104229725D01*
X95380162Y-104270653D01*
X95380159Y-104270654D01*
X95376251Y-104272477D01*
X95188700Y-104403802D01*
X95026802Y-104565700D01*
X94895477Y-104753251D01*
X94798716Y-104960757D01*
X94797598Y-104964928D01*
X94797598Y-104964929D01*
X94772697Y-105057862D01*
X94739457Y-105181913D01*
X94719502Y-105410000D01*
X94739457Y-105638087D01*
X94740576Y-105642261D01*
X94740576Y-105642264D01*
X94790554Y-105828781D01*
X94798716Y-105859243D01*
X94800541Y-105863156D01*
X94800541Y-105863157D01*
X94811082Y-105885763D01*
X94895477Y-106066749D01*
X95026802Y-106254300D01*
X95188700Y-106416198D01*
X95376251Y-106547523D01*
X95380159Y-106549346D01*
X95380162Y-106549347D01*
X95467934Y-106590275D01*
X95512682Y-106632003D01*
X95524357Y-106692065D01*
X95498499Y-106747518D01*
X95467934Y-106769725D01*
X95380162Y-106810653D01*
X95380159Y-106810654D01*
X95376251Y-106812477D01*
X95188700Y-106943802D01*
X95026802Y-107105700D01*
X94895477Y-107293251D01*
X94798716Y-107500757D01*
X94739457Y-107721913D01*
X94719502Y-107950000D01*
X94739457Y-108178087D01*
X94740576Y-108182261D01*
X94740576Y-108182264D01*
X94793674Y-108380428D01*
X94798716Y-108399243D01*
X94800541Y-108403156D01*
X94800541Y-108403157D01*
X94817122Y-108438715D01*
X94895477Y-108606749D01*
X95026802Y-108794300D01*
X95188700Y-108956198D01*
X95376251Y-109087523D01*
X95380159Y-109089346D01*
X95380162Y-109089347D01*
X95467934Y-109130275D01*
X95512682Y-109172003D01*
X95524357Y-109232065D01*
X95498499Y-109287518D01*
X95467934Y-109309725D01*
X95380162Y-109350653D01*
X95380159Y-109350654D01*
X95376251Y-109352477D01*
X95188700Y-109483802D01*
X95026802Y-109645700D01*
X94895477Y-109833251D01*
X94798716Y-110040757D01*
X94739457Y-110261913D01*
X94719502Y-110490000D01*
X94739457Y-110718087D01*
X94740576Y-110722261D01*
X94740576Y-110722264D01*
X94793674Y-110920428D01*
X94798716Y-110939243D01*
X94800541Y-110943156D01*
X94800541Y-110943157D01*
X94817122Y-110978715D01*
X94895477Y-111146749D01*
X95026802Y-111334300D01*
X95188700Y-111496198D01*
X95376251Y-111627523D01*
X95583757Y-111724284D01*
X95587928Y-111725402D01*
X95587929Y-111725402D01*
X95800736Y-111782424D01*
X95800739Y-111782424D01*
X95804913Y-111783543D01*
X95849508Y-111787445D01*
X95973707Y-111798311D01*
X95973718Y-111798311D01*
X95975873Y-111798500D01*
X96490127Y-111798500D01*
X96492282Y-111798311D01*
X96492293Y-111798311D01*
X96616492Y-111787445D01*
X96661087Y-111783543D01*
X96665261Y-111782424D01*
X96665264Y-111782424D01*
X96878071Y-111725402D01*
X96878072Y-111725402D01*
X96882243Y-111724284D01*
X97089749Y-111627523D01*
X97277300Y-111496198D01*
X97439198Y-111334300D01*
X97557242Y-111165716D01*
X97606107Y-111128894D01*
X97638338Y-111123500D01*
X100185469Y-111123500D01*
X100194783Y-111123939D01*
X100199062Y-111124343D01*
X100205140Y-111125702D01*
X100273630Y-111123549D01*
X100276741Y-111123500D01*
X100305087Y-111123500D01*
X100308173Y-111123110D01*
X100308176Y-111123110D01*
X100310362Y-111122834D01*
X100319657Y-111122102D01*
X100335678Y-111121599D01*
X100358894Y-111120869D01*
X100358896Y-111120869D01*
X100365120Y-111120673D01*
X100386618Y-111114427D01*
X100401810Y-111111281D01*
X100424028Y-111108474D01*
X100466328Y-111091726D01*
X100475148Y-111088707D01*
X100518824Y-111076018D01*
X100524181Y-111072850D01*
X100524185Y-111072848D01*
X100538088Y-111064625D01*
X100552032Y-111057793D01*
X100572848Y-111049552D01*
X100609661Y-111022806D01*
X100617425Y-111017706D01*
X100656593Y-110994542D01*
X100672420Y-110978715D01*
X100684233Y-110968626D01*
X100697302Y-110959131D01*
X100697303Y-110959131D01*
X100702338Y-110955472D01*
X100706304Y-110950677D01*
X100706307Y-110950675D01*
X100731329Y-110920428D01*
X100737606Y-110913529D01*
X101815640Y-109835495D01*
X101870157Y-109807718D01*
X101885644Y-109806499D01*
X101977219Y-109806499D01*
X101979164Y-109806346D01*
X102008655Y-109804026D01*
X102008658Y-109804025D01*
X102013697Y-109803629D01*
X102018557Y-109802217D01*
X102163842Y-109760008D01*
X102163843Y-109760007D01*
X102169827Y-109758269D01*
X102175191Y-109755097D01*
X102175196Y-109755095D01*
X102236836Y-109718641D01*
X102296548Y-109705293D01*
X102337626Y-109718641D01*
X102399266Y-109755095D01*
X102399271Y-109755097D01*
X102404635Y-109758269D01*
X102410619Y-109760007D01*
X102410620Y-109760008D01*
X102464745Y-109775733D01*
X102560765Y-109803629D01*
X102565807Y-109804026D01*
X102565808Y-109804026D01*
X102570859Y-109804423D01*
X102597242Y-109806500D01*
X102797077Y-109806500D01*
X102997219Y-109806499D01*
X102999164Y-109806346D01*
X103028655Y-109804026D01*
X103028658Y-109804025D01*
X103033697Y-109803629D01*
X103038557Y-109802217D01*
X103183842Y-109760008D01*
X103183843Y-109760007D01*
X103189827Y-109758269D01*
X103293245Y-109697108D01*
X103324414Y-109678675D01*
X103324416Y-109678674D01*
X103329772Y-109675506D01*
X103444737Y-109560541D01*
X103455824Y-109541795D01*
X103488314Y-109486856D01*
X103527500Y-109420596D01*
X103572860Y-109264466D01*
X103575731Y-109227989D01*
X103575730Y-108728012D01*
X103572860Y-108691534D01*
X103541601Y-108583939D01*
X103529239Y-108541389D01*
X103529238Y-108541388D01*
X103527500Y-108535404D01*
X103444737Y-108395459D01*
X103447505Y-108393822D01*
X103430731Y-108344780D01*
X103430731Y-105618827D01*
X103449638Y-105560636D01*
X103477634Y-105534643D01*
X103569055Y-105478071D01*
X103579091Y-105468018D01*
X103684802Y-105362122D01*
X103688864Y-105358053D01*
X103777849Y-105213692D01*
X103831238Y-105052731D01*
X103835291Y-105013169D01*
X107566201Y-105013169D01*
X107566506Y-105017044D01*
X107582368Y-105218587D01*
X107586683Y-105273418D01*
X107587589Y-105277191D01*
X107646088Y-105520854D01*
X107647625Y-105527258D01*
X107747526Y-105768440D01*
X107883926Y-105991025D01*
X107886454Y-105993984D01*
X107886454Y-105993985D01*
X107943417Y-106060680D01*
X108053466Y-106189532D01*
X108251973Y-106359072D01*
X108474558Y-106495472D01*
X108715740Y-106595373D01*
X108719514Y-106596279D01*
X108719517Y-106596280D01*
X108855088Y-106628828D01*
X108969580Y-106656315D01*
X108973445Y-106656619D01*
X108973450Y-106656620D01*
X109094357Y-106666135D01*
X109164671Y-106671669D01*
X109294987Y-106671669D01*
X109365301Y-106666135D01*
X109486208Y-106656620D01*
X109486213Y-106656619D01*
X109490078Y-106656315D01*
X109604570Y-106628828D01*
X109740141Y-106596280D01*
X109740144Y-106596279D01*
X109743918Y-106595373D01*
X109985100Y-106495472D01*
X110207685Y-106359072D01*
X110406192Y-106189532D01*
X110516241Y-106060680D01*
X110573204Y-105993985D01*
X110573204Y-105993984D01*
X110575732Y-105991025D01*
X110712132Y-105768440D01*
X110812033Y-105527258D01*
X110813571Y-105520854D01*
X110872069Y-105277191D01*
X110872975Y-105273418D01*
X110877291Y-105218587D01*
X110893152Y-105017044D01*
X110893457Y-105013169D01*
X110872975Y-104752920D01*
X110827294Y-104562646D01*
X110812940Y-104502857D01*
X110812939Y-104502854D01*
X110812033Y-104499080D01*
X110712132Y-104257898D01*
X110575732Y-104035313D01*
X110568993Y-104027422D01*
X110408726Y-103839773D01*
X110406192Y-103836806D01*
X110207685Y-103667266D01*
X109985100Y-103530866D01*
X109743918Y-103430965D01*
X109740144Y-103430059D01*
X109740141Y-103430058D01*
X109604570Y-103397510D01*
X109490078Y-103370023D01*
X109486213Y-103369719D01*
X109486208Y-103369718D01*
X109365301Y-103360203D01*
X109294987Y-103354669D01*
X109164671Y-103354669D01*
X109094357Y-103360203D01*
X108973450Y-103369718D01*
X108973445Y-103369719D01*
X108969580Y-103370023D01*
X108855088Y-103397510D01*
X108719517Y-103430058D01*
X108719514Y-103430059D01*
X108715740Y-103430965D01*
X108474558Y-103530866D01*
X108251973Y-103667266D01*
X108053466Y-103836806D01*
X108050932Y-103839773D01*
X107890666Y-104027422D01*
X107883926Y-104035313D01*
X107747526Y-104257898D01*
X107647625Y-104499080D01*
X107646719Y-104502854D01*
X107646718Y-104502857D01*
X107632364Y-104562646D01*
X107586683Y-104752920D01*
X107566201Y-105013169D01*
X103835291Y-105013169D01*
X103841500Y-104952572D01*
X103841500Y-104343428D01*
X103830978Y-104242018D01*
X103829265Y-104236883D01*
X103829264Y-104236879D01*
X103779127Y-104086603D01*
X103777308Y-104081151D01*
X103688071Y-103936945D01*
X103683745Y-103932626D01*
X103572122Y-103821198D01*
X103568053Y-103817136D01*
X103563157Y-103814118D01*
X103428587Y-103731168D01*
X103428585Y-103731167D01*
X103423692Y-103728151D01*
X103418235Y-103726341D01*
X103418233Y-103726340D01*
X103288764Y-103683397D01*
X103262731Y-103674762D01*
X103162572Y-103664500D01*
X102628428Y-103664500D01*
X102527018Y-103675022D01*
X102521883Y-103676735D01*
X102521879Y-103676736D01*
X102373201Y-103726340D01*
X102366151Y-103728692D01*
X102221945Y-103817929D01*
X102183963Y-103855978D01*
X102178038Y-103861913D01*
X102123546Y-103889739D01*
X102063105Y-103880220D01*
X102038030Y-103862035D01*
X102031963Y-103855978D01*
X101993053Y-103817136D01*
X101892295Y-103755028D01*
X101853587Y-103731168D01*
X101853585Y-103731167D01*
X101848692Y-103728151D01*
X101843235Y-103726341D01*
X101843233Y-103726340D01*
X101713764Y-103683397D01*
X101687731Y-103674762D01*
X101587572Y-103664500D01*
X101053428Y-103664500D01*
X100952018Y-103675022D01*
X100946883Y-103676735D01*
X100946879Y-103676736D01*
X100798201Y-103726340D01*
X100791151Y-103728692D01*
X100714101Y-103776372D01*
X100653104Y-103814118D01*
X100646945Y-103817929D01*
X100642888Y-103821993D01*
X100634236Y-103830660D01*
X100527136Y-103937947D01*
X100524118Y-103942843D01*
X100451507Y-104060641D01*
X100438151Y-104082308D01*
X100436341Y-104087765D01*
X100436340Y-104087767D01*
X100423017Y-104127935D01*
X100384762Y-104243269D01*
X100374500Y-104343428D01*
X100374500Y-104657087D01*
X100355593Y-104715278D01*
X100345504Y-104727091D01*
X97785091Y-107287504D01*
X97730574Y-107315281D01*
X97715087Y-107316500D01*
X97638338Y-107316500D01*
X97580147Y-107297593D01*
X97557242Y-107274284D01*
X97439198Y-107105700D01*
X97277300Y-106943802D01*
X97089749Y-106812477D01*
X97085841Y-106810654D01*
X97085838Y-106810653D01*
X96998066Y-106769725D01*
X96953318Y-106727997D01*
X96941643Y-106667935D01*
X96967501Y-106612482D01*
X96998066Y-106590275D01*
X97085838Y-106549347D01*
X97085841Y-106549346D01*
X97089749Y-106547523D01*
X97277300Y-106416198D01*
X97439198Y-106254300D01*
X97570523Y-106066749D01*
X97654918Y-105885763D01*
X97665459Y-105863157D01*
X97665459Y-105863156D01*
X97667284Y-105859243D01*
X97675446Y-105828781D01*
X97725424Y-105642264D01*
X97725424Y-105642261D01*
X97726543Y-105638087D01*
X97746498Y-105410000D01*
X97726543Y-105181913D01*
X97693304Y-105057862D01*
X97668402Y-104964929D01*
X97668402Y-104964928D01*
X97667284Y-104960757D01*
X97570523Y-104753251D01*
X97439198Y-104565700D01*
X97277300Y-104403802D01*
X97089749Y-104272477D01*
X97085841Y-104270654D01*
X97085838Y-104270653D01*
X96998066Y-104229725D01*
X96953318Y-104187997D01*
X96941643Y-104127935D01*
X96967501Y-104072482D01*
X96998066Y-104050275D01*
X97008487Y-104045416D01*
X97047075Y-104027422D01*
X97085838Y-104009347D01*
X97085841Y-104009346D01*
X97089749Y-104007523D01*
X97277300Y-103876198D01*
X97439198Y-103714300D01*
X97570523Y-103526749D01*
X97667284Y-103319243D01*
X97726543Y-103098087D01*
X97746498Y-102870000D01*
X97726543Y-102641913D01*
X97686856Y-102493798D01*
X97668402Y-102424929D01*
X97668402Y-102424928D01*
X97667284Y-102420757D01*
X97570523Y-102213251D01*
X97439198Y-102025700D01*
X97277300Y-101863802D01*
X97089749Y-101732477D01*
X97085841Y-101730654D01*
X97085838Y-101730653D01*
X97032169Y-101705627D01*
X96998066Y-101689725D01*
X96953318Y-101647997D01*
X96941643Y-101587935D01*
X96967501Y-101532482D01*
X96998066Y-101510275D01*
X97085838Y-101469347D01*
X97085841Y-101469346D01*
X97089749Y-101467523D01*
X97277300Y-101336198D01*
X97439198Y-101174300D01*
X97570523Y-100986749D01*
X97667284Y-100779243D01*
X97722171Y-100574405D01*
X97725424Y-100562264D01*
X97725424Y-100562261D01*
X97726543Y-100558087D01*
X97746498Y-100330000D01*
X97726543Y-100101913D01*
X97667284Y-99880757D01*
X97665458Y-99876842D01*
X97664777Y-99874970D01*
X97662639Y-99813822D01*
X97687801Y-99771103D01*
X110678056Y-86780848D01*
X110684954Y-86774572D01*
X110688260Y-86771837D01*
X110693518Y-86768500D01*
X110740421Y-86718553D01*
X110742584Y-86716320D01*
X110762634Y-86696270D01*
X110764529Y-86693827D01*
X110764535Y-86693820D01*
X110765887Y-86692076D01*
X110771950Y-86684977D01*
X110798825Y-86656359D01*
X110798827Y-86656357D01*
X110803086Y-86651821D01*
X110813870Y-86632205D01*
X110822401Y-86619218D01*
X110832294Y-86606464D01*
X110836113Y-86601541D01*
X110854175Y-86559804D01*
X110858277Y-86551431D01*
X110877195Y-86517018D01*
X110877196Y-86517015D01*
X110880195Y-86511560D01*
X110885762Y-86489878D01*
X110890795Y-86475180D01*
X110897205Y-86460369D01*
X110897207Y-86460362D01*
X110899681Y-86454645D01*
X110906797Y-86409720D01*
X110908688Y-86400590D01*
X110918452Y-86362560D01*
X110918452Y-86362559D01*
X110920000Y-86356530D01*
X110920000Y-86334149D01*
X110921219Y-86318662D01*
X110923746Y-86302709D01*
X110923746Y-86302706D01*
X110924720Y-86296557D01*
X110920439Y-86251269D01*
X110920000Y-86241952D01*
X110920000Y-80861806D01*
X110938907Y-80803615D01*
X110988407Y-80767651D01*
X111029692Y-80763385D01*
X111058366Y-80766500D01*
X112054634Y-80766500D01*
X112083309Y-80763385D01*
X112110642Y-80760416D01*
X112110644Y-80760415D01*
X112116816Y-80759745D01*
X112156748Y-80744775D01*
X112217873Y-80742052D01*
X112226251Y-80744775D01*
X112266184Y-80759745D01*
X112272356Y-80760415D01*
X112272358Y-80760416D01*
X112299691Y-80763385D01*
X112328366Y-80766500D01*
X113324634Y-80766500D01*
X113353309Y-80763385D01*
X113380642Y-80760416D01*
X113380644Y-80760415D01*
X113386816Y-80759745D01*
X113426748Y-80744775D01*
X113487873Y-80742052D01*
X113496251Y-80744775D01*
X113536184Y-80759745D01*
X113542356Y-80760415D01*
X113542358Y-80760416D01*
X113569691Y-80763385D01*
X113598366Y-80766500D01*
X114594634Y-80766500D01*
X114623309Y-80763385D01*
X114650642Y-80760416D01*
X114650644Y-80760415D01*
X114656816Y-80759745D01*
X114696748Y-80744775D01*
X114757873Y-80742052D01*
X114766251Y-80744775D01*
X114806184Y-80759745D01*
X114812356Y-80760415D01*
X114812358Y-80760416D01*
X114839691Y-80763385D01*
X114868366Y-80766500D01*
X115864634Y-80766500D01*
X115893309Y-80763385D01*
X115920642Y-80760416D01*
X115920644Y-80760415D01*
X115926816Y-80759745D01*
X115966748Y-80744775D01*
X116027873Y-80742052D01*
X116036251Y-80744775D01*
X116076184Y-80759745D01*
X116082356Y-80760415D01*
X116082358Y-80760416D01*
X116109691Y-80763385D01*
X116138366Y-80766500D01*
X117134634Y-80766500D01*
X117163309Y-80763385D01*
X117190642Y-80760416D01*
X117190644Y-80760415D01*
X117196816Y-80759745D01*
X117236748Y-80744775D01*
X117297873Y-80742052D01*
X117306251Y-80744775D01*
X117346184Y-80759745D01*
X117352356Y-80760415D01*
X117352358Y-80760416D01*
X117379691Y-80763385D01*
X117408366Y-80766500D01*
X118404634Y-80766500D01*
X118433308Y-80763385D01*
X118493200Y-80775897D01*
X118534300Y-80821224D01*
X118543000Y-80861806D01*
X118543000Y-85528088D01*
X118524093Y-85586279D01*
X118514004Y-85598092D01*
X117463591Y-86648504D01*
X117409074Y-86676281D01*
X117393587Y-86677500D01*
X116423866Y-86677500D01*
X116403837Y-86679676D01*
X116367858Y-86683584D01*
X116367856Y-86683585D01*
X116361684Y-86684255D01*
X116355869Y-86686435D01*
X116270192Y-86718554D01*
X116225295Y-86735385D01*
X116108739Y-86822739D01*
X116021385Y-86939295D01*
X115970255Y-87075684D01*
X115963500Y-87137866D01*
X115963500Y-88934134D01*
X115970255Y-88996316D01*
X115972435Y-89002131D01*
X116011430Y-89106149D01*
X116021385Y-89132705D01*
X116108739Y-89249261D01*
X116225295Y-89336615D01*
X116231897Y-89339090D01*
X116274251Y-89354968D01*
X116322102Y-89393098D01*
X116338500Y-89447668D01*
X116338500Y-92924332D01*
X116319593Y-92982523D01*
X116274251Y-93017032D01*
X116225295Y-93035385D01*
X116108739Y-93122739D01*
X116021385Y-93239295D01*
X115970255Y-93375684D01*
X115969585Y-93381856D01*
X115969584Y-93381858D01*
X115966522Y-93410047D01*
X115963500Y-93437866D01*
X115963500Y-95234134D01*
X115970255Y-95296316D01*
X116021385Y-95432705D01*
X116108739Y-95549261D01*
X116225295Y-95636615D01*
X116361684Y-95687745D01*
X116367856Y-95688415D01*
X116367858Y-95688416D01*
X116403837Y-95692324D01*
X116423866Y-95694500D01*
X117520134Y-95694500D01*
X117540163Y-95692324D01*
X117576142Y-95688416D01*
X117576144Y-95688415D01*
X117582316Y-95687745D01*
X117718705Y-95636615D01*
X117835261Y-95549261D01*
X117922615Y-95432705D01*
X117973745Y-95296316D01*
X117980500Y-95234134D01*
X117980500Y-93437866D01*
X117977478Y-93410047D01*
X117974416Y-93381858D01*
X117974415Y-93381856D01*
X117973745Y-93375684D01*
X117922615Y-93239295D01*
X117835261Y-93122739D01*
X117718705Y-93035385D01*
X117669749Y-93017032D01*
X117621898Y-92978902D01*
X117605500Y-92924332D01*
X117605500Y-89447668D01*
X117624407Y-89389477D01*
X117669749Y-89354968D01*
X117712103Y-89339090D01*
X117718705Y-89336615D01*
X117835261Y-89249261D01*
X117922615Y-89132705D01*
X117932571Y-89106149D01*
X117971565Y-89002131D01*
X117973745Y-88996316D01*
X117980500Y-88934134D01*
X117980500Y-87964412D01*
X117999407Y-87906221D01*
X118009496Y-87894408D01*
X119568066Y-86335839D01*
X119574966Y-86329562D01*
X119578261Y-86326836D01*
X119583518Y-86323500D01*
X119587777Y-86318964D01*
X119587780Y-86318962D01*
X119630405Y-86273570D01*
X119632569Y-86271336D01*
X119652635Y-86251270D01*
X119654619Y-86248712D01*
X119655898Y-86247064D01*
X119661951Y-86239977D01*
X119688826Y-86211357D01*
X119693086Y-86206821D01*
X119703868Y-86187210D01*
X119712396Y-86174227D01*
X119722296Y-86161464D01*
X119722298Y-86161461D01*
X119726114Y-86156541D01*
X119728591Y-86150818D01*
X119744181Y-86114794D01*
X119748283Y-86106420D01*
X119767195Y-86072018D01*
X119767196Y-86072015D01*
X119770195Y-86066560D01*
X119771742Y-86060534D01*
X119771745Y-86060527D01*
X119775763Y-86044878D01*
X119780793Y-86030185D01*
X119787208Y-86015360D01*
X119787208Y-86015359D01*
X119789681Y-86009645D01*
X119796797Y-85964720D01*
X119798688Y-85955590D01*
X119808452Y-85917560D01*
X119808452Y-85917559D01*
X119810000Y-85911530D01*
X119810000Y-85889149D01*
X119811219Y-85873662D01*
X119813746Y-85857709D01*
X119813746Y-85857706D01*
X119814720Y-85851557D01*
X119810439Y-85806269D01*
X119810000Y-85796952D01*
X119810000Y-80861806D01*
X119828907Y-80803615D01*
X119878407Y-80767651D01*
X119919692Y-80763385D01*
X119948366Y-80766500D01*
X120944634Y-80766500D01*
X120973309Y-80763385D01*
X121000642Y-80760416D01*
X121000644Y-80760415D01*
X121006816Y-80759745D01*
X121081501Y-80731747D01*
X121136606Y-80711089D01*
X121136607Y-80711089D01*
X121143205Y-80708615D01*
X121259761Y-80621261D01*
X121347115Y-80504705D01*
X121398245Y-80368316D01*
X121399270Y-80358887D01*
X121402824Y-80326163D01*
X121405000Y-80306134D01*
X121405000Y-79149631D01*
X121423907Y-79091440D01*
X121473407Y-79055476D01*
X121534593Y-79055476D01*
X121544267Y-79059190D01*
X121632974Y-79098685D01*
X121632978Y-79098686D01*
X121637712Y-79100794D01*
X121642782Y-79101872D01*
X121642783Y-79101872D01*
X121677917Y-79109340D01*
X121824513Y-79140500D01*
X122015487Y-79140500D01*
X122162083Y-79109340D01*
X122197217Y-79101872D01*
X122197218Y-79101872D01*
X122202288Y-79100794D01*
X122207022Y-79098686D01*
X122207026Y-79098685D01*
X122274862Y-79068482D01*
X122335712Y-79062086D01*
X122374502Y-79079703D01*
X122474152Y-79154387D01*
X122474156Y-79154389D01*
X122479795Y-79158615D01*
X122616184Y-79209745D01*
X122622356Y-79210415D01*
X122622358Y-79210416D01*
X122658337Y-79214324D01*
X122678366Y-79216500D01*
X124274634Y-79216500D01*
X124294663Y-79214324D01*
X124330642Y-79210416D01*
X124330644Y-79210415D01*
X124336816Y-79209745D01*
X124473205Y-79158615D01*
X124589761Y-79071261D01*
X124677115Y-78954705D01*
X124728245Y-78818316D01*
X124729793Y-78804072D01*
X124734711Y-78758793D01*
X124735000Y-78756134D01*
X124735000Y-77759866D01*
X124731885Y-77731192D01*
X124744397Y-77671300D01*
X124789724Y-77630200D01*
X124830306Y-77621500D01*
X125408141Y-77621500D01*
X125418791Y-77622170D01*
X125423970Y-77623500D01*
X125446358Y-77623500D01*
X125461845Y-77624719D01*
X125477792Y-77627245D01*
X125477794Y-77627245D01*
X125483943Y-77628219D01*
X125529223Y-77623939D01*
X125538540Y-77623500D01*
X126784694Y-77623500D01*
X126842885Y-77642407D01*
X126878848Y-77691906D01*
X126927473Y-77841556D01*
X126930065Y-77846045D01*
X126930067Y-77846050D01*
X126989363Y-77948753D01*
X127022960Y-78006944D01*
X127026432Y-78010800D01*
X127147277Y-78145013D01*
X127147281Y-78145017D01*
X127150747Y-78148866D01*
X127305248Y-78261118D01*
X127403609Y-78304911D01*
X127474974Y-78336685D01*
X127474978Y-78336686D01*
X127479712Y-78338794D01*
X127484782Y-78339872D01*
X127484783Y-78339872D01*
X127485696Y-78340066D01*
X127666513Y-78378500D01*
X127857487Y-78378500D01*
X128038304Y-78340066D01*
X128039217Y-78339872D01*
X128039218Y-78339872D01*
X128044288Y-78338794D01*
X128049022Y-78336686D01*
X128049026Y-78336685D01*
X128120391Y-78304911D01*
X128218752Y-78261118D01*
X128373253Y-78148866D01*
X128376719Y-78145017D01*
X128376723Y-78145013D01*
X128497568Y-78010800D01*
X128501040Y-78006944D01*
X128503631Y-78002456D01*
X128504902Y-78000707D01*
X128554404Y-77964747D01*
X128615589Y-77964750D01*
X128654995Y-77988899D01*
X129289333Y-78623237D01*
X129317110Y-78677754D01*
X129318329Y-78693241D01*
X129318329Y-92757756D01*
X129299422Y-92815947D01*
X129289333Y-92827760D01*
X120691420Y-101425673D01*
X120636903Y-101453450D01*
X120621416Y-101454669D01*
X119955541Y-101454669D01*
X119897350Y-101435762D01*
X119861386Y-101386262D01*
X119861386Y-101325076D01*
X119897350Y-101275576D01*
X119906038Y-101269934D01*
X119907571Y-101269049D01*
X119911483Y-101267225D01*
X120091867Y-101140918D01*
X120247578Y-100985207D01*
X120373885Y-100804822D01*
X120466949Y-100605245D01*
X120523944Y-100392540D01*
X120543136Y-100173169D01*
X120523944Y-99953798D01*
X120466949Y-99741093D01*
X120373885Y-99541516D01*
X120247578Y-99361131D01*
X120091867Y-99205420D01*
X119955545Y-99109966D01*
X119918723Y-99061101D01*
X119913329Y-99028870D01*
X119913329Y-98956580D01*
X119932236Y-98898389D01*
X119942326Y-98886576D01*
X120258238Y-98570665D01*
X120312754Y-98542888D01*
X120328241Y-98541669D01*
X120395316Y-98541669D01*
X120541912Y-98510509D01*
X120577046Y-98503041D01*
X120577047Y-98503041D01*
X120582117Y-98501963D01*
X120586851Y-98499855D01*
X120586855Y-98499854D01*
X120688757Y-98454484D01*
X120756581Y-98424287D01*
X120911082Y-98312035D01*
X120914548Y-98308186D01*
X120914552Y-98308182D01*
X121035397Y-98173969D01*
X121038869Y-98170113D01*
X121072994Y-98111007D01*
X121131762Y-98009219D01*
X121131764Y-98009214D01*
X121134356Y-98004725D01*
X121160539Y-97924142D01*
X121191769Y-97828029D01*
X121191770Y-97828024D01*
X121193371Y-97823097D01*
X121213333Y-97633169D01*
X121193371Y-97443241D01*
X121191770Y-97438314D01*
X121191769Y-97438309D01*
X121151081Y-97313086D01*
X121134356Y-97261613D01*
X121131764Y-97257124D01*
X121131762Y-97257119D01*
X121041464Y-97100720D01*
X121038869Y-97096225D01*
X121028405Y-97084603D01*
X120914552Y-96958156D01*
X120914548Y-96958152D01*
X120911082Y-96954303D01*
X120756581Y-96842051D01*
X120654106Y-96796427D01*
X120586855Y-96766484D01*
X120586851Y-96766483D01*
X120582117Y-96764375D01*
X120577047Y-96763297D01*
X120577046Y-96763297D01*
X120541912Y-96755829D01*
X120395316Y-96724669D01*
X120204342Y-96724669D01*
X120057746Y-96755829D01*
X120022612Y-96763297D01*
X120022611Y-96763297D01*
X120017541Y-96764375D01*
X120012807Y-96766483D01*
X120012803Y-96766484D01*
X119945552Y-96796427D01*
X119843077Y-96842051D01*
X119688576Y-96954303D01*
X119685110Y-96958152D01*
X119685106Y-96958156D01*
X119571253Y-97084603D01*
X119560789Y-97096225D01*
X119558194Y-97100720D01*
X119467896Y-97257119D01*
X119467894Y-97257124D01*
X119465302Y-97261613D01*
X119448577Y-97313086D01*
X119407889Y-97438309D01*
X119407888Y-97438314D01*
X119406287Y-97443241D01*
X119388626Y-97611284D01*
X119387923Y-97617969D01*
X119359468Y-97677625D01*
X118888262Y-98148830D01*
X118881363Y-98155107D01*
X118878068Y-98157833D01*
X118872811Y-98161169D01*
X118868552Y-98165705D01*
X118868549Y-98165707D01*
X118825924Y-98211099D01*
X118823760Y-98213333D01*
X118803694Y-98233399D01*
X118801789Y-98235855D01*
X118800431Y-98237605D01*
X118794378Y-98244692D01*
X118763243Y-98277848D01*
X118760244Y-98283303D01*
X118752461Y-98297459D01*
X118743933Y-98310442D01*
X118734033Y-98323205D01*
X118734031Y-98323208D01*
X118730215Y-98328128D01*
X118727740Y-98333848D01*
X118727738Y-98333851D01*
X118712148Y-98369875D01*
X118708046Y-98378249D01*
X118689134Y-98412651D01*
X118689133Y-98412654D01*
X118686134Y-98418109D01*
X118684587Y-98424135D01*
X118684584Y-98424142D01*
X118680566Y-98439791D01*
X118675536Y-98454484D01*
X118666648Y-98475024D01*
X118665674Y-98481174D01*
X118659532Y-98519949D01*
X118657641Y-98529079D01*
X118646329Y-98573139D01*
X118646329Y-98595520D01*
X118645110Y-98611007D01*
X118641609Y-98633112D01*
X118642195Y-98639310D01*
X118645890Y-98678400D01*
X118646329Y-98687717D01*
X118646329Y-99028870D01*
X118627422Y-99087061D01*
X118604113Y-99109966D01*
X118467791Y-99205420D01*
X118329833Y-99343378D01*
X118275316Y-99371155D01*
X118214884Y-99361584D01*
X118189825Y-99343378D01*
X118051867Y-99205420D01*
X117915545Y-99109966D01*
X117878723Y-99061101D01*
X117873329Y-99028870D01*
X117873329Y-98618009D01*
X117892236Y-98559818D01*
X117941736Y-98523854D01*
X117951746Y-98521172D01*
X118037046Y-98503041D01*
X118037047Y-98503041D01*
X118042117Y-98501963D01*
X118046851Y-98499855D01*
X118046855Y-98499854D01*
X118148757Y-98454484D01*
X118216581Y-98424287D01*
X118371082Y-98312035D01*
X118374548Y-98308186D01*
X118374552Y-98308182D01*
X118495397Y-98173969D01*
X118498869Y-98170113D01*
X118532994Y-98111007D01*
X118591762Y-98009219D01*
X118591764Y-98009214D01*
X118594356Y-98004725D01*
X118620539Y-97924142D01*
X118651769Y-97828029D01*
X118651770Y-97828024D01*
X118653371Y-97823097D01*
X118673333Y-97633169D01*
X118653371Y-97443241D01*
X118651770Y-97438314D01*
X118651769Y-97438309D01*
X118611081Y-97313086D01*
X118594356Y-97261613D01*
X118591764Y-97257124D01*
X118591762Y-97257119D01*
X118501464Y-97100720D01*
X118498869Y-97096225D01*
X118488405Y-97084603D01*
X118374552Y-96958156D01*
X118374548Y-96958152D01*
X118371082Y-96954303D01*
X118216581Y-96842051D01*
X118114106Y-96796427D01*
X118046855Y-96766484D01*
X118046851Y-96766483D01*
X118042117Y-96764375D01*
X118037047Y-96763297D01*
X118037046Y-96763297D01*
X118001912Y-96755829D01*
X117855316Y-96724669D01*
X117664342Y-96724669D01*
X117517746Y-96755829D01*
X117482612Y-96763297D01*
X117482611Y-96763297D01*
X117477541Y-96764375D01*
X117472807Y-96766483D01*
X117472803Y-96766484D01*
X117405552Y-96796427D01*
X117303077Y-96842051D01*
X117148576Y-96954303D01*
X117145110Y-96958152D01*
X117145106Y-96958156D01*
X117031253Y-97084603D01*
X117020789Y-97096225D01*
X117018194Y-97100720D01*
X116927896Y-97257119D01*
X116927894Y-97257124D01*
X116925302Y-97261613D01*
X116908577Y-97313086D01*
X116867889Y-97438309D01*
X116867888Y-97438314D01*
X116866287Y-97443241D01*
X116865745Y-97448399D01*
X116848197Y-97615359D01*
X116821907Y-97672781D01*
X116785924Y-97711099D01*
X116783760Y-97713333D01*
X116763694Y-97733399D01*
X116761789Y-97735855D01*
X116760431Y-97737605D01*
X116754378Y-97744692D01*
X116723243Y-97777848D01*
X116720244Y-97783303D01*
X116712461Y-97797459D01*
X116703933Y-97810442D01*
X116694033Y-97823205D01*
X116694031Y-97823208D01*
X116690215Y-97828128D01*
X116687740Y-97833848D01*
X116687738Y-97833851D01*
X116672148Y-97869875D01*
X116668046Y-97878249D01*
X116649134Y-97912651D01*
X116649133Y-97912654D01*
X116646134Y-97918109D01*
X116644587Y-97924135D01*
X116644584Y-97924142D01*
X116640566Y-97939791D01*
X116635536Y-97954484D01*
X116626648Y-97975024D01*
X116622725Y-97999794D01*
X116619532Y-98019949D01*
X116617641Y-98029079D01*
X116606329Y-98073139D01*
X116606329Y-98095520D01*
X116605110Y-98111007D01*
X116601609Y-98133112D01*
X116602195Y-98139310D01*
X116605890Y-98178400D01*
X116606329Y-98187717D01*
X116606329Y-99028870D01*
X116587422Y-99087061D01*
X116564113Y-99109966D01*
X116427791Y-99205420D01*
X116289833Y-99343378D01*
X116235316Y-99371155D01*
X116174884Y-99361584D01*
X116149825Y-99343378D01*
X116011867Y-99205420D01*
X115875545Y-99109966D01*
X115838723Y-99061101D01*
X115833329Y-99028870D01*
X115833329Y-98347541D01*
X115852236Y-98289350D01*
X115858758Y-98281297D01*
X115873329Y-98265115D01*
X115958869Y-98170113D01*
X115992994Y-98111007D01*
X116051762Y-98009219D01*
X116051764Y-98009214D01*
X116054356Y-98004725D01*
X116080539Y-97924142D01*
X116111769Y-97828029D01*
X116111770Y-97828024D01*
X116113371Y-97823097D01*
X116133333Y-97633169D01*
X116113371Y-97443241D01*
X116111770Y-97438314D01*
X116111769Y-97438309D01*
X116071081Y-97313086D01*
X116054356Y-97261613D01*
X116051764Y-97257124D01*
X116051762Y-97257119D01*
X115961464Y-97100720D01*
X115958869Y-97096225D01*
X115948405Y-97084603D01*
X115834552Y-96958156D01*
X115834548Y-96958152D01*
X115831082Y-96954303D01*
X115676581Y-96842051D01*
X115574106Y-96796427D01*
X115506855Y-96766484D01*
X115506851Y-96766483D01*
X115502117Y-96764375D01*
X115497047Y-96763297D01*
X115497046Y-96763297D01*
X115461912Y-96755829D01*
X115315316Y-96724669D01*
X115124342Y-96724669D01*
X114977746Y-96755829D01*
X114942612Y-96763297D01*
X114942611Y-96763297D01*
X114937541Y-96764375D01*
X114932807Y-96766483D01*
X114932803Y-96766484D01*
X114865552Y-96796427D01*
X114763077Y-96842051D01*
X114608576Y-96954303D01*
X114605110Y-96958152D01*
X114605106Y-96958156D01*
X114491253Y-97084603D01*
X114480789Y-97096225D01*
X114478194Y-97100720D01*
X114387896Y-97257119D01*
X114387894Y-97257124D01*
X114385302Y-97261613D01*
X114368577Y-97313086D01*
X114327889Y-97438309D01*
X114327888Y-97438314D01*
X114326287Y-97443241D01*
X114306325Y-97633169D01*
X114326287Y-97823097D01*
X114327888Y-97828024D01*
X114327889Y-97828029D01*
X114359119Y-97924142D01*
X114385302Y-98004725D01*
X114387894Y-98009214D01*
X114387896Y-98009219D01*
X114446664Y-98111007D01*
X114480789Y-98170113D01*
X114518728Y-98212248D01*
X114540900Y-98236873D01*
X114565787Y-98292769D01*
X114566329Y-98303117D01*
X114566329Y-99028870D01*
X114547422Y-99087061D01*
X114524113Y-99109966D01*
X114387791Y-99205420D01*
X114249833Y-99343378D01*
X114195316Y-99371155D01*
X114134884Y-99361584D01*
X114109825Y-99343378D01*
X113971867Y-99205420D01*
X113835545Y-99109966D01*
X113798723Y-99061101D01*
X113793329Y-99028870D01*
X113793329Y-98192932D01*
X113793768Y-98183617D01*
X113794172Y-98179340D01*
X113795531Y-98173261D01*
X113793378Y-98104757D01*
X113793329Y-98101647D01*
X113793329Y-98073313D01*
X113792664Y-98068047D01*
X113791932Y-98058747D01*
X113790699Y-98019505D01*
X113790699Y-98019502D01*
X113790503Y-98013280D01*
X113784256Y-97991777D01*
X113781107Y-97976569D01*
X113779084Y-97960551D01*
X113779083Y-97960548D01*
X113778303Y-97954372D01*
X113761559Y-97912082D01*
X113758539Y-97903259D01*
X113747587Y-97865560D01*
X113747585Y-97865556D01*
X113745848Y-97859576D01*
X113734451Y-97840304D01*
X113727619Y-97826358D01*
X113726328Y-97823097D01*
X113719381Y-97805552D01*
X113692641Y-97768748D01*
X113687522Y-97760953D01*
X113667544Y-97727172D01*
X113667543Y-97727171D01*
X113664371Y-97721807D01*
X113648544Y-97705980D01*
X113638455Y-97694167D01*
X113628960Y-97681098D01*
X113628960Y-97681097D01*
X113625301Y-97676062D01*
X113620505Y-97672094D01*
X113617323Y-97668706D01*
X113591033Y-97611284D01*
X113573913Y-97448399D01*
X113573371Y-97443241D01*
X113571770Y-97438314D01*
X113571769Y-97438309D01*
X113531081Y-97313086D01*
X113514356Y-97261613D01*
X113511764Y-97257124D01*
X113511762Y-97257119D01*
X113421464Y-97100720D01*
X113418869Y-97096225D01*
X113408405Y-97084603D01*
X113294552Y-96958156D01*
X113294548Y-96958152D01*
X113291082Y-96954303D01*
X113136581Y-96842051D01*
X113034106Y-96796427D01*
X112966855Y-96766484D01*
X112966851Y-96766483D01*
X112962117Y-96764375D01*
X112957047Y-96763297D01*
X112957046Y-96763297D01*
X112921912Y-96755829D01*
X112775316Y-96724669D01*
X112584342Y-96724669D01*
X112437746Y-96755829D01*
X112402612Y-96763297D01*
X112402611Y-96763297D01*
X112397541Y-96764375D01*
X112392807Y-96766483D01*
X112392803Y-96766484D01*
X112325552Y-96796427D01*
X112223077Y-96842051D01*
X112068576Y-96954303D01*
X112065110Y-96958152D01*
X112065106Y-96958156D01*
X111951253Y-97084603D01*
X111940789Y-97096225D01*
X111938194Y-97100720D01*
X111847896Y-97257119D01*
X111847894Y-97257124D01*
X111845302Y-97261613D01*
X111828577Y-97313086D01*
X111787889Y-97438309D01*
X111787888Y-97438314D01*
X111786287Y-97443241D01*
X111766325Y-97633169D01*
X111786287Y-97823097D01*
X111787888Y-97828024D01*
X111787889Y-97828029D01*
X111819119Y-97924142D01*
X111845302Y-98004725D01*
X111847894Y-98009214D01*
X111847896Y-98009219D01*
X111906664Y-98111007D01*
X111940789Y-98170113D01*
X111944261Y-98173969D01*
X112065106Y-98308182D01*
X112065110Y-98308186D01*
X112068576Y-98312035D01*
X112223077Y-98424287D01*
X112290901Y-98454484D01*
X112392803Y-98499854D01*
X112392807Y-98499855D01*
X112397541Y-98501963D01*
X112402616Y-98503042D01*
X112402620Y-98503043D01*
X112447913Y-98512671D01*
X112500901Y-98543264D01*
X112525787Y-98599159D01*
X112526329Y-98609507D01*
X112526329Y-99028870D01*
X112507422Y-99087061D01*
X112484113Y-99109966D01*
X112347791Y-99205420D01*
X112192080Y-99361131D01*
X112065773Y-99541516D01*
X111972709Y-99741093D01*
X111915714Y-99953798D01*
X111896522Y-100173169D01*
X111915714Y-100392540D01*
X111972709Y-100605245D01*
X112065773Y-100804822D01*
X112192080Y-100985207D01*
X112347791Y-101140918D01*
X112528175Y-101267225D01*
X112532087Y-101269049D01*
X112681406Y-101338677D01*
X112727753Y-101360289D01*
X112940458Y-101417284D01*
X113159829Y-101436476D01*
X113379200Y-101417284D01*
X113591905Y-101360289D01*
X113638253Y-101338677D01*
X113787571Y-101269049D01*
X113791483Y-101267225D01*
X113971867Y-101140918D01*
X114109825Y-101002960D01*
X114164342Y-100975183D01*
X114224774Y-100984754D01*
X114249833Y-101002960D01*
X114387791Y-101140918D01*
X114568175Y-101267225D01*
X114572087Y-101269049D01*
X114721406Y-101338677D01*
X114767753Y-101360289D01*
X114980458Y-101417284D01*
X115199829Y-101436476D01*
X115419200Y-101417284D01*
X115631905Y-101360289D01*
X115678253Y-101338677D01*
X115827571Y-101269049D01*
X115831483Y-101267225D01*
X116011867Y-101140918D01*
X116149825Y-101002960D01*
X116204342Y-100975183D01*
X116264774Y-100984754D01*
X116289833Y-101002960D01*
X116427791Y-101140918D01*
X116608175Y-101267225D01*
X116612087Y-101269049D01*
X116761406Y-101338677D01*
X116807753Y-101360289D01*
X117020458Y-101417284D01*
X117239829Y-101436476D01*
X117459200Y-101417284D01*
X117671905Y-101360289D01*
X117718253Y-101338677D01*
X117867571Y-101269049D01*
X117871483Y-101267225D01*
X118051867Y-101140918D01*
X118189825Y-101002960D01*
X118244342Y-100975183D01*
X118304774Y-100984754D01*
X118329833Y-101002960D01*
X118467791Y-101140918D01*
X118648175Y-101267225D01*
X118652087Y-101269049D01*
X118801406Y-101338677D01*
X118847753Y-101360289D01*
X119060458Y-101417284D01*
X119083402Y-101419291D01*
X119134156Y-101423732D01*
X119190477Y-101447639D01*
X119221990Y-101500085D01*
X119216657Y-101561038D01*
X119195531Y-101592359D01*
X119192212Y-101595678D01*
X119186568Y-101599908D01*
X119182338Y-101605552D01*
X119182334Y-101605556D01*
X119133054Y-101671310D01*
X119083026Y-101706535D01*
X119021848Y-101705627D01*
X118997057Y-101693037D01*
X118891483Y-101619113D01*
X118705701Y-101532482D01*
X118695819Y-101527874D01*
X118695818Y-101527874D01*
X118691905Y-101526049D01*
X118479200Y-101469054D01*
X118259829Y-101449862D01*
X118040458Y-101469054D01*
X117827753Y-101526049D01*
X117823840Y-101527874D01*
X117823839Y-101527874D01*
X117813957Y-101532482D01*
X117628176Y-101619113D01*
X117624643Y-101621587D01*
X117624638Y-101621590D01*
X117553631Y-101671310D01*
X117447791Y-101745420D01*
X117309833Y-101883378D01*
X117255316Y-101911155D01*
X117194884Y-101901584D01*
X117169825Y-101883378D01*
X117031867Y-101745420D01*
X116851483Y-101619113D01*
X116665701Y-101532482D01*
X116655819Y-101527874D01*
X116655818Y-101527874D01*
X116651905Y-101526049D01*
X116439200Y-101469054D01*
X116219829Y-101449862D01*
X116000458Y-101469054D01*
X115787753Y-101526049D01*
X115783840Y-101527874D01*
X115783839Y-101527874D01*
X115773957Y-101532482D01*
X115588176Y-101619113D01*
X115584643Y-101621587D01*
X115584638Y-101621590D01*
X115513631Y-101671310D01*
X115407791Y-101745420D01*
X115269833Y-101883378D01*
X115215316Y-101911155D01*
X115154884Y-101901584D01*
X115129825Y-101883378D01*
X114991867Y-101745420D01*
X114811483Y-101619113D01*
X114625701Y-101532482D01*
X114615819Y-101527874D01*
X114615818Y-101527874D01*
X114611905Y-101526049D01*
X114399200Y-101469054D01*
X114179829Y-101449862D01*
X113960458Y-101469054D01*
X113747753Y-101526049D01*
X113743840Y-101527874D01*
X113743839Y-101527874D01*
X113733957Y-101532482D01*
X113548176Y-101619113D01*
X113544643Y-101621587D01*
X113544638Y-101621590D01*
X113473631Y-101671310D01*
X113367791Y-101745420D01*
X113212080Y-101901131D01*
X113085773Y-102081516D01*
X112992709Y-102281093D01*
X112935714Y-102493798D01*
X112916522Y-102713169D01*
X112935714Y-102932540D01*
X112992709Y-103145245D01*
X113085773Y-103344822D01*
X113212080Y-103525207D01*
X113367791Y-103680918D01*
X113440338Y-103731716D01*
X113504113Y-103776372D01*
X113540935Y-103825237D01*
X113546329Y-103857468D01*
X113546329Y-104133407D01*
X113545890Y-104142721D01*
X113545486Y-104147000D01*
X113544127Y-104153078D01*
X113545838Y-104207518D01*
X113546280Y-104221568D01*
X113546329Y-104224679D01*
X113546329Y-104253025D01*
X113546719Y-104256111D01*
X113546719Y-104256114D01*
X113546995Y-104258300D01*
X113547727Y-104267595D01*
X113549156Y-104313058D01*
X113555402Y-104334556D01*
X113558548Y-104349748D01*
X113561355Y-104371966D01*
X113563647Y-104377755D01*
X113578103Y-104414266D01*
X113581122Y-104423086D01*
X113593811Y-104466762D01*
X113596979Y-104472119D01*
X113596981Y-104472123D01*
X113605204Y-104486026D01*
X113612036Y-104499970D01*
X113620277Y-104520786D01*
X113647023Y-104557599D01*
X113652123Y-104565363D01*
X113675287Y-104604531D01*
X113691114Y-104620358D01*
X113701202Y-104632170D01*
X113714357Y-104650276D01*
X113719152Y-104654242D01*
X113719154Y-104654245D01*
X113749401Y-104679267D01*
X113756300Y-104685544D01*
X118525490Y-109454735D01*
X118531767Y-109461635D01*
X118534493Y-109464930D01*
X118537829Y-109470187D01*
X118542365Y-109474446D01*
X118542367Y-109474449D01*
X118587759Y-109517074D01*
X118589993Y-109519238D01*
X118610059Y-109539304D01*
X118612515Y-109541209D01*
X118614265Y-109542567D01*
X118621352Y-109548620D01*
X118654508Y-109579755D01*
X118659963Y-109582754D01*
X118674119Y-109590537D01*
X118687102Y-109599065D01*
X118699865Y-109608965D01*
X118699868Y-109608967D01*
X118704788Y-109612783D01*
X118710508Y-109615258D01*
X118710511Y-109615260D01*
X118746535Y-109630850D01*
X118754909Y-109634952D01*
X118789311Y-109653864D01*
X118789314Y-109653865D01*
X118794769Y-109656864D01*
X118800795Y-109658411D01*
X118800802Y-109658414D01*
X118816451Y-109662432D01*
X118831144Y-109667462D01*
X118839563Y-109671105D01*
X118851684Y-109676350D01*
X118885100Y-109681643D01*
X118896609Y-109683466D01*
X118905739Y-109685357D01*
X118943769Y-109695121D01*
X118943770Y-109695121D01*
X118949799Y-109696669D01*
X118972180Y-109696669D01*
X118987667Y-109697888D01*
X119003620Y-109700415D01*
X119003623Y-109700415D01*
X119009772Y-109701389D01*
X119055060Y-109697108D01*
X119064377Y-109696669D01*
X126062067Y-109696669D01*
X126071381Y-109697108D01*
X126075660Y-109697512D01*
X126081738Y-109698871D01*
X126150228Y-109696718D01*
X126153339Y-109696669D01*
X126181685Y-109696669D01*
X126184771Y-109696279D01*
X126184774Y-109696279D01*
X126186960Y-109696003D01*
X126196255Y-109695271D01*
X126212276Y-109694768D01*
X126235492Y-109694038D01*
X126235494Y-109694038D01*
X126241718Y-109693842D01*
X126263216Y-109687596D01*
X126278408Y-109684450D01*
X126300626Y-109681643D01*
X126311535Y-109677324D01*
X126342926Y-109664895D01*
X126351746Y-109661876D01*
X126395422Y-109649187D01*
X126400779Y-109646019D01*
X126400783Y-109646017D01*
X126414686Y-109637794D01*
X126428630Y-109630962D01*
X126449446Y-109622721D01*
X126486259Y-109595975D01*
X126494023Y-109590875D01*
X126533191Y-109567711D01*
X126549018Y-109551884D01*
X126560831Y-109541795D01*
X126573900Y-109532300D01*
X126573901Y-109532300D01*
X126578936Y-109528641D01*
X126582902Y-109523846D01*
X126582905Y-109523844D01*
X126607927Y-109493597D01*
X126614204Y-109486698D01*
X134153385Y-101947517D01*
X134160283Y-101941241D01*
X134163589Y-101938506D01*
X134168847Y-101935169D01*
X134215750Y-101885222D01*
X134217913Y-101882989D01*
X134237963Y-101862939D01*
X134239858Y-101860496D01*
X134239864Y-101860489D01*
X134241216Y-101858745D01*
X134247279Y-101851646D01*
X134274154Y-101823028D01*
X134274156Y-101823026D01*
X134278415Y-101818490D01*
X134289199Y-101798874D01*
X134297730Y-101785887D01*
X134307623Y-101773133D01*
X134311442Y-101768210D01*
X134319983Y-101748474D01*
X134329504Y-101726473D01*
X134333606Y-101718100D01*
X134352524Y-101683687D01*
X134352525Y-101683684D01*
X134355524Y-101678229D01*
X134357072Y-101672200D01*
X134361091Y-101656547D01*
X134366124Y-101641849D01*
X134372534Y-101627036D01*
X134372534Y-101627035D01*
X134375010Y-101621314D01*
X134382124Y-101576397D01*
X134384015Y-101567265D01*
X134385614Y-101561038D01*
X134395329Y-101523199D01*
X134395329Y-101500811D01*
X134396548Y-101485324D01*
X134399074Y-101469377D01*
X134399074Y-101469375D01*
X134400048Y-101463226D01*
X134395768Y-101417945D01*
X134395329Y-101408629D01*
X134395329Y-67039592D01*
X134395768Y-67030277D01*
X134396172Y-67026000D01*
X134397531Y-67019921D01*
X134395378Y-66951417D01*
X134395329Y-66948307D01*
X134395329Y-66919973D01*
X134394664Y-66914707D01*
X134393932Y-66905407D01*
X134392699Y-66866165D01*
X134392699Y-66866162D01*
X134392503Y-66859940D01*
X134386256Y-66838437D01*
X134383107Y-66823229D01*
X134381084Y-66807211D01*
X134381083Y-66807208D01*
X134380303Y-66801032D01*
X134363559Y-66758742D01*
X134360539Y-66749919D01*
X134349587Y-66712220D01*
X134349585Y-66712216D01*
X134347848Y-66706236D01*
X134336451Y-66686964D01*
X134329619Y-66673018D01*
X134323673Y-66658001D01*
X134321381Y-66652212D01*
X134294641Y-66615408D01*
X134289522Y-66607613D01*
X134269544Y-66573832D01*
X134269543Y-66573831D01*
X134266371Y-66568467D01*
X134250544Y-66552640D01*
X134240455Y-66540827D01*
X134230960Y-66527758D01*
X134230960Y-66527757D01*
X134227301Y-66522722D01*
X134222506Y-66518756D01*
X134222504Y-66518753D01*
X134192257Y-66493731D01*
X134185358Y-66487454D01*
X130326339Y-62628434D01*
X130320062Y-62621534D01*
X130317336Y-62618239D01*
X130314000Y-62612982D01*
X130309464Y-62608723D01*
X130309462Y-62608720D01*
X130264070Y-62566095D01*
X130261836Y-62563931D01*
X130241770Y-62543865D01*
X130239212Y-62541881D01*
X130237564Y-62540602D01*
X130230477Y-62534549D01*
X130212009Y-62517207D01*
X130197321Y-62503414D01*
X130190579Y-62499708D01*
X130177710Y-62492632D01*
X130164727Y-62484104D01*
X130151964Y-62474204D01*
X130151961Y-62474202D01*
X130147041Y-62470386D01*
X130141321Y-62467911D01*
X130141318Y-62467909D01*
X130105294Y-62452319D01*
X130096920Y-62448217D01*
X130062518Y-62429305D01*
X130062515Y-62429304D01*
X130057060Y-62426305D01*
X130051034Y-62424758D01*
X130051027Y-62424755D01*
X130035378Y-62420737D01*
X130020685Y-62415707D01*
X130005860Y-62409292D01*
X130005859Y-62409292D01*
X130000145Y-62406819D01*
X129955221Y-62399703D01*
X129946090Y-62397812D01*
X129908060Y-62388048D01*
X129908059Y-62388048D01*
X129902030Y-62386500D01*
X129879649Y-62386500D01*
X129864162Y-62385281D01*
X129848209Y-62382754D01*
X129848206Y-62382754D01*
X129842057Y-62381780D01*
X129817927Y-62384061D01*
X129796769Y-62386061D01*
X129787452Y-62386500D01*
X125541859Y-62386500D01*
X125531209Y-62385830D01*
X125526030Y-62384500D01*
X125503649Y-62384500D01*
X125488162Y-62383281D01*
X125472209Y-62380754D01*
X125472206Y-62380754D01*
X125466057Y-62379780D01*
X125434596Y-62382754D01*
X125420769Y-62384061D01*
X125411452Y-62384500D01*
X124769244Y-62384500D01*
X124711053Y-62365593D01*
X124682406Y-62333040D01*
X124679589Y-62327894D01*
X124677115Y-62321295D01*
X124589761Y-62204739D01*
X124473205Y-62117385D01*
X124336816Y-62066255D01*
X124330644Y-62065585D01*
X124330642Y-62065584D01*
X124283572Y-62060471D01*
X124274634Y-62059500D01*
X122678366Y-62059500D01*
X122669428Y-62060471D01*
X122622358Y-62065584D01*
X122622356Y-62065585D01*
X122616184Y-62066255D01*
X122479795Y-62117385D01*
X122363239Y-62204739D01*
X122275885Y-62321295D01*
X122224755Y-62457684D01*
X122224085Y-62463856D01*
X122224084Y-62463858D01*
X122220176Y-62499837D01*
X122218000Y-62519866D01*
X122218000Y-63516134D01*
X122224755Y-63578316D01*
X122226935Y-63584131D01*
X122239725Y-63618248D01*
X122242448Y-63679373D01*
X122239725Y-63687751D01*
X122224755Y-63727684D01*
X122224085Y-63733856D01*
X122224084Y-63733858D01*
X122222332Y-63749989D01*
X122218000Y-63789866D01*
X122218000Y-64786134D01*
X122219895Y-64803574D01*
X122207384Y-64863464D01*
X122162058Y-64904565D01*
X122101231Y-64911174D01*
X122047903Y-64880511D01*
X122026722Y-64856987D01*
X122023253Y-64853134D01*
X121868752Y-64740882D01*
X121766277Y-64695258D01*
X121699026Y-64665315D01*
X121699022Y-64665314D01*
X121694288Y-64663206D01*
X121689218Y-64662128D01*
X121689217Y-64662128D01*
X121654083Y-64654660D01*
X121507487Y-64623500D01*
X121316513Y-64623500D01*
X121169917Y-64654660D01*
X121134783Y-64662128D01*
X121134782Y-64662128D01*
X121129712Y-64663206D01*
X121124978Y-64665314D01*
X121124974Y-64665315D01*
X121057723Y-64695258D01*
X120955248Y-64740882D01*
X120800747Y-64853134D01*
X120797281Y-64856983D01*
X120797277Y-64856987D01*
X120694350Y-64971300D01*
X120672960Y-64995056D01*
X120670365Y-64999551D01*
X120580067Y-65155950D01*
X120580065Y-65155955D01*
X120577473Y-65160444D01*
X120575871Y-65165375D01*
X120520060Y-65337140D01*
X120520059Y-65337145D01*
X120518458Y-65342072D01*
X120498496Y-65532000D01*
X120518458Y-65721928D01*
X120520059Y-65726855D01*
X120520060Y-65726860D01*
X120560748Y-65852083D01*
X120577473Y-65903556D01*
X120580065Y-65908045D01*
X120580067Y-65908050D01*
X120638007Y-66008404D01*
X120672960Y-66068944D01*
X120676432Y-66072800D01*
X120797277Y-66207013D01*
X120797281Y-66207017D01*
X120800747Y-66210866D01*
X120878950Y-66267684D01*
X120955248Y-66323118D01*
X120953776Y-66325144D01*
X120988151Y-66363320D01*
X120994547Y-66424170D01*
X120971283Y-66469831D01*
X120926960Y-66519056D01*
X120910750Y-66547132D01*
X120834067Y-66679950D01*
X120834065Y-66679955D01*
X120831473Y-66684444D01*
X120829871Y-66689375D01*
X120774060Y-66861140D01*
X120774059Y-66861145D01*
X120772458Y-66866072D01*
X120752496Y-67056000D01*
X120772458Y-67245928D01*
X120774059Y-67250855D01*
X120774060Y-67250860D01*
X120808861Y-67357964D01*
X120831473Y-67427556D01*
X120834065Y-67432045D01*
X120834067Y-67432050D01*
X120900959Y-67547909D01*
X120926960Y-67592944D01*
X120930432Y-67596800D01*
X121051277Y-67731013D01*
X121051281Y-67731017D01*
X121054747Y-67734866D01*
X121209248Y-67847118D01*
X121290748Y-67883404D01*
X121378974Y-67922685D01*
X121378978Y-67922686D01*
X121383712Y-67924794D01*
X121388782Y-67925872D01*
X121388783Y-67925872D01*
X121392439Y-67926649D01*
X121570513Y-67964500D01*
X121761487Y-67964500D01*
X121939561Y-67926649D01*
X121943217Y-67925872D01*
X121943218Y-67925872D01*
X121948288Y-67924794D01*
X121953022Y-67922686D01*
X121953026Y-67922685D01*
X122041252Y-67883404D01*
X122078734Y-67866716D01*
X122139583Y-67860320D01*
X122192571Y-67890913D01*
X122217458Y-67946809D01*
X122218000Y-67957157D01*
X122218000Y-68596134D01*
X122224755Y-68658316D01*
X122226935Y-68664131D01*
X122239725Y-68698248D01*
X122242448Y-68759373D01*
X122239725Y-68767751D01*
X122224755Y-68807684D01*
X122224085Y-68813856D01*
X122224084Y-68813858D01*
X122221115Y-68841192D01*
X122218000Y-68869866D01*
X122218000Y-69866134D01*
X122218289Y-69868793D01*
X122223949Y-69920893D01*
X122224755Y-69928316D01*
X122238016Y-69963688D01*
X122239725Y-69968248D01*
X122242448Y-70029373D01*
X122239725Y-70037751D01*
X122224755Y-70077684D01*
X122224085Y-70083856D01*
X122224084Y-70083858D01*
X122220256Y-70119097D01*
X122218000Y-70139866D01*
X122218000Y-71136134D01*
X122224755Y-71198316D01*
X122226935Y-71204131D01*
X122239725Y-71238248D01*
X122242448Y-71299373D01*
X122239725Y-71307751D01*
X122224755Y-71347684D01*
X122224085Y-71353856D01*
X122224084Y-71353858D01*
X122221366Y-71378879D01*
X122218000Y-71409866D01*
X122218000Y-72406134D01*
X122218289Y-72408793D01*
X122223634Y-72457993D01*
X122224755Y-72468316D01*
X122226935Y-72474131D01*
X122239725Y-72508248D01*
X122242448Y-72569373D01*
X122239725Y-72577751D01*
X122224755Y-72617684D01*
X122224085Y-72623856D01*
X122224084Y-72623858D01*
X122222722Y-72636399D01*
X122218000Y-72679866D01*
X122218000Y-73676134D01*
X122218289Y-73678793D01*
X122223780Y-73729338D01*
X122224755Y-73738316D01*
X122227671Y-73746093D01*
X122239725Y-73778248D01*
X122242448Y-73839373D01*
X122239725Y-73847751D01*
X122224755Y-73887684D01*
X122224085Y-73893856D01*
X122224084Y-73893858D01*
X122220176Y-73929837D01*
X122218000Y-73949866D01*
X122218000Y-74946134D01*
X122224755Y-75008316D01*
X122226935Y-75014131D01*
X122239725Y-75048248D01*
X122242448Y-75109373D01*
X122239725Y-75117751D01*
X122224755Y-75157684D01*
X122224085Y-75163856D01*
X122224084Y-75163858D01*
X122223375Y-75170386D01*
X122218000Y-75219866D01*
X122218000Y-76216134D01*
X122224755Y-76278316D01*
X122226935Y-76284131D01*
X122239725Y-76318248D01*
X122242448Y-76379373D01*
X122239725Y-76387751D01*
X122224755Y-76427684D01*
X122218000Y-76489866D01*
X122218000Y-77244290D01*
X122199093Y-77302481D01*
X122149593Y-77338445D01*
X122098417Y-77341127D01*
X122045836Y-77329951D01*
X122015487Y-77323500D01*
X121824513Y-77323500D01*
X121690705Y-77351942D01*
X121642783Y-77362128D01*
X121642782Y-77362128D01*
X121637712Y-77363206D01*
X121632978Y-77365314D01*
X121632974Y-77365315D01*
X121565723Y-77395258D01*
X121463248Y-77440882D01*
X121308747Y-77553134D01*
X121305281Y-77556983D01*
X121305277Y-77556987D01*
X121212589Y-77659928D01*
X121180960Y-77695056D01*
X121178365Y-77699551D01*
X121088067Y-77855950D01*
X121088065Y-77855955D01*
X121085473Y-77860444D01*
X121083871Y-77865375D01*
X121028060Y-78037140D01*
X121028059Y-78037145D01*
X121026458Y-78042072D01*
X121025916Y-78047230D01*
X121013974Y-78160848D01*
X120989087Y-78216744D01*
X120936099Y-78247337D01*
X120915516Y-78249500D01*
X120558913Y-78249500D01*
X120500722Y-78230593D01*
X120488909Y-78220504D01*
X114520839Y-72252434D01*
X114514562Y-72245534D01*
X114511836Y-72242239D01*
X114508500Y-72236982D01*
X114503964Y-72232723D01*
X114503962Y-72232720D01*
X114458570Y-72190095D01*
X114456336Y-72187931D01*
X114436270Y-72167865D01*
X114433712Y-72165881D01*
X114432064Y-72164602D01*
X114424977Y-72158549D01*
X114400964Y-72136000D01*
X114391821Y-72127414D01*
X114385079Y-72123708D01*
X114372210Y-72116632D01*
X114359227Y-72108104D01*
X114346464Y-72098204D01*
X114346461Y-72098202D01*
X114341541Y-72094386D01*
X114335821Y-72091911D01*
X114335818Y-72091909D01*
X114299794Y-72076319D01*
X114291420Y-72072217D01*
X114257018Y-72053305D01*
X114257015Y-72053304D01*
X114251560Y-72050305D01*
X114245534Y-72048758D01*
X114245527Y-72048755D01*
X114229878Y-72044737D01*
X114215185Y-72039707D01*
X114200360Y-72033292D01*
X114200359Y-72033292D01*
X114194645Y-72030819D01*
X114149721Y-72023703D01*
X114140590Y-72021812D01*
X114102560Y-72012048D01*
X114102559Y-72012048D01*
X114096530Y-72010500D01*
X114074149Y-72010500D01*
X114058662Y-72009281D01*
X114042709Y-72006754D01*
X114042706Y-72006754D01*
X114036557Y-72005780D01*
X113999521Y-72009281D01*
X113991269Y-72010061D01*
X113981952Y-72010500D01*
X111190912Y-72010500D01*
X111132721Y-71991593D01*
X111120908Y-71981504D01*
X109144360Y-70004955D01*
X109115906Y-69945299D01*
X109115686Y-69943199D01*
X109097542Y-69770572D01*
X109095941Y-69765645D01*
X109095940Y-69765640D01*
X109040129Y-69593875D01*
X109038527Y-69588944D01*
X109035935Y-69584455D01*
X109035933Y-69584450D01*
X108945635Y-69428051D01*
X108943040Y-69423556D01*
X108923668Y-69402041D01*
X108818723Y-69285487D01*
X108818719Y-69285483D01*
X108815253Y-69281634D01*
X108660752Y-69169382D01*
X108539479Y-69115388D01*
X108491026Y-69093815D01*
X108491022Y-69093814D01*
X108486288Y-69091706D01*
X108481218Y-69090628D01*
X108481217Y-69090628D01*
X108397827Y-69072903D01*
X108299487Y-69052000D01*
X108108513Y-69052000D01*
X108010173Y-69072903D01*
X107926783Y-69090628D01*
X107926782Y-69090628D01*
X107921712Y-69091706D01*
X107916978Y-69093814D01*
X107916974Y-69093815D01*
X107868521Y-69115388D01*
X107747248Y-69169382D01*
X107592747Y-69281634D01*
X107589281Y-69285483D01*
X107589277Y-69285487D01*
X107484332Y-69402041D01*
X107464960Y-69423556D01*
X107462365Y-69428051D01*
X107419736Y-69501886D01*
X107374267Y-69542827D01*
X107313417Y-69549223D01*
X107260429Y-69518630D01*
X107235542Y-69462734D01*
X107235000Y-69452386D01*
X107235000Y-68869866D01*
X107231885Y-68841192D01*
X107228916Y-68813858D01*
X107228915Y-68813856D01*
X107228245Y-68807684D01*
X107213275Y-68767752D01*
X107210552Y-68706627D01*
X107213275Y-68698248D01*
X107226065Y-68664131D01*
X107228245Y-68658316D01*
X107235000Y-68596134D01*
X107235000Y-67599866D01*
X107232161Y-67573730D01*
X107228916Y-67543858D01*
X107228915Y-67543856D01*
X107228245Y-67537684D01*
X107213275Y-67497752D01*
X107210552Y-67436627D01*
X107213275Y-67428248D01*
X107225330Y-67396093D01*
X107228245Y-67388316D01*
X107231923Y-67354464D01*
X107234711Y-67328793D01*
X107235000Y-67326134D01*
X107235000Y-66329866D01*
X107228245Y-66267684D01*
X107213275Y-66227752D01*
X107210552Y-66166627D01*
X107213275Y-66158248D01*
X107226065Y-66124131D01*
X107228245Y-66118316D01*
X107235000Y-66056134D01*
X107235000Y-65059866D01*
X107228245Y-64997684D01*
X107213275Y-64957752D01*
X107210552Y-64896627D01*
X107213275Y-64888248D01*
X107216176Y-64880511D01*
X107228245Y-64848316D01*
X107235000Y-64786134D01*
X107235000Y-63789866D01*
X107230668Y-63749989D01*
X107228916Y-63733858D01*
X107228915Y-63733856D01*
X107228245Y-63727684D01*
X107213275Y-63687752D01*
X107210552Y-63626627D01*
X107213275Y-63618248D01*
X107226065Y-63584131D01*
X107228245Y-63578316D01*
X107235000Y-63516134D01*
X107235000Y-62519866D01*
X107232824Y-62499837D01*
X107228916Y-62463858D01*
X107228915Y-62463856D01*
X107228245Y-62457684D01*
X107177115Y-62321295D01*
X107089761Y-62204739D01*
X106973205Y-62117385D01*
X106836816Y-62066255D01*
X106830644Y-62065585D01*
X106830642Y-62065584D01*
X106783572Y-62060471D01*
X106774634Y-62059500D01*
X105955080Y-62059500D01*
X105896889Y-62040593D01*
X105887310Y-62032668D01*
X105884570Y-62030095D01*
X105882336Y-62027931D01*
X105862270Y-62007865D01*
X105859059Y-62005374D01*
X105858064Y-62004602D01*
X105850977Y-61998549D01*
X105835330Y-61983856D01*
X105817821Y-61967414D01*
X105811079Y-61963708D01*
X105798210Y-61956632D01*
X105785227Y-61948104D01*
X105772464Y-61938204D01*
X105772461Y-61938202D01*
X105767541Y-61934386D01*
X105761821Y-61931911D01*
X105761818Y-61931909D01*
X105725794Y-61916319D01*
X105717420Y-61912217D01*
X105683018Y-61893305D01*
X105683015Y-61893304D01*
X105677560Y-61890305D01*
X105671534Y-61888758D01*
X105671527Y-61888755D01*
X105655878Y-61884737D01*
X105641185Y-61879707D01*
X105626360Y-61873292D01*
X105626359Y-61873292D01*
X105620645Y-61870819D01*
X105575721Y-61863703D01*
X105566590Y-61861812D01*
X105528560Y-61852048D01*
X105528559Y-61852048D01*
X105522530Y-61850500D01*
X105500149Y-61850500D01*
X105484662Y-61849281D01*
X105468709Y-61846754D01*
X105468706Y-61846754D01*
X105462557Y-61845780D01*
X105425521Y-61849281D01*
X105417269Y-61850061D01*
X105407952Y-61850500D01*
X100155762Y-61850500D01*
X100146447Y-61850061D01*
X100142170Y-61849657D01*
X100136091Y-61848298D01*
X100068096Y-61850435D01*
X100067587Y-61850451D01*
X100064477Y-61850500D01*
X94047262Y-61850500D01*
X94037947Y-61850061D01*
X94033670Y-61849657D01*
X94027591Y-61848298D01*
X93959596Y-61850435D01*
X93959087Y-61850451D01*
X93955977Y-61850500D01*
X93927644Y-61850500D01*
X93924556Y-61850890D01*
X93922378Y-61851165D01*
X93913083Y-61851897D01*
X93897467Y-61852388D01*
X93873835Y-61853130D01*
X93873832Y-61853130D01*
X93867611Y-61853326D01*
X93849780Y-61858507D01*
X93846113Y-61859572D01*
X93830900Y-61862722D01*
X93814885Y-61864745D01*
X93814884Y-61864745D01*
X93808703Y-61865526D01*
X93766405Y-61882272D01*
X93757600Y-61885287D01*
X93713907Y-61897982D01*
X93708545Y-61901153D01*
X93708543Y-61901154D01*
X93694643Y-61909375D01*
X93680699Y-61916207D01*
X93659883Y-61924448D01*
X93623070Y-61951194D01*
X93615306Y-61956294D01*
X93576138Y-61979458D01*
X93560311Y-61995285D01*
X93548499Y-62005373D01*
X93530393Y-62018528D01*
X93526427Y-62023323D01*
X93526424Y-62023325D01*
X93501402Y-62053572D01*
X93495125Y-62060471D01*
X92913091Y-62642505D01*
X92858574Y-62670282D01*
X92843087Y-62671501D01*
X92751512Y-62671501D01*
X92749568Y-62671654D01*
X92749567Y-62671654D01*
X92720076Y-62673974D01*
X92720073Y-62673975D01*
X92715034Y-62674371D01*
X92710178Y-62675782D01*
X92710177Y-62675782D01*
X92564889Y-62717992D01*
X92564888Y-62717993D01*
X92558904Y-62719731D01*
X92553543Y-62722902D01*
X92553535Y-62722905D01*
X92491895Y-62759359D01*
X92432183Y-62772707D01*
X92391105Y-62759359D01*
X92329465Y-62722905D01*
X92329457Y-62722902D01*
X92324096Y-62719731D01*
X92318112Y-62717993D01*
X92318111Y-62717992D01*
X92263986Y-62702267D01*
X92167966Y-62674371D01*
X92162924Y-62673974D01*
X92162923Y-62673974D01*
X92157872Y-62673577D01*
X92131489Y-62671500D01*
X91931654Y-62671500D01*
X91731512Y-62671501D01*
X91729568Y-62671654D01*
X91729567Y-62671654D01*
X91700076Y-62673974D01*
X91700073Y-62673975D01*
X91695034Y-62674371D01*
X91690178Y-62675782D01*
X91690177Y-62675782D01*
X91544889Y-62717992D01*
X91544888Y-62717993D01*
X91538904Y-62719731D01*
X91471897Y-62759359D01*
X91404317Y-62799325D01*
X91404315Y-62799326D01*
X91398959Y-62802494D01*
X91363949Y-62837504D01*
X91309432Y-62865281D01*
X91293945Y-62866500D01*
X89510723Y-62866500D01*
X89452532Y-62847593D01*
X89426538Y-62819596D01*
X89410592Y-62793827D01*
X89407571Y-62788945D01*
X89287553Y-62669136D01*
X89282657Y-62666118D01*
X89148087Y-62583168D01*
X89148085Y-62583167D01*
X89143192Y-62580151D01*
X89137735Y-62578341D01*
X89137733Y-62578340D01*
X88987362Y-62528464D01*
X88987363Y-62528464D01*
X88982231Y-62526762D01*
X88882072Y-62516500D01*
X88347928Y-62516500D01*
X88246518Y-62527022D01*
X88241383Y-62528735D01*
X88241379Y-62528736D01*
X88135889Y-62563931D01*
X88085651Y-62580692D01*
X88005763Y-62630128D01*
X87947604Y-62666118D01*
X87941445Y-62669929D01*
X87821636Y-62789947D01*
X87818618Y-62794843D01*
X87775200Y-62865281D01*
X87732651Y-62934308D01*
X87730841Y-62939765D01*
X87730840Y-62939767D01*
X87693465Y-63052450D01*
X87679262Y-63095269D01*
X87669000Y-63195428D01*
X87669000Y-63804572D01*
X87679522Y-63905982D01*
X87681235Y-63911117D01*
X87681236Y-63911121D01*
X87720100Y-64027608D01*
X87733192Y-64066849D01*
X87822429Y-64211055D01*
X87942447Y-64330864D01*
X87947343Y-64333882D01*
X88079190Y-64415153D01*
X88086808Y-64419849D01*
X88092265Y-64421659D01*
X88092267Y-64421660D01*
X88204950Y-64459035D01*
X88247769Y-64473238D01*
X88347928Y-64483500D01*
X88882072Y-64483500D01*
X88983482Y-64472978D01*
X88988617Y-64471265D01*
X88988621Y-64471264D01*
X89138897Y-64421127D01*
X89144349Y-64419308D01*
X89280021Y-64335352D01*
X89283670Y-64333094D01*
X89288555Y-64330071D01*
X89408364Y-64210053D01*
X89411380Y-64205160D01*
X89411384Y-64205155D01*
X89426550Y-64180551D01*
X89473180Y-64140937D01*
X89510825Y-64133500D01*
X91293945Y-64133500D01*
X91352136Y-64152407D01*
X91363949Y-64162496D01*
X91398959Y-64197506D01*
X91404315Y-64200674D01*
X91404317Y-64200675D01*
X91427055Y-64214122D01*
X91538904Y-64280269D01*
X91544888Y-64282007D01*
X91544889Y-64282008D01*
X91576246Y-64291118D01*
X91695034Y-64325629D01*
X91700076Y-64326026D01*
X91700077Y-64326026D01*
X91705128Y-64326423D01*
X91731511Y-64328500D01*
X91931346Y-64328500D01*
X92131488Y-64328499D01*
X92133433Y-64328346D01*
X92162924Y-64326026D01*
X92162927Y-64326025D01*
X92167966Y-64325629D01*
X92191561Y-64318774D01*
X92318111Y-64282008D01*
X92318112Y-64282007D01*
X92324096Y-64280269D01*
X92329460Y-64277097D01*
X92329465Y-64277095D01*
X92391105Y-64240641D01*
X92450817Y-64227293D01*
X92491895Y-64240641D01*
X92553535Y-64277095D01*
X92553540Y-64277097D01*
X92558904Y-64280269D01*
X92564888Y-64282007D01*
X92564889Y-64282008D01*
X92596246Y-64291118D01*
X92715034Y-64325629D01*
X92720076Y-64326026D01*
X92720077Y-64326026D01*
X92725128Y-64326423D01*
X92751511Y-64328500D01*
X92951346Y-64328500D01*
X93151488Y-64328499D01*
X93153433Y-64328346D01*
X93182924Y-64326026D01*
X93182927Y-64326025D01*
X93187966Y-64325629D01*
X93211561Y-64318774D01*
X93338111Y-64282008D01*
X93338112Y-64282007D01*
X93344096Y-64280269D01*
X93455945Y-64214122D01*
X93478683Y-64200675D01*
X93478685Y-64200674D01*
X93484041Y-64197506D01*
X93599006Y-64082541D01*
X93607515Y-64068154D01*
X93658509Y-63981927D01*
X93681769Y-63942596D01*
X93683988Y-63934960D01*
X93705330Y-63861500D01*
X93727129Y-63786466D01*
X93730000Y-63749989D01*
X93730000Y-63658413D01*
X93748907Y-63600222D01*
X93758996Y-63588409D01*
X94200909Y-63146496D01*
X94255426Y-63118719D01*
X94270913Y-63117500D01*
X96758500Y-63117500D01*
X96816691Y-63136407D01*
X96852655Y-63185907D01*
X96857500Y-63216500D01*
X96857500Y-63798732D01*
X96868113Y-63901019D01*
X96869826Y-63906154D01*
X96869827Y-63906158D01*
X96914748Y-64040800D01*
X96922244Y-64063268D01*
X97012248Y-64208713D01*
X97016317Y-64212775D01*
X97041136Y-64237551D01*
X97133298Y-64329552D01*
X97138195Y-64332571D01*
X97142707Y-64336134D01*
X97141362Y-64337837D01*
X97175064Y-64377510D01*
X97182500Y-64415153D01*
X97182500Y-66724587D01*
X97163593Y-66782778D01*
X97153504Y-66794591D01*
X97146434Y-66801661D01*
X97139534Y-66807938D01*
X97136239Y-66810664D01*
X97130982Y-66814000D01*
X97126723Y-66818536D01*
X97126720Y-66818538D01*
X97084095Y-66863930D01*
X97081931Y-66866164D01*
X97061865Y-66886230D01*
X97059960Y-66888686D01*
X97058602Y-66890436D01*
X97052549Y-66897523D01*
X97021414Y-66930679D01*
X97018415Y-66936134D01*
X97010632Y-66950290D01*
X97002104Y-66963273D01*
X96992204Y-66976036D01*
X96992202Y-66976039D01*
X96988386Y-66980959D01*
X96985911Y-66986679D01*
X96985909Y-66986682D01*
X96970319Y-67022706D01*
X96966217Y-67031080D01*
X96947305Y-67065482D01*
X96947304Y-67065485D01*
X96944305Y-67070940D01*
X96942758Y-67076966D01*
X96942755Y-67076973D01*
X96938737Y-67092622D01*
X96933707Y-67107315D01*
X96924819Y-67127855D01*
X96923845Y-67134005D01*
X96917703Y-67172780D01*
X96915812Y-67181910D01*
X96904500Y-67225970D01*
X96904500Y-67248351D01*
X96903281Y-67263838D01*
X96899780Y-67285943D01*
X96900366Y-67292141D01*
X96904061Y-67331231D01*
X96904500Y-67340548D01*
X96904500Y-67412104D01*
X96885593Y-67470295D01*
X96836093Y-67506259D01*
X96777882Y-67507174D01*
X96754466Y-67500371D01*
X96749424Y-67499974D01*
X96749423Y-67499974D01*
X96744372Y-67499577D01*
X96717989Y-67497500D01*
X96518154Y-67497500D01*
X96318012Y-67497501D01*
X96316068Y-67497654D01*
X96316067Y-67497654D01*
X96286576Y-67499974D01*
X96286573Y-67499975D01*
X96281534Y-67500371D01*
X96276678Y-67501782D01*
X96276677Y-67501782D01*
X96131389Y-67543992D01*
X96131388Y-67543993D01*
X96125404Y-67545731D01*
X96064719Y-67581620D01*
X95990817Y-67625325D01*
X95990815Y-67625326D01*
X95985459Y-67628494D01*
X95870494Y-67743459D01*
X95867326Y-67748815D01*
X95867325Y-67748817D01*
X95860276Y-67760736D01*
X95787731Y-67883404D01*
X95785993Y-67889388D01*
X95785992Y-67889389D01*
X95781323Y-67905459D01*
X95742371Y-68039534D01*
X95739500Y-68076011D01*
X95739501Y-68575988D01*
X95739223Y-68575988D01*
X95722932Y-68633775D01*
X95674885Y-68671659D01*
X95640611Y-68677781D01*
X95499962Y-68677781D01*
X95441771Y-68658874D01*
X95405807Y-68609374D01*
X95401365Y-68581324D01*
X95401504Y-68580000D01*
X95381542Y-68390072D01*
X95379941Y-68385145D01*
X95379940Y-68385140D01*
X95327341Y-68223261D01*
X95322527Y-68208444D01*
X95319935Y-68203955D01*
X95319933Y-68203950D01*
X95232569Y-68052632D01*
X95227040Y-68043056D01*
X95195671Y-68008217D01*
X95102723Y-67904987D01*
X95102719Y-67904983D01*
X95099253Y-67901134D01*
X94944752Y-67788882D01*
X94830271Y-67737912D01*
X94775026Y-67713315D01*
X94775022Y-67713314D01*
X94770288Y-67711206D01*
X94765218Y-67710128D01*
X94765217Y-67710128D01*
X94724785Y-67701534D01*
X94583487Y-67671500D01*
X94392513Y-67671500D01*
X94321525Y-67686589D01*
X94307453Y-67689580D01*
X94271384Y-67690524D01*
X94260210Y-67688754D01*
X94260206Y-67688754D01*
X94254057Y-67687780D01*
X94225029Y-67690524D01*
X94208769Y-67692061D01*
X94199452Y-67692500D01*
X93845055Y-67692500D01*
X93786864Y-67673593D01*
X93775051Y-67663504D01*
X93740041Y-67628494D01*
X93734685Y-67625326D01*
X93734683Y-67625325D01*
X93660781Y-67581620D01*
X93600096Y-67545731D01*
X93594112Y-67543993D01*
X93594111Y-67543992D01*
X93511529Y-67520000D01*
X93443966Y-67500371D01*
X93438924Y-67499974D01*
X93438923Y-67499974D01*
X93433872Y-67499577D01*
X93407489Y-67497500D01*
X93207654Y-67497500D01*
X93007512Y-67497501D01*
X93005568Y-67497654D01*
X93005567Y-67497654D01*
X92976076Y-67499974D01*
X92976073Y-67499975D01*
X92971034Y-67500371D01*
X92966178Y-67501782D01*
X92966177Y-67501782D01*
X92820889Y-67543992D01*
X92820888Y-67543993D01*
X92814904Y-67545731D01*
X92809543Y-67548902D01*
X92809535Y-67548905D01*
X92747895Y-67585359D01*
X92688183Y-67598707D01*
X92647105Y-67585359D01*
X92585465Y-67548905D01*
X92585457Y-67548902D01*
X92580096Y-67545731D01*
X92574112Y-67543993D01*
X92574111Y-67543992D01*
X92491529Y-67520000D01*
X92423966Y-67500371D01*
X92418924Y-67499974D01*
X92418923Y-67499974D01*
X92413872Y-67499577D01*
X92387489Y-67497500D01*
X92187654Y-67497500D01*
X91987512Y-67497501D01*
X91985568Y-67497654D01*
X91985567Y-67497654D01*
X91956076Y-67499974D01*
X91956073Y-67499975D01*
X91951034Y-67500371D01*
X91946178Y-67501782D01*
X91946177Y-67501782D01*
X91800889Y-67543992D01*
X91800888Y-67543993D01*
X91794904Y-67545731D01*
X91734219Y-67581620D01*
X91660317Y-67625325D01*
X91660315Y-67625326D01*
X91654959Y-67628494D01*
X91619949Y-67663504D01*
X91565432Y-67691281D01*
X91549945Y-67692500D01*
X89554723Y-67692500D01*
X89496532Y-67673593D01*
X89470538Y-67645596D01*
X89454592Y-67619827D01*
X89451571Y-67614945D01*
X89331553Y-67495136D01*
X89291253Y-67470295D01*
X89192087Y-67409168D01*
X89192085Y-67409167D01*
X89187192Y-67406151D01*
X89181735Y-67404341D01*
X89181733Y-67404340D01*
X89031362Y-67354464D01*
X89031363Y-67354464D01*
X89026231Y-67352762D01*
X88926072Y-67342500D01*
X88391928Y-67342500D01*
X88290518Y-67353022D01*
X88285383Y-67354735D01*
X88285379Y-67354736D01*
X88156111Y-67397864D01*
X88129651Y-67406692D01*
X88027259Y-67470054D01*
X87991604Y-67492118D01*
X87985445Y-67495929D01*
X87865636Y-67615947D01*
X87862618Y-67620843D01*
X87789750Y-67739058D01*
X87776651Y-67760308D01*
X87774841Y-67765765D01*
X87774840Y-67765767D01*
X87767872Y-67786775D01*
X87723262Y-67921269D01*
X87713000Y-68021428D01*
X87713000Y-68630572D01*
X87723522Y-68731982D01*
X87725235Y-68737117D01*
X87725236Y-68737121D01*
X87768637Y-68867207D01*
X87777192Y-68892849D01*
X87866429Y-69037055D01*
X87986447Y-69156864D01*
X87991343Y-69159882D01*
X88109001Y-69232407D01*
X88130808Y-69245849D01*
X88136265Y-69247659D01*
X88136267Y-69247660D01*
X88195959Y-69267459D01*
X88291769Y-69299238D01*
X88391928Y-69309500D01*
X88926072Y-69309500D01*
X89027482Y-69298978D01*
X89032617Y-69297265D01*
X89032621Y-69297264D01*
X89182897Y-69247127D01*
X89188349Y-69245308D01*
X89311045Y-69169382D01*
X89327670Y-69159094D01*
X89332555Y-69156071D01*
X89452364Y-69036053D01*
X89455380Y-69031160D01*
X89455384Y-69031155D01*
X89470550Y-69006551D01*
X89517180Y-68966937D01*
X89554825Y-68959500D01*
X91549945Y-68959500D01*
X91608136Y-68978407D01*
X91619949Y-68988496D01*
X91654959Y-69023506D01*
X91660315Y-69026674D01*
X91660317Y-69026675D01*
X91683055Y-69040122D01*
X91794904Y-69106269D01*
X91800888Y-69108007D01*
X91800889Y-69108008D01*
X91855014Y-69123733D01*
X91951034Y-69151629D01*
X91956076Y-69152026D01*
X91956077Y-69152026D01*
X91961128Y-69152423D01*
X91987511Y-69154500D01*
X91994067Y-69154500D01*
X92270590Y-69154499D01*
X92328779Y-69173406D01*
X92364743Y-69222906D01*
X92364744Y-69284091D01*
X92340593Y-69323503D01*
X91527629Y-70136466D01*
X90719591Y-70944504D01*
X90665074Y-70972281D01*
X90649587Y-70973500D01*
X90582513Y-70973500D01*
X90435917Y-71004660D01*
X90400783Y-71012128D01*
X90400782Y-71012128D01*
X90395712Y-71013206D01*
X90390978Y-71015314D01*
X90390974Y-71015315D01*
X90323723Y-71045258D01*
X90221248Y-71090882D01*
X90066747Y-71203134D01*
X90063281Y-71206983D01*
X90063277Y-71206987D01*
X89964847Y-71316305D01*
X89938960Y-71345056D01*
X89936365Y-71349551D01*
X89846067Y-71505950D01*
X89846065Y-71505955D01*
X89843473Y-71510444D01*
X89841871Y-71515375D01*
X89786060Y-71687140D01*
X89786059Y-71687145D01*
X89784458Y-71692072D01*
X89764496Y-71882000D01*
X89784458Y-72071928D01*
X89786059Y-72076855D01*
X89786060Y-72076860D01*
X89822561Y-72189196D01*
X89843473Y-72253556D01*
X89910704Y-72370002D01*
X89923424Y-72429848D01*
X89898537Y-72485744D01*
X89845549Y-72516337D01*
X89824966Y-72518500D01*
X89554723Y-72518500D01*
X89496532Y-72499593D01*
X89470538Y-72471596D01*
X89468509Y-72468316D01*
X89451571Y-72440945D01*
X89331553Y-72321136D01*
X89282428Y-72290855D01*
X89192087Y-72235168D01*
X89192085Y-72235167D01*
X89187192Y-72232151D01*
X89181735Y-72230341D01*
X89181733Y-72230340D01*
X89069050Y-72192965D01*
X89026231Y-72178762D01*
X88926072Y-72168500D01*
X88391928Y-72168500D01*
X88290518Y-72179022D01*
X88285383Y-72180735D01*
X88285379Y-72180736D01*
X88165181Y-72220838D01*
X88129651Y-72232692D01*
X88032396Y-72292875D01*
X87991604Y-72318118D01*
X87985445Y-72321929D01*
X87981388Y-72325993D01*
X87938048Y-72369409D01*
X87865636Y-72441947D01*
X87862618Y-72446843D01*
X87791384Y-72562407D01*
X87776651Y-72586308D01*
X87774841Y-72591765D01*
X87774840Y-72591767D01*
X87746636Y-72676800D01*
X87723262Y-72747269D01*
X87713000Y-72847428D01*
X87713000Y-73456572D01*
X87723522Y-73557982D01*
X87725235Y-73563117D01*
X87725236Y-73563121D01*
X87775061Y-73712461D01*
X87777192Y-73718849D01*
X87866429Y-73863055D01*
X87986447Y-73982864D01*
X87991343Y-73985882D01*
X88125375Y-74068500D01*
X88130808Y-74071849D01*
X88136265Y-74073659D01*
X88136267Y-74073660D01*
X88231128Y-74105124D01*
X88291769Y-74125238D01*
X88391928Y-74135500D01*
X88926072Y-74135500D01*
X89027482Y-74124978D01*
X89032617Y-74123265D01*
X89032621Y-74123264D01*
X89182897Y-74073127D01*
X89188349Y-74071308D01*
X89313974Y-73993569D01*
X89327670Y-73985094D01*
X89332555Y-73982071D01*
X89452364Y-73862053D01*
X89455380Y-73857160D01*
X89455384Y-73857155D01*
X89470550Y-73832551D01*
X89517180Y-73792937D01*
X89554825Y-73785500D01*
X91463750Y-73785500D01*
X91521941Y-73804407D01*
X91539109Y-73821045D01*
X91539994Y-73822541D01*
X91654959Y-73937506D01*
X91660315Y-73940674D01*
X91660317Y-73940675D01*
X91680382Y-73952541D01*
X91794904Y-74020269D01*
X91800888Y-74022007D01*
X91800889Y-74022008D01*
X91830790Y-74030695D01*
X91951034Y-74065629D01*
X91956076Y-74066026D01*
X91956077Y-74066026D01*
X91961128Y-74066423D01*
X91987511Y-74068500D01*
X92187346Y-74068500D01*
X92387488Y-74068499D01*
X92390221Y-74068284D01*
X92418924Y-74066026D01*
X92418927Y-74066025D01*
X92423966Y-74065629D01*
X92544210Y-74030695D01*
X92574111Y-74022008D01*
X92574112Y-74022007D01*
X92580096Y-74020269D01*
X92585460Y-74017097D01*
X92585465Y-74017095D01*
X92647105Y-73980641D01*
X92706817Y-73967293D01*
X92747895Y-73980641D01*
X92809535Y-74017095D01*
X92809540Y-74017097D01*
X92814904Y-74020269D01*
X92820888Y-74022007D01*
X92820889Y-74022008D01*
X92850790Y-74030695D01*
X92971034Y-74065629D01*
X92976076Y-74066026D01*
X92976077Y-74066026D01*
X92981128Y-74066423D01*
X93007511Y-74068500D01*
X93207346Y-74068500D01*
X93407488Y-74068499D01*
X93410221Y-74068284D01*
X93438924Y-74066026D01*
X93438927Y-74066025D01*
X93443966Y-74065629D01*
X93564210Y-74030695D01*
X93594111Y-74022008D01*
X93594112Y-74022007D01*
X93600096Y-74020269D01*
X93714618Y-73952541D01*
X93734683Y-73940675D01*
X93734685Y-73940674D01*
X93740041Y-73937506D01*
X93855006Y-73822541D01*
X93859762Y-73814500D01*
X93912810Y-73724800D01*
X93937769Y-73682596D01*
X93939647Y-73676134D01*
X93981717Y-73531325D01*
X93983129Y-73526466D01*
X93986000Y-73489989D01*
X93986000Y-73398413D01*
X94004907Y-73340222D01*
X94014996Y-73328409D01*
X94798909Y-72544496D01*
X94853426Y-72516719D01*
X94868913Y-72515500D01*
X95739261Y-72515500D01*
X95797452Y-72534407D01*
X95833416Y-72583907D01*
X95833416Y-72645093D01*
X95819674Y-72671047D01*
X95819694Y-72671059D01*
X95736931Y-72811004D01*
X95735193Y-72816988D01*
X95735192Y-72816989D01*
X95730396Y-72833498D01*
X95691571Y-72967134D01*
X95688700Y-73003611D01*
X95688700Y-73095187D01*
X95669793Y-73153378D01*
X95659704Y-73165191D01*
X95112434Y-73712461D01*
X95105534Y-73718738D01*
X95102239Y-73721464D01*
X95096982Y-73724800D01*
X95092723Y-73729336D01*
X95092720Y-73729338D01*
X95050095Y-73774730D01*
X95047931Y-73776964D01*
X95027865Y-73797030D01*
X95025960Y-73799486D01*
X95024602Y-73801236D01*
X95018549Y-73808323D01*
X95013161Y-73814061D01*
X94987414Y-73841479D01*
X94984415Y-73846934D01*
X94976632Y-73861090D01*
X94968104Y-73874073D01*
X94958204Y-73886836D01*
X94958202Y-73886839D01*
X94954386Y-73891759D01*
X94951911Y-73897479D01*
X94951909Y-73897482D01*
X94936319Y-73933506D01*
X94932217Y-73941880D01*
X94918029Y-73967689D01*
X94897518Y-73993569D01*
X94896950Y-73994080D01*
X94892747Y-73997134D01*
X94764960Y-74139056D01*
X94762365Y-74143551D01*
X94672067Y-74299950D01*
X94672065Y-74299955D01*
X94669473Y-74304444D01*
X94667871Y-74309375D01*
X94612060Y-74481140D01*
X94612059Y-74481145D01*
X94610458Y-74486072D01*
X94590496Y-74676000D01*
X94610458Y-74865928D01*
X94612059Y-74870855D01*
X94612060Y-74870860D01*
X94652748Y-74996083D01*
X94669473Y-75047556D01*
X94672065Y-75052045D01*
X94672067Y-75052050D01*
X94735534Y-75161976D01*
X94764960Y-75212944D01*
X94768432Y-75216800D01*
X94889277Y-75351013D01*
X94889281Y-75351017D01*
X94892747Y-75354866D01*
X95047248Y-75467118D01*
X95124784Y-75501639D01*
X95216974Y-75542685D01*
X95216978Y-75542686D01*
X95221712Y-75544794D01*
X95226782Y-75545872D01*
X95226783Y-75545872D01*
X95261917Y-75553340D01*
X95408513Y-75584500D01*
X95599487Y-75584500D01*
X95746083Y-75553340D01*
X95781217Y-75545872D01*
X95781218Y-75545872D01*
X95786288Y-75544794D01*
X95791022Y-75542686D01*
X95791026Y-75542685D01*
X95883216Y-75501639D01*
X95960752Y-75467118D01*
X96115253Y-75354866D01*
X96118719Y-75351017D01*
X96118723Y-75351013D01*
X96239568Y-75216800D01*
X96243040Y-75212944D01*
X96272466Y-75161976D01*
X96335933Y-75052050D01*
X96335935Y-75052045D01*
X96338527Y-75047556D01*
X96355252Y-74996083D01*
X96395940Y-74870860D01*
X96395941Y-74870855D01*
X96397542Y-74865928D01*
X96417504Y-74676000D01*
X96397542Y-74486072D01*
X96395941Y-74481145D01*
X96395940Y-74481140D01*
X96350833Y-74342317D01*
X96350833Y-74281131D01*
X96374984Y-74241720D01*
X96505609Y-74111095D01*
X96560126Y-74083318D01*
X96575613Y-74082099D01*
X96667188Y-74082099D01*
X96669133Y-74081946D01*
X96698624Y-74079626D01*
X96698627Y-74079625D01*
X96703666Y-74079229D01*
X96722835Y-74073660D01*
X96853811Y-74035608D01*
X96853812Y-74035607D01*
X96859796Y-74033869D01*
X96865157Y-74030698D01*
X96865165Y-74030695D01*
X96926805Y-73994241D01*
X96986517Y-73980893D01*
X97027595Y-73994241D01*
X97089235Y-74030695D01*
X97089243Y-74030698D01*
X97094604Y-74033869D01*
X97100588Y-74035607D01*
X97100589Y-74035608D01*
X97154714Y-74051333D01*
X97250734Y-74079229D01*
X97255776Y-74079626D01*
X97255777Y-74079626D01*
X97261057Y-74080042D01*
X97282261Y-74081710D01*
X97338788Y-74105124D01*
X97344497Y-74110401D01*
X97793652Y-74559556D01*
X97799928Y-74566454D01*
X97802663Y-74569760D01*
X97806000Y-74575018D01*
X97810540Y-74579281D01*
X97855946Y-74621920D01*
X97858180Y-74624084D01*
X97878230Y-74644134D01*
X97880673Y-74646029D01*
X97880680Y-74646035D01*
X97882424Y-74647387D01*
X97889520Y-74653447D01*
X97895103Y-74658690D01*
X97918141Y-74680325D01*
X97918143Y-74680327D01*
X97922679Y-74684586D01*
X97928136Y-74687586D01*
X97942295Y-74695370D01*
X97955280Y-74703900D01*
X97972959Y-74717613D01*
X97978676Y-74720087D01*
X98014696Y-74735675D01*
X98023069Y-74739777D01*
X98057482Y-74758695D01*
X98057485Y-74758696D01*
X98062940Y-74761695D01*
X98068969Y-74763243D01*
X98084622Y-74767262D01*
X98099320Y-74772295D01*
X98114133Y-74778705D01*
X98119855Y-74781181D01*
X98126009Y-74782156D01*
X98126010Y-74782156D01*
X98164771Y-74788295D01*
X98173904Y-74790186D01*
X98217970Y-74801500D01*
X98240358Y-74801500D01*
X98255845Y-74802719D01*
X98271792Y-74805245D01*
X98271794Y-74805245D01*
X98277943Y-74806219D01*
X98323223Y-74801939D01*
X98332540Y-74801500D01*
X101076038Y-74801500D01*
X101085352Y-74801939D01*
X101089631Y-74802343D01*
X101095709Y-74803702D01*
X101164199Y-74801549D01*
X101167310Y-74801500D01*
X101195656Y-74801500D01*
X101198742Y-74801110D01*
X101198745Y-74801110D01*
X101200931Y-74800834D01*
X101210226Y-74800102D01*
X101226247Y-74799599D01*
X101249463Y-74798869D01*
X101249465Y-74798869D01*
X101255689Y-74798673D01*
X101277187Y-74792427D01*
X101292379Y-74789281D01*
X101314597Y-74786474D01*
X101327966Y-74781181D01*
X101356897Y-74769726D01*
X101365717Y-74766707D01*
X101409393Y-74754018D01*
X101414750Y-74750850D01*
X101414754Y-74750848D01*
X101428657Y-74742625D01*
X101442601Y-74735793D01*
X101463417Y-74727552D01*
X101500230Y-74700806D01*
X101507994Y-74695706D01*
X101547162Y-74672542D01*
X101559496Y-74660208D01*
X101614013Y-74632431D01*
X101674445Y-74642002D01*
X101717710Y-74685267D01*
X101728500Y-74730212D01*
X101728500Y-82754588D01*
X101709593Y-82812779D01*
X101699504Y-82824592D01*
X99080591Y-85443504D01*
X99026074Y-85471281D01*
X99010587Y-85472500D01*
X92789763Y-85472500D01*
X92780448Y-85472061D01*
X92776171Y-85471657D01*
X92770092Y-85470298D01*
X92702097Y-85472435D01*
X92701588Y-85472451D01*
X92698478Y-85472500D01*
X92670144Y-85472500D01*
X92667056Y-85472890D01*
X92664878Y-85473165D01*
X92655583Y-85473897D01*
X92639967Y-85474388D01*
X92616335Y-85475130D01*
X92616332Y-85475130D01*
X92610111Y-85475326D01*
X92592280Y-85480507D01*
X92588613Y-85481572D01*
X92573400Y-85484722D01*
X92557385Y-85486745D01*
X92557384Y-85486745D01*
X92551203Y-85487526D01*
X92508905Y-85504272D01*
X92500100Y-85507287D01*
X92456407Y-85519982D01*
X92451045Y-85523153D01*
X92451043Y-85523154D01*
X92437143Y-85531375D01*
X92423199Y-85538207D01*
X92402383Y-85546448D01*
X92365570Y-85573194D01*
X92357806Y-85578294D01*
X92318638Y-85601458D01*
X92302811Y-85617285D01*
X92290999Y-85627373D01*
X92272893Y-85640528D01*
X92268927Y-85645323D01*
X92268924Y-85645325D01*
X92243902Y-85675572D01*
X92237625Y-85682471D01*
X78252591Y-99667504D01*
X78198074Y-99695281D01*
X78182587Y-99696500D01*
X74778338Y-99696500D01*
X74720147Y-99677593D01*
X74697242Y-99654284D01*
X74618281Y-99541516D01*
X74579198Y-99485700D01*
X74417300Y-99323802D01*
X74229749Y-99192477D01*
X74225841Y-99190654D01*
X74225838Y-99190653D01*
X74138066Y-99149725D01*
X74093318Y-99107997D01*
X74081643Y-99047935D01*
X74107501Y-98992482D01*
X74138066Y-98970275D01*
X74225838Y-98929347D01*
X74225841Y-98929346D01*
X74229749Y-98927523D01*
X74417300Y-98796198D01*
X74579198Y-98634300D01*
X74710523Y-98446749D01*
X74789282Y-98277848D01*
X74805459Y-98243157D01*
X74805459Y-98243156D01*
X74807284Y-98239243D01*
X74819693Y-98192932D01*
X74865424Y-98022264D01*
X74865424Y-98022261D01*
X74866543Y-98018087D01*
X74886498Y-97790000D01*
X74866543Y-97561913D01*
X74807284Y-97340757D01*
X74804586Y-97334970D01*
X74712347Y-97137163D01*
X74710523Y-97133251D01*
X74579198Y-96945700D01*
X74417300Y-96783802D01*
X74229749Y-96652477D01*
X74225841Y-96650654D01*
X74225838Y-96650653D01*
X74138066Y-96609725D01*
X74093318Y-96567997D01*
X74081643Y-96507935D01*
X74107501Y-96452482D01*
X74138066Y-96430275D01*
X74225838Y-96389347D01*
X74225841Y-96389346D01*
X74229749Y-96387523D01*
X74417300Y-96256198D01*
X74579198Y-96094300D01*
X74710523Y-95906749D01*
X74807284Y-95699243D01*
X74844305Y-95561079D01*
X74865424Y-95482264D01*
X74865424Y-95482261D01*
X74866543Y-95478087D01*
X74886498Y-95250000D01*
X74866543Y-95021913D01*
X74807284Y-94800757D01*
X74710523Y-94593251D01*
X74579198Y-94405700D01*
X74520712Y-94347214D01*
X74492935Y-94292697D01*
X74502506Y-94232265D01*
X74545771Y-94189000D01*
X74555965Y-94184510D01*
X74613104Y-94163090D01*
X74613106Y-94163089D01*
X74619705Y-94160615D01*
X74736261Y-94073261D01*
X74823615Y-93956705D01*
X74828272Y-93944284D01*
X74872565Y-93826131D01*
X74874745Y-93820316D01*
X74881500Y-93758134D01*
X74881500Y-91661866D01*
X74874745Y-91599684D01*
X74828956Y-91477541D01*
X74826089Y-91469894D01*
X74826089Y-91469893D01*
X74823615Y-91463295D01*
X74736261Y-91346739D01*
X74619705Y-91259385D01*
X74483316Y-91208255D01*
X74477144Y-91207585D01*
X74477142Y-91207584D01*
X74441163Y-91203676D01*
X74421134Y-91201500D01*
X72324866Y-91201500D01*
X72304837Y-91203676D01*
X72268858Y-91207584D01*
X72268856Y-91207585D01*
X72262684Y-91208255D01*
X72126295Y-91259385D01*
X72009739Y-91346739D01*
X71922385Y-91463295D01*
X71919911Y-91469893D01*
X71919911Y-91469894D01*
X71917044Y-91477541D01*
X71871255Y-91599684D01*
X71864500Y-91661866D01*
X71864500Y-93758134D01*
X71871255Y-93820316D01*
X71873435Y-93826131D01*
X71917729Y-93944284D01*
X71922385Y-93956705D01*
X72009739Y-94073261D01*
X72126295Y-94160615D01*
X72132894Y-94163089D01*
X72132896Y-94163090D01*
X72190035Y-94184510D01*
X72237886Y-94222640D01*
X72254186Y-94281614D01*
X72232709Y-94338906D01*
X72225288Y-94347214D01*
X72166802Y-94405700D01*
X72035477Y-94593251D01*
X71938716Y-94800757D01*
X71879457Y-95021913D01*
X71859502Y-95250000D01*
X71879457Y-95478087D01*
X71880576Y-95482261D01*
X71880576Y-95482264D01*
X71901695Y-95561079D01*
X71938716Y-95699243D01*
X72035477Y-95906749D01*
X72166802Y-96094300D01*
X72328700Y-96256198D01*
X72516251Y-96387523D01*
X72520159Y-96389346D01*
X72520162Y-96389347D01*
X72607934Y-96430275D01*
X72652682Y-96472003D01*
X72664357Y-96532065D01*
X72638499Y-96587518D01*
X72607934Y-96609725D01*
X72520162Y-96650653D01*
X72520159Y-96650654D01*
X72516251Y-96652477D01*
X72328700Y-96783802D01*
X72166802Y-96945700D01*
X72035477Y-97133251D01*
X72033653Y-97137163D01*
X71941415Y-97334970D01*
X71938716Y-97340757D01*
X71879457Y-97561913D01*
X71859502Y-97790000D01*
X71879457Y-98018087D01*
X71880576Y-98022261D01*
X71880576Y-98022264D01*
X71926307Y-98192932D01*
X71938716Y-98239243D01*
X71940541Y-98243156D01*
X71940541Y-98243157D01*
X71956718Y-98277848D01*
X72035477Y-98446749D01*
X72166802Y-98634300D01*
X72328700Y-98796198D01*
X72516251Y-98927523D01*
X72520159Y-98929346D01*
X72520162Y-98929347D01*
X72607934Y-98970275D01*
X72652682Y-99012003D01*
X72664357Y-99072065D01*
X72638499Y-99127518D01*
X72607934Y-99149725D01*
X72520162Y-99190653D01*
X72520159Y-99190654D01*
X72516251Y-99192477D01*
X72328700Y-99323802D01*
X72166802Y-99485700D01*
X72035477Y-99673251D01*
X72033653Y-99677163D01*
X71941415Y-99874970D01*
X71938716Y-99880757D01*
X71937599Y-99884926D01*
X71937598Y-99884929D01*
X71919145Y-99953798D01*
X71879457Y-100101913D01*
X71859502Y-100330000D01*
X71879457Y-100558087D01*
X71880576Y-100562261D01*
X71880576Y-100562264D01*
X71883829Y-100574405D01*
X71938716Y-100779243D01*
X72035477Y-100986749D01*
X72166802Y-101174300D01*
X72328700Y-101336198D01*
X72516251Y-101467523D01*
X72520159Y-101469346D01*
X72520162Y-101469347D01*
X72607934Y-101510275D01*
X72652682Y-101552003D01*
X72664357Y-101612065D01*
X72638499Y-101667518D01*
X72607935Y-101689724D01*
X72573831Y-101705627D01*
X72520162Y-101730653D01*
X72520159Y-101730654D01*
X72516251Y-101732477D01*
X72328700Y-101863802D01*
X72166802Y-102025700D01*
X72035477Y-102213251D01*
X71938716Y-102420757D01*
X71937598Y-102424928D01*
X71937598Y-102424929D01*
X71919145Y-102493798D01*
X71879457Y-102641913D01*
X71859502Y-102870000D01*
X71879457Y-103098087D01*
X71938716Y-103319243D01*
X72035477Y-103526749D01*
X72166802Y-103714300D01*
X72328700Y-103876198D01*
X72516251Y-104007523D01*
X72520159Y-104009346D01*
X72520162Y-104009347D01*
X72558925Y-104027422D01*
X72597514Y-104045416D01*
X72607934Y-104050275D01*
X72652682Y-104092003D01*
X72664357Y-104152065D01*
X72638499Y-104207518D01*
X72607934Y-104229725D01*
X72520162Y-104270653D01*
X72520159Y-104270654D01*
X72516251Y-104272477D01*
X72328700Y-104403802D01*
X72166802Y-104565700D01*
X72035477Y-104753251D01*
X71938716Y-104960757D01*
X71937598Y-104964928D01*
X71937598Y-104964929D01*
X71912697Y-105057862D01*
X71879457Y-105181913D01*
X71859502Y-105410000D01*
X71879457Y-105638087D01*
X71880576Y-105642261D01*
X71880576Y-105642264D01*
X71930554Y-105828781D01*
X71938716Y-105859243D01*
X71940541Y-105863156D01*
X71940541Y-105863157D01*
X71951082Y-105885763D01*
X72035477Y-106066749D01*
X72166802Y-106254300D01*
X72328700Y-106416198D01*
X72516251Y-106547523D01*
X72520159Y-106549346D01*
X72520162Y-106549347D01*
X72607934Y-106590275D01*
X72652682Y-106632003D01*
X72664357Y-106692065D01*
X72638499Y-106747518D01*
X72607934Y-106769725D01*
X72520162Y-106810653D01*
X72520159Y-106810654D01*
X72516251Y-106812477D01*
X72328700Y-106943802D01*
X72166802Y-107105700D01*
X72035477Y-107293251D01*
X71938716Y-107500757D01*
X71879457Y-107721913D01*
X71859502Y-107950000D01*
X71879457Y-108178087D01*
X71880576Y-108182261D01*
X71880576Y-108182264D01*
X71933674Y-108380428D01*
X71938716Y-108399243D01*
X71940541Y-108403156D01*
X71940541Y-108403157D01*
X71957122Y-108438715D01*
X72035477Y-108606749D01*
X72166802Y-108794300D01*
X72328700Y-108956198D01*
X72516251Y-109087523D01*
X72520159Y-109089346D01*
X72520162Y-109089347D01*
X72607934Y-109130275D01*
X72652682Y-109172003D01*
X72664357Y-109232065D01*
X72638499Y-109287518D01*
X72607934Y-109309725D01*
X72520162Y-109350653D01*
X72520159Y-109350654D01*
X72516251Y-109352477D01*
X72328700Y-109483802D01*
X72166802Y-109645700D01*
X72035477Y-109833251D01*
X71938716Y-110040757D01*
X71879457Y-110261913D01*
X71859502Y-110490000D01*
X70508500Y-110490000D01*
X70508500Y-69600011D01*
X72121500Y-69600011D01*
X72121501Y-70099988D01*
X72121654Y-70101928D01*
X72121654Y-70101933D01*
X72123885Y-70130285D01*
X72124371Y-70136466D01*
X72125782Y-70141322D01*
X72125782Y-70141323D01*
X72151294Y-70229134D01*
X72169731Y-70292596D01*
X72192991Y-70331927D01*
X72218145Y-70374459D01*
X72252494Y-70432541D01*
X72367459Y-70547506D01*
X72372815Y-70550674D01*
X72372817Y-70550675D01*
X72421051Y-70579200D01*
X72507404Y-70630269D01*
X72513388Y-70632007D01*
X72513389Y-70632008D01*
X72538716Y-70639366D01*
X72663534Y-70675629D01*
X72668576Y-70676026D01*
X72668577Y-70676026D01*
X72673628Y-70676423D01*
X72700011Y-70678500D01*
X72899846Y-70678500D01*
X73099988Y-70678499D01*
X73101933Y-70678346D01*
X73131424Y-70676026D01*
X73131427Y-70676025D01*
X73136466Y-70675629D01*
X73141326Y-70674217D01*
X73286611Y-70632008D01*
X73286612Y-70632007D01*
X73292596Y-70630269D01*
X73378949Y-70579200D01*
X73427183Y-70550675D01*
X73427185Y-70550674D01*
X73432541Y-70547506D01*
X73547506Y-70432541D01*
X73581856Y-70374459D01*
X73607009Y-70331927D01*
X73630269Y-70292596D01*
X73675629Y-70136466D01*
X73676116Y-70130285D01*
X73676423Y-70126372D01*
X73678500Y-70099989D01*
X73678500Y-70008413D01*
X73697407Y-69950222D01*
X73707496Y-69938409D01*
X74676296Y-68969609D01*
X74730813Y-68941832D01*
X74791245Y-68951403D01*
X74834510Y-68994668D01*
X74845300Y-69039613D01*
X74845300Y-72200148D01*
X74826393Y-72258339D01*
X74776893Y-72294303D01*
X74715707Y-72294303D01*
X74712172Y-72292967D01*
X74708601Y-72290855D01*
X74548831Y-72244438D01*
X74543789Y-72244041D01*
X74543788Y-72244041D01*
X74537108Y-72243515D01*
X74511502Y-72241500D01*
X74078498Y-72241500D01*
X74052892Y-72243515D01*
X74046212Y-72244041D01*
X74046211Y-72244041D01*
X74041169Y-72244438D01*
X73881399Y-72290855D01*
X73812001Y-72331897D01*
X73744700Y-72371699D01*
X73738193Y-72375547D01*
X73730004Y-72383736D01*
X73675487Y-72411513D01*
X73615055Y-72401942D01*
X73589996Y-72383736D01*
X73581807Y-72375547D01*
X73575301Y-72371699D01*
X73507999Y-72331897D01*
X73438601Y-72290855D01*
X73278831Y-72244438D01*
X73273789Y-72244041D01*
X73273788Y-72244041D01*
X73267108Y-72243515D01*
X73241502Y-72241500D01*
X72808498Y-72241500D01*
X72782892Y-72243515D01*
X72776212Y-72244041D01*
X72776211Y-72244041D01*
X72771169Y-72244438D01*
X72611399Y-72290855D01*
X72542001Y-72331897D01*
X72474700Y-72371699D01*
X72468193Y-72375547D01*
X72350547Y-72493193D01*
X72265855Y-72636399D01*
X72219438Y-72796169D01*
X72219041Y-72801211D01*
X72219041Y-72801212D01*
X72218515Y-72807892D01*
X72216500Y-72833498D01*
X72216500Y-74616502D01*
X72219438Y-74653831D01*
X72250775Y-74761695D01*
X72262694Y-74802719D01*
X72265855Y-74813601D01*
X72269027Y-74818964D01*
X72345808Y-74948793D01*
X72350547Y-74956807D01*
X72468193Y-75074453D01*
X72473557Y-75077625D01*
X72473558Y-75077626D01*
X72488563Y-75086500D01*
X72611399Y-75159145D01*
X72771169Y-75205562D01*
X72776211Y-75205959D01*
X72776212Y-75205959D01*
X72782892Y-75206485D01*
X72808498Y-75208500D01*
X73241502Y-75208500D01*
X73267108Y-75206485D01*
X73273788Y-75205959D01*
X73273789Y-75205959D01*
X73278831Y-75205562D01*
X73438601Y-75159145D01*
X73561437Y-75086500D01*
X73576442Y-75077626D01*
X73576443Y-75077625D01*
X73581807Y-75074453D01*
X73589996Y-75066264D01*
X73644513Y-75038487D01*
X73704945Y-75048058D01*
X73730004Y-75066264D01*
X73738193Y-75074453D01*
X73743557Y-75077625D01*
X73743558Y-75077626D01*
X73758563Y-75086500D01*
X73881399Y-75159145D01*
X74041169Y-75205562D01*
X74046211Y-75205959D01*
X74046212Y-75205959D01*
X74052892Y-75206485D01*
X74078498Y-75208500D01*
X74511502Y-75208500D01*
X74537108Y-75206485D01*
X74543788Y-75205959D01*
X74543789Y-75205959D01*
X74548831Y-75205562D01*
X74708601Y-75159145D01*
X74831437Y-75086500D01*
X74846442Y-75077626D01*
X74846443Y-75077625D01*
X74851807Y-75074453D01*
X74859996Y-75066264D01*
X74914513Y-75038487D01*
X74974945Y-75048058D01*
X75000004Y-75066264D01*
X75008193Y-75074453D01*
X75013557Y-75077625D01*
X75013558Y-75077626D01*
X75028563Y-75086500D01*
X75151399Y-75159145D01*
X75311169Y-75205562D01*
X75316211Y-75205959D01*
X75316212Y-75205959D01*
X75322892Y-75206485D01*
X75348498Y-75208500D01*
X75781502Y-75208500D01*
X75807108Y-75206485D01*
X75813788Y-75205959D01*
X75813789Y-75205959D01*
X75818831Y-75205562D01*
X75978601Y-75159145D01*
X76101437Y-75086500D01*
X76116442Y-75077626D01*
X76116443Y-75077625D01*
X76121807Y-75074453D01*
X76129996Y-75066264D01*
X76184513Y-75038487D01*
X76244945Y-75048058D01*
X76270004Y-75066264D01*
X76278193Y-75074453D01*
X76283557Y-75077625D01*
X76283558Y-75077626D01*
X76298563Y-75086500D01*
X76421399Y-75159145D01*
X76581169Y-75205562D01*
X76586211Y-75205959D01*
X76586212Y-75205959D01*
X76592892Y-75206485D01*
X76618498Y-75208500D01*
X77051502Y-75208500D01*
X77077108Y-75206485D01*
X77083788Y-75205959D01*
X77083789Y-75205959D01*
X77088831Y-75205562D01*
X77248601Y-75159145D01*
X77371437Y-75086500D01*
X77386442Y-75077626D01*
X77386443Y-75077625D01*
X77391807Y-75074453D01*
X77399996Y-75066264D01*
X77454513Y-75038487D01*
X77514945Y-75048058D01*
X77540004Y-75066264D01*
X77548193Y-75074453D01*
X77553557Y-75077625D01*
X77553558Y-75077626D01*
X77568563Y-75086500D01*
X77691399Y-75159145D01*
X77697380Y-75160883D01*
X77697381Y-75160883D01*
X77787296Y-75187005D01*
X77829680Y-75212070D01*
X79640106Y-77022496D01*
X79667883Y-77077013D01*
X79658312Y-77137445D01*
X79615047Y-77180710D01*
X79570102Y-77191500D01*
X79158498Y-77191500D01*
X79132892Y-77193515D01*
X79126212Y-77194041D01*
X79126211Y-77194041D01*
X79121169Y-77194438D01*
X78961399Y-77240855D01*
X78818193Y-77325547D01*
X78810004Y-77333736D01*
X78755487Y-77361513D01*
X78695055Y-77351942D01*
X78669996Y-77333736D01*
X78661807Y-77325547D01*
X78518601Y-77240855D01*
X78358831Y-77194438D01*
X78353789Y-77194041D01*
X78353788Y-77194041D01*
X78347108Y-77193515D01*
X78321502Y-77191500D01*
X77888498Y-77191500D01*
X77862892Y-77193515D01*
X77856212Y-77194041D01*
X77856211Y-77194041D01*
X77851169Y-77194438D01*
X77691399Y-77240855D01*
X77548193Y-77325547D01*
X77540004Y-77333736D01*
X77485487Y-77361513D01*
X77425055Y-77351942D01*
X77399996Y-77333736D01*
X77391807Y-77325547D01*
X77248601Y-77240855D01*
X77088831Y-77194438D01*
X77083789Y-77194041D01*
X77083788Y-77194041D01*
X77077108Y-77193515D01*
X77051502Y-77191500D01*
X76618498Y-77191500D01*
X76592892Y-77193515D01*
X76586212Y-77194041D01*
X76586211Y-77194041D01*
X76581169Y-77194438D01*
X76421399Y-77240855D01*
X76278193Y-77325547D01*
X76270004Y-77333736D01*
X76215487Y-77361513D01*
X76155055Y-77351942D01*
X76129996Y-77333736D01*
X76121807Y-77325547D01*
X75978601Y-77240855D01*
X75818831Y-77194438D01*
X75813789Y-77194041D01*
X75813788Y-77194041D01*
X75807108Y-77193515D01*
X75781502Y-77191500D01*
X75348498Y-77191500D01*
X75322892Y-77193515D01*
X75316212Y-77194041D01*
X75316211Y-77194041D01*
X75311169Y-77194438D01*
X75151399Y-77240855D01*
X75008193Y-77325547D01*
X75000004Y-77333736D01*
X74945487Y-77361513D01*
X74885055Y-77351942D01*
X74859996Y-77333736D01*
X74851807Y-77325547D01*
X74708601Y-77240855D01*
X74548831Y-77194438D01*
X74543789Y-77194041D01*
X74543788Y-77194041D01*
X74537108Y-77193515D01*
X74511502Y-77191500D01*
X74078498Y-77191500D01*
X74052892Y-77193515D01*
X74046212Y-77194041D01*
X74046211Y-77194041D01*
X74041169Y-77194438D01*
X73881399Y-77240855D01*
X73738193Y-77325547D01*
X73730004Y-77333736D01*
X73675487Y-77361513D01*
X73615055Y-77351942D01*
X73589996Y-77333736D01*
X73581807Y-77325547D01*
X73438601Y-77240855D01*
X73278831Y-77194438D01*
X73273789Y-77194041D01*
X73273788Y-77194041D01*
X73267108Y-77193515D01*
X73241502Y-77191500D01*
X72808498Y-77191500D01*
X72782892Y-77193515D01*
X72776212Y-77194041D01*
X72776211Y-77194041D01*
X72771169Y-77194438D01*
X72611399Y-77240855D01*
X72468193Y-77325547D01*
X72350547Y-77443193D01*
X72265855Y-77586399D01*
X72264117Y-77592380D01*
X72264117Y-77592381D01*
X72255657Y-77621500D01*
X72219438Y-77746169D01*
X72216500Y-77783498D01*
X72216500Y-79566502D01*
X72219438Y-79603831D01*
X72265855Y-79763601D01*
X72350547Y-79906807D01*
X72468193Y-80024453D01*
X72611399Y-80109145D01*
X72771169Y-80155562D01*
X72776211Y-80155959D01*
X72776212Y-80155959D01*
X72782892Y-80156485D01*
X72808498Y-80158500D01*
X73241502Y-80158500D01*
X73267108Y-80156485D01*
X73273788Y-80155959D01*
X73273789Y-80155959D01*
X73278831Y-80155562D01*
X73438601Y-80109145D01*
X73581807Y-80024453D01*
X73589996Y-80016264D01*
X73644513Y-79988487D01*
X73704945Y-79998058D01*
X73730004Y-80016264D01*
X73738193Y-80024453D01*
X73881399Y-80109145D01*
X74041169Y-80155562D01*
X74046211Y-80155959D01*
X74046212Y-80155959D01*
X74052892Y-80156485D01*
X74078498Y-80158500D01*
X74511502Y-80158500D01*
X74537108Y-80156485D01*
X74543788Y-80155959D01*
X74543789Y-80155959D01*
X74548831Y-80155562D01*
X74708601Y-80109145D01*
X74851807Y-80024453D01*
X74859996Y-80016264D01*
X74914513Y-79988487D01*
X74974945Y-79998058D01*
X75000004Y-80016264D01*
X75008193Y-80024453D01*
X75151399Y-80109145D01*
X75311169Y-80155562D01*
X75316211Y-80155959D01*
X75316212Y-80155959D01*
X75322892Y-80156485D01*
X75348498Y-80158500D01*
X75781502Y-80158500D01*
X75807108Y-80156485D01*
X75813788Y-80155959D01*
X75813789Y-80155959D01*
X75818831Y-80155562D01*
X75978601Y-80109145D01*
X76121807Y-80024453D01*
X76129996Y-80016264D01*
X76184513Y-79988487D01*
X76244945Y-79998058D01*
X76270004Y-80016264D01*
X76278193Y-80024453D01*
X76421399Y-80109145D01*
X76581169Y-80155562D01*
X76586211Y-80155959D01*
X76586212Y-80155959D01*
X76592892Y-80156485D01*
X76618498Y-80158500D01*
X77051502Y-80158500D01*
X77077108Y-80156485D01*
X77083788Y-80155959D01*
X77083789Y-80155959D01*
X77088831Y-80155562D01*
X77248601Y-80109145D01*
X77322107Y-80065674D01*
X77381817Y-80052327D01*
X77437970Y-80076627D01*
X77469116Y-80129292D01*
X77471500Y-80150888D01*
X77471500Y-80819238D01*
X77471061Y-80828552D01*
X77470657Y-80832831D01*
X77469298Y-80838909D01*
X77469494Y-80845136D01*
X77471451Y-80907399D01*
X77471500Y-80910510D01*
X77471500Y-80938856D01*
X77471890Y-80941942D01*
X77471890Y-80941945D01*
X77472166Y-80944131D01*
X77472898Y-80953430D01*
X77473693Y-80978709D01*
X77474327Y-80998889D01*
X77480573Y-81020387D01*
X77483719Y-81035579D01*
X77486526Y-81057797D01*
X77488818Y-81063586D01*
X77503274Y-81100097D01*
X77506293Y-81108917D01*
X77518982Y-81152593D01*
X77522150Y-81157950D01*
X77522152Y-81157954D01*
X77530375Y-81171857D01*
X77537207Y-81185801D01*
X77545448Y-81206617D01*
X77549110Y-81211657D01*
X77554130Y-81218567D01*
X77572886Y-81276290D01*
X77572496Y-81280000D01*
X77592458Y-81469928D01*
X77594059Y-81474855D01*
X77594060Y-81474860D01*
X77623422Y-81565225D01*
X77651473Y-81651556D01*
X77654065Y-81656045D01*
X77654067Y-81656050D01*
X77700115Y-81735806D01*
X77746960Y-81816944D01*
X77750432Y-81820800D01*
X77871277Y-81955013D01*
X77871281Y-81955017D01*
X77874747Y-81958866D01*
X78029248Y-82071118D01*
X78104637Y-82104683D01*
X78198974Y-82146685D01*
X78198978Y-82146686D01*
X78203712Y-82148794D01*
X78208782Y-82149872D01*
X78208783Y-82149872D01*
X78243917Y-82157340D01*
X78390513Y-82188500D01*
X78581487Y-82188500D01*
X78728083Y-82157340D01*
X78763217Y-82149872D01*
X78763218Y-82149872D01*
X78768288Y-82148794D01*
X78773022Y-82146686D01*
X78773026Y-82146685D01*
X78867363Y-82104683D01*
X78942752Y-82071118D01*
X79097253Y-81958866D01*
X79100719Y-81955017D01*
X79100723Y-81955013D01*
X79221568Y-81820800D01*
X79225040Y-81816944D01*
X79279078Y-81723348D01*
X79324548Y-81682408D01*
X79385396Y-81676012D01*
X79401436Y-81679421D01*
X79401438Y-81679421D01*
X79406513Y-81680500D01*
X79597487Y-81680500D01*
X79744083Y-81649340D01*
X79779217Y-81641872D01*
X79779218Y-81641872D01*
X79784288Y-81640794D01*
X79789022Y-81638686D01*
X79789026Y-81638685D01*
X79856277Y-81608742D01*
X79958752Y-81563118D01*
X80113253Y-81450866D01*
X80116719Y-81447017D01*
X80116723Y-81447013D01*
X80237568Y-81312800D01*
X80241040Y-81308944D01*
X80276693Y-81247192D01*
X80333933Y-81148050D01*
X80333935Y-81148045D01*
X80336527Y-81143556D01*
X80389258Y-80981268D01*
X80393940Y-80966860D01*
X80393941Y-80966855D01*
X80395542Y-80961928D01*
X80415504Y-80772000D01*
X80395542Y-80582072D01*
X80393941Y-80577145D01*
X80393940Y-80577140D01*
X80351794Y-80447431D01*
X80336527Y-80400444D01*
X80333935Y-80395955D01*
X80333933Y-80395950D01*
X80283612Y-80308793D01*
X80278705Y-80300293D01*
X80265983Y-80240446D01*
X80290869Y-80184550D01*
X80343857Y-80153957D01*
X80382229Y-80153405D01*
X80386310Y-80154150D01*
X80391169Y-80155562D01*
X80396211Y-80155959D01*
X80396212Y-80155959D01*
X80402892Y-80156485D01*
X80428498Y-80158500D01*
X80861502Y-80158500D01*
X80887108Y-80156485D01*
X80893788Y-80155959D01*
X80893789Y-80155959D01*
X80898831Y-80155562D01*
X81058601Y-80109145D01*
X81132107Y-80065674D01*
X81191817Y-80052327D01*
X81247970Y-80076627D01*
X81279116Y-80129292D01*
X81281500Y-80150888D01*
X81281500Y-81385589D01*
X81262593Y-81443780D01*
X81252503Y-81455593D01*
X81005591Y-81702504D01*
X80951075Y-81730281D01*
X80935588Y-81731500D01*
X80848516Y-81731500D01*
X80823371Y-81733479D01*
X80816789Y-81733997D01*
X80816788Y-81733997D01*
X80811746Y-81734394D01*
X80692527Y-81769030D01*
X80671772Y-81775060D01*
X80654403Y-81780106D01*
X80585593Y-81820800D01*
X80541055Y-81847140D01*
X80513371Y-81863512D01*
X80397512Y-81979371D01*
X80314106Y-82120403D01*
X80268394Y-82277746D01*
X80265500Y-82314516D01*
X80265500Y-82785484D01*
X80268394Y-82822254D01*
X80314106Y-82979597D01*
X80397512Y-83120629D01*
X80513371Y-83236488D01*
X80654403Y-83319894D01*
X80811746Y-83365606D01*
X80816788Y-83366003D01*
X80816789Y-83366003D01*
X80823371Y-83366521D01*
X80848516Y-83368500D01*
X80935587Y-83368500D01*
X80993778Y-83387407D01*
X81005591Y-83397496D01*
X81111661Y-83503566D01*
X81117938Y-83510466D01*
X81120664Y-83513761D01*
X81124000Y-83519018D01*
X81128536Y-83523277D01*
X81128538Y-83523280D01*
X81173930Y-83565905D01*
X81176164Y-83568069D01*
X81196230Y-83588135D01*
X81198686Y-83590040D01*
X81200436Y-83591398D01*
X81207523Y-83597451D01*
X81240679Y-83628586D01*
X81246134Y-83631585D01*
X81260290Y-83639368D01*
X81273273Y-83647896D01*
X81286036Y-83657796D01*
X81286039Y-83657798D01*
X81290959Y-83661614D01*
X81296679Y-83664089D01*
X81296682Y-83664091D01*
X81332706Y-83679681D01*
X81341080Y-83683783D01*
X81375482Y-83702695D01*
X81375485Y-83702696D01*
X81380940Y-83705695D01*
X81386966Y-83707242D01*
X81386973Y-83707245D01*
X81402622Y-83711263D01*
X81417315Y-83716293D01*
X81432140Y-83722708D01*
X81437855Y-83725181D01*
X81472666Y-83730695D01*
X81482780Y-83732297D01*
X81491910Y-83734188D01*
X81529940Y-83743952D01*
X81529941Y-83743952D01*
X81535970Y-83745500D01*
X81558351Y-83745500D01*
X81573838Y-83746719D01*
X81589791Y-83749246D01*
X81589794Y-83749246D01*
X81595943Y-83750220D01*
X81641231Y-83745939D01*
X81650548Y-83745500D01*
X87507789Y-83745500D01*
X87565980Y-83764407D01*
X87601944Y-83813907D01*
X87601944Y-83875093D01*
X87593529Y-83893993D01*
X87557473Y-83956444D01*
X87555871Y-83961375D01*
X87500060Y-84133140D01*
X87500059Y-84133145D01*
X87498458Y-84138072D01*
X87478496Y-84328000D01*
X87498458Y-84517928D01*
X87500059Y-84522855D01*
X87500060Y-84522860D01*
X87517556Y-84576705D01*
X87557473Y-84699556D01*
X87560065Y-84704045D01*
X87560067Y-84704050D01*
X87605701Y-84783089D01*
X87652960Y-84864944D01*
X87656432Y-84868800D01*
X87777277Y-85003013D01*
X87777281Y-85003017D01*
X87780747Y-85006866D01*
X87935248Y-85119118D01*
X88037723Y-85164742D01*
X88104974Y-85194685D01*
X88104978Y-85194686D01*
X88109712Y-85196794D01*
X88114782Y-85197872D01*
X88114783Y-85197872D01*
X88149917Y-85205340D01*
X88296513Y-85236500D01*
X88487487Y-85236500D01*
X88634083Y-85205340D01*
X88669217Y-85197872D01*
X88669218Y-85197872D01*
X88674288Y-85196794D01*
X88679022Y-85194686D01*
X88679026Y-85194685D01*
X88746277Y-85164742D01*
X88848752Y-85119118D01*
X89003253Y-85006866D01*
X89006719Y-85003017D01*
X89006723Y-85003013D01*
X89127568Y-84868800D01*
X89131040Y-84864944D01*
X89169098Y-84799026D01*
X89214568Y-84758086D01*
X89275418Y-84751691D01*
X89314207Y-84769307D01*
X89329295Y-84780615D01*
X89465684Y-84831745D01*
X89471856Y-84832415D01*
X89471858Y-84832416D01*
X89507837Y-84836324D01*
X89527866Y-84838500D01*
X91624134Y-84838500D01*
X91644163Y-84836324D01*
X91680142Y-84832416D01*
X91680144Y-84832415D01*
X91686316Y-84831745D01*
X91773594Y-84799026D01*
X91816106Y-84783089D01*
X91816107Y-84783089D01*
X91822705Y-84780615D01*
X91939261Y-84693261D01*
X92026615Y-84576705D01*
X92077745Y-84440316D01*
X92084500Y-84378134D01*
X92084500Y-82781866D01*
X92077745Y-82719684D01*
X92026615Y-82583295D01*
X92022390Y-82577658D01*
X92022387Y-82577652D01*
X91956225Y-82489373D01*
X91936456Y-82431469D01*
X91956225Y-82370627D01*
X92022387Y-82282348D01*
X92022390Y-82282342D01*
X92026615Y-82276705D01*
X92031663Y-82263241D01*
X92075565Y-82146131D01*
X92077745Y-82140316D01*
X92078750Y-82131070D01*
X92084211Y-82080793D01*
X92084500Y-82078134D01*
X92084500Y-82012500D01*
X92103407Y-81954309D01*
X92152907Y-81918345D01*
X92183500Y-81913500D01*
X95268500Y-81913500D01*
X95326691Y-81932407D01*
X95362655Y-81981907D01*
X95367500Y-82012500D01*
X95367500Y-83228134D01*
X95374255Y-83290316D01*
X95376435Y-83296131D01*
X95403508Y-83368347D01*
X95425385Y-83426705D01*
X95512739Y-83543261D01*
X95629295Y-83630615D01*
X95635893Y-83633089D01*
X95635894Y-83633089D01*
X95675392Y-83647896D01*
X95765684Y-83681745D01*
X95771856Y-83682415D01*
X95771858Y-83682416D01*
X95807837Y-83686324D01*
X95827866Y-83688500D01*
X97924134Y-83688500D01*
X97944163Y-83686324D01*
X97980142Y-83682416D01*
X97980144Y-83682415D01*
X97986316Y-83681745D01*
X98076608Y-83647896D01*
X98116106Y-83633089D01*
X98116107Y-83633089D01*
X98122705Y-83630615D01*
X98239261Y-83543261D01*
X98326615Y-83426705D01*
X98348493Y-83368347D01*
X98375565Y-83296131D01*
X98377745Y-83290316D01*
X98384500Y-83228134D01*
X98384500Y-82114874D01*
X98403407Y-82056683D01*
X98452907Y-82020719D01*
X98514093Y-82020719D01*
X98553440Y-82044807D01*
X98618298Y-82109552D01*
X98623190Y-82112568D01*
X98623192Y-82112569D01*
X98759004Y-82196285D01*
X98759006Y-82196286D01*
X98763899Y-82199302D01*
X98769356Y-82201112D01*
X98769358Y-82201113D01*
X98921110Y-82251447D01*
X98921115Y-82251448D01*
X98926243Y-82253149D01*
X99027268Y-82263500D01*
X99574732Y-82263500D01*
X99677019Y-82252887D01*
X99682154Y-82251174D01*
X99682158Y-82251173D01*
X99833817Y-82200575D01*
X99833820Y-82200574D01*
X99839268Y-82198756D01*
X99984713Y-82108752D01*
X100105552Y-81987702D01*
X100109124Y-81981907D01*
X100192285Y-81846996D01*
X100192286Y-81846994D01*
X100195302Y-81842101D01*
X100197113Y-81836642D01*
X100247447Y-81684890D01*
X100247448Y-81684885D01*
X100249149Y-81679757D01*
X100259500Y-81578732D01*
X100259500Y-80981268D01*
X100248887Y-80878981D01*
X100247174Y-80873846D01*
X100247173Y-80873842D01*
X100196575Y-80722183D01*
X100196574Y-80722180D01*
X100194756Y-80716732D01*
X100104752Y-80571287D01*
X100080924Y-80547500D01*
X100031443Y-80498106D01*
X99983702Y-80450448D01*
X99933794Y-80419684D01*
X99842996Y-80363715D01*
X99842994Y-80363714D01*
X99838101Y-80360698D01*
X99832644Y-80358888D01*
X99832642Y-80358887D01*
X99680890Y-80308553D01*
X99680885Y-80308552D01*
X99675757Y-80306851D01*
X99574732Y-80296500D01*
X99284500Y-80296500D01*
X99226309Y-80277593D01*
X99190345Y-80228093D01*
X99185500Y-80197500D01*
X99185500Y-79686160D01*
X99204407Y-79627969D01*
X99210929Y-79619916D01*
X99225265Y-79603995D01*
X99291040Y-79530944D01*
X99322718Y-79476077D01*
X99383933Y-79370050D01*
X99383935Y-79370045D01*
X99386527Y-79365556D01*
X99418890Y-79265954D01*
X99443940Y-79188860D01*
X99443941Y-79188855D01*
X99445542Y-79183928D01*
X99465504Y-78994000D01*
X99445542Y-78804072D01*
X99443941Y-78799145D01*
X99443940Y-78799140D01*
X99394728Y-78647684D01*
X99386527Y-78622444D01*
X99383935Y-78617955D01*
X99383933Y-78617950D01*
X99293635Y-78461551D01*
X99291040Y-78457056D01*
X99280576Y-78445434D01*
X99166723Y-78318987D01*
X99166719Y-78318983D01*
X99163253Y-78315134D01*
X99008752Y-78202882D01*
X98894271Y-78151912D01*
X98839026Y-78127315D01*
X98839022Y-78127314D01*
X98834288Y-78125206D01*
X98829218Y-78124128D01*
X98829217Y-78124128D01*
X98763987Y-78110263D01*
X98647487Y-78085500D01*
X98456513Y-78085500D01*
X98340013Y-78110263D01*
X98274783Y-78124128D01*
X98274782Y-78124128D01*
X98269712Y-78125206D01*
X98264978Y-78127314D01*
X98264974Y-78127315D01*
X98209729Y-78151912D01*
X98095248Y-78202882D01*
X97940747Y-78315134D01*
X97937281Y-78318983D01*
X97937277Y-78318987D01*
X97823424Y-78445434D01*
X97812960Y-78457056D01*
X97810365Y-78461551D01*
X97720067Y-78617950D01*
X97720065Y-78617955D01*
X97717473Y-78622444D01*
X97686076Y-78719074D01*
X97658776Y-78803093D01*
X97622812Y-78852593D01*
X97564621Y-78871500D01*
X95827866Y-78871500D01*
X95807837Y-78873676D01*
X95771858Y-78877584D01*
X95771856Y-78877585D01*
X95765684Y-78878255D01*
X95629295Y-78929385D01*
X95512739Y-79016739D01*
X95425385Y-79133295D01*
X95422911Y-79139893D01*
X95422911Y-79139894D01*
X95404555Y-79188860D01*
X95374255Y-79269684D01*
X95367500Y-79331866D01*
X95367500Y-80547500D01*
X95348593Y-80605691D01*
X95299093Y-80641655D01*
X95268500Y-80646500D01*
X92183500Y-80646500D01*
X92125309Y-80627593D01*
X92089345Y-80578093D01*
X92084500Y-80547500D01*
X92084500Y-80481866D01*
X92077745Y-80419684D01*
X92032988Y-80300294D01*
X92029089Y-80289894D01*
X92029089Y-80289893D01*
X92026615Y-80283295D01*
X91939261Y-80166739D01*
X91822705Y-80079385D01*
X91686316Y-80028255D01*
X91680144Y-80027585D01*
X91680142Y-80027584D01*
X91644163Y-80023676D01*
X91624134Y-80021500D01*
X89527866Y-80021500D01*
X89507837Y-80023676D01*
X89471858Y-80027584D01*
X89471856Y-80027585D01*
X89465684Y-80028255D01*
X89329295Y-80079385D01*
X89212739Y-80166739D01*
X89125385Y-80283295D01*
X89122911Y-80289893D01*
X89122911Y-80289894D01*
X89119012Y-80300294D01*
X89074255Y-80419684D01*
X89067500Y-80481866D01*
X89067500Y-81851587D01*
X89048593Y-81909778D01*
X89038504Y-81921591D01*
X88510591Y-82449504D01*
X88456074Y-82477281D01*
X88440587Y-82478500D01*
X86293687Y-82478500D01*
X86235496Y-82459593D01*
X86199532Y-82410093D01*
X86199533Y-82348906D01*
X86205798Y-82329625D01*
X86241762Y-82280126D01*
X86299953Y-82261219D01*
X86310039Y-82261735D01*
X86327268Y-82263500D01*
X86874732Y-82263500D01*
X86977019Y-82252887D01*
X86982154Y-82251174D01*
X86982158Y-82251173D01*
X87133817Y-82200575D01*
X87133820Y-82200574D01*
X87139268Y-82198756D01*
X87284713Y-82108752D01*
X87405552Y-81987702D01*
X87409124Y-81981907D01*
X87492285Y-81846996D01*
X87492286Y-81846994D01*
X87495302Y-81842101D01*
X87497113Y-81836642D01*
X87547447Y-81684890D01*
X87547448Y-81684885D01*
X87549149Y-81679757D01*
X87559500Y-81578732D01*
X87559500Y-80981268D01*
X87548887Y-80878981D01*
X87547174Y-80873846D01*
X87547173Y-80873842D01*
X87496575Y-80722183D01*
X87496574Y-80722180D01*
X87494756Y-80716732D01*
X87404752Y-80571287D01*
X87380924Y-80547500D01*
X87331443Y-80498106D01*
X87283702Y-80450448D01*
X87233794Y-80419684D01*
X87142996Y-80363715D01*
X87142994Y-80363714D01*
X87138101Y-80360698D01*
X87132644Y-80358888D01*
X87132642Y-80358887D01*
X86980890Y-80308553D01*
X86980885Y-80308552D01*
X86975757Y-80306851D01*
X86874732Y-80296500D01*
X86554412Y-80296500D01*
X86496221Y-80277593D01*
X86484408Y-80267504D01*
X86164665Y-79947760D01*
X85832713Y-79615808D01*
X85822625Y-79603995D01*
X85813136Y-79590934D01*
X85813129Y-79590927D01*
X85809472Y-79585893D01*
X85804677Y-79581927D01*
X85804675Y-79581924D01*
X85774434Y-79556907D01*
X85767535Y-79550630D01*
X85757270Y-79540365D01*
X85757266Y-79540362D01*
X85375519Y-79158615D01*
X84990496Y-78773591D01*
X84962719Y-78719074D01*
X84961500Y-78703587D01*
X84961500Y-70437763D01*
X84961939Y-70428448D01*
X84962343Y-70424171D01*
X84963702Y-70418092D01*
X84961549Y-70349588D01*
X84961500Y-70346478D01*
X84961500Y-70318144D01*
X84960835Y-70312878D01*
X84960103Y-70303578D01*
X84959927Y-70297959D01*
X84958674Y-70258111D01*
X84952428Y-70236613D01*
X84949278Y-70221400D01*
X84947255Y-70205385D01*
X84947255Y-70205384D01*
X84946474Y-70199203D01*
X84929728Y-70156905D01*
X84926712Y-70148098D01*
X84925098Y-70142541D01*
X84914018Y-70104407D01*
X84902625Y-70085143D01*
X84895793Y-70071199D01*
X84887552Y-70050383D01*
X84860806Y-70013570D01*
X84855706Y-70005806D01*
X84832542Y-69966638D01*
X84816715Y-69950811D01*
X84806626Y-69938998D01*
X84804516Y-69936093D01*
X84793472Y-69920893D01*
X84788677Y-69916927D01*
X84788675Y-69916924D01*
X84758428Y-69891902D01*
X84751529Y-69885625D01*
X83054339Y-68188434D01*
X83048062Y-68181534D01*
X83045336Y-68178239D01*
X83042000Y-68172982D01*
X83037464Y-68168723D01*
X83037462Y-68168720D01*
X82992070Y-68126095D01*
X82989836Y-68123931D01*
X82969770Y-68103865D01*
X82965953Y-68100904D01*
X82965564Y-68100602D01*
X82958477Y-68094549D01*
X82940810Y-68077959D01*
X82925321Y-68063414D01*
X82918579Y-68059708D01*
X82905710Y-68052632D01*
X82892727Y-68044104D01*
X82879964Y-68034204D01*
X82879961Y-68034202D01*
X82875041Y-68030386D01*
X82869321Y-68027911D01*
X82869318Y-68027909D01*
X82833294Y-68012319D01*
X82824920Y-68008217D01*
X82790518Y-67989305D01*
X82790515Y-67989304D01*
X82785060Y-67986305D01*
X82779034Y-67984758D01*
X82779027Y-67984755D01*
X82763378Y-67980737D01*
X82748685Y-67975707D01*
X82733860Y-67969292D01*
X82733859Y-67969292D01*
X82728145Y-67966819D01*
X82683221Y-67959703D01*
X82674090Y-67957812D01*
X82636060Y-67948048D01*
X82636059Y-67948048D01*
X82630030Y-67946500D01*
X82607649Y-67946500D01*
X82592162Y-67945281D01*
X82576209Y-67942754D01*
X82576206Y-67942754D01*
X82570057Y-67941780D01*
X82533021Y-67945281D01*
X82524769Y-67946061D01*
X82515452Y-67946500D01*
X79507500Y-67946500D01*
X79449309Y-67927593D01*
X79413345Y-67878093D01*
X79408500Y-67847500D01*
X79408500Y-67029275D01*
X79427407Y-66971084D01*
X79455038Y-66945318D01*
X79469736Y-66936134D01*
X79595376Y-66857626D01*
X79599299Y-66853731D01*
X79599302Y-66853728D01*
X79720153Y-66733717D01*
X79720154Y-66733715D01*
X79724082Y-66729815D01*
X79799079Y-66611639D01*
X79818310Y-66581336D01*
X79818312Y-66581331D01*
X79821273Y-66576666D01*
X79882119Y-66405790D01*
X79883440Y-66394712D01*
X79902941Y-66231176D01*
X79902941Y-66231173D01*
X79903596Y-66225680D01*
X79884636Y-66045288D01*
X79836387Y-65903556D01*
X79827967Y-65878821D01*
X79827965Y-65878817D01*
X79826182Y-65873579D01*
X79823284Y-65868869D01*
X79823282Y-65868864D01*
X79734035Y-65723797D01*
X79731138Y-65719088D01*
X79718599Y-65706283D01*
X79639783Y-65625799D01*
X79604229Y-65589493D01*
X79451762Y-65491235D01*
X79281315Y-65429197D01*
X79141231Y-65411500D01*
X79044390Y-65411500D01*
X79019479Y-65414294D01*
X78915242Y-65425986D01*
X78915238Y-65425987D01*
X78909745Y-65426603D01*
X78904524Y-65428421D01*
X78904520Y-65428422D01*
X78814962Y-65459610D01*
X78738448Y-65486255D01*
X78584624Y-65582374D01*
X78580699Y-65586272D01*
X78580694Y-65586276D01*
X78558822Y-65607995D01*
X78504209Y-65635582D01*
X78443810Y-65625799D01*
X78419060Y-65607751D01*
X78132496Y-65321187D01*
X78104719Y-65266670D01*
X78103500Y-65251183D01*
X78103500Y-64192160D01*
X78122407Y-64133969D01*
X78128929Y-64125916D01*
X78138112Y-64115718D01*
X78209040Y-64036944D01*
X78243779Y-63976775D01*
X78301933Y-63876050D01*
X78301935Y-63876045D01*
X78304527Y-63871556D01*
X78336416Y-63773414D01*
X78361940Y-63694860D01*
X78361941Y-63694855D01*
X78363542Y-63689928D01*
X78383504Y-63500000D01*
X78363542Y-63310072D01*
X78361941Y-63305145D01*
X78361940Y-63305140D01*
X78321252Y-63179917D01*
X78304527Y-63128444D01*
X78301935Y-63123955D01*
X78301933Y-63123950D01*
X78211635Y-62967551D01*
X78209040Y-62963056D01*
X78122101Y-62866500D01*
X78084723Y-62824987D01*
X78084719Y-62824983D01*
X78081253Y-62821134D01*
X77926752Y-62708882D01*
X77824277Y-62663258D01*
X77757026Y-62633315D01*
X77757022Y-62633314D01*
X77752288Y-62631206D01*
X77747218Y-62630128D01*
X77747217Y-62630128D01*
X77706785Y-62621534D01*
X77565487Y-62591500D01*
X77374513Y-62591500D01*
X77233215Y-62621534D01*
X77192783Y-62630128D01*
X77192782Y-62630128D01*
X77187712Y-62631206D01*
X77182978Y-62633314D01*
X77182974Y-62633315D01*
X77115723Y-62663258D01*
X77013248Y-62708882D01*
X76858747Y-62821134D01*
X76855281Y-62824983D01*
X76855277Y-62824987D01*
X76817899Y-62866500D01*
X76730960Y-62963056D01*
X76728365Y-62967551D01*
X76638067Y-63123950D01*
X76638065Y-63123955D01*
X76635473Y-63128444D01*
X76618748Y-63179917D01*
X76578060Y-63305140D01*
X76578059Y-63305145D01*
X76576458Y-63310072D01*
X76556496Y-63500000D01*
X76576458Y-63689928D01*
X76578059Y-63694855D01*
X76578060Y-63694860D01*
X76603584Y-63773414D01*
X76635473Y-63871556D01*
X76638065Y-63876045D01*
X76638067Y-63876050D01*
X76658316Y-63911121D01*
X76679585Y-63947959D01*
X76691017Y-63967760D01*
X76703739Y-64027608D01*
X76678853Y-64083504D01*
X76625865Y-64114097D01*
X76617005Y-64115500D01*
X76612513Y-64115500D01*
X76517471Y-64135702D01*
X76430783Y-64154128D01*
X76430782Y-64154128D01*
X76425712Y-64155206D01*
X76420978Y-64157314D01*
X76420974Y-64157315D01*
X76368786Y-64180551D01*
X76251248Y-64232882D01*
X76096747Y-64345134D01*
X76093281Y-64348983D01*
X76093277Y-64348987D01*
X75983179Y-64471264D01*
X75968960Y-64487056D01*
X75966367Y-64491546D01*
X75966367Y-64491547D01*
X75914922Y-64580652D01*
X75869452Y-64621592D01*
X75808604Y-64627988D01*
X75792564Y-64624579D01*
X75792562Y-64624579D01*
X75787487Y-64623500D01*
X75596513Y-64623500D01*
X75449917Y-64654660D01*
X75414783Y-64662128D01*
X75414782Y-64662128D01*
X75409712Y-64663206D01*
X75404978Y-64665314D01*
X75404974Y-64665315D01*
X75239984Y-64738773D01*
X75239981Y-64738775D01*
X75235248Y-64740882D01*
X75231058Y-64743926D01*
X75226593Y-64746504D01*
X75166744Y-64759223D01*
X75110849Y-64734335D01*
X75080259Y-64681346D01*
X75078096Y-64660766D01*
X75078096Y-64409215D01*
X75097003Y-64351024D01*
X75136828Y-64318775D01*
X75198946Y-64291118D01*
X75353447Y-64178866D01*
X75356913Y-64175017D01*
X75356917Y-64175013D01*
X75477762Y-64040800D01*
X75481234Y-64036944D01*
X75515973Y-63976775D01*
X75574127Y-63876050D01*
X75574129Y-63876045D01*
X75576721Y-63871556D01*
X75608610Y-63773414D01*
X75634134Y-63694860D01*
X75634135Y-63694855D01*
X75635736Y-63689928D01*
X75655698Y-63500000D01*
X75635736Y-63310072D01*
X75634135Y-63305145D01*
X75634134Y-63305140D01*
X75593446Y-63179917D01*
X75576721Y-63128444D01*
X75574129Y-63123955D01*
X75574127Y-63123950D01*
X75483829Y-62967551D01*
X75481234Y-62963056D01*
X75394295Y-62866500D01*
X75356917Y-62824987D01*
X75356913Y-62824983D01*
X75353447Y-62821134D01*
X75198946Y-62708882D01*
X75096471Y-62663258D01*
X75029220Y-62633315D01*
X75029216Y-62633314D01*
X75024482Y-62631206D01*
X75019412Y-62630128D01*
X75019411Y-62630128D01*
X74978979Y-62621534D01*
X74837681Y-62591500D01*
X74646707Y-62591500D01*
X74505409Y-62621534D01*
X74464977Y-62630128D01*
X74464976Y-62630128D01*
X74459906Y-62631206D01*
X74455172Y-62633314D01*
X74455168Y-62633315D01*
X74387917Y-62663258D01*
X74285442Y-62708882D01*
X74130941Y-62821134D01*
X74127475Y-62824983D01*
X74127471Y-62824987D01*
X74090093Y-62866500D01*
X74003154Y-62963056D01*
X74000559Y-62967551D01*
X73910261Y-63123950D01*
X73910259Y-63123955D01*
X73907667Y-63128444D01*
X73890942Y-63179917D01*
X73850254Y-63305140D01*
X73850253Y-63305145D01*
X73848652Y-63310072D01*
X73828690Y-63500000D01*
X73829232Y-63505157D01*
X73836819Y-63577346D01*
X73833488Y-63614662D01*
X73831415Y-63619453D01*
X73830442Y-63625597D01*
X73830441Y-63625600D01*
X73824299Y-63664378D01*
X73822408Y-63673508D01*
X73819517Y-63684770D01*
X73811096Y-63717568D01*
X73811096Y-63739949D01*
X73809877Y-63755436D01*
X73806376Y-63777541D01*
X73806962Y-63783739D01*
X73810657Y-63822829D01*
X73811096Y-63832146D01*
X73811096Y-65401419D01*
X73792189Y-65459610D01*
X73742689Y-65495574D01*
X73681503Y-65495574D01*
X73673299Y-65492226D01*
X73671762Y-65491235D01*
X73666565Y-65489343D01*
X73666562Y-65489342D01*
X73584874Y-65459610D01*
X73501315Y-65429197D01*
X73361231Y-65411500D01*
X73264390Y-65411500D01*
X73239479Y-65414294D01*
X73135242Y-65425986D01*
X73135238Y-65425987D01*
X73129745Y-65426603D01*
X73124524Y-65428421D01*
X73124520Y-65428422D01*
X73034962Y-65459610D01*
X72958448Y-65486255D01*
X72915511Y-65513085D01*
X72809314Y-65579443D01*
X72809312Y-65579445D01*
X72804624Y-65582374D01*
X72800701Y-65586269D01*
X72800698Y-65586272D01*
X72679847Y-65706283D01*
X72675918Y-65710185D01*
X72668466Y-65721928D01*
X72581690Y-65858664D01*
X72581688Y-65858669D01*
X72578727Y-65863334D01*
X72517881Y-66034210D01*
X72517227Y-66039697D01*
X72517226Y-66039700D01*
X72514950Y-66058793D01*
X72496404Y-66214320D01*
X72515364Y-66394712D01*
X72517148Y-66399952D01*
X72517148Y-66399953D01*
X72569127Y-66552640D01*
X72573818Y-66566421D01*
X72576716Y-66571131D01*
X72576718Y-66571136D01*
X72647978Y-66686966D01*
X72668862Y-66720912D01*
X72672729Y-66724861D01*
X72672730Y-66724862D01*
X72697268Y-66749919D01*
X72795771Y-66850507D01*
X72800423Y-66853505D01*
X72946129Y-66947406D01*
X72984800Y-66994821D01*
X72991500Y-67030622D01*
X72991500Y-67908134D01*
X72992927Y-67921269D01*
X72996897Y-67957812D01*
X72998255Y-67970316D01*
X73000435Y-67976131D01*
X73038609Y-68077959D01*
X73049385Y-68106705D01*
X73136739Y-68223261D01*
X73253295Y-68310615D01*
X73308270Y-68331224D01*
X73320377Y-68335763D01*
X73368228Y-68373894D01*
X73384527Y-68432868D01*
X73363049Y-68490160D01*
X73355629Y-68498467D01*
X72861591Y-68992505D01*
X72807074Y-69020282D01*
X72791587Y-69021501D01*
X72700012Y-69021501D01*
X72698068Y-69021654D01*
X72698067Y-69021654D01*
X72668576Y-69023974D01*
X72668573Y-69023975D01*
X72663534Y-69024371D01*
X72658678Y-69025782D01*
X72658677Y-69025782D01*
X72513389Y-69067992D01*
X72513388Y-69067993D01*
X72507404Y-69069731D01*
X72442681Y-69108008D01*
X72372817Y-69149325D01*
X72372815Y-69149326D01*
X72367459Y-69152494D01*
X72252494Y-69267459D01*
X72249326Y-69272815D01*
X72249325Y-69272817D01*
X72233854Y-69298978D01*
X72169731Y-69407404D01*
X72167993Y-69413388D01*
X72167992Y-69413389D01*
X72153656Y-69462734D01*
X72124371Y-69563534D01*
X72121500Y-69600011D01*
X70508500Y-69600011D01*
X70508500Y-60607500D01*
X70527407Y-60549309D01*
X70576907Y-60513345D01*
X70607500Y-60508500D01*
X134520500Y-60508500D01*
X134578691Y-60527407D01*
G37*
%TD.AperFunction*%
%TA.AperFunction,Conductor*%
G36*
X131929761Y-96174880D02*
G01*
X131954061Y-96231033D01*
X131954500Y-96240350D01*
X131954500Y-99773586D01*
X131935593Y-99831777D01*
X131925504Y-99843590D01*
X125893419Y-105875674D01*
X125838902Y-105903451D01*
X125823415Y-105904670D01*
X125803868Y-105904670D01*
X125745677Y-105885763D01*
X125709713Y-105836263D01*
X125709713Y-105775077D01*
X125712404Y-105767784D01*
X125810546Y-105530848D01*
X125812033Y-105527258D01*
X125813571Y-105520854D01*
X125872069Y-105277191D01*
X125872975Y-105273418D01*
X125877291Y-105218587D01*
X125893152Y-105017044D01*
X125893457Y-105013169D01*
X125872975Y-104752920D01*
X125827294Y-104562646D01*
X125812940Y-104502857D01*
X125812939Y-104502854D01*
X125812033Y-104499080D01*
X125712132Y-104257898D01*
X125575732Y-104035313D01*
X125568993Y-104027422D01*
X125408726Y-103839773D01*
X125406192Y-103836806D01*
X125207685Y-103667266D01*
X124985100Y-103530866D01*
X124744573Y-103431236D01*
X124698049Y-103391500D01*
X124683765Y-103332006D01*
X124707180Y-103275478D01*
X124712456Y-103269769D01*
X131613395Y-96368830D01*
X131620295Y-96362553D01*
X131623590Y-96359827D01*
X131628847Y-96356491D01*
X131633106Y-96351955D01*
X131633109Y-96351953D01*
X131675734Y-96306561D01*
X131677898Y-96304327D01*
X131697964Y-96284261D01*
X131699948Y-96281703D01*
X131701227Y-96280055D01*
X131707280Y-96272968D01*
X131734155Y-96244348D01*
X131738415Y-96239812D01*
X131742121Y-96233070D01*
X131749197Y-96220201D01*
X131757725Y-96207218D01*
X131767629Y-96194449D01*
X131771443Y-96189532D01*
X131771860Y-96188568D01*
X131816182Y-96149492D01*
X131877096Y-96143734D01*
X131929761Y-96174880D01*
G37*
%TD.AperFunction*%
%TA.AperFunction,Conductor*%
G36*
X107414093Y-70410423D02*
G01*
X107419736Y-70419114D01*
X107464960Y-70497444D01*
X107468432Y-70501300D01*
X107589277Y-70635513D01*
X107589281Y-70635517D01*
X107592747Y-70639366D01*
X107747248Y-70751618D01*
X107849723Y-70797242D01*
X107916974Y-70827185D01*
X107916978Y-70827186D01*
X107921712Y-70829294D01*
X107926782Y-70830372D01*
X107926783Y-70830372D01*
X107961917Y-70837840D01*
X108108513Y-70869000D01*
X108175588Y-70869000D01*
X108233779Y-70887907D01*
X108245592Y-70897996D01*
X109327301Y-71979706D01*
X110383161Y-73035566D01*
X110389438Y-73042466D01*
X110392164Y-73045761D01*
X110395500Y-73051018D01*
X110400036Y-73055277D01*
X110400038Y-73055280D01*
X110445430Y-73097905D01*
X110447664Y-73100069D01*
X110467730Y-73120135D01*
X110470186Y-73122040D01*
X110471936Y-73123398D01*
X110479023Y-73129451D01*
X110512179Y-73160586D01*
X110517634Y-73163585D01*
X110531790Y-73171368D01*
X110544773Y-73179896D01*
X110557536Y-73189796D01*
X110557539Y-73189798D01*
X110562459Y-73193614D01*
X110568179Y-73196089D01*
X110568182Y-73196091D01*
X110604206Y-73211681D01*
X110612580Y-73215783D01*
X110646982Y-73234695D01*
X110646985Y-73234696D01*
X110652440Y-73237695D01*
X110658466Y-73239242D01*
X110658473Y-73239245D01*
X110674122Y-73243263D01*
X110688815Y-73248293D01*
X110703640Y-73254708D01*
X110709355Y-73257181D01*
X110744166Y-73262695D01*
X110754280Y-73264297D01*
X110763410Y-73266188D01*
X110801440Y-73275952D01*
X110801441Y-73275952D01*
X110807470Y-73277500D01*
X110829851Y-73277500D01*
X110845338Y-73278719D01*
X110861291Y-73281246D01*
X110861294Y-73281246D01*
X110867443Y-73282220D01*
X110912731Y-73277939D01*
X110922048Y-73277500D01*
X113713088Y-73277500D01*
X113771279Y-73296407D01*
X113783092Y-73306496D01*
X118569702Y-78093106D01*
X118597479Y-78147623D01*
X118587908Y-78208055D01*
X118544643Y-78251320D01*
X118484211Y-78260891D01*
X118476798Y-78259425D01*
X118472626Y-78258433D01*
X118466816Y-78256255D01*
X118404634Y-78249500D01*
X117408366Y-78249500D01*
X117388337Y-78251676D01*
X117352358Y-78255584D01*
X117352356Y-78255585D01*
X117346184Y-78256255D01*
X117340369Y-78258435D01*
X117306252Y-78271225D01*
X117245127Y-78273948D01*
X117236748Y-78271225D01*
X117202631Y-78258435D01*
X117196816Y-78256255D01*
X117190644Y-78255585D01*
X117190642Y-78255584D01*
X117154663Y-78251676D01*
X117134634Y-78249500D01*
X116138366Y-78249500D01*
X116118337Y-78251676D01*
X116082358Y-78255584D01*
X116082356Y-78255585D01*
X116076184Y-78256255D01*
X116070369Y-78258435D01*
X116036252Y-78271225D01*
X115975127Y-78273948D01*
X115966748Y-78271225D01*
X115932631Y-78258435D01*
X115926816Y-78256255D01*
X115920644Y-78255585D01*
X115920642Y-78255584D01*
X115884663Y-78251676D01*
X115864634Y-78249500D01*
X114868366Y-78249500D01*
X114848337Y-78251676D01*
X114812358Y-78255584D01*
X114812356Y-78255585D01*
X114806184Y-78256255D01*
X114800369Y-78258435D01*
X114766252Y-78271225D01*
X114705127Y-78273948D01*
X114696748Y-78271225D01*
X114662631Y-78258435D01*
X114656816Y-78256255D01*
X114650644Y-78255585D01*
X114650642Y-78255584D01*
X114614663Y-78251676D01*
X114594634Y-78249500D01*
X113598366Y-78249500D01*
X113578337Y-78251676D01*
X113542358Y-78255584D01*
X113542356Y-78255585D01*
X113536184Y-78256255D01*
X113530369Y-78258435D01*
X113496252Y-78271225D01*
X113435127Y-78273948D01*
X113426748Y-78271225D01*
X113392631Y-78258435D01*
X113386816Y-78256255D01*
X113380644Y-78255585D01*
X113380642Y-78255584D01*
X113344663Y-78251676D01*
X113324634Y-78249500D01*
X112328366Y-78249500D01*
X112308337Y-78251676D01*
X112272358Y-78255584D01*
X112272356Y-78255585D01*
X112266184Y-78256255D01*
X112260369Y-78258435D01*
X112226252Y-78271225D01*
X112165127Y-78273948D01*
X112156748Y-78271225D01*
X112122631Y-78258435D01*
X112116816Y-78256255D01*
X112110644Y-78255585D01*
X112110642Y-78255584D01*
X112074663Y-78251676D01*
X112054634Y-78249500D01*
X111058366Y-78249500D01*
X111038337Y-78251676D01*
X111002358Y-78255584D01*
X111002356Y-78255585D01*
X110996184Y-78256255D01*
X110990369Y-78258435D01*
X110956252Y-78271225D01*
X110895127Y-78273948D01*
X110886748Y-78271225D01*
X110852631Y-78258435D01*
X110846816Y-78256255D01*
X110840644Y-78255585D01*
X110840642Y-78255584D01*
X110804663Y-78251676D01*
X110784634Y-78249500D01*
X109788366Y-78249500D01*
X109768337Y-78251676D01*
X109732358Y-78255584D01*
X109732356Y-78255585D01*
X109726184Y-78256255D01*
X109589795Y-78307385D01*
X109473239Y-78394739D01*
X109385885Y-78511295D01*
X109334755Y-78647684D01*
X109328000Y-78709866D01*
X109328000Y-80306134D01*
X109330176Y-80326163D01*
X109333731Y-80358887D01*
X109334755Y-80368316D01*
X109385885Y-80504705D01*
X109473239Y-80621261D01*
X109589795Y-80708615D01*
X109596396Y-80711090D01*
X109601540Y-80713906D01*
X109643503Y-80758434D01*
X109653000Y-80800744D01*
X109653000Y-85973087D01*
X109634093Y-86031278D01*
X109624004Y-86043091D01*
X97907128Y-97759967D01*
X97852611Y-97787744D01*
X97792179Y-97778173D01*
X97748914Y-97734908D01*
X97738501Y-97698592D01*
X97726920Y-97566223D01*
X97726543Y-97561913D01*
X97667284Y-97340757D01*
X97665458Y-97336842D01*
X97664777Y-97334970D01*
X97662639Y-97273822D01*
X97687801Y-97231103D01*
X101508858Y-93410047D01*
X105366066Y-89552839D01*
X105372966Y-89546562D01*
X105376261Y-89543836D01*
X105381518Y-89540500D01*
X105385777Y-89535964D01*
X105385780Y-89535962D01*
X105428405Y-89490570D01*
X105430569Y-89488336D01*
X105450635Y-89468270D01*
X105452619Y-89465712D01*
X105453898Y-89464064D01*
X105459951Y-89456977D01*
X105486826Y-89428357D01*
X105491086Y-89423821D01*
X105501868Y-89404210D01*
X105510396Y-89391227D01*
X105520296Y-89378464D01*
X105520298Y-89378461D01*
X105524114Y-89373541D01*
X105526591Y-89367818D01*
X105542181Y-89331794D01*
X105546283Y-89323420D01*
X105565195Y-89289018D01*
X105565196Y-89289015D01*
X105568195Y-89283560D01*
X105569742Y-89277534D01*
X105569745Y-89277527D01*
X105573763Y-89261878D01*
X105578793Y-89247185D01*
X105585208Y-89232360D01*
X105585208Y-89232359D01*
X105587681Y-89226645D01*
X105594797Y-89181720D01*
X105596688Y-89172590D01*
X105606452Y-89134560D01*
X105606452Y-89134559D01*
X105608000Y-89128530D01*
X105608000Y-89106149D01*
X105609219Y-89090662D01*
X105611746Y-89074709D01*
X105611746Y-89074706D01*
X105612720Y-89068557D01*
X105608439Y-89023269D01*
X105608000Y-89013952D01*
X105608000Y-79315500D01*
X105626907Y-79257309D01*
X105676407Y-79221345D01*
X105707000Y-79216500D01*
X106774634Y-79216500D01*
X106794663Y-79214324D01*
X106830642Y-79210416D01*
X106830644Y-79210415D01*
X106836816Y-79209745D01*
X106973205Y-79158615D01*
X107089761Y-79071261D01*
X107177115Y-78954705D01*
X107228245Y-78818316D01*
X107229793Y-78804072D01*
X107234711Y-78758793D01*
X107235000Y-78756134D01*
X107235000Y-77759866D01*
X107228245Y-77697684D01*
X107213275Y-77657752D01*
X107210552Y-77596627D01*
X107213275Y-77588248D01*
X107226065Y-77554131D01*
X107228245Y-77548316D01*
X107235000Y-77486134D01*
X107235000Y-76489866D01*
X107228245Y-76427684D01*
X107213275Y-76387752D01*
X107210552Y-76326627D01*
X107213275Y-76318248D01*
X107226065Y-76284131D01*
X107228245Y-76278316D01*
X107235000Y-76216134D01*
X107235000Y-75219866D01*
X107229625Y-75170386D01*
X107228916Y-75163858D01*
X107228915Y-75163856D01*
X107228245Y-75157684D01*
X107213275Y-75117752D01*
X107210552Y-75056627D01*
X107213275Y-75048248D01*
X107226065Y-75014131D01*
X107228245Y-75008316D01*
X107235000Y-74946134D01*
X107235000Y-73949866D01*
X107232824Y-73929837D01*
X107228916Y-73893858D01*
X107228915Y-73893856D01*
X107228245Y-73887684D01*
X107213275Y-73847752D01*
X107210552Y-73786627D01*
X107213275Y-73778248D01*
X107225330Y-73746093D01*
X107228245Y-73738316D01*
X107229221Y-73729338D01*
X107234711Y-73678793D01*
X107235000Y-73676134D01*
X107235000Y-72679866D01*
X107230278Y-72636399D01*
X107228916Y-72623858D01*
X107228915Y-72623856D01*
X107228245Y-72617684D01*
X107213275Y-72577752D01*
X107210552Y-72516627D01*
X107213275Y-72508248D01*
X107226065Y-72474131D01*
X107228245Y-72468316D01*
X107229367Y-72457993D01*
X107234711Y-72408793D01*
X107235000Y-72406134D01*
X107235000Y-71409866D01*
X107231634Y-71378879D01*
X107228916Y-71353858D01*
X107228915Y-71353856D01*
X107228245Y-71347684D01*
X107213275Y-71307752D01*
X107210552Y-71246627D01*
X107213275Y-71238248D01*
X107226065Y-71204131D01*
X107228245Y-71198316D01*
X107235000Y-71136134D01*
X107235000Y-70468614D01*
X107253907Y-70410423D01*
X107303407Y-70374459D01*
X107364593Y-70374459D01*
X107414093Y-70410423D01*
G37*
%TD.AperFunction*%
%TA.AperFunction,Conductor*%
G36*
X104677191Y-63136407D02*
G01*
X104713155Y-63185907D01*
X104718000Y-63216500D01*
X104718000Y-63516134D01*
X104724755Y-63578316D01*
X104726935Y-63584131D01*
X104739725Y-63618248D01*
X104742448Y-63679373D01*
X104739725Y-63687751D01*
X104724755Y-63727684D01*
X104724085Y-63733856D01*
X104724084Y-63733858D01*
X104722332Y-63749989D01*
X104718000Y-63789866D01*
X104718000Y-64175587D01*
X104699093Y-64233778D01*
X104689004Y-64245591D01*
X101445434Y-67489161D01*
X101438534Y-67495438D01*
X101435239Y-67498164D01*
X101429982Y-67501500D01*
X101425723Y-67506036D01*
X101425720Y-67506038D01*
X101383095Y-67551430D01*
X101380931Y-67553664D01*
X101360865Y-67573730D01*
X101358960Y-67576186D01*
X101357602Y-67577936D01*
X101351549Y-67585023D01*
X101349060Y-67587674D01*
X101320415Y-67618178D01*
X101320323Y-67618091D01*
X101305379Y-67633513D01*
X101301733Y-67636341D01*
X101296371Y-67639512D01*
X101180512Y-67755371D01*
X101097106Y-67896403D01*
X101051394Y-68053746D01*
X101048500Y-68090516D01*
X101048500Y-68159361D01*
X101029593Y-68217552D01*
X100980093Y-68253516D01*
X100970086Y-68256197D01*
X100882102Y-68274899D01*
X100823552Y-68287344D01*
X100823551Y-68287344D01*
X100818481Y-68288422D01*
X100813747Y-68290530D01*
X100813743Y-68290531D01*
X100746492Y-68320474D01*
X100644017Y-68366098D01*
X100489516Y-68478350D01*
X100486050Y-68482199D01*
X100486046Y-68482203D01*
X100383463Y-68596134D01*
X100361729Y-68620272D01*
X100359134Y-68624767D01*
X100268836Y-68781166D01*
X100268834Y-68781171D01*
X100266242Y-68785660D01*
X100249517Y-68837133D01*
X100208829Y-68962356D01*
X100208828Y-68962361D01*
X100207227Y-68967288D01*
X100187265Y-69157216D01*
X100207227Y-69347144D01*
X100208828Y-69352071D01*
X100208829Y-69352076D01*
X100226807Y-69407404D01*
X100266242Y-69528772D01*
X100268834Y-69533261D01*
X100268836Y-69533266D01*
X100320889Y-69623423D01*
X100361729Y-69694160D01*
X100365201Y-69698016D01*
X100486046Y-69832229D01*
X100486050Y-69832233D01*
X100489516Y-69836082D01*
X100644017Y-69948334D01*
X100729286Y-69986298D01*
X100813743Y-70023901D01*
X100813747Y-70023902D01*
X100818481Y-70026010D01*
X100823551Y-70027088D01*
X100823552Y-70027088D01*
X100858686Y-70034556D01*
X101005282Y-70065716D01*
X101196256Y-70065716D01*
X101342852Y-70034556D01*
X101377986Y-70027088D01*
X101377987Y-70027088D01*
X101383057Y-70026010D01*
X101387791Y-70023902D01*
X101387795Y-70023901D01*
X101472252Y-69986298D01*
X101557521Y-69948334D01*
X101712022Y-69836082D01*
X101715488Y-69832233D01*
X101715492Y-69832229D01*
X101836337Y-69698016D01*
X101839809Y-69694160D01*
X101880649Y-69623423D01*
X101932702Y-69533266D01*
X101932704Y-69533261D01*
X101935296Y-69528772D01*
X101974731Y-69407404D01*
X101992709Y-69352076D01*
X101992710Y-69352071D01*
X101994311Y-69347144D01*
X102001196Y-69281634D01*
X102006982Y-69226589D01*
X102031869Y-69170693D01*
X102079911Y-69143868D01*
X102079254Y-69141606D01*
X102230615Y-69097632D01*
X102230616Y-69097632D01*
X102236597Y-69095894D01*
X102377629Y-69012488D01*
X102493488Y-68896629D01*
X102576894Y-68755597D01*
X102622606Y-68598254D01*
X102625500Y-68561484D01*
X102625500Y-68141912D01*
X102644407Y-68083721D01*
X102654496Y-68071908D01*
X104561606Y-66164798D01*
X104616123Y-66137021D01*
X104676555Y-66146592D01*
X104719820Y-66189857D01*
X104729391Y-66250289D01*
X104727925Y-66257702D01*
X104726933Y-66261874D01*
X104724755Y-66267684D01*
X104718000Y-66329866D01*
X104718000Y-67326134D01*
X104718289Y-67328793D01*
X104721078Y-67354464D01*
X104724755Y-67388316D01*
X104727671Y-67396093D01*
X104739725Y-67428248D01*
X104742448Y-67489373D01*
X104739725Y-67497751D01*
X104724755Y-67537684D01*
X104724085Y-67543856D01*
X104724084Y-67543858D01*
X104720839Y-67573730D01*
X104718000Y-67599866D01*
X104718000Y-68596134D01*
X104724755Y-68658316D01*
X104726935Y-68664131D01*
X104739725Y-68698248D01*
X104742448Y-68759373D01*
X104739725Y-68767751D01*
X104724755Y-68807684D01*
X104724085Y-68813856D01*
X104724084Y-68813858D01*
X104721115Y-68841192D01*
X104718000Y-68869866D01*
X104718000Y-69866134D01*
X104718289Y-69868793D01*
X104721115Y-69894808D01*
X104708603Y-69954700D01*
X104663276Y-69995800D01*
X104622694Y-70004500D01*
X103177763Y-70004500D01*
X103168448Y-70004061D01*
X103164171Y-70003657D01*
X103158092Y-70002298D01*
X103090097Y-70004435D01*
X103089588Y-70004451D01*
X103086478Y-70004500D01*
X103058144Y-70004500D01*
X103055056Y-70004890D01*
X103052878Y-70005165D01*
X103043583Y-70005897D01*
X103027079Y-70006415D01*
X103004336Y-70007130D01*
X103004333Y-70007130D01*
X102998111Y-70007326D01*
X102976608Y-70013573D01*
X102961401Y-70016722D01*
X102958193Y-70017127D01*
X102945382Y-70018745D01*
X102945379Y-70018746D01*
X102939203Y-70019526D01*
X102933418Y-70021817D01*
X102933416Y-70021817D01*
X102920783Y-70026819D01*
X102899856Y-70035105D01*
X102896916Y-70036269D01*
X102888090Y-70039290D01*
X102850391Y-70050242D01*
X102850387Y-70050244D01*
X102844407Y-70051981D01*
X102839045Y-70055152D01*
X102825137Y-70063377D01*
X102811190Y-70070209D01*
X102790383Y-70078448D01*
X102754517Y-70104506D01*
X102753580Y-70105187D01*
X102745784Y-70110307D01*
X102706638Y-70133458D01*
X102690811Y-70149285D01*
X102678999Y-70159373D01*
X102660893Y-70172528D01*
X102656927Y-70177323D01*
X102656924Y-70177325D01*
X102631902Y-70207572D01*
X102625625Y-70214471D01*
X101895591Y-70944504D01*
X101841074Y-70972281D01*
X101825587Y-70973500D01*
X101758513Y-70973500D01*
X101611917Y-71004660D01*
X101576783Y-71012128D01*
X101576782Y-71012128D01*
X101571712Y-71013206D01*
X101566978Y-71015314D01*
X101566974Y-71015315D01*
X101499723Y-71045258D01*
X101397248Y-71090882D01*
X101242747Y-71203134D01*
X101239281Y-71206983D01*
X101239277Y-71206987D01*
X101140847Y-71316305D01*
X101114960Y-71345056D01*
X101112365Y-71349551D01*
X101022067Y-71505950D01*
X101022065Y-71505955D01*
X101019473Y-71510444D01*
X101017871Y-71515375D01*
X100962060Y-71687140D01*
X100962059Y-71687145D01*
X100960458Y-71692072D01*
X100940496Y-71882000D01*
X100941038Y-71887157D01*
X100941038Y-71887162D01*
X100942325Y-71899404D01*
X100929606Y-71959253D01*
X100884137Y-72000195D01*
X100823287Y-72006592D01*
X100773864Y-71979759D01*
X98200496Y-69406391D01*
X98172719Y-69351874D01*
X98171500Y-69336387D01*
X98171500Y-68959220D01*
X98188274Y-68910178D01*
X98185506Y-68908541D01*
X98245152Y-68807684D01*
X98268269Y-68768596D01*
X98270488Y-68760960D01*
X98307625Y-68633131D01*
X98313629Y-68612466D01*
X98316500Y-68575989D01*
X98316499Y-68076012D01*
X98314365Y-68048887D01*
X98314026Y-68044576D01*
X98314025Y-68044573D01*
X98313629Y-68039534D01*
X98312217Y-68034675D01*
X98270008Y-67889389D01*
X98270007Y-67889388D01*
X98268269Y-67883404D01*
X98185506Y-67743459D01*
X98188274Y-67741822D01*
X98171500Y-67692780D01*
X98171500Y-67609412D01*
X98190407Y-67551221D01*
X98200496Y-67539408D01*
X98207556Y-67532348D01*
X98214454Y-67526072D01*
X98217760Y-67523337D01*
X98223018Y-67520000D01*
X98269921Y-67470053D01*
X98272084Y-67467820D01*
X98292134Y-67447770D01*
X98294029Y-67445327D01*
X98294035Y-67445320D01*
X98295387Y-67443576D01*
X98301450Y-67436477D01*
X98305608Y-67432050D01*
X98314458Y-67422625D01*
X98328325Y-67407859D01*
X98328327Y-67407857D01*
X98332586Y-67403321D01*
X98343370Y-67383705D01*
X98351901Y-67370718D01*
X98361794Y-67357964D01*
X98365613Y-67353041D01*
X98383675Y-67311304D01*
X98387777Y-67302931D01*
X98406695Y-67268518D01*
X98406696Y-67268515D01*
X98409695Y-67263060D01*
X98415262Y-67241378D01*
X98420295Y-67226680D01*
X98426705Y-67211867D01*
X98426705Y-67211866D01*
X98429181Y-67206145D01*
X98431226Y-67193237D01*
X98436295Y-67161229D01*
X98438186Y-67152096D01*
X98447952Y-67114058D01*
X98449500Y-67108030D01*
X98449500Y-67085642D01*
X98450719Y-67070155D01*
X98453245Y-67054208D01*
X98453245Y-67054206D01*
X98454219Y-67048057D01*
X98449939Y-67002776D01*
X98449500Y-66993460D01*
X98449500Y-64414984D01*
X98468407Y-64356793D01*
X98490818Y-64335987D01*
X98490314Y-64335352D01*
X98494824Y-64331777D01*
X98499713Y-64328752D01*
X98548112Y-64280269D01*
X98600995Y-64227293D01*
X98620552Y-64207702D01*
X98629550Y-64193105D01*
X98637289Y-64180551D01*
X98683919Y-64140937D01*
X98721564Y-64133500D01*
X98980238Y-64133500D01*
X98989552Y-64133939D01*
X98993831Y-64134343D01*
X98999909Y-64135702D01*
X99068399Y-64133549D01*
X99071510Y-64133500D01*
X100468375Y-64133500D01*
X100526566Y-64152407D01*
X100538379Y-64162496D01*
X100562371Y-64186488D01*
X100567735Y-64189660D01*
X100567736Y-64189661D01*
X100591685Y-64203824D01*
X100703403Y-64269894D01*
X100860746Y-64315606D01*
X100865788Y-64316003D01*
X100865789Y-64316003D01*
X100872371Y-64316521D01*
X100897516Y-64318500D01*
X101308484Y-64318500D01*
X101333629Y-64316521D01*
X101340211Y-64316003D01*
X101340212Y-64316003D01*
X101345254Y-64315606D01*
X101502597Y-64269894D01*
X101614315Y-64203824D01*
X101638264Y-64189661D01*
X101638265Y-64189660D01*
X101643629Y-64186488D01*
X101759488Y-64070629D01*
X101842894Y-63929597D01*
X101888606Y-63772254D01*
X101891500Y-63735484D01*
X101891500Y-63264516D01*
X101888606Y-63227746D01*
X101890171Y-63227623D01*
X101897424Y-63173641D01*
X101939660Y-63129371D01*
X101986666Y-63117500D01*
X104619000Y-63117500D01*
X104677191Y-63136407D01*
G37*
%TD.AperFunction*%
%TA.AperFunction,Conductor*%
G36*
X77723704Y-69221608D02*
G01*
X78235652Y-69733556D01*
X78241928Y-69740454D01*
X78244663Y-69743760D01*
X78248000Y-69749018D01*
X78252540Y-69753281D01*
X78297946Y-69795920D01*
X78300180Y-69798084D01*
X78320230Y-69818134D01*
X78322673Y-69820029D01*
X78322680Y-69820035D01*
X78324424Y-69821387D01*
X78331523Y-69827450D01*
X78360141Y-69854325D01*
X78360143Y-69854327D01*
X78364679Y-69858586D01*
X78370136Y-69861586D01*
X78384295Y-69869370D01*
X78397280Y-69877900D01*
X78414959Y-69891613D01*
X78420676Y-69894087D01*
X78456696Y-69909675D01*
X78465069Y-69913777D01*
X78499482Y-69932695D01*
X78499485Y-69932696D01*
X78504940Y-69935695D01*
X78510969Y-69937243D01*
X78526622Y-69941262D01*
X78541320Y-69946295D01*
X78556133Y-69952705D01*
X78561855Y-69955181D01*
X78568009Y-69956156D01*
X78568010Y-69956156D01*
X78595438Y-69960500D01*
X78606424Y-69962240D01*
X78606771Y-69962295D01*
X78615904Y-69964186D01*
X78659970Y-69975500D01*
X78682358Y-69975500D01*
X78697845Y-69976719D01*
X78713792Y-69979245D01*
X78713794Y-69979245D01*
X78719943Y-69980219D01*
X78765223Y-69975939D01*
X78774540Y-69975500D01*
X78862445Y-69975500D01*
X78920636Y-69994407D01*
X78932449Y-70004496D01*
X78967459Y-70039506D01*
X78972815Y-70042674D01*
X78972817Y-70042675D01*
X78985851Y-70050383D01*
X79107404Y-70122269D01*
X79113388Y-70124007D01*
X79113389Y-70124008D01*
X79156270Y-70136466D01*
X79263534Y-70167629D01*
X79268576Y-70168026D01*
X79268577Y-70168026D01*
X79273628Y-70168423D01*
X79300011Y-70170500D01*
X79499846Y-70170500D01*
X79699988Y-70170499D01*
X79701933Y-70170346D01*
X79731424Y-70168026D01*
X79731427Y-70168025D01*
X79736466Y-70167629D01*
X79741326Y-70166217D01*
X79886611Y-70124008D01*
X79886612Y-70124007D01*
X79892596Y-70122269D01*
X80014149Y-70050383D01*
X80027183Y-70042675D01*
X80027185Y-70042674D01*
X80032541Y-70039506D01*
X80147506Y-69924541D01*
X80165517Y-69894087D01*
X80186512Y-69858586D01*
X80230269Y-69784596D01*
X80234344Y-69770572D01*
X80274217Y-69633325D01*
X80275629Y-69628466D01*
X80278500Y-69591989D01*
X80278499Y-69312499D01*
X80297406Y-69254310D01*
X80346906Y-69218346D01*
X80377499Y-69213500D01*
X82246588Y-69213500D01*
X82304779Y-69232407D01*
X82316592Y-69242496D01*
X83665504Y-70591408D01*
X83693281Y-70645925D01*
X83694500Y-70661412D01*
X83694500Y-78927238D01*
X83694061Y-78936552D01*
X83693657Y-78940831D01*
X83692298Y-78946909D01*
X83693363Y-78980798D01*
X83694451Y-79015399D01*
X83694500Y-79018510D01*
X83694500Y-79046856D01*
X83694890Y-79049942D01*
X83694890Y-79049945D01*
X83695166Y-79052131D01*
X83695898Y-79061426D01*
X83697327Y-79106889D01*
X83703573Y-79128387D01*
X83706719Y-79143579D01*
X83709526Y-79165797D01*
X83711818Y-79171586D01*
X83726274Y-79208097D01*
X83729293Y-79216917D01*
X83741982Y-79260593D01*
X83745150Y-79265950D01*
X83745152Y-79265954D01*
X83753375Y-79279857D01*
X83760207Y-79293801D01*
X83768448Y-79314617D01*
X83795194Y-79351430D01*
X83800294Y-79359194D01*
X83823458Y-79398362D01*
X83839285Y-79414189D01*
X83849373Y-79426001D01*
X83862528Y-79444107D01*
X83867323Y-79448073D01*
X83867325Y-79448076D01*
X83897572Y-79473098D01*
X83904471Y-79479375D01*
X84681504Y-80256408D01*
X84709281Y-80310925D01*
X84710500Y-80326412D01*
X84710500Y-81349840D01*
X84691593Y-81408031D01*
X84685073Y-81416082D01*
X84604960Y-81505056D01*
X84602365Y-81509551D01*
X84512067Y-81665950D01*
X84512065Y-81665955D01*
X84509473Y-81670444D01*
X84507871Y-81675375D01*
X84452060Y-81847140D01*
X84452059Y-81847145D01*
X84450458Y-81852072D01*
X84430496Y-82042000D01*
X84450458Y-82231928D01*
X84452059Y-82236855D01*
X84452060Y-82236860D01*
X84488467Y-82348907D01*
X84488467Y-82410093D01*
X84452503Y-82459593D01*
X84394312Y-82478500D01*
X82260413Y-82478500D01*
X82202222Y-82459593D01*
X82166258Y-82410093D01*
X82166258Y-82348907D01*
X82190409Y-82309496D01*
X82306566Y-82193339D01*
X82313466Y-82187062D01*
X82316761Y-82184336D01*
X82322018Y-82181000D01*
X82326277Y-82176464D01*
X82326280Y-82176462D01*
X82368905Y-82131070D01*
X82371069Y-82128836D01*
X82391135Y-82108770D01*
X82393677Y-82105493D01*
X82394398Y-82104564D01*
X82400451Y-82097477D01*
X82421127Y-82075459D01*
X82431586Y-82064321D01*
X82435785Y-82056683D01*
X82442368Y-82044710D01*
X82450896Y-82031727D01*
X82460796Y-82018964D01*
X82460798Y-82018961D01*
X82464614Y-82014041D01*
X82467091Y-82008318D01*
X82482681Y-81972294D01*
X82486783Y-81963920D01*
X82505695Y-81929518D01*
X82505696Y-81929515D01*
X82508695Y-81924060D01*
X82510242Y-81918034D01*
X82510245Y-81918027D01*
X82514263Y-81902378D01*
X82519293Y-81887685D01*
X82525708Y-81872860D01*
X82525708Y-81872859D01*
X82528181Y-81867145D01*
X82535297Y-81822220D01*
X82537188Y-81813090D01*
X82546952Y-81775060D01*
X82546952Y-81775059D01*
X82548500Y-81769030D01*
X82548500Y-81746649D01*
X82549719Y-81731162D01*
X82552246Y-81715209D01*
X82552246Y-81715206D01*
X82553220Y-81709057D01*
X82548939Y-81663769D01*
X82548500Y-81654452D01*
X82548500Y-79988768D01*
X82567407Y-79930577D01*
X82577496Y-79918764D01*
X82589453Y-79906807D01*
X82674145Y-79763601D01*
X82720562Y-79603831D01*
X82723500Y-79566502D01*
X82723500Y-77783498D01*
X82720562Y-77746169D01*
X82684343Y-77621500D01*
X82675883Y-77592381D01*
X82675883Y-77592380D01*
X82674145Y-77586399D01*
X82589453Y-77443193D01*
X82471807Y-77325547D01*
X82328601Y-77240855D01*
X82168831Y-77194438D01*
X82163789Y-77194041D01*
X82163788Y-77194041D01*
X82157108Y-77193515D01*
X82131502Y-77191500D01*
X81698498Y-77191500D01*
X81663263Y-77194273D01*
X81663261Y-77194273D01*
X81661169Y-77194438D01*
X81661134Y-77193988D01*
X81603585Y-77186257D01*
X81576437Y-77167018D01*
X80681561Y-76272142D01*
X79736468Y-75327050D01*
X79708691Y-75272533D01*
X79718262Y-75212101D01*
X79761527Y-75168836D01*
X79778851Y-75161978D01*
X79788601Y-75159145D01*
X79911437Y-75086500D01*
X79926442Y-75077626D01*
X79926443Y-75077625D01*
X79931807Y-75074453D01*
X79939996Y-75066264D01*
X79994513Y-75038487D01*
X80054945Y-75048058D01*
X80080004Y-75066264D01*
X80088193Y-75074453D01*
X80093557Y-75077625D01*
X80093558Y-75077626D01*
X80108563Y-75086500D01*
X80231399Y-75159145D01*
X80391169Y-75205562D01*
X80396211Y-75205959D01*
X80396212Y-75205959D01*
X80402892Y-75206485D01*
X80428498Y-75208500D01*
X80861502Y-75208500D01*
X80887108Y-75206485D01*
X80893788Y-75205959D01*
X80893789Y-75205959D01*
X80898831Y-75205562D01*
X81058601Y-75159145D01*
X81181437Y-75086500D01*
X81196442Y-75077626D01*
X81196443Y-75077625D01*
X81201807Y-75074453D01*
X81319453Y-74956807D01*
X81324193Y-74948793D01*
X81400973Y-74818964D01*
X81404145Y-74813601D01*
X81407307Y-74802719D01*
X81419225Y-74761695D01*
X81450562Y-74653831D01*
X81453500Y-74616502D01*
X81453500Y-73153412D01*
X81472407Y-73095221D01*
X81482496Y-73083408D01*
X81492408Y-73073496D01*
X81546925Y-73045719D01*
X81562412Y-73044500D01*
X81629487Y-73044500D01*
X81776083Y-73013340D01*
X81811217Y-73005872D01*
X81811218Y-73005872D01*
X81816288Y-73004794D01*
X81821022Y-73002686D01*
X81821026Y-73002685D01*
X81900874Y-72967134D01*
X81990752Y-72927118D01*
X82145253Y-72814866D01*
X82148719Y-72811017D01*
X82148723Y-72811013D01*
X82269568Y-72676800D01*
X82273040Y-72672944D01*
X82301380Y-72623858D01*
X82365933Y-72512050D01*
X82365935Y-72512045D01*
X82368527Y-72507556D01*
X82398346Y-72415783D01*
X82425940Y-72330860D01*
X82425941Y-72330855D01*
X82427542Y-72325928D01*
X82447504Y-72136000D01*
X82427542Y-71946072D01*
X82425941Y-71941145D01*
X82425940Y-71941140D01*
X82378814Y-71796105D01*
X82368527Y-71764444D01*
X82365935Y-71759955D01*
X82365933Y-71759950D01*
X82275635Y-71603551D01*
X82273040Y-71599056D01*
X82197699Y-71515381D01*
X82148723Y-71460987D01*
X82148719Y-71460983D01*
X82145253Y-71457134D01*
X81990752Y-71344882D01*
X81865178Y-71288973D01*
X81821026Y-71269315D01*
X81821022Y-71269314D01*
X81816288Y-71267206D01*
X81811218Y-71266128D01*
X81811217Y-71266128D01*
X81749755Y-71253064D01*
X81629487Y-71227500D01*
X81438513Y-71227500D01*
X81318245Y-71253064D01*
X81256783Y-71266128D01*
X81256782Y-71266128D01*
X81251712Y-71267206D01*
X81246978Y-71269314D01*
X81246974Y-71269315D01*
X81202822Y-71288973D01*
X81077248Y-71344882D01*
X80922747Y-71457134D01*
X80919281Y-71460983D01*
X80919277Y-71460987D01*
X80870301Y-71515381D01*
X80794960Y-71599056D01*
X80792365Y-71603551D01*
X80789317Y-71607746D01*
X80787716Y-71606583D01*
X80748289Y-71642091D01*
X80687439Y-71648493D01*
X80634448Y-71617905D01*
X80613859Y-71582248D01*
X80592132Y-71515381D01*
X80592129Y-71515374D01*
X80590527Y-71510444D01*
X80587935Y-71505955D01*
X80587933Y-71505950D01*
X80497635Y-71349551D01*
X80495040Y-71345056D01*
X80469153Y-71316305D01*
X80370723Y-71206987D01*
X80370719Y-71206983D01*
X80367253Y-71203134D01*
X80212752Y-71090882D01*
X80110277Y-71045258D01*
X80043026Y-71015315D01*
X80043022Y-71015314D01*
X80038288Y-71013206D01*
X80033218Y-71012128D01*
X80033217Y-71012128D01*
X79998083Y-71004660D01*
X79851487Y-70973500D01*
X79660513Y-70973500D01*
X79513917Y-71004660D01*
X79478783Y-71012128D01*
X79478782Y-71012128D01*
X79473712Y-71013206D01*
X79468978Y-71015314D01*
X79468974Y-71015315D01*
X79401723Y-71045258D01*
X79299248Y-71090882D01*
X79144747Y-71203134D01*
X79141281Y-71206983D01*
X79141277Y-71206987D01*
X79042847Y-71316305D01*
X79016960Y-71345056D01*
X79014365Y-71349551D01*
X78924067Y-71505950D01*
X78924065Y-71505955D01*
X78921473Y-71510444D01*
X78919871Y-71515375D01*
X78864060Y-71687140D01*
X78864059Y-71687145D01*
X78862458Y-71692072D01*
X78842496Y-71882000D01*
X78842689Y-71883836D01*
X78829252Y-71932954D01*
X78829200Y-71933041D01*
X78825386Y-71937959D01*
X78822914Y-71943671D01*
X78822910Y-71943678D01*
X78807319Y-71979706D01*
X78803217Y-71988080D01*
X78784305Y-72022482D01*
X78784304Y-72022485D01*
X78781305Y-72027940D01*
X78779758Y-72033966D01*
X78779755Y-72033973D01*
X78775737Y-72049622D01*
X78770707Y-72064315D01*
X78761819Y-72084855D01*
X78757380Y-72112879D01*
X78754703Y-72129780D01*
X78752812Y-72138910D01*
X78743048Y-72176940D01*
X78741500Y-72182970D01*
X78741500Y-72205351D01*
X78740281Y-72220838D01*
X78737925Y-72235716D01*
X78736780Y-72242943D01*
X78737366Y-72249139D01*
X78737345Y-72249797D01*
X78716617Y-72307365D01*
X78666010Y-72341754D01*
X78604855Y-72339830D01*
X78587999Y-72331897D01*
X78569184Y-72320770D01*
X78518601Y-72290855D01*
X78358831Y-72244438D01*
X78353789Y-72244041D01*
X78353788Y-72244041D01*
X78347108Y-72243515D01*
X78321502Y-72241500D01*
X77888498Y-72241500D01*
X77862892Y-72243515D01*
X77856212Y-72244041D01*
X77856211Y-72244041D01*
X77851169Y-72244438D01*
X77691399Y-72290855D01*
X77690790Y-72291215D01*
X77632107Y-72296765D01*
X77579441Y-72265621D01*
X77555140Y-72209468D01*
X77554700Y-72200148D01*
X77554700Y-69291612D01*
X77573607Y-69233421D01*
X77623107Y-69197457D01*
X77684293Y-69197457D01*
X77723704Y-69221608D01*
G37*
%TD.AperFunction*%
%TD*%
M02*
